%TF.GenerationSoftware,KiCad,Pcbnew,8.0.5-8.0.5-0~ubuntu24.04.1*%
%TF.CreationDate,2024-09-30T22:36:01+02:00*%
%TF.ProjectId,ESP32-C3_LED_driver_PCB,45535033-322d-4433-935f-4c45445f6472,v1.0*%
%TF.SameCoordinates,Original*%
%TF.FileFunction,Drillmap*%
%TF.FilePolarity,Positive*%
%FSLAX45Y45*%
G04 Gerber Fmt 4.5, Leading zero omitted, Abs format (unit mm)*
G04 Created by KiCad (PCBNEW 8.0.5-8.0.5-0~ubuntu24.04.1) date 2024-09-30 22:36:01*
%MOMM*%
%LPD*%
G01*
G04 APERTURE LIST*
%ADD10C,0.050000*%
%ADD11C,0.200000*%
%ADD12C,0.100000*%
%ADD13C,0.110000*%
%ADD14C,0.127000*%
%ADD15C,0.350000*%
G04 APERTURE END LIST*
D10*
X10050000Y-6700000D02*
X10050000Y-11450000D01*
X16150000Y-6050000D02*
X10700000Y-6050000D01*
X16800000Y-11450000D02*
X16800000Y-6700000D01*
X10700000Y-12100000D02*
X16150000Y-12100000D01*
X10050000Y-6700000D02*
G75*
G02*
X10700000Y-6050000I650000J0D01*
G01*
X10700000Y-12100000D02*
G75*
G02*
X10050000Y-11450000I0J650000D01*
G01*
X16800000Y-11450000D02*
G75*
G02*
X16150000Y-12100000I-650000J0D01*
G01*
X16150000Y-6050000D02*
G75*
G02*
X16800000Y-6700000I0J-650000D01*
G01*
D11*
D12*
X10235000Y-8675000D02*
X10265000Y-8705000D01*
X10265000Y-8675000D02*
X10235000Y-8705000D01*
X10305000Y-8345000D02*
X10335000Y-8375000D01*
X10335000Y-8345000D02*
X10305000Y-8375000D01*
X10375000Y-10995000D02*
X10405000Y-11025000D01*
X10405000Y-10995000D02*
X10375000Y-11025000D01*
X10385000Y-11095000D02*
X10415000Y-11125000D01*
X10415000Y-11095000D02*
X10385000Y-11125000D01*
X10395000Y-9340000D02*
X10425000Y-9370000D01*
X10425000Y-9340000D02*
X10395000Y-9370000D01*
X10545000Y-9215000D02*
X10575000Y-9245000D01*
X10575000Y-9215000D02*
X10545000Y-9245000D01*
X10560000Y-10435000D02*
X10590000Y-10465000D01*
X10590000Y-10435000D02*
X10560000Y-10465000D01*
X10560000Y-10535000D02*
X10590000Y-10565000D01*
X10590000Y-10535000D02*
X10560000Y-10565000D01*
X10560000Y-10635000D02*
X10590000Y-10665000D01*
X10590000Y-10635000D02*
X10560000Y-10665000D01*
X10560000Y-10735000D02*
X10590000Y-10765000D01*
X10590000Y-10735000D02*
X10560000Y-10765000D01*
X10585000Y-10815000D02*
X10615000Y-10845000D01*
X10615000Y-10815000D02*
X10585000Y-10845000D01*
X10595000Y-10185000D02*
X10625000Y-10215000D01*
X10625000Y-10185000D02*
X10595000Y-10215000D01*
X10685000Y-10845000D02*
X10715000Y-10875000D01*
X10715000Y-10845000D02*
X10685000Y-10875000D01*
X10745000Y-10025000D02*
X10775000Y-10055000D01*
X10775000Y-10025000D02*
X10745000Y-10055000D01*
X10760000Y-9185000D02*
X10790000Y-9215000D01*
X10790000Y-9185000D02*
X10760000Y-9215000D01*
X10795000Y-10845000D02*
X10825000Y-10875000D01*
X10825000Y-10845000D02*
X10795000Y-10875000D01*
X10855000Y-10155000D02*
X10885000Y-10185000D01*
X10885000Y-10155000D02*
X10855000Y-10185000D01*
X10885000Y-9015000D02*
X10915000Y-9045000D01*
X10915000Y-9015000D02*
X10885000Y-9045000D01*
X11025000Y-11045000D02*
X11055000Y-11075000D01*
X11055000Y-11045000D02*
X11025000Y-11075000D01*
X11125000Y-9625000D02*
X11155000Y-9655000D01*
X11155000Y-9625000D02*
X11125000Y-9655000D01*
X11145000Y-9465000D02*
X11175000Y-9495000D01*
X11175000Y-9465000D02*
X11145000Y-9495000D01*
X11275000Y-11630000D02*
X11305000Y-11660000D01*
X11305000Y-11630000D02*
X11275000Y-11660000D01*
X11360000Y-10610000D02*
X11390000Y-10640000D01*
X11390000Y-10610000D02*
X11360000Y-10640000D01*
X11385000Y-10920000D02*
X11415000Y-10950000D01*
X11415000Y-10920000D02*
X11385000Y-10950000D01*
X11520000Y-11645000D02*
X11550000Y-11675000D01*
X11550000Y-11645000D02*
X11520000Y-11675000D01*
X11755000Y-10005000D02*
X11785000Y-10035000D01*
X11785000Y-10005000D02*
X11755000Y-10035000D01*
X11875000Y-10045000D02*
X11905000Y-10075000D01*
X11905000Y-10045000D02*
X11875000Y-10075000D01*
X12345000Y-11075000D02*
X12375000Y-11105000D01*
X12375000Y-11075000D02*
X12345000Y-11105000D01*
X12365000Y-11525000D02*
X12395000Y-11555000D01*
X12395000Y-11525000D02*
X12365000Y-11555000D01*
X12395000Y-10640000D02*
X12425000Y-10670000D01*
X12425000Y-10640000D02*
X12395000Y-10670000D01*
X12480000Y-9880000D02*
X12510000Y-9910000D01*
X12510000Y-9880000D02*
X12480000Y-9910000D01*
X12575000Y-11275000D02*
X12605000Y-11305000D01*
X12605000Y-11275000D02*
X12575000Y-11305000D01*
X12685000Y-8665000D02*
X12715000Y-8695000D01*
X12715000Y-8665000D02*
X12685000Y-8695000D01*
X12690000Y-9850000D02*
X12720000Y-9880000D01*
X12720000Y-9850000D02*
X12690000Y-9880000D01*
X12745000Y-11525000D02*
X12775000Y-11555000D01*
X12775000Y-11525000D02*
X12745000Y-11555000D01*
X12985000Y-8285000D02*
X13015000Y-8315000D01*
X13015000Y-8285000D02*
X12985000Y-8315000D01*
X13175000Y-8655000D02*
X13205000Y-8685000D01*
X13205000Y-8655000D02*
X13175000Y-8685000D01*
X13310000Y-9060000D02*
X13340000Y-9090000D01*
X13340000Y-9060000D02*
X13310000Y-9090000D01*
X13355000Y-6955000D02*
X13385000Y-6985000D01*
X13385000Y-6955000D02*
X13355000Y-6985000D01*
X13385000Y-8860000D02*
X13415000Y-8890000D01*
X13415000Y-8860000D02*
X13385000Y-8890000D01*
X13485000Y-8610000D02*
X13515000Y-8640000D01*
X13515000Y-8610000D02*
X13485000Y-8640000D01*
X13510000Y-9475000D02*
X13540000Y-9505000D01*
X13540000Y-9475000D02*
X13510000Y-9505000D01*
X13525000Y-8970000D02*
X13555000Y-9000000D01*
X13555000Y-8970000D02*
X13525000Y-9000000D01*
X13545000Y-7715000D02*
X13575000Y-7745000D01*
X13575000Y-7715000D02*
X13545000Y-7745000D01*
X13580000Y-9885000D02*
X13610000Y-9915000D01*
X13610000Y-9885000D02*
X13580000Y-9915000D01*
X13610000Y-8755000D02*
X13640000Y-8785000D01*
X13640000Y-8755000D02*
X13610000Y-8785000D01*
X13610000Y-8880000D02*
X13640000Y-8910000D01*
X13640000Y-8880000D02*
X13610000Y-8910000D01*
X13630000Y-9410000D02*
X13660000Y-9440000D01*
X13660000Y-9410000D02*
X13630000Y-9440000D01*
X13670000Y-8980000D02*
X13700000Y-9010000D01*
X13700000Y-8980000D02*
X13670000Y-9010000D01*
X13715000Y-8305000D02*
X13745000Y-8335000D01*
X13745000Y-8305000D02*
X13715000Y-8335000D01*
X13780000Y-8940000D02*
X13810000Y-8970000D01*
X13810000Y-8940000D02*
X13780000Y-8970000D01*
X13830000Y-9850000D02*
X13860000Y-9880000D01*
X13860000Y-9850000D02*
X13830000Y-9880000D01*
X13835000Y-8725000D02*
X13865000Y-8755000D01*
X13865000Y-8725000D02*
X13835000Y-8755000D01*
X13845000Y-9555000D02*
X13875000Y-9585000D01*
X13875000Y-9555000D02*
X13845000Y-9585000D01*
X13895000Y-10855000D02*
X13925000Y-10885000D01*
X13925000Y-10855000D02*
X13895000Y-10885000D01*
X13910000Y-11070000D02*
X13940000Y-11100000D01*
X13940000Y-11070000D02*
X13910000Y-11100000D01*
X13925000Y-10380000D02*
X13955000Y-10410000D01*
X13955000Y-10380000D02*
X13925000Y-10410000D01*
X13935000Y-10560000D02*
X13965000Y-10590000D01*
X13965000Y-10560000D02*
X13935000Y-10590000D01*
X14020000Y-11155000D02*
X14050000Y-11185000D01*
X14050000Y-11155000D02*
X14020000Y-11185000D01*
X14025000Y-8895000D02*
X14055000Y-8925000D01*
X14055000Y-8895000D02*
X14025000Y-8925000D01*
X14130000Y-10270000D02*
X14160000Y-10300000D01*
X14160000Y-10270000D02*
X14130000Y-10300000D01*
X14135000Y-8235000D02*
X14165000Y-8265000D01*
X14165000Y-8235000D02*
X14135000Y-8265000D01*
X14205000Y-9605000D02*
X14235000Y-9635000D01*
X14235000Y-9605000D02*
X14205000Y-9635000D01*
X14225000Y-9855000D02*
X14255000Y-9885000D01*
X14255000Y-9855000D02*
X14225000Y-9885000D01*
X14265000Y-7480000D02*
X14295000Y-7510000D01*
X14295000Y-7480000D02*
X14265000Y-7510000D01*
X14305000Y-10105000D02*
X14335000Y-10135000D01*
X14335000Y-10105000D02*
X14305000Y-10135000D01*
X14310000Y-10650000D02*
X14340000Y-10680000D01*
X14340000Y-10650000D02*
X14310000Y-10680000D01*
X14370000Y-7045000D02*
X14400000Y-7075000D01*
X14400000Y-7045000D02*
X14370000Y-7075000D01*
X14435000Y-6310000D02*
X14465000Y-6340000D01*
X14465000Y-6310000D02*
X14435000Y-6340000D01*
X14455000Y-8605000D02*
X14485000Y-8635000D01*
X14485000Y-8605000D02*
X14455000Y-8635000D01*
X14495000Y-11005000D02*
X14525000Y-11035000D01*
X14525000Y-11005000D02*
X14495000Y-11035000D01*
X14505000Y-11085000D02*
X14535000Y-11115000D01*
X14535000Y-11085000D02*
X14505000Y-11115000D01*
X14585000Y-10650000D02*
X14615000Y-10680000D01*
X14615000Y-10650000D02*
X14585000Y-10680000D01*
X14635000Y-6735000D02*
X14665000Y-6765000D01*
X14665000Y-6735000D02*
X14635000Y-6765000D01*
X14675000Y-7340000D02*
X14705000Y-7370000D01*
X14705000Y-7340000D02*
X14675000Y-7370000D01*
X14685000Y-7585000D02*
X14715000Y-7615000D01*
X14715000Y-7585000D02*
X14685000Y-7615000D01*
X14685000Y-8435000D02*
X14715000Y-8465000D01*
X14715000Y-8435000D02*
X14685000Y-8465000D01*
X14725000Y-8050000D02*
X14755000Y-8080000D01*
X14755000Y-8050000D02*
X14725000Y-8080000D01*
X14730000Y-11665000D02*
X14760000Y-11695000D01*
X14760000Y-11665000D02*
X14730000Y-11695000D01*
X14735000Y-7075000D02*
X14765000Y-7105000D01*
X14765000Y-7075000D02*
X14735000Y-7105000D01*
X14860000Y-10645000D02*
X14890000Y-10675000D01*
X14890000Y-10645000D02*
X14860000Y-10675000D01*
X14865000Y-7195000D02*
X14895000Y-7225000D01*
X14895000Y-7195000D02*
X14865000Y-7225000D01*
X14875000Y-6640000D02*
X14905000Y-6670000D01*
X14905000Y-6640000D02*
X14875000Y-6670000D01*
X14935000Y-8255000D02*
X14965000Y-8285000D01*
X14965000Y-8255000D02*
X14935000Y-8285000D01*
X14940000Y-11400000D02*
X14970000Y-11430000D01*
X14970000Y-11400000D02*
X14940000Y-11430000D01*
X15010000Y-11220000D02*
X15040000Y-11250000D01*
X15040000Y-11220000D02*
X15010000Y-11250000D01*
X15020000Y-7825000D02*
X15050000Y-7855000D01*
X15050000Y-7825000D02*
X15020000Y-7855000D01*
X15085000Y-9765000D02*
X15115000Y-9795000D01*
X15115000Y-9765000D02*
X15085000Y-9795000D01*
X15095000Y-9565000D02*
X15125000Y-9595000D01*
X15125000Y-9565000D02*
X15095000Y-9595000D01*
X15140000Y-6275000D02*
X15170000Y-6305000D01*
X15170000Y-6275000D02*
X15140000Y-6305000D01*
X15175000Y-6955000D02*
X15205000Y-6985000D01*
X15205000Y-6955000D02*
X15175000Y-6985000D01*
X15200000Y-7780000D02*
X15230000Y-7810000D01*
X15230000Y-7780000D02*
X15200000Y-7810000D01*
X15315000Y-9505000D02*
X15345000Y-9535000D01*
X15345000Y-9505000D02*
X15315000Y-9535000D01*
X15352000Y-8621000D02*
X15382000Y-8651000D01*
X15382000Y-8621000D02*
X15352000Y-8651000D01*
X15465000Y-9565000D02*
X15495000Y-9595000D01*
X15495000Y-9565000D02*
X15465000Y-9595000D01*
X15565000Y-9465000D02*
X15595000Y-9495000D01*
X15595000Y-9465000D02*
X15565000Y-9495000D01*
X15680000Y-11075000D02*
X15710000Y-11105000D01*
X15710000Y-11075000D02*
X15680000Y-11105000D01*
X15707600Y-7757400D02*
X15737600Y-7787400D01*
X15737600Y-7757400D02*
X15707600Y-7787400D01*
X15707600Y-8519400D02*
X15737600Y-8549400D01*
X15737600Y-8519400D02*
X15707600Y-8549400D01*
X15725000Y-10365000D02*
X15755000Y-10395000D01*
X15755000Y-10365000D02*
X15725000Y-10395000D01*
X15733000Y-7986000D02*
X15763000Y-8016000D01*
X15763000Y-7986000D02*
X15733000Y-8016000D01*
X15834600Y-7376400D02*
X15864600Y-7406400D01*
X15864600Y-7376400D02*
X15834600Y-7406400D01*
X15875000Y-10545000D02*
X15905000Y-10575000D01*
X15905000Y-10545000D02*
X15875000Y-10575000D01*
X15885000Y-8475000D02*
X15915000Y-8505000D01*
X15915000Y-8475000D02*
X15885000Y-8505000D01*
X15985000Y-10125000D02*
X16015000Y-10155000D01*
X16015000Y-10125000D02*
X15985000Y-10155000D01*
X16020000Y-9210000D02*
X16050000Y-9240000D01*
X16050000Y-9210000D02*
X16020000Y-9240000D01*
X16037800Y-7732000D02*
X16067800Y-7762000D01*
X16067800Y-7732000D02*
X16037800Y-7762000D01*
X16063200Y-7986000D02*
X16093200Y-8016000D01*
X16093200Y-7986000D02*
X16063200Y-8016000D01*
X16535000Y-10135000D02*
X16565000Y-10165000D01*
X16565000Y-10135000D02*
X16535000Y-10165000D01*
X16585000Y-11085000D02*
X16615000Y-11115000D01*
X16615000Y-11085000D02*
X16585000Y-11115000D01*
X16635000Y-9815000D02*
X16665000Y-9845000D01*
X16665000Y-9815000D02*
X16635000Y-9845000D01*
X10462500Y-6700000D02*
G75*
G02*
X10412500Y-6700000I-25000J0D01*
G01*
X10412500Y-6700000D02*
G75*
G02*
X10462500Y-6700000I25000J0D01*
G01*
X10462500Y-11450000D02*
G75*
G02*
X10412500Y-11450000I-25000J0D01*
G01*
X10412500Y-11450000D02*
G75*
G02*
X10462500Y-11450000I25000J0D01*
G01*
X10539385Y-6514384D02*
G75*
G02*
X10489385Y-6514384I-25000J0D01*
G01*
X10489385Y-6514384D02*
G75*
G02*
X10539385Y-6514384I25000J0D01*
G01*
X10539385Y-6885615D02*
G75*
G02*
X10489385Y-6885615I-25000J0D01*
G01*
X10489385Y-6885615D02*
G75*
G02*
X10539385Y-6885615I25000J0D01*
G01*
X10539385Y-11264384D02*
G75*
G02*
X10489385Y-11264384I-25000J0D01*
G01*
X10489385Y-11264384D02*
G75*
G02*
X10539385Y-11264384I25000J0D01*
G01*
X10539385Y-11635615D02*
G75*
G02*
X10489385Y-11635615I-25000J0D01*
G01*
X10489385Y-11635615D02*
G75*
G02*
X10539385Y-11635615I25000J0D01*
G01*
X10725000Y-6437500D02*
G75*
G02*
X10675000Y-6437500I-25000J0D01*
G01*
X10675000Y-6437500D02*
G75*
G02*
X10725000Y-6437500I25000J0D01*
G01*
X10725000Y-6962500D02*
G75*
G02*
X10675000Y-6962500I-25000J0D01*
G01*
X10675000Y-6962500D02*
G75*
G02*
X10725000Y-6962500I25000J0D01*
G01*
X10725000Y-11187500D02*
G75*
G02*
X10675000Y-11187500I-25000J0D01*
G01*
X10675000Y-11187500D02*
G75*
G02*
X10725000Y-11187500I25000J0D01*
G01*
X10725000Y-11712500D02*
G75*
G02*
X10675000Y-11712500I-25000J0D01*
G01*
X10675000Y-11712500D02*
G75*
G02*
X10725000Y-11712500I25000J0D01*
G01*
X10910616Y-6514384D02*
G75*
G02*
X10860616Y-6514384I-25000J0D01*
G01*
X10860616Y-6514384D02*
G75*
G02*
X10910616Y-6514384I25000J0D01*
G01*
X10910616Y-6885615D02*
G75*
G02*
X10860616Y-6885615I-25000J0D01*
G01*
X10860616Y-6885615D02*
G75*
G02*
X10910616Y-6885615I25000J0D01*
G01*
X10910616Y-11264384D02*
G75*
G02*
X10860616Y-11264384I-25000J0D01*
G01*
X10860616Y-11264384D02*
G75*
G02*
X10910616Y-11264384I25000J0D01*
G01*
X10910616Y-11635615D02*
G75*
G02*
X10860616Y-11635615I-25000J0D01*
G01*
X10860616Y-11635615D02*
G75*
G02*
X10910616Y-11635615I25000J0D01*
G01*
X10987500Y-6700000D02*
G75*
G02*
X10937500Y-6700000I-25000J0D01*
G01*
X10937500Y-6700000D02*
G75*
G02*
X10987500Y-6700000I25000J0D01*
G01*
X10987500Y-11450000D02*
G75*
G02*
X10937500Y-11450000I-25000J0D01*
G01*
X10937500Y-11450000D02*
G75*
G02*
X10987500Y-11450000I25000J0D01*
G01*
X15912500Y-6700000D02*
G75*
G02*
X15862500Y-6700000I-25000J0D01*
G01*
X15862500Y-6700000D02*
G75*
G02*
X15912500Y-6700000I25000J0D01*
G01*
X15912500Y-11450000D02*
G75*
G02*
X15862500Y-11450000I-25000J0D01*
G01*
X15862500Y-11450000D02*
G75*
G02*
X15912500Y-11450000I25000J0D01*
G01*
X15989384Y-6514384D02*
G75*
G02*
X15939384Y-6514384I-25000J0D01*
G01*
X15939384Y-6514384D02*
G75*
G02*
X15989384Y-6514384I25000J0D01*
G01*
X15989384Y-6885615D02*
G75*
G02*
X15939384Y-6885615I-25000J0D01*
G01*
X15939384Y-6885615D02*
G75*
G02*
X15989384Y-6885615I25000J0D01*
G01*
X15989384Y-11264384D02*
G75*
G02*
X15939384Y-11264384I-25000J0D01*
G01*
X15939384Y-11264384D02*
G75*
G02*
X15989384Y-11264384I25000J0D01*
G01*
X15989384Y-11635615D02*
G75*
G02*
X15939384Y-11635615I-25000J0D01*
G01*
X15939384Y-11635615D02*
G75*
G02*
X15989384Y-11635615I25000J0D01*
G01*
X16175000Y-6437500D02*
G75*
G02*
X16125000Y-6437500I-25000J0D01*
G01*
X16125000Y-6437500D02*
G75*
G02*
X16175000Y-6437500I25000J0D01*
G01*
X16175000Y-6962500D02*
G75*
G02*
X16125000Y-6962500I-25000J0D01*
G01*
X16125000Y-6962500D02*
G75*
G02*
X16175000Y-6962500I25000J0D01*
G01*
X16175000Y-11187500D02*
G75*
G02*
X16125000Y-11187500I-25000J0D01*
G01*
X16125000Y-11187500D02*
G75*
G02*
X16175000Y-11187500I25000J0D01*
G01*
X16175000Y-11712500D02*
G75*
G02*
X16125000Y-11712500I-25000J0D01*
G01*
X16125000Y-11712500D02*
G75*
G02*
X16175000Y-11712500I25000J0D01*
G01*
X16360615Y-6514384D02*
G75*
G02*
X16310615Y-6514384I-25000J0D01*
G01*
X16310615Y-6514384D02*
G75*
G02*
X16360615Y-6514384I25000J0D01*
G01*
X16360615Y-6885615D02*
G75*
G02*
X16310615Y-6885615I-25000J0D01*
G01*
X16310615Y-6885615D02*
G75*
G02*
X16360615Y-6885615I25000J0D01*
G01*
X16360615Y-11264384D02*
G75*
G02*
X16310615Y-11264384I-25000J0D01*
G01*
X16310615Y-11264384D02*
G75*
G02*
X16360615Y-11264384I25000J0D01*
G01*
X16360615Y-11635615D02*
G75*
G02*
X16310615Y-11635615I-25000J0D01*
G01*
X16310615Y-11635615D02*
G75*
G02*
X16360615Y-11635615I25000J0D01*
G01*
X16437500Y-6700000D02*
G75*
G02*
X16387500Y-6700000I-25000J0D01*
G01*
X16387500Y-6700000D02*
G75*
G02*
X16437500Y-6700000I25000J0D01*
G01*
X16437500Y-11450000D02*
G75*
G02*
X16387500Y-11450000I-25000J0D01*
G01*
X16387500Y-11450000D02*
G75*
G02*
X16437500Y-11450000I25000J0D01*
G01*
X10565813Y-7640000D02*
X10565813Y-7720000D01*
X10525813Y-7680000D02*
X10605813Y-7680000D01*
X10632906Y-7800000D02*
X10632906Y-7880000D01*
X10592906Y-7840000D02*
X10672906Y-7840000D01*
X10882906Y-7800000D02*
X10882906Y-7880000D01*
X10842906Y-7840000D02*
X10922906Y-7840000D01*
X10950000Y-7960000D02*
X10950000Y-8040000D01*
X10910000Y-8000000D02*
X10990000Y-8000000D01*
X12382906Y-9050000D02*
X12382906Y-9130000D01*
X12342906Y-9090000D02*
X12422906Y-9090000D01*
X12450000Y-9210000D02*
X12450000Y-9290000D01*
X12410000Y-9250000D02*
X12490000Y-9250000D01*
X12615813Y-7090000D02*
X12615813Y-7170000D01*
X12575813Y-7130000D02*
X12655813Y-7130000D01*
X12682906Y-7250000D02*
X12682906Y-7330000D01*
X12642906Y-7290000D02*
X12722906Y-7290000D01*
X12700000Y-9210000D02*
X12700000Y-9290000D01*
X12660000Y-9250000D02*
X12740000Y-9250000D01*
X12767094Y-9370000D02*
X12767094Y-9450000D01*
X12727094Y-9410000D02*
X12807094Y-9410000D01*
X12932906Y-7250000D02*
X12932906Y-7330000D01*
X12892906Y-7290000D02*
X12972906Y-7290000D01*
X13000000Y-7410000D02*
X13000000Y-7490000D01*
X12960000Y-7450000D02*
X13040000Y-7450000D01*
X15942000Y-10310000D02*
X15942000Y-10390000D01*
X15902000Y-10350000D02*
X15982000Y-10350000D01*
X16196000Y-10310000D02*
X16196000Y-10390000D01*
X16156000Y-10350000D02*
X16236000Y-10350000D01*
X16450000Y-10310000D02*
X16450000Y-10390000D01*
X16410000Y-10350000D02*
X16490000Y-10350000D01*
X12667775Y-6383588D02*
X12667775Y-6316412D01*
X12600599Y-6316412D01*
X12600599Y-6383588D01*
X12667775Y-6383588D01*
X12667775Y-8183588D02*
X12667775Y-8116412D01*
X12600599Y-8116412D01*
X12600599Y-8183588D01*
X12667775Y-8183588D01*
X12733588Y-10183588D02*
X12733588Y-10116412D01*
X12666412Y-10116412D01*
X12666412Y-10183588D01*
X12733588Y-10183588D01*
X12733588Y-10433588D02*
X12733588Y-10366412D01*
X12666412Y-10366412D01*
X12666412Y-10433588D01*
X12733588Y-10433588D01*
X12733588Y-10683588D02*
X12733588Y-10616412D01*
X12666412Y-10616412D01*
X12666412Y-10683588D01*
X12733588Y-10683588D01*
X12733588Y-10933588D02*
X12733588Y-10866412D01*
X12666412Y-10866412D01*
X12666412Y-10933588D01*
X12733588Y-10933588D01*
X12917775Y-6383588D02*
X12917775Y-6316412D01*
X12850599Y-6316412D01*
X12850599Y-6383588D01*
X12917775Y-6383588D01*
X12917775Y-8183588D02*
X12917775Y-8116412D01*
X12850599Y-8116412D01*
X12850599Y-8183588D01*
X12917775Y-8183588D01*
X13167775Y-6383588D02*
X13167775Y-6316412D01*
X13100599Y-6316412D01*
X13100599Y-6383588D01*
X13167775Y-6383588D01*
X13167775Y-8183588D02*
X13167775Y-8116412D01*
X13100599Y-8116412D01*
X13100599Y-8183588D01*
X13167775Y-8183588D01*
X13533588Y-9233588D02*
X13533588Y-9166412D01*
X13466412Y-9166412D01*
X13466412Y-9233588D01*
X13533588Y-9233588D01*
X13533588Y-10133588D02*
X13533588Y-10066412D01*
X13466412Y-10066412D01*
X13466412Y-10133588D01*
X13533588Y-10133588D01*
X13783588Y-9233588D02*
X13783588Y-9166412D01*
X13716412Y-9166412D01*
X13716412Y-9233588D01*
X13783588Y-9233588D01*
X13783588Y-10133588D02*
X13783588Y-10066412D01*
X13716412Y-10066412D01*
X13716412Y-10133588D01*
X13783588Y-10133588D01*
X14033588Y-9233588D02*
X14033588Y-9166412D01*
X13966412Y-9166412D01*
X13966412Y-9233588D01*
X14033588Y-9233588D01*
X14033588Y-10133588D02*
X14033588Y-10066412D01*
X13966412Y-10066412D01*
X13966412Y-10133588D01*
X14033588Y-10133588D01*
X14283588Y-9233588D02*
X14283588Y-9166412D01*
X14216412Y-9166412D01*
X14216412Y-9233588D01*
X14283588Y-9233588D01*
X14533588Y-9233588D02*
X14533588Y-9166412D01*
X14466412Y-9166412D01*
X14466412Y-9233588D01*
X14533588Y-9233588D01*
X16333588Y-9133588D02*
X16333588Y-9066412D01*
X16266412Y-9066412D01*
X16266412Y-9133588D01*
X16333588Y-9133588D01*
X16333588Y-9383588D02*
X16333588Y-9316412D01*
X16266412Y-9316412D01*
X16266412Y-9383588D01*
X16333588Y-9383588D01*
X16333588Y-9633588D02*
X16333588Y-9566412D01*
X16266412Y-9566412D01*
X16266412Y-9633588D01*
X16333588Y-9633588D01*
X16336088Y-7483588D02*
X16336088Y-7416412D01*
X16268912Y-7416412D01*
X16268912Y-7483588D01*
X16336088Y-7483588D01*
X16336088Y-7733588D02*
X16336088Y-7666412D01*
X16268912Y-7666412D01*
X16268912Y-7733588D01*
X16336088Y-7733588D01*
X16336088Y-7983588D02*
X16336088Y-7916412D01*
X16268912Y-7916412D01*
X16268912Y-7983588D01*
X16336088Y-7983588D01*
X16336088Y-8233588D02*
X16336088Y-8166412D01*
X16268912Y-8166412D01*
X16268912Y-8233588D01*
X16336088Y-8233588D01*
X16336088Y-8483588D02*
X16336088Y-8416412D01*
X16268912Y-8416412D01*
X16268912Y-8483588D01*
X16336088Y-8483588D01*
X10625000Y-8847500D02*
X10675000Y-8797500D01*
X10625000Y-8747500D01*
X10575000Y-8797500D01*
X10625000Y-8847500D01*
X10625000Y-9750000D02*
X10675000Y-9700000D01*
X10625000Y-9650000D01*
X10575000Y-9700000D01*
X10625000Y-9750000D01*
X10875000Y-8847500D02*
X10925000Y-8797500D01*
X10875000Y-8747500D01*
X10825000Y-8797500D01*
X10875000Y-8847500D01*
X10875000Y-9750000D02*
X10925000Y-9700000D01*
X10875000Y-9650000D01*
X10825000Y-9700000D01*
X10875000Y-9750000D01*
X11264187Y-7200000D02*
X11314187Y-7150000D01*
X11264187Y-7100000D01*
X11214187Y-7150000D01*
X11264187Y-7200000D01*
X11214187Y-7050000D02*
X11214187Y-7250000D01*
X11314187Y-7250000D02*
G75*
G02*
X11214187Y-7250000I-50000J0D01*
G01*
X11314187Y-7250000D02*
X11314187Y-7050000D01*
X11314187Y-7050000D02*
G75*
G03*
X11214187Y-7050000I-50000J0D01*
G01*
X11734187Y-6900000D02*
X11784187Y-6850000D01*
X11734187Y-6800000D01*
X11684187Y-6850000D01*
X11734187Y-6900000D01*
X11834187Y-6800000D02*
X11634187Y-6800000D01*
X11634187Y-6900000D02*
G75*
G02*
X11634187Y-6800000I0J50000D01*
G01*
X11634187Y-6900000D02*
X11834187Y-6900000D01*
X11834187Y-6900000D02*
G75*
G03*
X11834187Y-6800000I0J50000D01*
G01*
X11734187Y-7500000D02*
X11784187Y-7450000D01*
X11734187Y-7400000D01*
X11684187Y-7450000D01*
X11734187Y-7500000D01*
X11834187Y-7400000D02*
X11634187Y-7400000D01*
X11634187Y-7500000D02*
G75*
G02*
X11634187Y-7400000I0J50000D01*
G01*
X11634187Y-7500000D02*
X11834187Y-7500000D01*
X11834187Y-7500000D02*
G75*
G03*
X11834187Y-7400000I0J50000D01*
G01*
X13325000Y-11650000D02*
X13375000Y-11600000D01*
X13325000Y-11550000D01*
X13275000Y-11600000D01*
X13325000Y-11650000D01*
X13575000Y-11650000D02*
X13625000Y-11600000D01*
X13575000Y-11550000D01*
X13525000Y-11600000D01*
X13575000Y-11650000D01*
X14225000Y-11650000D02*
X14275000Y-11600000D01*
X14225000Y-11550000D01*
X14175000Y-11600000D01*
X14225000Y-11650000D01*
X14475000Y-11650000D02*
X14525000Y-11600000D01*
X14475000Y-11550000D01*
X14425000Y-11600000D01*
X14475000Y-11650000D01*
X14750000Y-10150000D02*
X14800000Y-10100000D01*
X14750000Y-10050000D01*
X14700000Y-10100000D01*
X14750000Y-10150000D01*
X15000000Y-10150000D02*
X15050000Y-10100000D01*
X15000000Y-10050000D01*
X14950000Y-10100000D01*
X15000000Y-10150000D01*
X15125000Y-11650000D02*
X15175000Y-11600000D01*
X15125000Y-11550000D01*
X15075000Y-11600000D01*
X15125000Y-11650000D01*
X15300000Y-9250000D02*
X15350000Y-9200000D01*
X15300000Y-9150000D01*
X15250000Y-9200000D01*
X15300000Y-9250000D01*
X15375000Y-11650000D02*
X15425000Y-11600000D01*
X15375000Y-11550000D01*
X15325000Y-11600000D01*
X15375000Y-11650000D01*
X15550000Y-9250000D02*
X15600000Y-9200000D01*
X15550000Y-9150000D01*
X15500000Y-9200000D01*
X15550000Y-9250000D01*
D13*
X11441000Y-11158000D02*
X11551000Y-11268000D01*
X11551000Y-11158000D02*
X11441000Y-11268000D01*
X11551000Y-11213000D02*
G75*
G02*
X11441000Y-11213000I-55000J0D01*
G01*
X11441000Y-11213000D02*
G75*
G02*
X11551000Y-11213000I55000J0D01*
G01*
X11695000Y-11158000D02*
X11805000Y-11268000D01*
X11805000Y-11158000D02*
X11695000Y-11268000D01*
X11805000Y-11213000D02*
G75*
G02*
X11695000Y-11213000I-55000J0D01*
G01*
X11695000Y-11213000D02*
G75*
G02*
X11805000Y-11213000I55000J0D01*
G01*
X11949000Y-11158000D02*
X12059000Y-11268000D01*
X12059000Y-11158000D02*
X11949000Y-11268000D01*
X12059000Y-11213000D02*
G75*
G02*
X11949000Y-11213000I-55000J0D01*
G01*
X11949000Y-11213000D02*
G75*
G02*
X12059000Y-11213000I55000J0D01*
G01*
D14*
X13924500Y-6296500D02*
X14051500Y-6423500D01*
X14051500Y-6296500D02*
X13924500Y-6423500D01*
X13988000Y-6296500D02*
X13988000Y-6423500D01*
X13924500Y-6360000D02*
X14051500Y-6360000D01*
X13924500Y-6550500D02*
X14051500Y-6677500D01*
X14051500Y-6550500D02*
X13924500Y-6677500D01*
X13988000Y-6550500D02*
X13988000Y-6677500D01*
X13924500Y-6614000D02*
X14051500Y-6614000D01*
X13924500Y-6804500D02*
X14051500Y-6931500D01*
X14051500Y-6804500D02*
X13924500Y-6931500D01*
X13988000Y-6804500D02*
X13988000Y-6931500D01*
X13924500Y-6868000D02*
X14051500Y-6868000D01*
X13924500Y-7058500D02*
X14051500Y-7185500D01*
X14051500Y-7058500D02*
X13924500Y-7185500D01*
X13988000Y-7058500D02*
X13988000Y-7185500D01*
X13924500Y-7122000D02*
X14051500Y-7122000D01*
X13924500Y-7312500D02*
X14051500Y-7439500D01*
X14051500Y-7312500D02*
X13924500Y-7439500D01*
X13988000Y-7312500D02*
X13988000Y-7439500D01*
X13924500Y-7376000D02*
X14051500Y-7376000D01*
X13924500Y-7566500D02*
X14051500Y-7693500D01*
X14051500Y-7566500D02*
X13924500Y-7693500D01*
X13988000Y-7566500D02*
X13988000Y-7693500D01*
X13924500Y-7630000D02*
X14051500Y-7630000D01*
X13924500Y-7820500D02*
X14051500Y-7947500D01*
X14051500Y-7820500D02*
X13924500Y-7947500D01*
X13988000Y-7820500D02*
X13988000Y-7947500D01*
X13924500Y-7884000D02*
X14051500Y-7884000D01*
X13924500Y-8074500D02*
X14051500Y-8201500D01*
X14051500Y-8074500D02*
X13924500Y-8201500D01*
X13988000Y-8074500D02*
X13988000Y-8201500D01*
X13924500Y-8138000D02*
X14051500Y-8138000D01*
X15448500Y-6296500D02*
X15575500Y-6423500D01*
X15575500Y-6296500D02*
X15448500Y-6423500D01*
X15512000Y-6296500D02*
X15512000Y-6423500D01*
X15448500Y-6360000D02*
X15575500Y-6360000D01*
X15448500Y-6550500D02*
X15575500Y-6677500D01*
X15575500Y-6550500D02*
X15448500Y-6677500D01*
X15512000Y-6550500D02*
X15512000Y-6677500D01*
X15448500Y-6614000D02*
X15575500Y-6614000D01*
X15448500Y-6804500D02*
X15575500Y-6931500D01*
X15575500Y-6804500D02*
X15448500Y-6931500D01*
X15512000Y-6804500D02*
X15512000Y-6931500D01*
X15448500Y-6868000D02*
X15575500Y-6868000D01*
X15448500Y-7058500D02*
X15575500Y-7185500D01*
X15575500Y-7058500D02*
X15448500Y-7185500D01*
X15512000Y-7058500D02*
X15512000Y-7185500D01*
X15448500Y-7122000D02*
X15575500Y-7122000D01*
X15448500Y-7312500D02*
X15575500Y-7439500D01*
X15575500Y-7312500D02*
X15448500Y-7439500D01*
X15512000Y-7312500D02*
X15512000Y-7439500D01*
X15448500Y-7376000D02*
X15575500Y-7376000D01*
X15448500Y-7566500D02*
X15575500Y-7693500D01*
X15575500Y-7566500D02*
X15448500Y-7693500D01*
X15512000Y-7566500D02*
X15512000Y-7693500D01*
X15448500Y-7630000D02*
X15575500Y-7630000D01*
X15448500Y-7820500D02*
X15575500Y-7947500D01*
X15575500Y-7820500D02*
X15448500Y-7947500D01*
X15512000Y-7820500D02*
X15512000Y-7947500D01*
X15448500Y-7884000D02*
X15575500Y-7884000D01*
X15448500Y-8074500D02*
X15575500Y-8201500D01*
X15575500Y-8074500D02*
X15448500Y-8201500D01*
X15512000Y-8074500D02*
X15512000Y-8201500D01*
X15448500Y-8138000D02*
X15575500Y-8138000D01*
D15*
X10525000Y-6525000D02*
X10875000Y-6875000D01*
X10875000Y-6525000D02*
X10525000Y-6875000D01*
X10823745Y-6823745D02*
X10823745Y-6576255D01*
X10576255Y-6576255D01*
X10576255Y-6823745D01*
X10823745Y-6823745D01*
X10525000Y-11275000D02*
X10875000Y-11625000D01*
X10875000Y-11275000D02*
X10525000Y-11625000D01*
X10823745Y-11573745D02*
X10823745Y-11326255D01*
X10576255Y-11326255D01*
X10576255Y-11573745D01*
X10823745Y-11573745D01*
X15975000Y-6525000D02*
X16325000Y-6875000D01*
X16325000Y-6525000D02*
X15975000Y-6875000D01*
X16273745Y-6823745D02*
X16273745Y-6576255D01*
X16026255Y-6576255D01*
X16026255Y-6823745D01*
X16273745Y-6823745D01*
X15975000Y-11275000D02*
X16325000Y-11625000D01*
X16325000Y-11275000D02*
X15975000Y-11625000D01*
X16273745Y-11573745D02*
X16273745Y-11326255D01*
X16026255Y-11326255D01*
X16026255Y-11573745D01*
X16273745Y-11573745D01*
D11*
X10308277Y-12413984D02*
X10308277Y-12213984D01*
X10308277Y-12213984D02*
X10355896Y-12213984D01*
X10355896Y-12213984D02*
X10384467Y-12223508D01*
X10384467Y-12223508D02*
X10403515Y-12242555D01*
X10403515Y-12242555D02*
X10413039Y-12261603D01*
X10413039Y-12261603D02*
X10422563Y-12299698D01*
X10422563Y-12299698D02*
X10422563Y-12328269D01*
X10422563Y-12328269D02*
X10413039Y-12366365D01*
X10413039Y-12366365D02*
X10403515Y-12385412D01*
X10403515Y-12385412D02*
X10384467Y-12404460D01*
X10384467Y-12404460D02*
X10355896Y-12413984D01*
X10355896Y-12413984D02*
X10308277Y-12413984D01*
X10508277Y-12413984D02*
X10508277Y-12280650D01*
X10508277Y-12318746D02*
X10517801Y-12299698D01*
X10517801Y-12299698D02*
X10527324Y-12290174D01*
X10527324Y-12290174D02*
X10546372Y-12280650D01*
X10546372Y-12280650D02*
X10565420Y-12280650D01*
X10632086Y-12413984D02*
X10632086Y-12280650D01*
X10632086Y-12213984D02*
X10622563Y-12223508D01*
X10622563Y-12223508D02*
X10632086Y-12233031D01*
X10632086Y-12233031D02*
X10641610Y-12223508D01*
X10641610Y-12223508D02*
X10632086Y-12213984D01*
X10632086Y-12213984D02*
X10632086Y-12233031D01*
X10755896Y-12413984D02*
X10736848Y-12404460D01*
X10736848Y-12404460D02*
X10727324Y-12385412D01*
X10727324Y-12385412D02*
X10727324Y-12213984D01*
X10860658Y-12413984D02*
X10841610Y-12404460D01*
X10841610Y-12404460D02*
X10832086Y-12385412D01*
X10832086Y-12385412D02*
X10832086Y-12213984D01*
X11089229Y-12413984D02*
X11089229Y-12213984D01*
X11089229Y-12213984D02*
X11155896Y-12356841D01*
X11155896Y-12356841D02*
X11222562Y-12213984D01*
X11222562Y-12213984D02*
X11222562Y-12413984D01*
X11403515Y-12413984D02*
X11403515Y-12309222D01*
X11403515Y-12309222D02*
X11393991Y-12290174D01*
X11393991Y-12290174D02*
X11374943Y-12280650D01*
X11374943Y-12280650D02*
X11336848Y-12280650D01*
X11336848Y-12280650D02*
X11317801Y-12290174D01*
X11403515Y-12404460D02*
X11384467Y-12413984D01*
X11384467Y-12413984D02*
X11336848Y-12413984D01*
X11336848Y-12413984D02*
X11317801Y-12404460D01*
X11317801Y-12404460D02*
X11308277Y-12385412D01*
X11308277Y-12385412D02*
X11308277Y-12366365D01*
X11308277Y-12366365D02*
X11317801Y-12347317D01*
X11317801Y-12347317D02*
X11336848Y-12337793D01*
X11336848Y-12337793D02*
X11384467Y-12337793D01*
X11384467Y-12337793D02*
X11403515Y-12328269D01*
X11498753Y-12280650D02*
X11498753Y-12480650D01*
X11498753Y-12290174D02*
X11517801Y-12280650D01*
X11517801Y-12280650D02*
X11555896Y-12280650D01*
X11555896Y-12280650D02*
X11574943Y-12290174D01*
X11574943Y-12290174D02*
X11584467Y-12299698D01*
X11584467Y-12299698D02*
X11593991Y-12318746D01*
X11593991Y-12318746D02*
X11593991Y-12375888D01*
X11593991Y-12375888D02*
X11584467Y-12394936D01*
X11584467Y-12394936D02*
X11574943Y-12404460D01*
X11574943Y-12404460D02*
X11555896Y-12413984D01*
X11555896Y-12413984D02*
X11517801Y-12413984D01*
X11517801Y-12413984D02*
X11498753Y-12404460D01*
X11679705Y-12394936D02*
X11689229Y-12404460D01*
X11689229Y-12404460D02*
X11679705Y-12413984D01*
X11679705Y-12413984D02*
X11670182Y-12404460D01*
X11670182Y-12404460D02*
X11679705Y-12394936D01*
X11679705Y-12394936D02*
X11679705Y-12413984D01*
X11679705Y-12290174D02*
X11689229Y-12299698D01*
X11689229Y-12299698D02*
X11679705Y-12309222D01*
X11679705Y-12309222D02*
X11670182Y-12299698D01*
X11670182Y-12299698D02*
X11679705Y-12290174D01*
X11679705Y-12290174D02*
X11679705Y-12309222D01*
D12*
X10017500Y-12727500D02*
X10047500Y-12757500D01*
X10047500Y-12727500D02*
X10017500Y-12757500D01*
D11*
X10346372Y-12633984D02*
X10365420Y-12633984D01*
X10365420Y-12633984D02*
X10384467Y-12643508D01*
X10384467Y-12643508D02*
X10393991Y-12653031D01*
X10393991Y-12653031D02*
X10403515Y-12672079D01*
X10403515Y-12672079D02*
X10413039Y-12710174D01*
X10413039Y-12710174D02*
X10413039Y-12757793D01*
X10413039Y-12757793D02*
X10403515Y-12795888D01*
X10403515Y-12795888D02*
X10393991Y-12814936D01*
X10393991Y-12814936D02*
X10384467Y-12824460D01*
X10384467Y-12824460D02*
X10365420Y-12833984D01*
X10365420Y-12833984D02*
X10346372Y-12833984D01*
X10346372Y-12833984D02*
X10327324Y-12824460D01*
X10327324Y-12824460D02*
X10317801Y-12814936D01*
X10317801Y-12814936D02*
X10308277Y-12795888D01*
X10308277Y-12795888D02*
X10298753Y-12757793D01*
X10298753Y-12757793D02*
X10298753Y-12710174D01*
X10298753Y-12710174D02*
X10308277Y-12672079D01*
X10308277Y-12672079D02*
X10317801Y-12653031D01*
X10317801Y-12653031D02*
X10327324Y-12643508D01*
X10327324Y-12643508D02*
X10346372Y-12633984D01*
X10498753Y-12814936D02*
X10508277Y-12824460D01*
X10508277Y-12824460D02*
X10498753Y-12833984D01*
X10498753Y-12833984D02*
X10489229Y-12824460D01*
X10489229Y-12824460D02*
X10498753Y-12814936D01*
X10498753Y-12814936D02*
X10498753Y-12833984D01*
X10574944Y-12633984D02*
X10698753Y-12633984D01*
X10698753Y-12633984D02*
X10632086Y-12710174D01*
X10632086Y-12710174D02*
X10660658Y-12710174D01*
X10660658Y-12710174D02*
X10679705Y-12719698D01*
X10679705Y-12719698D02*
X10689229Y-12729222D01*
X10689229Y-12729222D02*
X10698753Y-12748269D01*
X10698753Y-12748269D02*
X10698753Y-12795888D01*
X10698753Y-12795888D02*
X10689229Y-12814936D01*
X10689229Y-12814936D02*
X10679705Y-12824460D01*
X10679705Y-12824460D02*
X10660658Y-12833984D01*
X10660658Y-12833984D02*
X10603515Y-12833984D01*
X10603515Y-12833984D02*
X10584467Y-12824460D01*
X10584467Y-12824460D02*
X10574944Y-12814936D01*
X10822563Y-12633984D02*
X10841610Y-12633984D01*
X10841610Y-12633984D02*
X10860658Y-12643508D01*
X10860658Y-12643508D02*
X10870182Y-12653031D01*
X10870182Y-12653031D02*
X10879705Y-12672079D01*
X10879705Y-12672079D02*
X10889229Y-12710174D01*
X10889229Y-12710174D02*
X10889229Y-12757793D01*
X10889229Y-12757793D02*
X10879705Y-12795888D01*
X10879705Y-12795888D02*
X10870182Y-12814936D01*
X10870182Y-12814936D02*
X10860658Y-12824460D01*
X10860658Y-12824460D02*
X10841610Y-12833984D01*
X10841610Y-12833984D02*
X10822563Y-12833984D01*
X10822563Y-12833984D02*
X10803515Y-12824460D01*
X10803515Y-12824460D02*
X10793991Y-12814936D01*
X10793991Y-12814936D02*
X10784467Y-12795888D01*
X10784467Y-12795888D02*
X10774944Y-12757793D01*
X10774944Y-12757793D02*
X10774944Y-12710174D01*
X10774944Y-12710174D02*
X10784467Y-12672079D01*
X10784467Y-12672079D02*
X10793991Y-12653031D01*
X10793991Y-12653031D02*
X10803515Y-12643508D01*
X10803515Y-12643508D02*
X10822563Y-12633984D01*
X11013039Y-12633984D02*
X11032086Y-12633984D01*
X11032086Y-12633984D02*
X11051134Y-12643508D01*
X11051134Y-12643508D02*
X11060658Y-12653031D01*
X11060658Y-12653031D02*
X11070182Y-12672079D01*
X11070182Y-12672079D02*
X11079705Y-12710174D01*
X11079705Y-12710174D02*
X11079705Y-12757793D01*
X11079705Y-12757793D02*
X11070182Y-12795888D01*
X11070182Y-12795888D02*
X11060658Y-12814936D01*
X11060658Y-12814936D02*
X11051134Y-12824460D01*
X11051134Y-12824460D02*
X11032086Y-12833984D01*
X11032086Y-12833984D02*
X11013039Y-12833984D01*
X11013039Y-12833984D02*
X10993991Y-12824460D01*
X10993991Y-12824460D02*
X10984467Y-12814936D01*
X10984467Y-12814936D02*
X10974944Y-12795888D01*
X10974944Y-12795888D02*
X10965420Y-12757793D01*
X10965420Y-12757793D02*
X10965420Y-12710174D01*
X10965420Y-12710174D02*
X10974944Y-12672079D01*
X10974944Y-12672079D02*
X10984467Y-12653031D01*
X10984467Y-12653031D02*
X10993991Y-12643508D01*
X10993991Y-12643508D02*
X11013039Y-12633984D01*
X11165420Y-12833984D02*
X11165420Y-12700650D01*
X11165420Y-12719698D02*
X11174944Y-12710174D01*
X11174944Y-12710174D02*
X11193991Y-12700650D01*
X11193991Y-12700650D02*
X11222563Y-12700650D01*
X11222563Y-12700650D02*
X11241610Y-12710174D01*
X11241610Y-12710174D02*
X11251134Y-12729222D01*
X11251134Y-12729222D02*
X11251134Y-12833984D01*
X11251134Y-12729222D02*
X11260658Y-12710174D01*
X11260658Y-12710174D02*
X11279705Y-12700650D01*
X11279705Y-12700650D02*
X11308277Y-12700650D01*
X11308277Y-12700650D02*
X11327324Y-12710174D01*
X11327324Y-12710174D02*
X11336848Y-12729222D01*
X11336848Y-12729222D02*
X11336848Y-12833984D01*
X11432086Y-12833984D02*
X11432086Y-12700650D01*
X11432086Y-12719698D02*
X11441610Y-12710174D01*
X11441610Y-12710174D02*
X11460658Y-12700650D01*
X11460658Y-12700650D02*
X11489229Y-12700650D01*
X11489229Y-12700650D02*
X11508277Y-12710174D01*
X11508277Y-12710174D02*
X11517801Y-12729222D01*
X11517801Y-12729222D02*
X11517801Y-12833984D01*
X11517801Y-12729222D02*
X11527324Y-12710174D01*
X11527324Y-12710174D02*
X11546372Y-12700650D01*
X11546372Y-12700650D02*
X11574943Y-12700650D01*
X11574943Y-12700650D02*
X11593991Y-12710174D01*
X11593991Y-12710174D02*
X11603515Y-12729222D01*
X11603515Y-12729222D02*
X11603515Y-12833984D01*
X11993991Y-12624460D02*
X11822563Y-12881603D01*
X12251134Y-12633984D02*
X12270182Y-12633984D01*
X12270182Y-12633984D02*
X12289229Y-12643508D01*
X12289229Y-12643508D02*
X12298753Y-12653031D01*
X12298753Y-12653031D02*
X12308277Y-12672079D01*
X12308277Y-12672079D02*
X12317801Y-12710174D01*
X12317801Y-12710174D02*
X12317801Y-12757793D01*
X12317801Y-12757793D02*
X12308277Y-12795888D01*
X12308277Y-12795888D02*
X12298753Y-12814936D01*
X12298753Y-12814936D02*
X12289229Y-12824460D01*
X12289229Y-12824460D02*
X12270182Y-12833984D01*
X12270182Y-12833984D02*
X12251134Y-12833984D01*
X12251134Y-12833984D02*
X12232086Y-12824460D01*
X12232086Y-12824460D02*
X12222563Y-12814936D01*
X12222563Y-12814936D02*
X12213039Y-12795888D01*
X12213039Y-12795888D02*
X12203515Y-12757793D01*
X12203515Y-12757793D02*
X12203515Y-12710174D01*
X12203515Y-12710174D02*
X12213039Y-12672079D01*
X12213039Y-12672079D02*
X12222563Y-12653031D01*
X12222563Y-12653031D02*
X12232086Y-12643508D01*
X12232086Y-12643508D02*
X12251134Y-12633984D01*
X12403515Y-12814936D02*
X12413039Y-12824460D01*
X12413039Y-12824460D02*
X12403515Y-12833984D01*
X12403515Y-12833984D02*
X12393991Y-12824460D01*
X12393991Y-12824460D02*
X12403515Y-12814936D01*
X12403515Y-12814936D02*
X12403515Y-12833984D01*
X12536848Y-12633984D02*
X12555896Y-12633984D01*
X12555896Y-12633984D02*
X12574944Y-12643508D01*
X12574944Y-12643508D02*
X12584467Y-12653031D01*
X12584467Y-12653031D02*
X12593991Y-12672079D01*
X12593991Y-12672079D02*
X12603515Y-12710174D01*
X12603515Y-12710174D02*
X12603515Y-12757793D01*
X12603515Y-12757793D02*
X12593991Y-12795888D01*
X12593991Y-12795888D02*
X12584467Y-12814936D01*
X12584467Y-12814936D02*
X12574944Y-12824460D01*
X12574944Y-12824460D02*
X12555896Y-12833984D01*
X12555896Y-12833984D02*
X12536848Y-12833984D01*
X12536848Y-12833984D02*
X12517801Y-12824460D01*
X12517801Y-12824460D02*
X12508277Y-12814936D01*
X12508277Y-12814936D02*
X12498753Y-12795888D01*
X12498753Y-12795888D02*
X12489229Y-12757793D01*
X12489229Y-12757793D02*
X12489229Y-12710174D01*
X12489229Y-12710174D02*
X12498753Y-12672079D01*
X12498753Y-12672079D02*
X12508277Y-12653031D01*
X12508277Y-12653031D02*
X12517801Y-12643508D01*
X12517801Y-12643508D02*
X12536848Y-12633984D01*
X12793991Y-12833984D02*
X12679706Y-12833984D01*
X12736848Y-12833984D02*
X12736848Y-12633984D01*
X12736848Y-12633984D02*
X12717801Y-12662555D01*
X12717801Y-12662555D02*
X12698753Y-12681603D01*
X12698753Y-12681603D02*
X12679706Y-12691127D01*
X12984467Y-12833984D02*
X12870182Y-12833984D01*
X12927325Y-12833984D02*
X12927325Y-12633984D01*
X12927325Y-12633984D02*
X12908277Y-12662555D01*
X12908277Y-12662555D02*
X12889229Y-12681603D01*
X12889229Y-12681603D02*
X12870182Y-12691127D01*
X13098753Y-12719698D02*
X13079706Y-12710174D01*
X13079706Y-12710174D02*
X13070182Y-12700650D01*
X13070182Y-12700650D02*
X13060658Y-12681603D01*
X13060658Y-12681603D02*
X13060658Y-12672079D01*
X13060658Y-12672079D02*
X13070182Y-12653031D01*
X13070182Y-12653031D02*
X13079706Y-12643508D01*
X13079706Y-12643508D02*
X13098753Y-12633984D01*
X13098753Y-12633984D02*
X13136848Y-12633984D01*
X13136848Y-12633984D02*
X13155896Y-12643508D01*
X13155896Y-12643508D02*
X13165420Y-12653031D01*
X13165420Y-12653031D02*
X13174944Y-12672079D01*
X13174944Y-12672079D02*
X13174944Y-12681603D01*
X13174944Y-12681603D02*
X13165420Y-12700650D01*
X13165420Y-12700650D02*
X13155896Y-12710174D01*
X13155896Y-12710174D02*
X13136848Y-12719698D01*
X13136848Y-12719698D02*
X13098753Y-12719698D01*
X13098753Y-12719698D02*
X13079706Y-12729222D01*
X13079706Y-12729222D02*
X13070182Y-12738746D01*
X13070182Y-12738746D02*
X13060658Y-12757793D01*
X13060658Y-12757793D02*
X13060658Y-12795888D01*
X13060658Y-12795888D02*
X13070182Y-12814936D01*
X13070182Y-12814936D02*
X13079706Y-12824460D01*
X13079706Y-12824460D02*
X13098753Y-12833984D01*
X13098753Y-12833984D02*
X13136848Y-12833984D01*
X13136848Y-12833984D02*
X13155896Y-12824460D01*
X13155896Y-12824460D02*
X13165420Y-12814936D01*
X13165420Y-12814936D02*
X13174944Y-12795888D01*
X13174944Y-12795888D02*
X13174944Y-12757793D01*
X13174944Y-12757793D02*
X13165420Y-12738746D01*
X13165420Y-12738746D02*
X13155896Y-12729222D01*
X13155896Y-12729222D02*
X13136848Y-12719698D01*
X13251134Y-12633984D02*
X13251134Y-12672079D01*
X13327325Y-12633984D02*
X13327325Y-12672079D01*
X13622563Y-12910174D02*
X13613039Y-12900650D01*
X13613039Y-12900650D02*
X13593991Y-12872079D01*
X13593991Y-12872079D02*
X13584468Y-12853031D01*
X13584468Y-12853031D02*
X13574944Y-12824460D01*
X13574944Y-12824460D02*
X13565420Y-12776841D01*
X13565420Y-12776841D02*
X13565420Y-12738746D01*
X13565420Y-12738746D02*
X13574944Y-12691127D01*
X13574944Y-12691127D02*
X13584468Y-12662555D01*
X13584468Y-12662555D02*
X13593991Y-12643508D01*
X13593991Y-12643508D02*
X13613039Y-12614936D01*
X13613039Y-12614936D02*
X13622563Y-12605412D01*
X13803515Y-12833984D02*
X13689229Y-12833984D01*
X13746372Y-12833984D02*
X13746372Y-12633984D01*
X13746372Y-12633984D02*
X13727325Y-12662555D01*
X13727325Y-12662555D02*
X13708277Y-12681603D01*
X13708277Y-12681603D02*
X13689229Y-12691127D01*
X13993991Y-12833984D02*
X13879706Y-12833984D01*
X13936848Y-12833984D02*
X13936848Y-12633984D01*
X13936848Y-12633984D02*
X13917801Y-12662555D01*
X13917801Y-12662555D02*
X13898753Y-12681603D01*
X13898753Y-12681603D02*
X13879706Y-12691127D01*
X14184468Y-12833984D02*
X14070182Y-12833984D01*
X14127325Y-12833984D02*
X14127325Y-12633984D01*
X14127325Y-12633984D02*
X14108277Y-12662555D01*
X14108277Y-12662555D02*
X14089229Y-12681603D01*
X14089229Y-12681603D02*
X14070182Y-12691127D01*
X14422563Y-12833984D02*
X14422563Y-12633984D01*
X14508277Y-12833984D02*
X14508277Y-12729222D01*
X14508277Y-12729222D02*
X14498753Y-12710174D01*
X14498753Y-12710174D02*
X14479706Y-12700650D01*
X14479706Y-12700650D02*
X14451134Y-12700650D01*
X14451134Y-12700650D02*
X14432087Y-12710174D01*
X14432087Y-12710174D02*
X14422563Y-12719698D01*
X14632087Y-12833984D02*
X14613039Y-12824460D01*
X14613039Y-12824460D02*
X14603515Y-12814936D01*
X14603515Y-12814936D02*
X14593991Y-12795888D01*
X14593991Y-12795888D02*
X14593991Y-12738746D01*
X14593991Y-12738746D02*
X14603515Y-12719698D01*
X14603515Y-12719698D02*
X14613039Y-12710174D01*
X14613039Y-12710174D02*
X14632087Y-12700650D01*
X14632087Y-12700650D02*
X14660658Y-12700650D01*
X14660658Y-12700650D02*
X14679706Y-12710174D01*
X14679706Y-12710174D02*
X14689230Y-12719698D01*
X14689230Y-12719698D02*
X14698753Y-12738746D01*
X14698753Y-12738746D02*
X14698753Y-12795888D01*
X14698753Y-12795888D02*
X14689230Y-12814936D01*
X14689230Y-12814936D02*
X14679706Y-12824460D01*
X14679706Y-12824460D02*
X14660658Y-12833984D01*
X14660658Y-12833984D02*
X14632087Y-12833984D01*
X14813039Y-12833984D02*
X14793991Y-12824460D01*
X14793991Y-12824460D02*
X14784468Y-12805412D01*
X14784468Y-12805412D02*
X14784468Y-12633984D01*
X14965420Y-12824460D02*
X14946372Y-12833984D01*
X14946372Y-12833984D02*
X14908277Y-12833984D01*
X14908277Y-12833984D02*
X14889230Y-12824460D01*
X14889230Y-12824460D02*
X14879706Y-12805412D01*
X14879706Y-12805412D02*
X14879706Y-12729222D01*
X14879706Y-12729222D02*
X14889230Y-12710174D01*
X14889230Y-12710174D02*
X14908277Y-12700650D01*
X14908277Y-12700650D02*
X14946372Y-12700650D01*
X14946372Y-12700650D02*
X14965420Y-12710174D01*
X14965420Y-12710174D02*
X14974944Y-12729222D01*
X14974944Y-12729222D02*
X14974944Y-12748269D01*
X14974944Y-12748269D02*
X14879706Y-12767317D01*
X15051134Y-12824460D02*
X15070182Y-12833984D01*
X15070182Y-12833984D02*
X15108277Y-12833984D01*
X15108277Y-12833984D02*
X15127325Y-12824460D01*
X15127325Y-12824460D02*
X15136849Y-12805412D01*
X15136849Y-12805412D02*
X15136849Y-12795888D01*
X15136849Y-12795888D02*
X15127325Y-12776841D01*
X15127325Y-12776841D02*
X15108277Y-12767317D01*
X15108277Y-12767317D02*
X15079706Y-12767317D01*
X15079706Y-12767317D02*
X15060658Y-12757793D01*
X15060658Y-12757793D02*
X15051134Y-12738746D01*
X15051134Y-12738746D02*
X15051134Y-12729222D01*
X15051134Y-12729222D02*
X15060658Y-12710174D01*
X15060658Y-12710174D02*
X15079706Y-12700650D01*
X15079706Y-12700650D02*
X15108277Y-12700650D01*
X15108277Y-12700650D02*
X15127325Y-12710174D01*
X15203515Y-12910174D02*
X15213039Y-12900650D01*
X15213039Y-12900650D02*
X15232087Y-12872079D01*
X15232087Y-12872079D02*
X15241611Y-12853031D01*
X15241611Y-12853031D02*
X15251134Y-12824460D01*
X15251134Y-12824460D02*
X15260658Y-12776841D01*
X15260658Y-12776841D02*
X15260658Y-12738746D01*
X15260658Y-12738746D02*
X15251134Y-12691127D01*
X15251134Y-12691127D02*
X15241611Y-12662555D01*
X15241611Y-12662555D02*
X15232087Y-12643508D01*
X15232087Y-12643508D02*
X15213039Y-12614936D01*
X15213039Y-12614936D02*
X15203515Y-12605412D01*
D12*
X10047500Y-13006500D02*
G75*
G02*
X9997500Y-13006500I-25000J0D01*
G01*
X9997500Y-13006500D02*
G75*
G02*
X10047500Y-13006500I25000J0D01*
G01*
D11*
X10346372Y-12897984D02*
X10365420Y-12897984D01*
X10365420Y-12897984D02*
X10384467Y-12907508D01*
X10384467Y-12907508D02*
X10393991Y-12917031D01*
X10393991Y-12917031D02*
X10403515Y-12936079D01*
X10403515Y-12936079D02*
X10413039Y-12974174D01*
X10413039Y-12974174D02*
X10413039Y-13021793D01*
X10413039Y-13021793D02*
X10403515Y-13059888D01*
X10403515Y-13059888D02*
X10393991Y-13078936D01*
X10393991Y-13078936D02*
X10384467Y-13088460D01*
X10384467Y-13088460D02*
X10365420Y-13097984D01*
X10365420Y-13097984D02*
X10346372Y-13097984D01*
X10346372Y-13097984D02*
X10327324Y-13088460D01*
X10327324Y-13088460D02*
X10317801Y-13078936D01*
X10317801Y-13078936D02*
X10308277Y-13059888D01*
X10308277Y-13059888D02*
X10298753Y-13021793D01*
X10298753Y-13021793D02*
X10298753Y-12974174D01*
X10298753Y-12974174D02*
X10308277Y-12936079D01*
X10308277Y-12936079D02*
X10317801Y-12917031D01*
X10317801Y-12917031D02*
X10327324Y-12907508D01*
X10327324Y-12907508D02*
X10346372Y-12897984D01*
X10498753Y-13078936D02*
X10508277Y-13088460D01*
X10508277Y-13088460D02*
X10498753Y-13097984D01*
X10498753Y-13097984D02*
X10489229Y-13088460D01*
X10489229Y-13088460D02*
X10498753Y-13078936D01*
X10498753Y-13078936D02*
X10498753Y-13097984D01*
X10689229Y-12897984D02*
X10593991Y-12897984D01*
X10593991Y-12897984D02*
X10584467Y-12993222D01*
X10584467Y-12993222D02*
X10593991Y-12983698D01*
X10593991Y-12983698D02*
X10613039Y-12974174D01*
X10613039Y-12974174D02*
X10660658Y-12974174D01*
X10660658Y-12974174D02*
X10679705Y-12983698D01*
X10679705Y-12983698D02*
X10689229Y-12993222D01*
X10689229Y-12993222D02*
X10698753Y-13012269D01*
X10698753Y-13012269D02*
X10698753Y-13059888D01*
X10698753Y-13059888D02*
X10689229Y-13078936D01*
X10689229Y-13078936D02*
X10679705Y-13088460D01*
X10679705Y-13088460D02*
X10660658Y-13097984D01*
X10660658Y-13097984D02*
X10613039Y-13097984D01*
X10613039Y-13097984D02*
X10593991Y-13088460D01*
X10593991Y-13088460D02*
X10584467Y-13078936D01*
X10822563Y-12897984D02*
X10841610Y-12897984D01*
X10841610Y-12897984D02*
X10860658Y-12907508D01*
X10860658Y-12907508D02*
X10870182Y-12917031D01*
X10870182Y-12917031D02*
X10879705Y-12936079D01*
X10879705Y-12936079D02*
X10889229Y-12974174D01*
X10889229Y-12974174D02*
X10889229Y-13021793D01*
X10889229Y-13021793D02*
X10879705Y-13059888D01*
X10879705Y-13059888D02*
X10870182Y-13078936D01*
X10870182Y-13078936D02*
X10860658Y-13088460D01*
X10860658Y-13088460D02*
X10841610Y-13097984D01*
X10841610Y-13097984D02*
X10822563Y-13097984D01*
X10822563Y-13097984D02*
X10803515Y-13088460D01*
X10803515Y-13088460D02*
X10793991Y-13078936D01*
X10793991Y-13078936D02*
X10784467Y-13059888D01*
X10784467Y-13059888D02*
X10774944Y-13021793D01*
X10774944Y-13021793D02*
X10774944Y-12974174D01*
X10774944Y-12974174D02*
X10784467Y-12936079D01*
X10784467Y-12936079D02*
X10793991Y-12917031D01*
X10793991Y-12917031D02*
X10803515Y-12907508D01*
X10803515Y-12907508D02*
X10822563Y-12897984D01*
X11013039Y-12897984D02*
X11032086Y-12897984D01*
X11032086Y-12897984D02*
X11051134Y-12907508D01*
X11051134Y-12907508D02*
X11060658Y-12917031D01*
X11060658Y-12917031D02*
X11070182Y-12936079D01*
X11070182Y-12936079D02*
X11079705Y-12974174D01*
X11079705Y-12974174D02*
X11079705Y-13021793D01*
X11079705Y-13021793D02*
X11070182Y-13059888D01*
X11070182Y-13059888D02*
X11060658Y-13078936D01*
X11060658Y-13078936D02*
X11051134Y-13088460D01*
X11051134Y-13088460D02*
X11032086Y-13097984D01*
X11032086Y-13097984D02*
X11013039Y-13097984D01*
X11013039Y-13097984D02*
X10993991Y-13088460D01*
X10993991Y-13088460D02*
X10984467Y-13078936D01*
X10984467Y-13078936D02*
X10974944Y-13059888D01*
X10974944Y-13059888D02*
X10965420Y-13021793D01*
X10965420Y-13021793D02*
X10965420Y-12974174D01*
X10965420Y-12974174D02*
X10974944Y-12936079D01*
X10974944Y-12936079D02*
X10984467Y-12917031D01*
X10984467Y-12917031D02*
X10993991Y-12907508D01*
X10993991Y-12907508D02*
X11013039Y-12897984D01*
X11165420Y-13097984D02*
X11165420Y-12964650D01*
X11165420Y-12983698D02*
X11174944Y-12974174D01*
X11174944Y-12974174D02*
X11193991Y-12964650D01*
X11193991Y-12964650D02*
X11222563Y-12964650D01*
X11222563Y-12964650D02*
X11241610Y-12974174D01*
X11241610Y-12974174D02*
X11251134Y-12993222D01*
X11251134Y-12993222D02*
X11251134Y-13097984D01*
X11251134Y-12993222D02*
X11260658Y-12974174D01*
X11260658Y-12974174D02*
X11279705Y-12964650D01*
X11279705Y-12964650D02*
X11308277Y-12964650D01*
X11308277Y-12964650D02*
X11327324Y-12974174D01*
X11327324Y-12974174D02*
X11336848Y-12993222D01*
X11336848Y-12993222D02*
X11336848Y-13097984D01*
X11432086Y-13097984D02*
X11432086Y-12964650D01*
X11432086Y-12983698D02*
X11441610Y-12974174D01*
X11441610Y-12974174D02*
X11460658Y-12964650D01*
X11460658Y-12964650D02*
X11489229Y-12964650D01*
X11489229Y-12964650D02*
X11508277Y-12974174D01*
X11508277Y-12974174D02*
X11517801Y-12993222D01*
X11517801Y-12993222D02*
X11517801Y-13097984D01*
X11517801Y-12993222D02*
X11527324Y-12974174D01*
X11527324Y-12974174D02*
X11546372Y-12964650D01*
X11546372Y-12964650D02*
X11574943Y-12964650D01*
X11574943Y-12964650D02*
X11593991Y-12974174D01*
X11593991Y-12974174D02*
X11603515Y-12993222D01*
X11603515Y-12993222D02*
X11603515Y-13097984D01*
X11993991Y-12888460D02*
X11822563Y-13145603D01*
X12251134Y-12897984D02*
X12270182Y-12897984D01*
X12270182Y-12897984D02*
X12289229Y-12907508D01*
X12289229Y-12907508D02*
X12298753Y-12917031D01*
X12298753Y-12917031D02*
X12308277Y-12936079D01*
X12308277Y-12936079D02*
X12317801Y-12974174D01*
X12317801Y-12974174D02*
X12317801Y-13021793D01*
X12317801Y-13021793D02*
X12308277Y-13059888D01*
X12308277Y-13059888D02*
X12298753Y-13078936D01*
X12298753Y-13078936D02*
X12289229Y-13088460D01*
X12289229Y-13088460D02*
X12270182Y-13097984D01*
X12270182Y-13097984D02*
X12251134Y-13097984D01*
X12251134Y-13097984D02*
X12232086Y-13088460D01*
X12232086Y-13088460D02*
X12222563Y-13078936D01*
X12222563Y-13078936D02*
X12213039Y-13059888D01*
X12213039Y-13059888D02*
X12203515Y-13021793D01*
X12203515Y-13021793D02*
X12203515Y-12974174D01*
X12203515Y-12974174D02*
X12213039Y-12936079D01*
X12213039Y-12936079D02*
X12222563Y-12917031D01*
X12222563Y-12917031D02*
X12232086Y-12907508D01*
X12232086Y-12907508D02*
X12251134Y-12897984D01*
X12403515Y-13078936D02*
X12413039Y-13088460D01*
X12413039Y-13088460D02*
X12403515Y-13097984D01*
X12403515Y-13097984D02*
X12393991Y-13088460D01*
X12393991Y-13088460D02*
X12403515Y-13078936D01*
X12403515Y-13078936D02*
X12403515Y-13097984D01*
X12536848Y-12897984D02*
X12555896Y-12897984D01*
X12555896Y-12897984D02*
X12574944Y-12907508D01*
X12574944Y-12907508D02*
X12584467Y-12917031D01*
X12584467Y-12917031D02*
X12593991Y-12936079D01*
X12593991Y-12936079D02*
X12603515Y-12974174D01*
X12603515Y-12974174D02*
X12603515Y-13021793D01*
X12603515Y-13021793D02*
X12593991Y-13059888D01*
X12593991Y-13059888D02*
X12584467Y-13078936D01*
X12584467Y-13078936D02*
X12574944Y-13088460D01*
X12574944Y-13088460D02*
X12555896Y-13097984D01*
X12555896Y-13097984D02*
X12536848Y-13097984D01*
X12536848Y-13097984D02*
X12517801Y-13088460D01*
X12517801Y-13088460D02*
X12508277Y-13078936D01*
X12508277Y-13078936D02*
X12498753Y-13059888D01*
X12498753Y-13059888D02*
X12489229Y-13021793D01*
X12489229Y-13021793D02*
X12489229Y-12974174D01*
X12489229Y-12974174D02*
X12498753Y-12936079D01*
X12498753Y-12936079D02*
X12508277Y-12917031D01*
X12508277Y-12917031D02*
X12517801Y-12907508D01*
X12517801Y-12907508D02*
X12536848Y-12897984D01*
X12793991Y-13097984D02*
X12679706Y-13097984D01*
X12736848Y-13097984D02*
X12736848Y-12897984D01*
X12736848Y-12897984D02*
X12717801Y-12926555D01*
X12717801Y-12926555D02*
X12698753Y-12945603D01*
X12698753Y-12945603D02*
X12679706Y-12955127D01*
X12889229Y-13097984D02*
X12927325Y-13097984D01*
X12927325Y-13097984D02*
X12946372Y-13088460D01*
X12946372Y-13088460D02*
X12955896Y-13078936D01*
X12955896Y-13078936D02*
X12974944Y-13050365D01*
X12974944Y-13050365D02*
X12984467Y-13012269D01*
X12984467Y-13012269D02*
X12984467Y-12936079D01*
X12984467Y-12936079D02*
X12974944Y-12917031D01*
X12974944Y-12917031D02*
X12965420Y-12907508D01*
X12965420Y-12907508D02*
X12946372Y-12897984D01*
X12946372Y-12897984D02*
X12908277Y-12897984D01*
X12908277Y-12897984D02*
X12889229Y-12907508D01*
X12889229Y-12907508D02*
X12879706Y-12917031D01*
X12879706Y-12917031D02*
X12870182Y-12936079D01*
X12870182Y-12936079D02*
X12870182Y-12983698D01*
X12870182Y-12983698D02*
X12879706Y-13002746D01*
X12879706Y-13002746D02*
X12889229Y-13012269D01*
X12889229Y-13012269D02*
X12908277Y-13021793D01*
X12908277Y-13021793D02*
X12946372Y-13021793D01*
X12946372Y-13021793D02*
X12965420Y-13012269D01*
X12965420Y-13012269D02*
X12974944Y-13002746D01*
X12974944Y-13002746D02*
X12984467Y-12983698D01*
X13051134Y-12897984D02*
X13184467Y-12897984D01*
X13184467Y-12897984D02*
X13098753Y-13097984D01*
X13251134Y-12897984D02*
X13251134Y-12936079D01*
X13327325Y-12897984D02*
X13327325Y-12936079D01*
X13622563Y-13174174D02*
X13613039Y-13164650D01*
X13613039Y-13164650D02*
X13593991Y-13136079D01*
X13593991Y-13136079D02*
X13584468Y-13117031D01*
X13584468Y-13117031D02*
X13574944Y-13088460D01*
X13574944Y-13088460D02*
X13565420Y-13040841D01*
X13565420Y-13040841D02*
X13565420Y-13002746D01*
X13565420Y-13002746D02*
X13574944Y-12955127D01*
X13574944Y-12955127D02*
X13584468Y-12926555D01*
X13584468Y-12926555D02*
X13593991Y-12907508D01*
X13593991Y-12907508D02*
X13613039Y-12878936D01*
X13613039Y-12878936D02*
X13622563Y-12869412D01*
X13679706Y-12897984D02*
X13803515Y-12897984D01*
X13803515Y-12897984D02*
X13736848Y-12974174D01*
X13736848Y-12974174D02*
X13765420Y-12974174D01*
X13765420Y-12974174D02*
X13784468Y-12983698D01*
X13784468Y-12983698D02*
X13793991Y-12993222D01*
X13793991Y-12993222D02*
X13803515Y-13012269D01*
X13803515Y-13012269D02*
X13803515Y-13059888D01*
X13803515Y-13059888D02*
X13793991Y-13078936D01*
X13793991Y-13078936D02*
X13784468Y-13088460D01*
X13784468Y-13088460D02*
X13765420Y-13097984D01*
X13765420Y-13097984D02*
X13708277Y-13097984D01*
X13708277Y-13097984D02*
X13689229Y-13088460D01*
X13689229Y-13088460D02*
X13679706Y-13078936D01*
X13879706Y-12917031D02*
X13889229Y-12907508D01*
X13889229Y-12907508D02*
X13908277Y-12897984D01*
X13908277Y-12897984D02*
X13955896Y-12897984D01*
X13955896Y-12897984D02*
X13974944Y-12907508D01*
X13974944Y-12907508D02*
X13984468Y-12917031D01*
X13984468Y-12917031D02*
X13993991Y-12936079D01*
X13993991Y-12936079D02*
X13993991Y-12955127D01*
X13993991Y-12955127D02*
X13984468Y-12983698D01*
X13984468Y-12983698D02*
X13870182Y-13097984D01*
X13870182Y-13097984D02*
X13993991Y-13097984D01*
X14232087Y-13097984D02*
X14232087Y-12897984D01*
X14317801Y-13097984D02*
X14317801Y-12993222D01*
X14317801Y-12993222D02*
X14308277Y-12974174D01*
X14308277Y-12974174D02*
X14289230Y-12964650D01*
X14289230Y-12964650D02*
X14260658Y-12964650D01*
X14260658Y-12964650D02*
X14241610Y-12974174D01*
X14241610Y-12974174D02*
X14232087Y-12983698D01*
X14441610Y-13097984D02*
X14422563Y-13088460D01*
X14422563Y-13088460D02*
X14413039Y-13078936D01*
X14413039Y-13078936D02*
X14403515Y-13059888D01*
X14403515Y-13059888D02*
X14403515Y-13002746D01*
X14403515Y-13002746D02*
X14413039Y-12983698D01*
X14413039Y-12983698D02*
X14422563Y-12974174D01*
X14422563Y-12974174D02*
X14441610Y-12964650D01*
X14441610Y-12964650D02*
X14470182Y-12964650D01*
X14470182Y-12964650D02*
X14489230Y-12974174D01*
X14489230Y-12974174D02*
X14498753Y-12983698D01*
X14498753Y-12983698D02*
X14508277Y-13002746D01*
X14508277Y-13002746D02*
X14508277Y-13059888D01*
X14508277Y-13059888D02*
X14498753Y-13078936D01*
X14498753Y-13078936D02*
X14489230Y-13088460D01*
X14489230Y-13088460D02*
X14470182Y-13097984D01*
X14470182Y-13097984D02*
X14441610Y-13097984D01*
X14622563Y-13097984D02*
X14603515Y-13088460D01*
X14603515Y-13088460D02*
X14593991Y-13069412D01*
X14593991Y-13069412D02*
X14593991Y-12897984D01*
X14774944Y-13088460D02*
X14755896Y-13097984D01*
X14755896Y-13097984D02*
X14717801Y-13097984D01*
X14717801Y-13097984D02*
X14698753Y-13088460D01*
X14698753Y-13088460D02*
X14689230Y-13069412D01*
X14689230Y-13069412D02*
X14689230Y-12993222D01*
X14689230Y-12993222D02*
X14698753Y-12974174D01*
X14698753Y-12974174D02*
X14717801Y-12964650D01*
X14717801Y-12964650D02*
X14755896Y-12964650D01*
X14755896Y-12964650D02*
X14774944Y-12974174D01*
X14774944Y-12974174D02*
X14784468Y-12993222D01*
X14784468Y-12993222D02*
X14784468Y-13012269D01*
X14784468Y-13012269D02*
X14689230Y-13031317D01*
X14860658Y-13088460D02*
X14879706Y-13097984D01*
X14879706Y-13097984D02*
X14917801Y-13097984D01*
X14917801Y-13097984D02*
X14936849Y-13088460D01*
X14936849Y-13088460D02*
X14946372Y-13069412D01*
X14946372Y-13069412D02*
X14946372Y-13059888D01*
X14946372Y-13059888D02*
X14936849Y-13040841D01*
X14936849Y-13040841D02*
X14917801Y-13031317D01*
X14917801Y-13031317D02*
X14889230Y-13031317D01*
X14889230Y-13031317D02*
X14870182Y-13021793D01*
X14870182Y-13021793D02*
X14860658Y-13002746D01*
X14860658Y-13002746D02*
X14860658Y-12993222D01*
X14860658Y-12993222D02*
X14870182Y-12974174D01*
X14870182Y-12974174D02*
X14889230Y-12964650D01*
X14889230Y-12964650D02*
X14917801Y-12964650D01*
X14917801Y-12964650D02*
X14936849Y-12974174D01*
X15013039Y-13174174D02*
X15022563Y-13164650D01*
X15022563Y-13164650D02*
X15041611Y-13136079D01*
X15041611Y-13136079D02*
X15051134Y-13117031D01*
X15051134Y-13117031D02*
X15060658Y-13088460D01*
X15060658Y-13088460D02*
X15070182Y-13040841D01*
X15070182Y-13040841D02*
X15070182Y-13002746D01*
X15070182Y-13002746D02*
X15060658Y-12955127D01*
X15060658Y-12955127D02*
X15051134Y-12926555D01*
X15051134Y-12926555D02*
X15041611Y-12907508D01*
X15041611Y-12907508D02*
X15022563Y-12878936D01*
X15022563Y-12878936D02*
X15013039Y-12869412D01*
D12*
X10007500Y-13230500D02*
X10007500Y-13310500D01*
X9967500Y-13270500D02*
X10047500Y-13270500D01*
D11*
X10346372Y-13161984D02*
X10365420Y-13161984D01*
X10365420Y-13161984D02*
X10384467Y-13171508D01*
X10384467Y-13171508D02*
X10393991Y-13181031D01*
X10393991Y-13181031D02*
X10403515Y-13200079D01*
X10403515Y-13200079D02*
X10413039Y-13238174D01*
X10413039Y-13238174D02*
X10413039Y-13285793D01*
X10413039Y-13285793D02*
X10403515Y-13323888D01*
X10403515Y-13323888D02*
X10393991Y-13342936D01*
X10393991Y-13342936D02*
X10384467Y-13352460D01*
X10384467Y-13352460D02*
X10365420Y-13361984D01*
X10365420Y-13361984D02*
X10346372Y-13361984D01*
X10346372Y-13361984D02*
X10327324Y-13352460D01*
X10327324Y-13352460D02*
X10317801Y-13342936D01*
X10317801Y-13342936D02*
X10308277Y-13323888D01*
X10308277Y-13323888D02*
X10298753Y-13285793D01*
X10298753Y-13285793D02*
X10298753Y-13238174D01*
X10298753Y-13238174D02*
X10308277Y-13200079D01*
X10308277Y-13200079D02*
X10317801Y-13181031D01*
X10317801Y-13181031D02*
X10327324Y-13171508D01*
X10327324Y-13171508D02*
X10346372Y-13161984D01*
X10498753Y-13342936D02*
X10508277Y-13352460D01*
X10508277Y-13352460D02*
X10498753Y-13361984D01*
X10498753Y-13361984D02*
X10489229Y-13352460D01*
X10489229Y-13352460D02*
X10498753Y-13342936D01*
X10498753Y-13342936D02*
X10498753Y-13361984D01*
X10622563Y-13247698D02*
X10603515Y-13238174D01*
X10603515Y-13238174D02*
X10593991Y-13228650D01*
X10593991Y-13228650D02*
X10584467Y-13209603D01*
X10584467Y-13209603D02*
X10584467Y-13200079D01*
X10584467Y-13200079D02*
X10593991Y-13181031D01*
X10593991Y-13181031D02*
X10603515Y-13171508D01*
X10603515Y-13171508D02*
X10622563Y-13161984D01*
X10622563Y-13161984D02*
X10660658Y-13161984D01*
X10660658Y-13161984D02*
X10679705Y-13171508D01*
X10679705Y-13171508D02*
X10689229Y-13181031D01*
X10689229Y-13181031D02*
X10698753Y-13200079D01*
X10698753Y-13200079D02*
X10698753Y-13209603D01*
X10698753Y-13209603D02*
X10689229Y-13228650D01*
X10689229Y-13228650D02*
X10679705Y-13238174D01*
X10679705Y-13238174D02*
X10660658Y-13247698D01*
X10660658Y-13247698D02*
X10622563Y-13247698D01*
X10622563Y-13247698D02*
X10603515Y-13257222D01*
X10603515Y-13257222D02*
X10593991Y-13266746D01*
X10593991Y-13266746D02*
X10584467Y-13285793D01*
X10584467Y-13285793D02*
X10584467Y-13323888D01*
X10584467Y-13323888D02*
X10593991Y-13342936D01*
X10593991Y-13342936D02*
X10603515Y-13352460D01*
X10603515Y-13352460D02*
X10622563Y-13361984D01*
X10622563Y-13361984D02*
X10660658Y-13361984D01*
X10660658Y-13361984D02*
X10679705Y-13352460D01*
X10679705Y-13352460D02*
X10689229Y-13342936D01*
X10689229Y-13342936D02*
X10698753Y-13323888D01*
X10698753Y-13323888D02*
X10698753Y-13285793D01*
X10698753Y-13285793D02*
X10689229Y-13266746D01*
X10689229Y-13266746D02*
X10679705Y-13257222D01*
X10679705Y-13257222D02*
X10660658Y-13247698D01*
X10822563Y-13161984D02*
X10841610Y-13161984D01*
X10841610Y-13161984D02*
X10860658Y-13171508D01*
X10860658Y-13171508D02*
X10870182Y-13181031D01*
X10870182Y-13181031D02*
X10879705Y-13200079D01*
X10879705Y-13200079D02*
X10889229Y-13238174D01*
X10889229Y-13238174D02*
X10889229Y-13285793D01*
X10889229Y-13285793D02*
X10879705Y-13323888D01*
X10879705Y-13323888D02*
X10870182Y-13342936D01*
X10870182Y-13342936D02*
X10860658Y-13352460D01*
X10860658Y-13352460D02*
X10841610Y-13361984D01*
X10841610Y-13361984D02*
X10822563Y-13361984D01*
X10822563Y-13361984D02*
X10803515Y-13352460D01*
X10803515Y-13352460D02*
X10793991Y-13342936D01*
X10793991Y-13342936D02*
X10784467Y-13323888D01*
X10784467Y-13323888D02*
X10774944Y-13285793D01*
X10774944Y-13285793D02*
X10774944Y-13238174D01*
X10774944Y-13238174D02*
X10784467Y-13200079D01*
X10784467Y-13200079D02*
X10793991Y-13181031D01*
X10793991Y-13181031D02*
X10803515Y-13171508D01*
X10803515Y-13171508D02*
X10822563Y-13161984D01*
X11013039Y-13161984D02*
X11032086Y-13161984D01*
X11032086Y-13161984D02*
X11051134Y-13171508D01*
X11051134Y-13171508D02*
X11060658Y-13181031D01*
X11060658Y-13181031D02*
X11070182Y-13200079D01*
X11070182Y-13200079D02*
X11079705Y-13238174D01*
X11079705Y-13238174D02*
X11079705Y-13285793D01*
X11079705Y-13285793D02*
X11070182Y-13323888D01*
X11070182Y-13323888D02*
X11060658Y-13342936D01*
X11060658Y-13342936D02*
X11051134Y-13352460D01*
X11051134Y-13352460D02*
X11032086Y-13361984D01*
X11032086Y-13361984D02*
X11013039Y-13361984D01*
X11013039Y-13361984D02*
X10993991Y-13352460D01*
X10993991Y-13352460D02*
X10984467Y-13342936D01*
X10984467Y-13342936D02*
X10974944Y-13323888D01*
X10974944Y-13323888D02*
X10965420Y-13285793D01*
X10965420Y-13285793D02*
X10965420Y-13238174D01*
X10965420Y-13238174D02*
X10974944Y-13200079D01*
X10974944Y-13200079D02*
X10984467Y-13181031D01*
X10984467Y-13181031D02*
X10993991Y-13171508D01*
X10993991Y-13171508D02*
X11013039Y-13161984D01*
X11165420Y-13361984D02*
X11165420Y-13228650D01*
X11165420Y-13247698D02*
X11174944Y-13238174D01*
X11174944Y-13238174D02*
X11193991Y-13228650D01*
X11193991Y-13228650D02*
X11222563Y-13228650D01*
X11222563Y-13228650D02*
X11241610Y-13238174D01*
X11241610Y-13238174D02*
X11251134Y-13257222D01*
X11251134Y-13257222D02*
X11251134Y-13361984D01*
X11251134Y-13257222D02*
X11260658Y-13238174D01*
X11260658Y-13238174D02*
X11279705Y-13228650D01*
X11279705Y-13228650D02*
X11308277Y-13228650D01*
X11308277Y-13228650D02*
X11327324Y-13238174D01*
X11327324Y-13238174D02*
X11336848Y-13257222D01*
X11336848Y-13257222D02*
X11336848Y-13361984D01*
X11432086Y-13361984D02*
X11432086Y-13228650D01*
X11432086Y-13247698D02*
X11441610Y-13238174D01*
X11441610Y-13238174D02*
X11460658Y-13228650D01*
X11460658Y-13228650D02*
X11489229Y-13228650D01*
X11489229Y-13228650D02*
X11508277Y-13238174D01*
X11508277Y-13238174D02*
X11517801Y-13257222D01*
X11517801Y-13257222D02*
X11517801Y-13361984D01*
X11517801Y-13257222D02*
X11527324Y-13238174D01*
X11527324Y-13238174D02*
X11546372Y-13228650D01*
X11546372Y-13228650D02*
X11574943Y-13228650D01*
X11574943Y-13228650D02*
X11593991Y-13238174D01*
X11593991Y-13238174D02*
X11603515Y-13257222D01*
X11603515Y-13257222D02*
X11603515Y-13361984D01*
X11993991Y-13152460D02*
X11822563Y-13409603D01*
X12251134Y-13161984D02*
X12270182Y-13161984D01*
X12270182Y-13161984D02*
X12289229Y-13171508D01*
X12289229Y-13171508D02*
X12298753Y-13181031D01*
X12298753Y-13181031D02*
X12308277Y-13200079D01*
X12308277Y-13200079D02*
X12317801Y-13238174D01*
X12317801Y-13238174D02*
X12317801Y-13285793D01*
X12317801Y-13285793D02*
X12308277Y-13323888D01*
X12308277Y-13323888D02*
X12298753Y-13342936D01*
X12298753Y-13342936D02*
X12289229Y-13352460D01*
X12289229Y-13352460D02*
X12270182Y-13361984D01*
X12270182Y-13361984D02*
X12251134Y-13361984D01*
X12251134Y-13361984D02*
X12232086Y-13352460D01*
X12232086Y-13352460D02*
X12222563Y-13342936D01*
X12222563Y-13342936D02*
X12213039Y-13323888D01*
X12213039Y-13323888D02*
X12203515Y-13285793D01*
X12203515Y-13285793D02*
X12203515Y-13238174D01*
X12203515Y-13238174D02*
X12213039Y-13200079D01*
X12213039Y-13200079D02*
X12222563Y-13181031D01*
X12222563Y-13181031D02*
X12232086Y-13171508D01*
X12232086Y-13171508D02*
X12251134Y-13161984D01*
X12403515Y-13342936D02*
X12413039Y-13352460D01*
X12413039Y-13352460D02*
X12403515Y-13361984D01*
X12403515Y-13361984D02*
X12393991Y-13352460D01*
X12393991Y-13352460D02*
X12403515Y-13342936D01*
X12403515Y-13342936D02*
X12403515Y-13361984D01*
X12536848Y-13161984D02*
X12555896Y-13161984D01*
X12555896Y-13161984D02*
X12574944Y-13171508D01*
X12574944Y-13171508D02*
X12584467Y-13181031D01*
X12584467Y-13181031D02*
X12593991Y-13200079D01*
X12593991Y-13200079D02*
X12603515Y-13238174D01*
X12603515Y-13238174D02*
X12603515Y-13285793D01*
X12603515Y-13285793D02*
X12593991Y-13323888D01*
X12593991Y-13323888D02*
X12584467Y-13342936D01*
X12584467Y-13342936D02*
X12574944Y-13352460D01*
X12574944Y-13352460D02*
X12555896Y-13361984D01*
X12555896Y-13361984D02*
X12536848Y-13361984D01*
X12536848Y-13361984D02*
X12517801Y-13352460D01*
X12517801Y-13352460D02*
X12508277Y-13342936D01*
X12508277Y-13342936D02*
X12498753Y-13323888D01*
X12498753Y-13323888D02*
X12489229Y-13285793D01*
X12489229Y-13285793D02*
X12489229Y-13238174D01*
X12489229Y-13238174D02*
X12498753Y-13200079D01*
X12498753Y-13200079D02*
X12508277Y-13181031D01*
X12508277Y-13181031D02*
X12517801Y-13171508D01*
X12517801Y-13171508D02*
X12536848Y-13161984D01*
X12670182Y-13161984D02*
X12793991Y-13161984D01*
X12793991Y-13161984D02*
X12727325Y-13238174D01*
X12727325Y-13238174D02*
X12755896Y-13238174D01*
X12755896Y-13238174D02*
X12774944Y-13247698D01*
X12774944Y-13247698D02*
X12784467Y-13257222D01*
X12784467Y-13257222D02*
X12793991Y-13276269D01*
X12793991Y-13276269D02*
X12793991Y-13323888D01*
X12793991Y-13323888D02*
X12784467Y-13342936D01*
X12784467Y-13342936D02*
X12774944Y-13352460D01*
X12774944Y-13352460D02*
X12755896Y-13361984D01*
X12755896Y-13361984D02*
X12698753Y-13361984D01*
X12698753Y-13361984D02*
X12679706Y-13352460D01*
X12679706Y-13352460D02*
X12670182Y-13342936D01*
X12984467Y-13361984D02*
X12870182Y-13361984D01*
X12927325Y-13361984D02*
X12927325Y-13161984D01*
X12927325Y-13161984D02*
X12908277Y-13190555D01*
X12908277Y-13190555D02*
X12889229Y-13209603D01*
X12889229Y-13209603D02*
X12870182Y-13219127D01*
X13165420Y-13161984D02*
X13070182Y-13161984D01*
X13070182Y-13161984D02*
X13060658Y-13257222D01*
X13060658Y-13257222D02*
X13070182Y-13247698D01*
X13070182Y-13247698D02*
X13089229Y-13238174D01*
X13089229Y-13238174D02*
X13136848Y-13238174D01*
X13136848Y-13238174D02*
X13155896Y-13247698D01*
X13155896Y-13247698D02*
X13165420Y-13257222D01*
X13165420Y-13257222D02*
X13174944Y-13276269D01*
X13174944Y-13276269D02*
X13174944Y-13323888D01*
X13174944Y-13323888D02*
X13165420Y-13342936D01*
X13165420Y-13342936D02*
X13155896Y-13352460D01*
X13155896Y-13352460D02*
X13136848Y-13361984D01*
X13136848Y-13361984D02*
X13089229Y-13361984D01*
X13089229Y-13361984D02*
X13070182Y-13352460D01*
X13070182Y-13352460D02*
X13060658Y-13342936D01*
X13251134Y-13161984D02*
X13251134Y-13200079D01*
X13327325Y-13161984D02*
X13327325Y-13200079D01*
X13622563Y-13438174D02*
X13613039Y-13428650D01*
X13613039Y-13428650D02*
X13593991Y-13400079D01*
X13593991Y-13400079D02*
X13584468Y-13381031D01*
X13584468Y-13381031D02*
X13574944Y-13352460D01*
X13574944Y-13352460D02*
X13565420Y-13304841D01*
X13565420Y-13304841D02*
X13565420Y-13266746D01*
X13565420Y-13266746D02*
X13574944Y-13219127D01*
X13574944Y-13219127D02*
X13584468Y-13190555D01*
X13584468Y-13190555D02*
X13593991Y-13171508D01*
X13593991Y-13171508D02*
X13613039Y-13142936D01*
X13613039Y-13142936D02*
X13622563Y-13133412D01*
X13803515Y-13361984D02*
X13689229Y-13361984D01*
X13746372Y-13361984D02*
X13746372Y-13161984D01*
X13746372Y-13161984D02*
X13727325Y-13190555D01*
X13727325Y-13190555D02*
X13708277Y-13209603D01*
X13708277Y-13209603D02*
X13689229Y-13219127D01*
X13984468Y-13161984D02*
X13889229Y-13161984D01*
X13889229Y-13161984D02*
X13879706Y-13257222D01*
X13879706Y-13257222D02*
X13889229Y-13247698D01*
X13889229Y-13247698D02*
X13908277Y-13238174D01*
X13908277Y-13238174D02*
X13955896Y-13238174D01*
X13955896Y-13238174D02*
X13974944Y-13247698D01*
X13974944Y-13247698D02*
X13984468Y-13257222D01*
X13984468Y-13257222D02*
X13993991Y-13276269D01*
X13993991Y-13276269D02*
X13993991Y-13323888D01*
X13993991Y-13323888D02*
X13984468Y-13342936D01*
X13984468Y-13342936D02*
X13974944Y-13352460D01*
X13974944Y-13352460D02*
X13955896Y-13361984D01*
X13955896Y-13361984D02*
X13908277Y-13361984D01*
X13908277Y-13361984D02*
X13889229Y-13352460D01*
X13889229Y-13352460D02*
X13879706Y-13342936D01*
X14232087Y-13361984D02*
X14232087Y-13161984D01*
X14317801Y-13361984D02*
X14317801Y-13257222D01*
X14317801Y-13257222D02*
X14308277Y-13238174D01*
X14308277Y-13238174D02*
X14289230Y-13228650D01*
X14289230Y-13228650D02*
X14260658Y-13228650D01*
X14260658Y-13228650D02*
X14241610Y-13238174D01*
X14241610Y-13238174D02*
X14232087Y-13247698D01*
X14441610Y-13361984D02*
X14422563Y-13352460D01*
X14422563Y-13352460D02*
X14413039Y-13342936D01*
X14413039Y-13342936D02*
X14403515Y-13323888D01*
X14403515Y-13323888D02*
X14403515Y-13266746D01*
X14403515Y-13266746D02*
X14413039Y-13247698D01*
X14413039Y-13247698D02*
X14422563Y-13238174D01*
X14422563Y-13238174D02*
X14441610Y-13228650D01*
X14441610Y-13228650D02*
X14470182Y-13228650D01*
X14470182Y-13228650D02*
X14489230Y-13238174D01*
X14489230Y-13238174D02*
X14498753Y-13247698D01*
X14498753Y-13247698D02*
X14508277Y-13266746D01*
X14508277Y-13266746D02*
X14508277Y-13323888D01*
X14508277Y-13323888D02*
X14498753Y-13342936D01*
X14498753Y-13342936D02*
X14489230Y-13352460D01*
X14489230Y-13352460D02*
X14470182Y-13361984D01*
X14470182Y-13361984D02*
X14441610Y-13361984D01*
X14622563Y-13361984D02*
X14603515Y-13352460D01*
X14603515Y-13352460D02*
X14593991Y-13333412D01*
X14593991Y-13333412D02*
X14593991Y-13161984D01*
X14774944Y-13352460D02*
X14755896Y-13361984D01*
X14755896Y-13361984D02*
X14717801Y-13361984D01*
X14717801Y-13361984D02*
X14698753Y-13352460D01*
X14698753Y-13352460D02*
X14689230Y-13333412D01*
X14689230Y-13333412D02*
X14689230Y-13257222D01*
X14689230Y-13257222D02*
X14698753Y-13238174D01*
X14698753Y-13238174D02*
X14717801Y-13228650D01*
X14717801Y-13228650D02*
X14755896Y-13228650D01*
X14755896Y-13228650D02*
X14774944Y-13238174D01*
X14774944Y-13238174D02*
X14784468Y-13257222D01*
X14784468Y-13257222D02*
X14784468Y-13276269D01*
X14784468Y-13276269D02*
X14689230Y-13295317D01*
X14860658Y-13352460D02*
X14879706Y-13361984D01*
X14879706Y-13361984D02*
X14917801Y-13361984D01*
X14917801Y-13361984D02*
X14936849Y-13352460D01*
X14936849Y-13352460D02*
X14946372Y-13333412D01*
X14946372Y-13333412D02*
X14946372Y-13323888D01*
X14946372Y-13323888D02*
X14936849Y-13304841D01*
X14936849Y-13304841D02*
X14917801Y-13295317D01*
X14917801Y-13295317D02*
X14889230Y-13295317D01*
X14889230Y-13295317D02*
X14870182Y-13285793D01*
X14870182Y-13285793D02*
X14860658Y-13266746D01*
X14860658Y-13266746D02*
X14860658Y-13257222D01*
X14860658Y-13257222D02*
X14870182Y-13238174D01*
X14870182Y-13238174D02*
X14889230Y-13228650D01*
X14889230Y-13228650D02*
X14917801Y-13228650D01*
X14917801Y-13228650D02*
X14936849Y-13238174D01*
X15013039Y-13438174D02*
X15022563Y-13428650D01*
X15022563Y-13428650D02*
X15041611Y-13400079D01*
X15041611Y-13400079D02*
X15051134Y-13381031D01*
X15051134Y-13381031D02*
X15060658Y-13352460D01*
X15060658Y-13352460D02*
X15070182Y-13304841D01*
X15070182Y-13304841D02*
X15070182Y-13266746D01*
X15070182Y-13266746D02*
X15060658Y-13219127D01*
X15060658Y-13219127D02*
X15051134Y-13190555D01*
X15051134Y-13190555D02*
X15041611Y-13171508D01*
X15041611Y-13171508D02*
X15022563Y-13142936D01*
X15022563Y-13142936D02*
X15013039Y-13133412D01*
D12*
X10033588Y-13568088D02*
X10033588Y-13500912D01*
X9966412Y-13500912D01*
X9966412Y-13568088D01*
X10033588Y-13568088D01*
D11*
X10346372Y-13425984D02*
X10365420Y-13425984D01*
X10365420Y-13425984D02*
X10384467Y-13435508D01*
X10384467Y-13435508D02*
X10393991Y-13445031D01*
X10393991Y-13445031D02*
X10403515Y-13464079D01*
X10403515Y-13464079D02*
X10413039Y-13502174D01*
X10413039Y-13502174D02*
X10413039Y-13549793D01*
X10413039Y-13549793D02*
X10403515Y-13587888D01*
X10403515Y-13587888D02*
X10393991Y-13606936D01*
X10393991Y-13606936D02*
X10384467Y-13616460D01*
X10384467Y-13616460D02*
X10365420Y-13625984D01*
X10365420Y-13625984D02*
X10346372Y-13625984D01*
X10346372Y-13625984D02*
X10327324Y-13616460D01*
X10327324Y-13616460D02*
X10317801Y-13606936D01*
X10317801Y-13606936D02*
X10308277Y-13587888D01*
X10308277Y-13587888D02*
X10298753Y-13549793D01*
X10298753Y-13549793D02*
X10298753Y-13502174D01*
X10298753Y-13502174D02*
X10308277Y-13464079D01*
X10308277Y-13464079D02*
X10317801Y-13445031D01*
X10317801Y-13445031D02*
X10327324Y-13435508D01*
X10327324Y-13435508D02*
X10346372Y-13425984D01*
X10498753Y-13606936D02*
X10508277Y-13616460D01*
X10508277Y-13616460D02*
X10498753Y-13625984D01*
X10498753Y-13625984D02*
X10489229Y-13616460D01*
X10489229Y-13616460D02*
X10498753Y-13606936D01*
X10498753Y-13606936D02*
X10498753Y-13625984D01*
X10603515Y-13625984D02*
X10641610Y-13625984D01*
X10641610Y-13625984D02*
X10660658Y-13616460D01*
X10660658Y-13616460D02*
X10670182Y-13606936D01*
X10670182Y-13606936D02*
X10689229Y-13578365D01*
X10689229Y-13578365D02*
X10698753Y-13540269D01*
X10698753Y-13540269D02*
X10698753Y-13464079D01*
X10698753Y-13464079D02*
X10689229Y-13445031D01*
X10689229Y-13445031D02*
X10679705Y-13435508D01*
X10679705Y-13435508D02*
X10660658Y-13425984D01*
X10660658Y-13425984D02*
X10622563Y-13425984D01*
X10622563Y-13425984D02*
X10603515Y-13435508D01*
X10603515Y-13435508D02*
X10593991Y-13445031D01*
X10593991Y-13445031D02*
X10584467Y-13464079D01*
X10584467Y-13464079D02*
X10584467Y-13511698D01*
X10584467Y-13511698D02*
X10593991Y-13530746D01*
X10593991Y-13530746D02*
X10603515Y-13540269D01*
X10603515Y-13540269D02*
X10622563Y-13549793D01*
X10622563Y-13549793D02*
X10660658Y-13549793D01*
X10660658Y-13549793D02*
X10679705Y-13540269D01*
X10679705Y-13540269D02*
X10689229Y-13530746D01*
X10689229Y-13530746D02*
X10698753Y-13511698D01*
X10879705Y-13425984D02*
X10784467Y-13425984D01*
X10784467Y-13425984D02*
X10774944Y-13521222D01*
X10774944Y-13521222D02*
X10784467Y-13511698D01*
X10784467Y-13511698D02*
X10803515Y-13502174D01*
X10803515Y-13502174D02*
X10851134Y-13502174D01*
X10851134Y-13502174D02*
X10870182Y-13511698D01*
X10870182Y-13511698D02*
X10879705Y-13521222D01*
X10879705Y-13521222D02*
X10889229Y-13540269D01*
X10889229Y-13540269D02*
X10889229Y-13587888D01*
X10889229Y-13587888D02*
X10879705Y-13606936D01*
X10879705Y-13606936D02*
X10870182Y-13616460D01*
X10870182Y-13616460D02*
X10851134Y-13625984D01*
X10851134Y-13625984D02*
X10803515Y-13625984D01*
X10803515Y-13625984D02*
X10784467Y-13616460D01*
X10784467Y-13616460D02*
X10774944Y-13606936D01*
X11013039Y-13425984D02*
X11032086Y-13425984D01*
X11032086Y-13425984D02*
X11051134Y-13435508D01*
X11051134Y-13435508D02*
X11060658Y-13445031D01*
X11060658Y-13445031D02*
X11070182Y-13464079D01*
X11070182Y-13464079D02*
X11079705Y-13502174D01*
X11079705Y-13502174D02*
X11079705Y-13549793D01*
X11079705Y-13549793D02*
X11070182Y-13587888D01*
X11070182Y-13587888D02*
X11060658Y-13606936D01*
X11060658Y-13606936D02*
X11051134Y-13616460D01*
X11051134Y-13616460D02*
X11032086Y-13625984D01*
X11032086Y-13625984D02*
X11013039Y-13625984D01*
X11013039Y-13625984D02*
X10993991Y-13616460D01*
X10993991Y-13616460D02*
X10984467Y-13606936D01*
X10984467Y-13606936D02*
X10974944Y-13587888D01*
X10974944Y-13587888D02*
X10965420Y-13549793D01*
X10965420Y-13549793D02*
X10965420Y-13502174D01*
X10965420Y-13502174D02*
X10974944Y-13464079D01*
X10974944Y-13464079D02*
X10984467Y-13445031D01*
X10984467Y-13445031D02*
X10993991Y-13435508D01*
X10993991Y-13435508D02*
X11013039Y-13425984D01*
X11165420Y-13625984D02*
X11165420Y-13492650D01*
X11165420Y-13511698D02*
X11174944Y-13502174D01*
X11174944Y-13502174D02*
X11193991Y-13492650D01*
X11193991Y-13492650D02*
X11222563Y-13492650D01*
X11222563Y-13492650D02*
X11241610Y-13502174D01*
X11241610Y-13502174D02*
X11251134Y-13521222D01*
X11251134Y-13521222D02*
X11251134Y-13625984D01*
X11251134Y-13521222D02*
X11260658Y-13502174D01*
X11260658Y-13502174D02*
X11279705Y-13492650D01*
X11279705Y-13492650D02*
X11308277Y-13492650D01*
X11308277Y-13492650D02*
X11327324Y-13502174D01*
X11327324Y-13502174D02*
X11336848Y-13521222D01*
X11336848Y-13521222D02*
X11336848Y-13625984D01*
X11432086Y-13625984D02*
X11432086Y-13492650D01*
X11432086Y-13511698D02*
X11441610Y-13502174D01*
X11441610Y-13502174D02*
X11460658Y-13492650D01*
X11460658Y-13492650D02*
X11489229Y-13492650D01*
X11489229Y-13492650D02*
X11508277Y-13502174D01*
X11508277Y-13502174D02*
X11517801Y-13521222D01*
X11517801Y-13521222D02*
X11517801Y-13625984D01*
X11517801Y-13521222D02*
X11527324Y-13502174D01*
X11527324Y-13502174D02*
X11546372Y-13492650D01*
X11546372Y-13492650D02*
X11574943Y-13492650D01*
X11574943Y-13492650D02*
X11593991Y-13502174D01*
X11593991Y-13502174D02*
X11603515Y-13521222D01*
X11603515Y-13521222D02*
X11603515Y-13625984D01*
X11993991Y-13416460D02*
X11822563Y-13673603D01*
X12251134Y-13425984D02*
X12270182Y-13425984D01*
X12270182Y-13425984D02*
X12289229Y-13435508D01*
X12289229Y-13435508D02*
X12298753Y-13445031D01*
X12298753Y-13445031D02*
X12308277Y-13464079D01*
X12308277Y-13464079D02*
X12317801Y-13502174D01*
X12317801Y-13502174D02*
X12317801Y-13549793D01*
X12317801Y-13549793D02*
X12308277Y-13587888D01*
X12308277Y-13587888D02*
X12298753Y-13606936D01*
X12298753Y-13606936D02*
X12289229Y-13616460D01*
X12289229Y-13616460D02*
X12270182Y-13625984D01*
X12270182Y-13625984D02*
X12251134Y-13625984D01*
X12251134Y-13625984D02*
X12232086Y-13616460D01*
X12232086Y-13616460D02*
X12222563Y-13606936D01*
X12222563Y-13606936D02*
X12213039Y-13587888D01*
X12213039Y-13587888D02*
X12203515Y-13549793D01*
X12203515Y-13549793D02*
X12203515Y-13502174D01*
X12203515Y-13502174D02*
X12213039Y-13464079D01*
X12213039Y-13464079D02*
X12222563Y-13445031D01*
X12222563Y-13445031D02*
X12232086Y-13435508D01*
X12232086Y-13435508D02*
X12251134Y-13425984D01*
X12403515Y-13606936D02*
X12413039Y-13616460D01*
X12413039Y-13616460D02*
X12403515Y-13625984D01*
X12403515Y-13625984D02*
X12393991Y-13616460D01*
X12393991Y-13616460D02*
X12403515Y-13606936D01*
X12403515Y-13606936D02*
X12403515Y-13625984D01*
X12536848Y-13425984D02*
X12555896Y-13425984D01*
X12555896Y-13425984D02*
X12574944Y-13435508D01*
X12574944Y-13435508D02*
X12584467Y-13445031D01*
X12584467Y-13445031D02*
X12593991Y-13464079D01*
X12593991Y-13464079D02*
X12603515Y-13502174D01*
X12603515Y-13502174D02*
X12603515Y-13549793D01*
X12603515Y-13549793D02*
X12593991Y-13587888D01*
X12593991Y-13587888D02*
X12584467Y-13606936D01*
X12584467Y-13606936D02*
X12574944Y-13616460D01*
X12574944Y-13616460D02*
X12555896Y-13625984D01*
X12555896Y-13625984D02*
X12536848Y-13625984D01*
X12536848Y-13625984D02*
X12517801Y-13616460D01*
X12517801Y-13616460D02*
X12508277Y-13606936D01*
X12508277Y-13606936D02*
X12498753Y-13587888D01*
X12498753Y-13587888D02*
X12489229Y-13549793D01*
X12489229Y-13549793D02*
X12489229Y-13502174D01*
X12489229Y-13502174D02*
X12498753Y-13464079D01*
X12498753Y-13464079D02*
X12508277Y-13445031D01*
X12508277Y-13445031D02*
X12517801Y-13435508D01*
X12517801Y-13435508D02*
X12536848Y-13425984D01*
X12670182Y-13425984D02*
X12793991Y-13425984D01*
X12793991Y-13425984D02*
X12727325Y-13502174D01*
X12727325Y-13502174D02*
X12755896Y-13502174D01*
X12755896Y-13502174D02*
X12774944Y-13511698D01*
X12774944Y-13511698D02*
X12784467Y-13521222D01*
X12784467Y-13521222D02*
X12793991Y-13540269D01*
X12793991Y-13540269D02*
X12793991Y-13587888D01*
X12793991Y-13587888D02*
X12784467Y-13606936D01*
X12784467Y-13606936D02*
X12774944Y-13616460D01*
X12774944Y-13616460D02*
X12755896Y-13625984D01*
X12755896Y-13625984D02*
X12698753Y-13625984D01*
X12698753Y-13625984D02*
X12679706Y-13616460D01*
X12679706Y-13616460D02*
X12670182Y-13606936D01*
X12860658Y-13425984D02*
X12993991Y-13425984D01*
X12993991Y-13425984D02*
X12908277Y-13625984D01*
X13155896Y-13492650D02*
X13155896Y-13625984D01*
X13108277Y-13416460D02*
X13060658Y-13559317D01*
X13060658Y-13559317D02*
X13184467Y-13559317D01*
X13251134Y-13425984D02*
X13251134Y-13464079D01*
X13327325Y-13425984D02*
X13327325Y-13464079D01*
X13622563Y-13702174D02*
X13613039Y-13692650D01*
X13613039Y-13692650D02*
X13593991Y-13664079D01*
X13593991Y-13664079D02*
X13584468Y-13645031D01*
X13584468Y-13645031D02*
X13574944Y-13616460D01*
X13574944Y-13616460D02*
X13565420Y-13568841D01*
X13565420Y-13568841D02*
X13565420Y-13530746D01*
X13565420Y-13530746D02*
X13574944Y-13483127D01*
X13574944Y-13483127D02*
X13584468Y-13454555D01*
X13584468Y-13454555D02*
X13593991Y-13435508D01*
X13593991Y-13435508D02*
X13613039Y-13406936D01*
X13613039Y-13406936D02*
X13622563Y-13397412D01*
X13689229Y-13445031D02*
X13698753Y-13435508D01*
X13698753Y-13435508D02*
X13717801Y-13425984D01*
X13717801Y-13425984D02*
X13765420Y-13425984D01*
X13765420Y-13425984D02*
X13784468Y-13435508D01*
X13784468Y-13435508D02*
X13793991Y-13445031D01*
X13793991Y-13445031D02*
X13803515Y-13464079D01*
X13803515Y-13464079D02*
X13803515Y-13483127D01*
X13803515Y-13483127D02*
X13793991Y-13511698D01*
X13793991Y-13511698D02*
X13679706Y-13625984D01*
X13679706Y-13625984D02*
X13803515Y-13625984D01*
X13974944Y-13425984D02*
X13936848Y-13425984D01*
X13936848Y-13425984D02*
X13917801Y-13435508D01*
X13917801Y-13435508D02*
X13908277Y-13445031D01*
X13908277Y-13445031D02*
X13889229Y-13473603D01*
X13889229Y-13473603D02*
X13879706Y-13511698D01*
X13879706Y-13511698D02*
X13879706Y-13587888D01*
X13879706Y-13587888D02*
X13889229Y-13606936D01*
X13889229Y-13606936D02*
X13898753Y-13616460D01*
X13898753Y-13616460D02*
X13917801Y-13625984D01*
X13917801Y-13625984D02*
X13955896Y-13625984D01*
X13955896Y-13625984D02*
X13974944Y-13616460D01*
X13974944Y-13616460D02*
X13984468Y-13606936D01*
X13984468Y-13606936D02*
X13993991Y-13587888D01*
X13993991Y-13587888D02*
X13993991Y-13540269D01*
X13993991Y-13540269D02*
X13984468Y-13521222D01*
X13984468Y-13521222D02*
X13974944Y-13511698D01*
X13974944Y-13511698D02*
X13955896Y-13502174D01*
X13955896Y-13502174D02*
X13917801Y-13502174D01*
X13917801Y-13502174D02*
X13898753Y-13511698D01*
X13898753Y-13511698D02*
X13889229Y-13521222D01*
X13889229Y-13521222D02*
X13879706Y-13540269D01*
X14232087Y-13625984D02*
X14232087Y-13425984D01*
X14317801Y-13625984D02*
X14317801Y-13521222D01*
X14317801Y-13521222D02*
X14308277Y-13502174D01*
X14308277Y-13502174D02*
X14289230Y-13492650D01*
X14289230Y-13492650D02*
X14260658Y-13492650D01*
X14260658Y-13492650D02*
X14241610Y-13502174D01*
X14241610Y-13502174D02*
X14232087Y-13511698D01*
X14441610Y-13625984D02*
X14422563Y-13616460D01*
X14422563Y-13616460D02*
X14413039Y-13606936D01*
X14413039Y-13606936D02*
X14403515Y-13587888D01*
X14403515Y-13587888D02*
X14403515Y-13530746D01*
X14403515Y-13530746D02*
X14413039Y-13511698D01*
X14413039Y-13511698D02*
X14422563Y-13502174D01*
X14422563Y-13502174D02*
X14441610Y-13492650D01*
X14441610Y-13492650D02*
X14470182Y-13492650D01*
X14470182Y-13492650D02*
X14489230Y-13502174D01*
X14489230Y-13502174D02*
X14498753Y-13511698D01*
X14498753Y-13511698D02*
X14508277Y-13530746D01*
X14508277Y-13530746D02*
X14508277Y-13587888D01*
X14508277Y-13587888D02*
X14498753Y-13606936D01*
X14498753Y-13606936D02*
X14489230Y-13616460D01*
X14489230Y-13616460D02*
X14470182Y-13625984D01*
X14470182Y-13625984D02*
X14441610Y-13625984D01*
X14622563Y-13625984D02*
X14603515Y-13616460D01*
X14603515Y-13616460D02*
X14593991Y-13597412D01*
X14593991Y-13597412D02*
X14593991Y-13425984D01*
X14774944Y-13616460D02*
X14755896Y-13625984D01*
X14755896Y-13625984D02*
X14717801Y-13625984D01*
X14717801Y-13625984D02*
X14698753Y-13616460D01*
X14698753Y-13616460D02*
X14689230Y-13597412D01*
X14689230Y-13597412D02*
X14689230Y-13521222D01*
X14689230Y-13521222D02*
X14698753Y-13502174D01*
X14698753Y-13502174D02*
X14717801Y-13492650D01*
X14717801Y-13492650D02*
X14755896Y-13492650D01*
X14755896Y-13492650D02*
X14774944Y-13502174D01*
X14774944Y-13502174D02*
X14784468Y-13521222D01*
X14784468Y-13521222D02*
X14784468Y-13540269D01*
X14784468Y-13540269D02*
X14689230Y-13559317D01*
X14860658Y-13616460D02*
X14879706Y-13625984D01*
X14879706Y-13625984D02*
X14917801Y-13625984D01*
X14917801Y-13625984D02*
X14936849Y-13616460D01*
X14936849Y-13616460D02*
X14946372Y-13597412D01*
X14946372Y-13597412D02*
X14946372Y-13587888D01*
X14946372Y-13587888D02*
X14936849Y-13568841D01*
X14936849Y-13568841D02*
X14917801Y-13559317D01*
X14917801Y-13559317D02*
X14889230Y-13559317D01*
X14889230Y-13559317D02*
X14870182Y-13549793D01*
X14870182Y-13549793D02*
X14860658Y-13530746D01*
X14860658Y-13530746D02*
X14860658Y-13521222D01*
X14860658Y-13521222D02*
X14870182Y-13502174D01*
X14870182Y-13502174D02*
X14889230Y-13492650D01*
X14889230Y-13492650D02*
X14917801Y-13492650D01*
X14917801Y-13492650D02*
X14936849Y-13502174D01*
X15013039Y-13702174D02*
X15022563Y-13692650D01*
X15022563Y-13692650D02*
X15041611Y-13664079D01*
X15041611Y-13664079D02*
X15051134Y-13645031D01*
X15051134Y-13645031D02*
X15060658Y-13616460D01*
X15060658Y-13616460D02*
X15070182Y-13568841D01*
X15070182Y-13568841D02*
X15070182Y-13530746D01*
X15070182Y-13530746D02*
X15060658Y-13483127D01*
X15060658Y-13483127D02*
X15051134Y-13454555D01*
X15051134Y-13454555D02*
X15041611Y-13435508D01*
X15041611Y-13435508D02*
X15022563Y-13406936D01*
X15022563Y-13406936D02*
X15013039Y-13397412D01*
D12*
X9997500Y-13848500D02*
X10047500Y-13798500D01*
X9997500Y-13748500D01*
X9947500Y-13798500D01*
X9997500Y-13848500D01*
D11*
X10413039Y-13889984D02*
X10298753Y-13889984D01*
X10355896Y-13889984D02*
X10355896Y-13689984D01*
X10355896Y-13689984D02*
X10336848Y-13718555D01*
X10336848Y-13718555D02*
X10317801Y-13737603D01*
X10317801Y-13737603D02*
X10298753Y-13747127D01*
X10498753Y-13870936D02*
X10508277Y-13880460D01*
X10508277Y-13880460D02*
X10498753Y-13889984D01*
X10498753Y-13889984D02*
X10489229Y-13880460D01*
X10489229Y-13880460D02*
X10498753Y-13870936D01*
X10498753Y-13870936D02*
X10498753Y-13889984D01*
X10632086Y-13689984D02*
X10651134Y-13689984D01*
X10651134Y-13689984D02*
X10670182Y-13699508D01*
X10670182Y-13699508D02*
X10679705Y-13709031D01*
X10679705Y-13709031D02*
X10689229Y-13728079D01*
X10689229Y-13728079D02*
X10698753Y-13766174D01*
X10698753Y-13766174D02*
X10698753Y-13813793D01*
X10698753Y-13813793D02*
X10689229Y-13851888D01*
X10689229Y-13851888D02*
X10679705Y-13870936D01*
X10679705Y-13870936D02*
X10670182Y-13880460D01*
X10670182Y-13880460D02*
X10651134Y-13889984D01*
X10651134Y-13889984D02*
X10632086Y-13889984D01*
X10632086Y-13889984D02*
X10613039Y-13880460D01*
X10613039Y-13880460D02*
X10603515Y-13870936D01*
X10603515Y-13870936D02*
X10593991Y-13851888D01*
X10593991Y-13851888D02*
X10584467Y-13813793D01*
X10584467Y-13813793D02*
X10584467Y-13766174D01*
X10584467Y-13766174D02*
X10593991Y-13728079D01*
X10593991Y-13728079D02*
X10603515Y-13709031D01*
X10603515Y-13709031D02*
X10613039Y-13699508D01*
X10613039Y-13699508D02*
X10632086Y-13689984D01*
X10822563Y-13689984D02*
X10841610Y-13689984D01*
X10841610Y-13689984D02*
X10860658Y-13699508D01*
X10860658Y-13699508D02*
X10870182Y-13709031D01*
X10870182Y-13709031D02*
X10879705Y-13728079D01*
X10879705Y-13728079D02*
X10889229Y-13766174D01*
X10889229Y-13766174D02*
X10889229Y-13813793D01*
X10889229Y-13813793D02*
X10879705Y-13851888D01*
X10879705Y-13851888D02*
X10870182Y-13870936D01*
X10870182Y-13870936D02*
X10860658Y-13880460D01*
X10860658Y-13880460D02*
X10841610Y-13889984D01*
X10841610Y-13889984D02*
X10822563Y-13889984D01*
X10822563Y-13889984D02*
X10803515Y-13880460D01*
X10803515Y-13880460D02*
X10793991Y-13870936D01*
X10793991Y-13870936D02*
X10784467Y-13851888D01*
X10784467Y-13851888D02*
X10774944Y-13813793D01*
X10774944Y-13813793D02*
X10774944Y-13766174D01*
X10774944Y-13766174D02*
X10784467Y-13728079D01*
X10784467Y-13728079D02*
X10793991Y-13709031D01*
X10793991Y-13709031D02*
X10803515Y-13699508D01*
X10803515Y-13699508D02*
X10822563Y-13689984D01*
X11013039Y-13689984D02*
X11032086Y-13689984D01*
X11032086Y-13689984D02*
X11051134Y-13699508D01*
X11051134Y-13699508D02*
X11060658Y-13709031D01*
X11060658Y-13709031D02*
X11070182Y-13728079D01*
X11070182Y-13728079D02*
X11079705Y-13766174D01*
X11079705Y-13766174D02*
X11079705Y-13813793D01*
X11079705Y-13813793D02*
X11070182Y-13851888D01*
X11070182Y-13851888D02*
X11060658Y-13870936D01*
X11060658Y-13870936D02*
X11051134Y-13880460D01*
X11051134Y-13880460D02*
X11032086Y-13889984D01*
X11032086Y-13889984D02*
X11013039Y-13889984D01*
X11013039Y-13889984D02*
X10993991Y-13880460D01*
X10993991Y-13880460D02*
X10984467Y-13870936D01*
X10984467Y-13870936D02*
X10974944Y-13851888D01*
X10974944Y-13851888D02*
X10965420Y-13813793D01*
X10965420Y-13813793D02*
X10965420Y-13766174D01*
X10965420Y-13766174D02*
X10974944Y-13728079D01*
X10974944Y-13728079D02*
X10984467Y-13709031D01*
X10984467Y-13709031D02*
X10993991Y-13699508D01*
X10993991Y-13699508D02*
X11013039Y-13689984D01*
X11165420Y-13889984D02*
X11165420Y-13756650D01*
X11165420Y-13775698D02*
X11174944Y-13766174D01*
X11174944Y-13766174D02*
X11193991Y-13756650D01*
X11193991Y-13756650D02*
X11222563Y-13756650D01*
X11222563Y-13756650D02*
X11241610Y-13766174D01*
X11241610Y-13766174D02*
X11251134Y-13785222D01*
X11251134Y-13785222D02*
X11251134Y-13889984D01*
X11251134Y-13785222D02*
X11260658Y-13766174D01*
X11260658Y-13766174D02*
X11279705Y-13756650D01*
X11279705Y-13756650D02*
X11308277Y-13756650D01*
X11308277Y-13756650D02*
X11327324Y-13766174D01*
X11327324Y-13766174D02*
X11336848Y-13785222D01*
X11336848Y-13785222D02*
X11336848Y-13889984D01*
X11432086Y-13889984D02*
X11432086Y-13756650D01*
X11432086Y-13775698D02*
X11441610Y-13766174D01*
X11441610Y-13766174D02*
X11460658Y-13756650D01*
X11460658Y-13756650D02*
X11489229Y-13756650D01*
X11489229Y-13756650D02*
X11508277Y-13766174D01*
X11508277Y-13766174D02*
X11517801Y-13785222D01*
X11517801Y-13785222D02*
X11517801Y-13889984D01*
X11517801Y-13785222D02*
X11527324Y-13766174D01*
X11527324Y-13766174D02*
X11546372Y-13756650D01*
X11546372Y-13756650D02*
X11574943Y-13756650D01*
X11574943Y-13756650D02*
X11593991Y-13766174D01*
X11593991Y-13766174D02*
X11603515Y-13785222D01*
X11603515Y-13785222D02*
X11603515Y-13889984D01*
X11993991Y-13680460D02*
X11822563Y-13937603D01*
X12251134Y-13689984D02*
X12270182Y-13689984D01*
X12270182Y-13689984D02*
X12289229Y-13699508D01*
X12289229Y-13699508D02*
X12298753Y-13709031D01*
X12298753Y-13709031D02*
X12308277Y-13728079D01*
X12308277Y-13728079D02*
X12317801Y-13766174D01*
X12317801Y-13766174D02*
X12317801Y-13813793D01*
X12317801Y-13813793D02*
X12308277Y-13851888D01*
X12308277Y-13851888D02*
X12298753Y-13870936D01*
X12298753Y-13870936D02*
X12289229Y-13880460D01*
X12289229Y-13880460D02*
X12270182Y-13889984D01*
X12270182Y-13889984D02*
X12251134Y-13889984D01*
X12251134Y-13889984D02*
X12232086Y-13880460D01*
X12232086Y-13880460D02*
X12222563Y-13870936D01*
X12222563Y-13870936D02*
X12213039Y-13851888D01*
X12213039Y-13851888D02*
X12203515Y-13813793D01*
X12203515Y-13813793D02*
X12203515Y-13766174D01*
X12203515Y-13766174D02*
X12213039Y-13728079D01*
X12213039Y-13728079D02*
X12222563Y-13709031D01*
X12222563Y-13709031D02*
X12232086Y-13699508D01*
X12232086Y-13699508D02*
X12251134Y-13689984D01*
X12403515Y-13870936D02*
X12413039Y-13880460D01*
X12413039Y-13880460D02*
X12403515Y-13889984D01*
X12403515Y-13889984D02*
X12393991Y-13880460D01*
X12393991Y-13880460D02*
X12403515Y-13870936D01*
X12403515Y-13870936D02*
X12403515Y-13889984D01*
X12536848Y-13689984D02*
X12555896Y-13689984D01*
X12555896Y-13689984D02*
X12574944Y-13699508D01*
X12574944Y-13699508D02*
X12584467Y-13709031D01*
X12584467Y-13709031D02*
X12593991Y-13728079D01*
X12593991Y-13728079D02*
X12603515Y-13766174D01*
X12603515Y-13766174D02*
X12603515Y-13813793D01*
X12603515Y-13813793D02*
X12593991Y-13851888D01*
X12593991Y-13851888D02*
X12584467Y-13870936D01*
X12584467Y-13870936D02*
X12574944Y-13880460D01*
X12574944Y-13880460D02*
X12555896Y-13889984D01*
X12555896Y-13889984D02*
X12536848Y-13889984D01*
X12536848Y-13889984D02*
X12517801Y-13880460D01*
X12517801Y-13880460D02*
X12508277Y-13870936D01*
X12508277Y-13870936D02*
X12498753Y-13851888D01*
X12498753Y-13851888D02*
X12489229Y-13813793D01*
X12489229Y-13813793D02*
X12489229Y-13766174D01*
X12489229Y-13766174D02*
X12498753Y-13728079D01*
X12498753Y-13728079D02*
X12508277Y-13709031D01*
X12508277Y-13709031D02*
X12517801Y-13699508D01*
X12517801Y-13699508D02*
X12536848Y-13689984D01*
X12670182Y-13689984D02*
X12793991Y-13689984D01*
X12793991Y-13689984D02*
X12727325Y-13766174D01*
X12727325Y-13766174D02*
X12755896Y-13766174D01*
X12755896Y-13766174D02*
X12774944Y-13775698D01*
X12774944Y-13775698D02*
X12784467Y-13785222D01*
X12784467Y-13785222D02*
X12793991Y-13804269D01*
X12793991Y-13804269D02*
X12793991Y-13851888D01*
X12793991Y-13851888D02*
X12784467Y-13870936D01*
X12784467Y-13870936D02*
X12774944Y-13880460D01*
X12774944Y-13880460D02*
X12755896Y-13889984D01*
X12755896Y-13889984D02*
X12698753Y-13889984D01*
X12698753Y-13889984D02*
X12679706Y-13880460D01*
X12679706Y-13880460D02*
X12670182Y-13870936D01*
X12889229Y-13889984D02*
X12927325Y-13889984D01*
X12927325Y-13889984D02*
X12946372Y-13880460D01*
X12946372Y-13880460D02*
X12955896Y-13870936D01*
X12955896Y-13870936D02*
X12974944Y-13842365D01*
X12974944Y-13842365D02*
X12984467Y-13804269D01*
X12984467Y-13804269D02*
X12984467Y-13728079D01*
X12984467Y-13728079D02*
X12974944Y-13709031D01*
X12974944Y-13709031D02*
X12965420Y-13699508D01*
X12965420Y-13699508D02*
X12946372Y-13689984D01*
X12946372Y-13689984D02*
X12908277Y-13689984D01*
X12908277Y-13689984D02*
X12889229Y-13699508D01*
X12889229Y-13699508D02*
X12879706Y-13709031D01*
X12879706Y-13709031D02*
X12870182Y-13728079D01*
X12870182Y-13728079D02*
X12870182Y-13775698D01*
X12870182Y-13775698D02*
X12879706Y-13794746D01*
X12879706Y-13794746D02*
X12889229Y-13804269D01*
X12889229Y-13804269D02*
X12908277Y-13813793D01*
X12908277Y-13813793D02*
X12946372Y-13813793D01*
X12946372Y-13813793D02*
X12965420Y-13804269D01*
X12965420Y-13804269D02*
X12974944Y-13794746D01*
X12974944Y-13794746D02*
X12984467Y-13775698D01*
X13155896Y-13756650D02*
X13155896Y-13889984D01*
X13108277Y-13680460D02*
X13060658Y-13823317D01*
X13060658Y-13823317D02*
X13184467Y-13823317D01*
X13251134Y-13689984D02*
X13251134Y-13728079D01*
X13327325Y-13689984D02*
X13327325Y-13728079D01*
X13622563Y-13966174D02*
X13613039Y-13956650D01*
X13613039Y-13956650D02*
X13593991Y-13928079D01*
X13593991Y-13928079D02*
X13584468Y-13909031D01*
X13584468Y-13909031D02*
X13574944Y-13880460D01*
X13574944Y-13880460D02*
X13565420Y-13832841D01*
X13565420Y-13832841D02*
X13565420Y-13794746D01*
X13565420Y-13794746D02*
X13574944Y-13747127D01*
X13574944Y-13747127D02*
X13584468Y-13718555D01*
X13584468Y-13718555D02*
X13593991Y-13699508D01*
X13593991Y-13699508D02*
X13613039Y-13670936D01*
X13613039Y-13670936D02*
X13622563Y-13661412D01*
X13803515Y-13889984D02*
X13689229Y-13889984D01*
X13746372Y-13889984D02*
X13746372Y-13689984D01*
X13746372Y-13689984D02*
X13727325Y-13718555D01*
X13727325Y-13718555D02*
X13708277Y-13737603D01*
X13708277Y-13737603D02*
X13689229Y-13747127D01*
X13974944Y-13756650D02*
X13974944Y-13889984D01*
X13927325Y-13680460D02*
X13879706Y-13823317D01*
X13879706Y-13823317D02*
X14003515Y-13823317D01*
X14232087Y-13889984D02*
X14232087Y-13689984D01*
X14317801Y-13889984D02*
X14317801Y-13785222D01*
X14317801Y-13785222D02*
X14308277Y-13766174D01*
X14308277Y-13766174D02*
X14289230Y-13756650D01*
X14289230Y-13756650D02*
X14260658Y-13756650D01*
X14260658Y-13756650D02*
X14241610Y-13766174D01*
X14241610Y-13766174D02*
X14232087Y-13775698D01*
X14441610Y-13889984D02*
X14422563Y-13880460D01*
X14422563Y-13880460D02*
X14413039Y-13870936D01*
X14413039Y-13870936D02*
X14403515Y-13851888D01*
X14403515Y-13851888D02*
X14403515Y-13794746D01*
X14403515Y-13794746D02*
X14413039Y-13775698D01*
X14413039Y-13775698D02*
X14422563Y-13766174D01*
X14422563Y-13766174D02*
X14441610Y-13756650D01*
X14441610Y-13756650D02*
X14470182Y-13756650D01*
X14470182Y-13756650D02*
X14489230Y-13766174D01*
X14489230Y-13766174D02*
X14498753Y-13775698D01*
X14498753Y-13775698D02*
X14508277Y-13794746D01*
X14508277Y-13794746D02*
X14508277Y-13851888D01*
X14508277Y-13851888D02*
X14498753Y-13870936D01*
X14498753Y-13870936D02*
X14489230Y-13880460D01*
X14489230Y-13880460D02*
X14470182Y-13889984D01*
X14470182Y-13889984D02*
X14441610Y-13889984D01*
X14622563Y-13889984D02*
X14603515Y-13880460D01*
X14603515Y-13880460D02*
X14593991Y-13861412D01*
X14593991Y-13861412D02*
X14593991Y-13689984D01*
X14774944Y-13880460D02*
X14755896Y-13889984D01*
X14755896Y-13889984D02*
X14717801Y-13889984D01*
X14717801Y-13889984D02*
X14698753Y-13880460D01*
X14698753Y-13880460D02*
X14689230Y-13861412D01*
X14689230Y-13861412D02*
X14689230Y-13785222D01*
X14689230Y-13785222D02*
X14698753Y-13766174D01*
X14698753Y-13766174D02*
X14717801Y-13756650D01*
X14717801Y-13756650D02*
X14755896Y-13756650D01*
X14755896Y-13756650D02*
X14774944Y-13766174D01*
X14774944Y-13766174D02*
X14784468Y-13785222D01*
X14784468Y-13785222D02*
X14784468Y-13804269D01*
X14784468Y-13804269D02*
X14689230Y-13823317D01*
X14860658Y-13880460D02*
X14879706Y-13889984D01*
X14879706Y-13889984D02*
X14917801Y-13889984D01*
X14917801Y-13889984D02*
X14936849Y-13880460D01*
X14936849Y-13880460D02*
X14946372Y-13861412D01*
X14946372Y-13861412D02*
X14946372Y-13851888D01*
X14946372Y-13851888D02*
X14936849Y-13832841D01*
X14936849Y-13832841D02*
X14917801Y-13823317D01*
X14917801Y-13823317D02*
X14889230Y-13823317D01*
X14889230Y-13823317D02*
X14870182Y-13813793D01*
X14870182Y-13813793D02*
X14860658Y-13794746D01*
X14860658Y-13794746D02*
X14860658Y-13785222D01*
X14860658Y-13785222D02*
X14870182Y-13766174D01*
X14870182Y-13766174D02*
X14889230Y-13756650D01*
X14889230Y-13756650D02*
X14917801Y-13756650D01*
X14917801Y-13756650D02*
X14936849Y-13766174D01*
X15184468Y-13813793D02*
X15336849Y-13813793D01*
X15260658Y-13889984D02*
X15260658Y-13737603D01*
X15565420Y-13689984D02*
X15689230Y-13689984D01*
X15689230Y-13689984D02*
X15622563Y-13766174D01*
X15622563Y-13766174D02*
X15651134Y-13766174D01*
X15651134Y-13766174D02*
X15670182Y-13775698D01*
X15670182Y-13775698D02*
X15679706Y-13785222D01*
X15679706Y-13785222D02*
X15689230Y-13804269D01*
X15689230Y-13804269D02*
X15689230Y-13851888D01*
X15689230Y-13851888D02*
X15679706Y-13870936D01*
X15679706Y-13870936D02*
X15670182Y-13880460D01*
X15670182Y-13880460D02*
X15651134Y-13889984D01*
X15651134Y-13889984D02*
X15593992Y-13889984D01*
X15593992Y-13889984D02*
X15574944Y-13880460D01*
X15574944Y-13880460D02*
X15565420Y-13870936D01*
X15917801Y-13880460D02*
X15936849Y-13889984D01*
X15936849Y-13889984D02*
X15974944Y-13889984D01*
X15974944Y-13889984D02*
X15993992Y-13880460D01*
X15993992Y-13880460D02*
X16003515Y-13861412D01*
X16003515Y-13861412D02*
X16003515Y-13851888D01*
X16003515Y-13851888D02*
X15993992Y-13832841D01*
X15993992Y-13832841D02*
X15974944Y-13823317D01*
X15974944Y-13823317D02*
X15946373Y-13823317D01*
X15946373Y-13823317D02*
X15927325Y-13813793D01*
X15927325Y-13813793D02*
X15917801Y-13794746D01*
X15917801Y-13794746D02*
X15917801Y-13785222D01*
X15917801Y-13785222D02*
X15927325Y-13766174D01*
X15927325Y-13766174D02*
X15946373Y-13756650D01*
X15946373Y-13756650D02*
X15974944Y-13756650D01*
X15974944Y-13756650D02*
X15993992Y-13766174D01*
X16117801Y-13889984D02*
X16098754Y-13880460D01*
X16098754Y-13880460D02*
X16089230Y-13861412D01*
X16089230Y-13861412D02*
X16089230Y-13689984D01*
X16222563Y-13889984D02*
X16203515Y-13880460D01*
X16203515Y-13880460D02*
X16193992Y-13870936D01*
X16193992Y-13870936D02*
X16184468Y-13851888D01*
X16184468Y-13851888D02*
X16184468Y-13794746D01*
X16184468Y-13794746D02*
X16193992Y-13775698D01*
X16193992Y-13775698D02*
X16203515Y-13766174D01*
X16203515Y-13766174D02*
X16222563Y-13756650D01*
X16222563Y-13756650D02*
X16251135Y-13756650D01*
X16251135Y-13756650D02*
X16270182Y-13766174D01*
X16270182Y-13766174D02*
X16279706Y-13775698D01*
X16279706Y-13775698D02*
X16289230Y-13794746D01*
X16289230Y-13794746D02*
X16289230Y-13851888D01*
X16289230Y-13851888D02*
X16279706Y-13870936D01*
X16279706Y-13870936D02*
X16270182Y-13880460D01*
X16270182Y-13880460D02*
X16251135Y-13889984D01*
X16251135Y-13889984D02*
X16222563Y-13889984D01*
X16346373Y-13756650D02*
X16422563Y-13756650D01*
X16374944Y-13689984D02*
X16374944Y-13861412D01*
X16374944Y-13861412D02*
X16384468Y-13880460D01*
X16384468Y-13880460D02*
X16403515Y-13889984D01*
X16403515Y-13889984D02*
X16422563Y-13889984D01*
X16479706Y-13880460D02*
X16498754Y-13889984D01*
X16498754Y-13889984D02*
X16536849Y-13889984D01*
X16536849Y-13889984D02*
X16555896Y-13880460D01*
X16555896Y-13880460D02*
X16565420Y-13861412D01*
X16565420Y-13861412D02*
X16565420Y-13851888D01*
X16565420Y-13851888D02*
X16555896Y-13832841D01*
X16555896Y-13832841D02*
X16536849Y-13823317D01*
X16536849Y-13823317D02*
X16508277Y-13823317D01*
X16508277Y-13823317D02*
X16489230Y-13813793D01*
X16489230Y-13813793D02*
X16479706Y-13794746D01*
X16479706Y-13794746D02*
X16479706Y-13785222D01*
X16479706Y-13785222D02*
X16489230Y-13766174D01*
X16489230Y-13766174D02*
X16508277Y-13756650D01*
X16508277Y-13756650D02*
X16536849Y-13756650D01*
X16536849Y-13756650D02*
X16555896Y-13766174D01*
X16632087Y-13966174D02*
X16641611Y-13956650D01*
X16641611Y-13956650D02*
X16660658Y-13928079D01*
X16660658Y-13928079D02*
X16670182Y-13909031D01*
X16670182Y-13909031D02*
X16679706Y-13880460D01*
X16679706Y-13880460D02*
X16689230Y-13832841D01*
X16689230Y-13832841D02*
X16689230Y-13794746D01*
X16689230Y-13794746D02*
X16679706Y-13747127D01*
X16679706Y-13747127D02*
X16670182Y-13718555D01*
X16670182Y-13718555D02*
X16660658Y-13699508D01*
X16660658Y-13699508D02*
X16641611Y-13670936D01*
X16641611Y-13670936D02*
X16632087Y-13661412D01*
D13*
X9937500Y-14007500D02*
X10047500Y-14117500D01*
X10047500Y-14007500D02*
X9937500Y-14117500D01*
X10047500Y-14062500D02*
G75*
G02*
X9937500Y-14062500I-55000J0D01*
G01*
X9937500Y-14062500D02*
G75*
G02*
X10047500Y-14062500I55000J0D01*
G01*
D11*
X10413039Y-14153984D02*
X10298753Y-14153984D01*
X10355896Y-14153984D02*
X10355896Y-13953984D01*
X10355896Y-13953984D02*
X10336848Y-13982555D01*
X10336848Y-13982555D02*
X10317801Y-14001603D01*
X10317801Y-14001603D02*
X10298753Y-14011127D01*
X10498753Y-14134936D02*
X10508277Y-14144460D01*
X10508277Y-14144460D02*
X10498753Y-14153984D01*
X10498753Y-14153984D02*
X10489229Y-14144460D01*
X10489229Y-14144460D02*
X10498753Y-14134936D01*
X10498753Y-14134936D02*
X10498753Y-14153984D01*
X10698753Y-14153984D02*
X10584467Y-14153984D01*
X10641610Y-14153984D02*
X10641610Y-13953984D01*
X10641610Y-13953984D02*
X10622563Y-13982555D01*
X10622563Y-13982555D02*
X10603515Y-14001603D01*
X10603515Y-14001603D02*
X10584467Y-14011127D01*
X10822563Y-13953984D02*
X10841610Y-13953984D01*
X10841610Y-13953984D02*
X10860658Y-13963508D01*
X10860658Y-13963508D02*
X10870182Y-13973031D01*
X10870182Y-13973031D02*
X10879705Y-13992079D01*
X10879705Y-13992079D02*
X10889229Y-14030174D01*
X10889229Y-14030174D02*
X10889229Y-14077793D01*
X10889229Y-14077793D02*
X10879705Y-14115888D01*
X10879705Y-14115888D02*
X10870182Y-14134936D01*
X10870182Y-14134936D02*
X10860658Y-14144460D01*
X10860658Y-14144460D02*
X10841610Y-14153984D01*
X10841610Y-14153984D02*
X10822563Y-14153984D01*
X10822563Y-14153984D02*
X10803515Y-14144460D01*
X10803515Y-14144460D02*
X10793991Y-14134936D01*
X10793991Y-14134936D02*
X10784467Y-14115888D01*
X10784467Y-14115888D02*
X10774944Y-14077793D01*
X10774944Y-14077793D02*
X10774944Y-14030174D01*
X10774944Y-14030174D02*
X10784467Y-13992079D01*
X10784467Y-13992079D02*
X10793991Y-13973031D01*
X10793991Y-13973031D02*
X10803515Y-13963508D01*
X10803515Y-13963508D02*
X10822563Y-13953984D01*
X11013039Y-13953984D02*
X11032086Y-13953984D01*
X11032086Y-13953984D02*
X11051134Y-13963508D01*
X11051134Y-13963508D02*
X11060658Y-13973031D01*
X11060658Y-13973031D02*
X11070182Y-13992079D01*
X11070182Y-13992079D02*
X11079705Y-14030174D01*
X11079705Y-14030174D02*
X11079705Y-14077793D01*
X11079705Y-14077793D02*
X11070182Y-14115888D01*
X11070182Y-14115888D02*
X11060658Y-14134936D01*
X11060658Y-14134936D02*
X11051134Y-14144460D01*
X11051134Y-14144460D02*
X11032086Y-14153984D01*
X11032086Y-14153984D02*
X11013039Y-14153984D01*
X11013039Y-14153984D02*
X10993991Y-14144460D01*
X10993991Y-14144460D02*
X10984467Y-14134936D01*
X10984467Y-14134936D02*
X10974944Y-14115888D01*
X10974944Y-14115888D02*
X10965420Y-14077793D01*
X10965420Y-14077793D02*
X10965420Y-14030174D01*
X10965420Y-14030174D02*
X10974944Y-13992079D01*
X10974944Y-13992079D02*
X10984467Y-13973031D01*
X10984467Y-13973031D02*
X10993991Y-13963508D01*
X10993991Y-13963508D02*
X11013039Y-13953984D01*
X11165420Y-14153984D02*
X11165420Y-14020650D01*
X11165420Y-14039698D02*
X11174944Y-14030174D01*
X11174944Y-14030174D02*
X11193991Y-14020650D01*
X11193991Y-14020650D02*
X11222563Y-14020650D01*
X11222563Y-14020650D02*
X11241610Y-14030174D01*
X11241610Y-14030174D02*
X11251134Y-14049222D01*
X11251134Y-14049222D02*
X11251134Y-14153984D01*
X11251134Y-14049222D02*
X11260658Y-14030174D01*
X11260658Y-14030174D02*
X11279705Y-14020650D01*
X11279705Y-14020650D02*
X11308277Y-14020650D01*
X11308277Y-14020650D02*
X11327324Y-14030174D01*
X11327324Y-14030174D02*
X11336848Y-14049222D01*
X11336848Y-14049222D02*
X11336848Y-14153984D01*
X11432086Y-14153984D02*
X11432086Y-14020650D01*
X11432086Y-14039698D02*
X11441610Y-14030174D01*
X11441610Y-14030174D02*
X11460658Y-14020650D01*
X11460658Y-14020650D02*
X11489229Y-14020650D01*
X11489229Y-14020650D02*
X11508277Y-14030174D01*
X11508277Y-14030174D02*
X11517801Y-14049222D01*
X11517801Y-14049222D02*
X11517801Y-14153984D01*
X11517801Y-14049222D02*
X11527324Y-14030174D01*
X11527324Y-14030174D02*
X11546372Y-14020650D01*
X11546372Y-14020650D02*
X11574943Y-14020650D01*
X11574943Y-14020650D02*
X11593991Y-14030174D01*
X11593991Y-14030174D02*
X11603515Y-14049222D01*
X11603515Y-14049222D02*
X11603515Y-14153984D01*
X11993991Y-13944460D02*
X11822563Y-14201603D01*
X12251134Y-13953984D02*
X12270182Y-13953984D01*
X12270182Y-13953984D02*
X12289229Y-13963508D01*
X12289229Y-13963508D02*
X12298753Y-13973031D01*
X12298753Y-13973031D02*
X12308277Y-13992079D01*
X12308277Y-13992079D02*
X12317801Y-14030174D01*
X12317801Y-14030174D02*
X12317801Y-14077793D01*
X12317801Y-14077793D02*
X12308277Y-14115888D01*
X12308277Y-14115888D02*
X12298753Y-14134936D01*
X12298753Y-14134936D02*
X12289229Y-14144460D01*
X12289229Y-14144460D02*
X12270182Y-14153984D01*
X12270182Y-14153984D02*
X12251134Y-14153984D01*
X12251134Y-14153984D02*
X12232086Y-14144460D01*
X12232086Y-14144460D02*
X12222563Y-14134936D01*
X12222563Y-14134936D02*
X12213039Y-14115888D01*
X12213039Y-14115888D02*
X12203515Y-14077793D01*
X12203515Y-14077793D02*
X12203515Y-14030174D01*
X12203515Y-14030174D02*
X12213039Y-13992079D01*
X12213039Y-13992079D02*
X12222563Y-13973031D01*
X12222563Y-13973031D02*
X12232086Y-13963508D01*
X12232086Y-13963508D02*
X12251134Y-13953984D01*
X12403515Y-14134936D02*
X12413039Y-14144460D01*
X12413039Y-14144460D02*
X12403515Y-14153984D01*
X12403515Y-14153984D02*
X12393991Y-14144460D01*
X12393991Y-14144460D02*
X12403515Y-14134936D01*
X12403515Y-14134936D02*
X12403515Y-14153984D01*
X12536848Y-13953984D02*
X12555896Y-13953984D01*
X12555896Y-13953984D02*
X12574944Y-13963508D01*
X12574944Y-13963508D02*
X12584467Y-13973031D01*
X12584467Y-13973031D02*
X12593991Y-13992079D01*
X12593991Y-13992079D02*
X12603515Y-14030174D01*
X12603515Y-14030174D02*
X12603515Y-14077793D01*
X12603515Y-14077793D02*
X12593991Y-14115888D01*
X12593991Y-14115888D02*
X12584467Y-14134936D01*
X12584467Y-14134936D02*
X12574944Y-14144460D01*
X12574944Y-14144460D02*
X12555896Y-14153984D01*
X12555896Y-14153984D02*
X12536848Y-14153984D01*
X12536848Y-14153984D02*
X12517801Y-14144460D01*
X12517801Y-14144460D02*
X12508277Y-14134936D01*
X12508277Y-14134936D02*
X12498753Y-14115888D01*
X12498753Y-14115888D02*
X12489229Y-14077793D01*
X12489229Y-14077793D02*
X12489229Y-14030174D01*
X12489229Y-14030174D02*
X12498753Y-13992079D01*
X12498753Y-13992079D02*
X12508277Y-13973031D01*
X12508277Y-13973031D02*
X12517801Y-13963508D01*
X12517801Y-13963508D02*
X12536848Y-13953984D01*
X12774944Y-14020650D02*
X12774944Y-14153984D01*
X12727325Y-13944460D02*
X12679706Y-14087317D01*
X12679706Y-14087317D02*
X12803515Y-14087317D01*
X12860658Y-13953984D02*
X12984467Y-13953984D01*
X12984467Y-13953984D02*
X12917801Y-14030174D01*
X12917801Y-14030174D02*
X12946372Y-14030174D01*
X12946372Y-14030174D02*
X12965420Y-14039698D01*
X12965420Y-14039698D02*
X12974944Y-14049222D01*
X12974944Y-14049222D02*
X12984467Y-14068269D01*
X12984467Y-14068269D02*
X12984467Y-14115888D01*
X12984467Y-14115888D02*
X12974944Y-14134936D01*
X12974944Y-14134936D02*
X12965420Y-14144460D01*
X12965420Y-14144460D02*
X12946372Y-14153984D01*
X12946372Y-14153984D02*
X12889229Y-14153984D01*
X12889229Y-14153984D02*
X12870182Y-14144460D01*
X12870182Y-14144460D02*
X12860658Y-14134936D01*
X13051134Y-13953984D02*
X13174944Y-13953984D01*
X13174944Y-13953984D02*
X13108277Y-14030174D01*
X13108277Y-14030174D02*
X13136848Y-14030174D01*
X13136848Y-14030174D02*
X13155896Y-14039698D01*
X13155896Y-14039698D02*
X13165420Y-14049222D01*
X13165420Y-14049222D02*
X13174944Y-14068269D01*
X13174944Y-14068269D02*
X13174944Y-14115888D01*
X13174944Y-14115888D02*
X13165420Y-14134936D01*
X13165420Y-14134936D02*
X13155896Y-14144460D01*
X13155896Y-14144460D02*
X13136848Y-14153984D01*
X13136848Y-14153984D02*
X13079706Y-14153984D01*
X13079706Y-14153984D02*
X13060658Y-14144460D01*
X13060658Y-14144460D02*
X13051134Y-14134936D01*
X13251134Y-13953984D02*
X13251134Y-13992079D01*
X13327325Y-13953984D02*
X13327325Y-13992079D01*
X13622563Y-14230174D02*
X13613039Y-14220650D01*
X13613039Y-14220650D02*
X13593991Y-14192079D01*
X13593991Y-14192079D02*
X13584468Y-14173031D01*
X13584468Y-14173031D02*
X13574944Y-14144460D01*
X13574944Y-14144460D02*
X13565420Y-14096841D01*
X13565420Y-14096841D02*
X13565420Y-14058746D01*
X13565420Y-14058746D02*
X13574944Y-14011127D01*
X13574944Y-14011127D02*
X13584468Y-13982555D01*
X13584468Y-13982555D02*
X13593991Y-13963508D01*
X13593991Y-13963508D02*
X13613039Y-13934936D01*
X13613039Y-13934936D02*
X13622563Y-13925412D01*
X13679706Y-13953984D02*
X13803515Y-13953984D01*
X13803515Y-13953984D02*
X13736848Y-14030174D01*
X13736848Y-14030174D02*
X13765420Y-14030174D01*
X13765420Y-14030174D02*
X13784468Y-14039698D01*
X13784468Y-14039698D02*
X13793991Y-14049222D01*
X13793991Y-14049222D02*
X13803515Y-14068269D01*
X13803515Y-14068269D02*
X13803515Y-14115888D01*
X13803515Y-14115888D02*
X13793991Y-14134936D01*
X13793991Y-14134936D02*
X13784468Y-14144460D01*
X13784468Y-14144460D02*
X13765420Y-14153984D01*
X13765420Y-14153984D02*
X13708277Y-14153984D01*
X13708277Y-14153984D02*
X13689229Y-14144460D01*
X13689229Y-14144460D02*
X13679706Y-14134936D01*
X14041610Y-14153984D02*
X14041610Y-13953984D01*
X14127325Y-14153984D02*
X14127325Y-14049222D01*
X14127325Y-14049222D02*
X14117801Y-14030174D01*
X14117801Y-14030174D02*
X14098753Y-14020650D01*
X14098753Y-14020650D02*
X14070182Y-14020650D01*
X14070182Y-14020650D02*
X14051134Y-14030174D01*
X14051134Y-14030174D02*
X14041610Y-14039698D01*
X14251134Y-14153984D02*
X14232087Y-14144460D01*
X14232087Y-14144460D02*
X14222563Y-14134936D01*
X14222563Y-14134936D02*
X14213039Y-14115888D01*
X14213039Y-14115888D02*
X14213039Y-14058746D01*
X14213039Y-14058746D02*
X14222563Y-14039698D01*
X14222563Y-14039698D02*
X14232087Y-14030174D01*
X14232087Y-14030174D02*
X14251134Y-14020650D01*
X14251134Y-14020650D02*
X14279706Y-14020650D01*
X14279706Y-14020650D02*
X14298753Y-14030174D01*
X14298753Y-14030174D02*
X14308277Y-14039698D01*
X14308277Y-14039698D02*
X14317801Y-14058746D01*
X14317801Y-14058746D02*
X14317801Y-14115888D01*
X14317801Y-14115888D02*
X14308277Y-14134936D01*
X14308277Y-14134936D02*
X14298753Y-14144460D01*
X14298753Y-14144460D02*
X14279706Y-14153984D01*
X14279706Y-14153984D02*
X14251134Y-14153984D01*
X14432087Y-14153984D02*
X14413039Y-14144460D01*
X14413039Y-14144460D02*
X14403515Y-14125412D01*
X14403515Y-14125412D02*
X14403515Y-13953984D01*
X14584468Y-14144460D02*
X14565420Y-14153984D01*
X14565420Y-14153984D02*
X14527325Y-14153984D01*
X14527325Y-14153984D02*
X14508277Y-14144460D01*
X14508277Y-14144460D02*
X14498753Y-14125412D01*
X14498753Y-14125412D02*
X14498753Y-14049222D01*
X14498753Y-14049222D02*
X14508277Y-14030174D01*
X14508277Y-14030174D02*
X14527325Y-14020650D01*
X14527325Y-14020650D02*
X14565420Y-14020650D01*
X14565420Y-14020650D02*
X14584468Y-14030174D01*
X14584468Y-14030174D02*
X14593991Y-14049222D01*
X14593991Y-14049222D02*
X14593991Y-14068269D01*
X14593991Y-14068269D02*
X14498753Y-14087317D01*
X14670182Y-14144460D02*
X14689230Y-14153984D01*
X14689230Y-14153984D02*
X14727325Y-14153984D01*
X14727325Y-14153984D02*
X14746372Y-14144460D01*
X14746372Y-14144460D02*
X14755896Y-14125412D01*
X14755896Y-14125412D02*
X14755896Y-14115888D01*
X14755896Y-14115888D02*
X14746372Y-14096841D01*
X14746372Y-14096841D02*
X14727325Y-14087317D01*
X14727325Y-14087317D02*
X14698753Y-14087317D01*
X14698753Y-14087317D02*
X14679706Y-14077793D01*
X14679706Y-14077793D02*
X14670182Y-14058746D01*
X14670182Y-14058746D02*
X14670182Y-14049222D01*
X14670182Y-14049222D02*
X14679706Y-14030174D01*
X14679706Y-14030174D02*
X14698753Y-14020650D01*
X14698753Y-14020650D02*
X14727325Y-14020650D01*
X14727325Y-14020650D02*
X14746372Y-14030174D01*
X14822563Y-14230174D02*
X14832087Y-14220650D01*
X14832087Y-14220650D02*
X14851134Y-14192079D01*
X14851134Y-14192079D02*
X14860658Y-14173031D01*
X14860658Y-14173031D02*
X14870182Y-14144460D01*
X14870182Y-14144460D02*
X14879706Y-14096841D01*
X14879706Y-14096841D02*
X14879706Y-14058746D01*
X14879706Y-14058746D02*
X14870182Y-14011127D01*
X14870182Y-14011127D02*
X14860658Y-13982555D01*
X14860658Y-13982555D02*
X14851134Y-13963508D01*
X14851134Y-13963508D02*
X14832087Y-13934936D01*
X14832087Y-13934936D02*
X14822563Y-13925412D01*
D14*
X9920500Y-14263000D02*
X10047500Y-14390000D01*
X10047500Y-14263000D02*
X9920500Y-14390000D01*
X9984000Y-14263000D02*
X9984000Y-14390000D01*
X9920500Y-14326500D02*
X10047500Y-14326500D01*
D11*
X10413039Y-14417984D02*
X10298753Y-14417984D01*
X10355896Y-14417984D02*
X10355896Y-14217984D01*
X10355896Y-14217984D02*
X10336848Y-14246555D01*
X10336848Y-14246555D02*
X10317801Y-14265603D01*
X10317801Y-14265603D02*
X10298753Y-14275127D01*
X10498753Y-14398936D02*
X10508277Y-14408460D01*
X10508277Y-14408460D02*
X10498753Y-14417984D01*
X10498753Y-14417984D02*
X10489229Y-14408460D01*
X10489229Y-14408460D02*
X10498753Y-14398936D01*
X10498753Y-14398936D02*
X10498753Y-14417984D01*
X10584467Y-14237031D02*
X10593991Y-14227508D01*
X10593991Y-14227508D02*
X10613039Y-14217984D01*
X10613039Y-14217984D02*
X10660658Y-14217984D01*
X10660658Y-14217984D02*
X10679705Y-14227508D01*
X10679705Y-14227508D02*
X10689229Y-14237031D01*
X10689229Y-14237031D02*
X10698753Y-14256079D01*
X10698753Y-14256079D02*
X10698753Y-14275127D01*
X10698753Y-14275127D02*
X10689229Y-14303698D01*
X10689229Y-14303698D02*
X10574944Y-14417984D01*
X10574944Y-14417984D02*
X10698753Y-14417984D01*
X10765420Y-14217984D02*
X10898753Y-14217984D01*
X10898753Y-14217984D02*
X10813039Y-14417984D01*
X11013039Y-14217984D02*
X11032086Y-14217984D01*
X11032086Y-14217984D02*
X11051134Y-14227508D01*
X11051134Y-14227508D02*
X11060658Y-14237031D01*
X11060658Y-14237031D02*
X11070182Y-14256079D01*
X11070182Y-14256079D02*
X11079705Y-14294174D01*
X11079705Y-14294174D02*
X11079705Y-14341793D01*
X11079705Y-14341793D02*
X11070182Y-14379888D01*
X11070182Y-14379888D02*
X11060658Y-14398936D01*
X11060658Y-14398936D02*
X11051134Y-14408460D01*
X11051134Y-14408460D02*
X11032086Y-14417984D01*
X11032086Y-14417984D02*
X11013039Y-14417984D01*
X11013039Y-14417984D02*
X10993991Y-14408460D01*
X10993991Y-14408460D02*
X10984467Y-14398936D01*
X10984467Y-14398936D02*
X10974944Y-14379888D01*
X10974944Y-14379888D02*
X10965420Y-14341793D01*
X10965420Y-14341793D02*
X10965420Y-14294174D01*
X10965420Y-14294174D02*
X10974944Y-14256079D01*
X10974944Y-14256079D02*
X10984467Y-14237031D01*
X10984467Y-14237031D02*
X10993991Y-14227508D01*
X10993991Y-14227508D02*
X11013039Y-14217984D01*
X11165420Y-14417984D02*
X11165420Y-14284650D01*
X11165420Y-14303698D02*
X11174944Y-14294174D01*
X11174944Y-14294174D02*
X11193991Y-14284650D01*
X11193991Y-14284650D02*
X11222563Y-14284650D01*
X11222563Y-14284650D02*
X11241610Y-14294174D01*
X11241610Y-14294174D02*
X11251134Y-14313222D01*
X11251134Y-14313222D02*
X11251134Y-14417984D01*
X11251134Y-14313222D02*
X11260658Y-14294174D01*
X11260658Y-14294174D02*
X11279705Y-14284650D01*
X11279705Y-14284650D02*
X11308277Y-14284650D01*
X11308277Y-14284650D02*
X11327324Y-14294174D01*
X11327324Y-14294174D02*
X11336848Y-14313222D01*
X11336848Y-14313222D02*
X11336848Y-14417984D01*
X11432086Y-14417984D02*
X11432086Y-14284650D01*
X11432086Y-14303698D02*
X11441610Y-14294174D01*
X11441610Y-14294174D02*
X11460658Y-14284650D01*
X11460658Y-14284650D02*
X11489229Y-14284650D01*
X11489229Y-14284650D02*
X11508277Y-14294174D01*
X11508277Y-14294174D02*
X11517801Y-14313222D01*
X11517801Y-14313222D02*
X11517801Y-14417984D01*
X11517801Y-14313222D02*
X11527324Y-14294174D01*
X11527324Y-14294174D02*
X11546372Y-14284650D01*
X11546372Y-14284650D02*
X11574943Y-14284650D01*
X11574943Y-14284650D02*
X11593991Y-14294174D01*
X11593991Y-14294174D02*
X11603515Y-14313222D01*
X11603515Y-14313222D02*
X11603515Y-14417984D01*
X11993991Y-14208460D02*
X11822563Y-14465603D01*
X12251134Y-14217984D02*
X12270182Y-14217984D01*
X12270182Y-14217984D02*
X12289229Y-14227508D01*
X12289229Y-14227508D02*
X12298753Y-14237031D01*
X12298753Y-14237031D02*
X12308277Y-14256079D01*
X12308277Y-14256079D02*
X12317801Y-14294174D01*
X12317801Y-14294174D02*
X12317801Y-14341793D01*
X12317801Y-14341793D02*
X12308277Y-14379888D01*
X12308277Y-14379888D02*
X12298753Y-14398936D01*
X12298753Y-14398936D02*
X12289229Y-14408460D01*
X12289229Y-14408460D02*
X12270182Y-14417984D01*
X12270182Y-14417984D02*
X12251134Y-14417984D01*
X12251134Y-14417984D02*
X12232086Y-14408460D01*
X12232086Y-14408460D02*
X12222563Y-14398936D01*
X12222563Y-14398936D02*
X12213039Y-14379888D01*
X12213039Y-14379888D02*
X12203515Y-14341793D01*
X12203515Y-14341793D02*
X12203515Y-14294174D01*
X12203515Y-14294174D02*
X12213039Y-14256079D01*
X12213039Y-14256079D02*
X12222563Y-14237031D01*
X12222563Y-14237031D02*
X12232086Y-14227508D01*
X12232086Y-14227508D02*
X12251134Y-14217984D01*
X12403515Y-14398936D02*
X12413039Y-14408460D01*
X12413039Y-14408460D02*
X12403515Y-14417984D01*
X12403515Y-14417984D02*
X12393991Y-14408460D01*
X12393991Y-14408460D02*
X12403515Y-14398936D01*
X12403515Y-14398936D02*
X12403515Y-14417984D01*
X12536848Y-14217984D02*
X12555896Y-14217984D01*
X12555896Y-14217984D02*
X12574944Y-14227508D01*
X12574944Y-14227508D02*
X12584467Y-14237031D01*
X12584467Y-14237031D02*
X12593991Y-14256079D01*
X12593991Y-14256079D02*
X12603515Y-14294174D01*
X12603515Y-14294174D02*
X12603515Y-14341793D01*
X12603515Y-14341793D02*
X12593991Y-14379888D01*
X12593991Y-14379888D02*
X12584467Y-14398936D01*
X12584467Y-14398936D02*
X12574944Y-14408460D01*
X12574944Y-14408460D02*
X12555896Y-14417984D01*
X12555896Y-14417984D02*
X12536848Y-14417984D01*
X12536848Y-14417984D02*
X12517801Y-14408460D01*
X12517801Y-14408460D02*
X12508277Y-14398936D01*
X12508277Y-14398936D02*
X12498753Y-14379888D01*
X12498753Y-14379888D02*
X12489229Y-14341793D01*
X12489229Y-14341793D02*
X12489229Y-14294174D01*
X12489229Y-14294174D02*
X12498753Y-14256079D01*
X12498753Y-14256079D02*
X12508277Y-14237031D01*
X12508277Y-14237031D02*
X12517801Y-14227508D01*
X12517801Y-14227508D02*
X12536848Y-14217984D01*
X12784467Y-14217984D02*
X12689229Y-14217984D01*
X12689229Y-14217984D02*
X12679706Y-14313222D01*
X12679706Y-14313222D02*
X12689229Y-14303698D01*
X12689229Y-14303698D02*
X12708277Y-14294174D01*
X12708277Y-14294174D02*
X12755896Y-14294174D01*
X12755896Y-14294174D02*
X12774944Y-14303698D01*
X12774944Y-14303698D02*
X12784467Y-14313222D01*
X12784467Y-14313222D02*
X12793991Y-14332269D01*
X12793991Y-14332269D02*
X12793991Y-14379888D01*
X12793991Y-14379888D02*
X12784467Y-14398936D01*
X12784467Y-14398936D02*
X12774944Y-14408460D01*
X12774944Y-14408460D02*
X12755896Y-14417984D01*
X12755896Y-14417984D02*
X12708277Y-14417984D01*
X12708277Y-14417984D02*
X12689229Y-14408460D01*
X12689229Y-14408460D02*
X12679706Y-14398936D01*
X12917801Y-14217984D02*
X12936848Y-14217984D01*
X12936848Y-14217984D02*
X12955896Y-14227508D01*
X12955896Y-14227508D02*
X12965420Y-14237031D01*
X12965420Y-14237031D02*
X12974944Y-14256079D01*
X12974944Y-14256079D02*
X12984467Y-14294174D01*
X12984467Y-14294174D02*
X12984467Y-14341793D01*
X12984467Y-14341793D02*
X12974944Y-14379888D01*
X12974944Y-14379888D02*
X12965420Y-14398936D01*
X12965420Y-14398936D02*
X12955896Y-14408460D01*
X12955896Y-14408460D02*
X12936848Y-14417984D01*
X12936848Y-14417984D02*
X12917801Y-14417984D01*
X12917801Y-14417984D02*
X12898753Y-14408460D01*
X12898753Y-14408460D02*
X12889229Y-14398936D01*
X12889229Y-14398936D02*
X12879706Y-14379888D01*
X12879706Y-14379888D02*
X12870182Y-14341793D01*
X12870182Y-14341793D02*
X12870182Y-14294174D01*
X12870182Y-14294174D02*
X12879706Y-14256079D01*
X12879706Y-14256079D02*
X12889229Y-14237031D01*
X12889229Y-14237031D02*
X12898753Y-14227508D01*
X12898753Y-14227508D02*
X12917801Y-14217984D01*
X13108277Y-14217984D02*
X13127325Y-14217984D01*
X13127325Y-14217984D02*
X13146372Y-14227508D01*
X13146372Y-14227508D02*
X13155896Y-14237031D01*
X13155896Y-14237031D02*
X13165420Y-14256079D01*
X13165420Y-14256079D02*
X13174944Y-14294174D01*
X13174944Y-14294174D02*
X13174944Y-14341793D01*
X13174944Y-14341793D02*
X13165420Y-14379888D01*
X13165420Y-14379888D02*
X13155896Y-14398936D01*
X13155896Y-14398936D02*
X13146372Y-14408460D01*
X13146372Y-14408460D02*
X13127325Y-14417984D01*
X13127325Y-14417984D02*
X13108277Y-14417984D01*
X13108277Y-14417984D02*
X13089229Y-14408460D01*
X13089229Y-14408460D02*
X13079706Y-14398936D01*
X13079706Y-14398936D02*
X13070182Y-14379888D01*
X13070182Y-14379888D02*
X13060658Y-14341793D01*
X13060658Y-14341793D02*
X13060658Y-14294174D01*
X13060658Y-14294174D02*
X13070182Y-14256079D01*
X13070182Y-14256079D02*
X13079706Y-14237031D01*
X13079706Y-14237031D02*
X13089229Y-14227508D01*
X13089229Y-14227508D02*
X13108277Y-14217984D01*
X13251134Y-14217984D02*
X13251134Y-14256079D01*
X13327325Y-14217984D02*
X13327325Y-14256079D01*
X13622563Y-14494174D02*
X13613039Y-14484650D01*
X13613039Y-14484650D02*
X13593991Y-14456079D01*
X13593991Y-14456079D02*
X13584468Y-14437031D01*
X13584468Y-14437031D02*
X13574944Y-14408460D01*
X13574944Y-14408460D02*
X13565420Y-14360841D01*
X13565420Y-14360841D02*
X13565420Y-14322746D01*
X13565420Y-14322746D02*
X13574944Y-14275127D01*
X13574944Y-14275127D02*
X13584468Y-14246555D01*
X13584468Y-14246555D02*
X13593991Y-14227508D01*
X13593991Y-14227508D02*
X13613039Y-14198936D01*
X13613039Y-14198936D02*
X13622563Y-14189412D01*
X13803515Y-14417984D02*
X13689229Y-14417984D01*
X13746372Y-14417984D02*
X13746372Y-14217984D01*
X13746372Y-14217984D02*
X13727325Y-14246555D01*
X13727325Y-14246555D02*
X13708277Y-14265603D01*
X13708277Y-14265603D02*
X13689229Y-14275127D01*
X13974944Y-14217984D02*
X13936848Y-14217984D01*
X13936848Y-14217984D02*
X13917801Y-14227508D01*
X13917801Y-14227508D02*
X13908277Y-14237031D01*
X13908277Y-14237031D02*
X13889229Y-14265603D01*
X13889229Y-14265603D02*
X13879706Y-14303698D01*
X13879706Y-14303698D02*
X13879706Y-14379888D01*
X13879706Y-14379888D02*
X13889229Y-14398936D01*
X13889229Y-14398936D02*
X13898753Y-14408460D01*
X13898753Y-14408460D02*
X13917801Y-14417984D01*
X13917801Y-14417984D02*
X13955896Y-14417984D01*
X13955896Y-14417984D02*
X13974944Y-14408460D01*
X13974944Y-14408460D02*
X13984468Y-14398936D01*
X13984468Y-14398936D02*
X13993991Y-14379888D01*
X13993991Y-14379888D02*
X13993991Y-14332269D01*
X13993991Y-14332269D02*
X13984468Y-14313222D01*
X13984468Y-14313222D02*
X13974944Y-14303698D01*
X13974944Y-14303698D02*
X13955896Y-14294174D01*
X13955896Y-14294174D02*
X13917801Y-14294174D01*
X13917801Y-14294174D02*
X13898753Y-14303698D01*
X13898753Y-14303698D02*
X13889229Y-14313222D01*
X13889229Y-14313222D02*
X13879706Y-14332269D01*
X14232087Y-14417984D02*
X14232087Y-14217984D01*
X14317801Y-14417984D02*
X14317801Y-14313222D01*
X14317801Y-14313222D02*
X14308277Y-14294174D01*
X14308277Y-14294174D02*
X14289230Y-14284650D01*
X14289230Y-14284650D02*
X14260658Y-14284650D01*
X14260658Y-14284650D02*
X14241610Y-14294174D01*
X14241610Y-14294174D02*
X14232087Y-14303698D01*
X14441610Y-14417984D02*
X14422563Y-14408460D01*
X14422563Y-14408460D02*
X14413039Y-14398936D01*
X14413039Y-14398936D02*
X14403515Y-14379888D01*
X14403515Y-14379888D02*
X14403515Y-14322746D01*
X14403515Y-14322746D02*
X14413039Y-14303698D01*
X14413039Y-14303698D02*
X14422563Y-14294174D01*
X14422563Y-14294174D02*
X14441610Y-14284650D01*
X14441610Y-14284650D02*
X14470182Y-14284650D01*
X14470182Y-14284650D02*
X14489230Y-14294174D01*
X14489230Y-14294174D02*
X14498753Y-14303698D01*
X14498753Y-14303698D02*
X14508277Y-14322746D01*
X14508277Y-14322746D02*
X14508277Y-14379888D01*
X14508277Y-14379888D02*
X14498753Y-14398936D01*
X14498753Y-14398936D02*
X14489230Y-14408460D01*
X14489230Y-14408460D02*
X14470182Y-14417984D01*
X14470182Y-14417984D02*
X14441610Y-14417984D01*
X14622563Y-14417984D02*
X14603515Y-14408460D01*
X14603515Y-14408460D02*
X14593991Y-14389412D01*
X14593991Y-14389412D02*
X14593991Y-14217984D01*
X14774944Y-14408460D02*
X14755896Y-14417984D01*
X14755896Y-14417984D02*
X14717801Y-14417984D01*
X14717801Y-14417984D02*
X14698753Y-14408460D01*
X14698753Y-14408460D02*
X14689230Y-14389412D01*
X14689230Y-14389412D02*
X14689230Y-14313222D01*
X14689230Y-14313222D02*
X14698753Y-14294174D01*
X14698753Y-14294174D02*
X14717801Y-14284650D01*
X14717801Y-14284650D02*
X14755896Y-14284650D01*
X14755896Y-14284650D02*
X14774944Y-14294174D01*
X14774944Y-14294174D02*
X14784468Y-14313222D01*
X14784468Y-14313222D02*
X14784468Y-14332269D01*
X14784468Y-14332269D02*
X14689230Y-14351317D01*
X14860658Y-14408460D02*
X14879706Y-14417984D01*
X14879706Y-14417984D02*
X14917801Y-14417984D01*
X14917801Y-14417984D02*
X14936849Y-14408460D01*
X14936849Y-14408460D02*
X14946372Y-14389412D01*
X14946372Y-14389412D02*
X14946372Y-14379888D01*
X14946372Y-14379888D02*
X14936849Y-14360841D01*
X14936849Y-14360841D02*
X14917801Y-14351317D01*
X14917801Y-14351317D02*
X14889230Y-14351317D01*
X14889230Y-14351317D02*
X14870182Y-14341793D01*
X14870182Y-14341793D02*
X14860658Y-14322746D01*
X14860658Y-14322746D02*
X14860658Y-14313222D01*
X14860658Y-14313222D02*
X14870182Y-14294174D01*
X14870182Y-14294174D02*
X14889230Y-14284650D01*
X14889230Y-14284650D02*
X14917801Y-14284650D01*
X14917801Y-14284650D02*
X14936849Y-14294174D01*
X15013039Y-14494174D02*
X15022563Y-14484650D01*
X15022563Y-14484650D02*
X15041611Y-14456079D01*
X15041611Y-14456079D02*
X15051134Y-14437031D01*
X15051134Y-14437031D02*
X15060658Y-14408460D01*
X15060658Y-14408460D02*
X15070182Y-14360841D01*
X15070182Y-14360841D02*
X15070182Y-14322746D01*
X15070182Y-14322746D02*
X15060658Y-14275127D01*
X15060658Y-14275127D02*
X15051134Y-14246555D01*
X15051134Y-14246555D02*
X15041611Y-14227508D01*
X15041611Y-14227508D02*
X15022563Y-14198936D01*
X15022563Y-14198936D02*
X15013039Y-14189412D01*
X9847500Y-14490500D02*
X10047500Y-14690500D01*
X10047500Y-14490500D02*
X9847500Y-14690500D01*
X10018211Y-14661211D02*
X10018211Y-14519789D01*
X9876789Y-14519789D01*
X9876789Y-14661211D01*
X10018211Y-14661211D01*
X10289229Y-14481984D02*
X10413039Y-14481984D01*
X10413039Y-14481984D02*
X10346372Y-14558174D01*
X10346372Y-14558174D02*
X10374944Y-14558174D01*
X10374944Y-14558174D02*
X10393991Y-14567698D01*
X10393991Y-14567698D02*
X10403515Y-14577222D01*
X10403515Y-14577222D02*
X10413039Y-14596269D01*
X10413039Y-14596269D02*
X10413039Y-14643888D01*
X10413039Y-14643888D02*
X10403515Y-14662936D01*
X10403515Y-14662936D02*
X10393991Y-14672460D01*
X10393991Y-14672460D02*
X10374944Y-14681984D01*
X10374944Y-14681984D02*
X10317801Y-14681984D01*
X10317801Y-14681984D02*
X10298753Y-14672460D01*
X10298753Y-14672460D02*
X10289229Y-14662936D01*
X10498753Y-14662936D02*
X10508277Y-14672460D01*
X10508277Y-14672460D02*
X10498753Y-14681984D01*
X10498753Y-14681984D02*
X10489229Y-14672460D01*
X10489229Y-14672460D02*
X10498753Y-14662936D01*
X10498753Y-14662936D02*
X10498753Y-14681984D01*
X10689229Y-14481984D02*
X10593991Y-14481984D01*
X10593991Y-14481984D02*
X10584467Y-14577222D01*
X10584467Y-14577222D02*
X10593991Y-14567698D01*
X10593991Y-14567698D02*
X10613039Y-14558174D01*
X10613039Y-14558174D02*
X10660658Y-14558174D01*
X10660658Y-14558174D02*
X10679705Y-14567698D01*
X10679705Y-14567698D02*
X10689229Y-14577222D01*
X10689229Y-14577222D02*
X10698753Y-14596269D01*
X10698753Y-14596269D02*
X10698753Y-14643888D01*
X10698753Y-14643888D02*
X10689229Y-14662936D01*
X10689229Y-14662936D02*
X10679705Y-14672460D01*
X10679705Y-14672460D02*
X10660658Y-14681984D01*
X10660658Y-14681984D02*
X10613039Y-14681984D01*
X10613039Y-14681984D02*
X10593991Y-14672460D01*
X10593991Y-14672460D02*
X10584467Y-14662936D01*
X10822563Y-14481984D02*
X10841610Y-14481984D01*
X10841610Y-14481984D02*
X10860658Y-14491508D01*
X10860658Y-14491508D02*
X10870182Y-14501031D01*
X10870182Y-14501031D02*
X10879705Y-14520079D01*
X10879705Y-14520079D02*
X10889229Y-14558174D01*
X10889229Y-14558174D02*
X10889229Y-14605793D01*
X10889229Y-14605793D02*
X10879705Y-14643888D01*
X10879705Y-14643888D02*
X10870182Y-14662936D01*
X10870182Y-14662936D02*
X10860658Y-14672460D01*
X10860658Y-14672460D02*
X10841610Y-14681984D01*
X10841610Y-14681984D02*
X10822563Y-14681984D01*
X10822563Y-14681984D02*
X10803515Y-14672460D01*
X10803515Y-14672460D02*
X10793991Y-14662936D01*
X10793991Y-14662936D02*
X10784467Y-14643888D01*
X10784467Y-14643888D02*
X10774944Y-14605793D01*
X10774944Y-14605793D02*
X10774944Y-14558174D01*
X10774944Y-14558174D02*
X10784467Y-14520079D01*
X10784467Y-14520079D02*
X10793991Y-14501031D01*
X10793991Y-14501031D02*
X10803515Y-14491508D01*
X10803515Y-14491508D02*
X10822563Y-14481984D01*
X11013039Y-14481984D02*
X11032086Y-14481984D01*
X11032086Y-14481984D02*
X11051134Y-14491508D01*
X11051134Y-14491508D02*
X11060658Y-14501031D01*
X11060658Y-14501031D02*
X11070182Y-14520079D01*
X11070182Y-14520079D02*
X11079705Y-14558174D01*
X11079705Y-14558174D02*
X11079705Y-14605793D01*
X11079705Y-14605793D02*
X11070182Y-14643888D01*
X11070182Y-14643888D02*
X11060658Y-14662936D01*
X11060658Y-14662936D02*
X11051134Y-14672460D01*
X11051134Y-14672460D02*
X11032086Y-14681984D01*
X11032086Y-14681984D02*
X11013039Y-14681984D01*
X11013039Y-14681984D02*
X10993991Y-14672460D01*
X10993991Y-14672460D02*
X10984467Y-14662936D01*
X10984467Y-14662936D02*
X10974944Y-14643888D01*
X10974944Y-14643888D02*
X10965420Y-14605793D01*
X10965420Y-14605793D02*
X10965420Y-14558174D01*
X10965420Y-14558174D02*
X10974944Y-14520079D01*
X10974944Y-14520079D02*
X10984467Y-14501031D01*
X10984467Y-14501031D02*
X10993991Y-14491508D01*
X10993991Y-14491508D02*
X11013039Y-14481984D01*
X11165420Y-14681984D02*
X11165420Y-14548650D01*
X11165420Y-14567698D02*
X11174944Y-14558174D01*
X11174944Y-14558174D02*
X11193991Y-14548650D01*
X11193991Y-14548650D02*
X11222563Y-14548650D01*
X11222563Y-14548650D02*
X11241610Y-14558174D01*
X11241610Y-14558174D02*
X11251134Y-14577222D01*
X11251134Y-14577222D02*
X11251134Y-14681984D01*
X11251134Y-14577222D02*
X11260658Y-14558174D01*
X11260658Y-14558174D02*
X11279705Y-14548650D01*
X11279705Y-14548650D02*
X11308277Y-14548650D01*
X11308277Y-14548650D02*
X11327324Y-14558174D01*
X11327324Y-14558174D02*
X11336848Y-14577222D01*
X11336848Y-14577222D02*
X11336848Y-14681984D01*
X11432086Y-14681984D02*
X11432086Y-14548650D01*
X11432086Y-14567698D02*
X11441610Y-14558174D01*
X11441610Y-14558174D02*
X11460658Y-14548650D01*
X11460658Y-14548650D02*
X11489229Y-14548650D01*
X11489229Y-14548650D02*
X11508277Y-14558174D01*
X11508277Y-14558174D02*
X11517801Y-14577222D01*
X11517801Y-14577222D02*
X11517801Y-14681984D01*
X11517801Y-14577222D02*
X11527324Y-14558174D01*
X11527324Y-14558174D02*
X11546372Y-14548650D01*
X11546372Y-14548650D02*
X11574943Y-14548650D01*
X11574943Y-14548650D02*
X11593991Y-14558174D01*
X11593991Y-14558174D02*
X11603515Y-14577222D01*
X11603515Y-14577222D02*
X11603515Y-14681984D01*
X11993991Y-14472460D02*
X11822563Y-14729603D01*
X12251134Y-14481984D02*
X12270182Y-14481984D01*
X12270182Y-14481984D02*
X12289229Y-14491508D01*
X12289229Y-14491508D02*
X12298753Y-14501031D01*
X12298753Y-14501031D02*
X12308277Y-14520079D01*
X12308277Y-14520079D02*
X12317801Y-14558174D01*
X12317801Y-14558174D02*
X12317801Y-14605793D01*
X12317801Y-14605793D02*
X12308277Y-14643888D01*
X12308277Y-14643888D02*
X12298753Y-14662936D01*
X12298753Y-14662936D02*
X12289229Y-14672460D01*
X12289229Y-14672460D02*
X12270182Y-14681984D01*
X12270182Y-14681984D02*
X12251134Y-14681984D01*
X12251134Y-14681984D02*
X12232086Y-14672460D01*
X12232086Y-14672460D02*
X12222563Y-14662936D01*
X12222563Y-14662936D02*
X12213039Y-14643888D01*
X12213039Y-14643888D02*
X12203515Y-14605793D01*
X12203515Y-14605793D02*
X12203515Y-14558174D01*
X12203515Y-14558174D02*
X12213039Y-14520079D01*
X12213039Y-14520079D02*
X12222563Y-14501031D01*
X12222563Y-14501031D02*
X12232086Y-14491508D01*
X12232086Y-14491508D02*
X12251134Y-14481984D01*
X12403515Y-14662936D02*
X12413039Y-14672460D01*
X12413039Y-14672460D02*
X12403515Y-14681984D01*
X12403515Y-14681984D02*
X12393991Y-14672460D01*
X12393991Y-14672460D02*
X12403515Y-14662936D01*
X12403515Y-14662936D02*
X12403515Y-14681984D01*
X12603515Y-14681984D02*
X12489229Y-14681984D01*
X12546372Y-14681984D02*
X12546372Y-14481984D01*
X12546372Y-14481984D02*
X12527325Y-14510555D01*
X12527325Y-14510555D02*
X12508277Y-14529603D01*
X12508277Y-14529603D02*
X12489229Y-14539127D01*
X12670182Y-14481984D02*
X12793991Y-14481984D01*
X12793991Y-14481984D02*
X12727325Y-14558174D01*
X12727325Y-14558174D02*
X12755896Y-14558174D01*
X12755896Y-14558174D02*
X12774944Y-14567698D01*
X12774944Y-14567698D02*
X12784467Y-14577222D01*
X12784467Y-14577222D02*
X12793991Y-14596269D01*
X12793991Y-14596269D02*
X12793991Y-14643888D01*
X12793991Y-14643888D02*
X12784467Y-14662936D01*
X12784467Y-14662936D02*
X12774944Y-14672460D01*
X12774944Y-14672460D02*
X12755896Y-14681984D01*
X12755896Y-14681984D02*
X12698753Y-14681984D01*
X12698753Y-14681984D02*
X12679706Y-14672460D01*
X12679706Y-14672460D02*
X12670182Y-14662936D01*
X12860658Y-14481984D02*
X12993991Y-14481984D01*
X12993991Y-14481984D02*
X12908277Y-14681984D01*
X13098753Y-14567698D02*
X13079706Y-14558174D01*
X13079706Y-14558174D02*
X13070182Y-14548650D01*
X13070182Y-14548650D02*
X13060658Y-14529603D01*
X13060658Y-14529603D02*
X13060658Y-14520079D01*
X13060658Y-14520079D02*
X13070182Y-14501031D01*
X13070182Y-14501031D02*
X13079706Y-14491508D01*
X13079706Y-14491508D02*
X13098753Y-14481984D01*
X13098753Y-14481984D02*
X13136848Y-14481984D01*
X13136848Y-14481984D02*
X13155896Y-14491508D01*
X13155896Y-14491508D02*
X13165420Y-14501031D01*
X13165420Y-14501031D02*
X13174944Y-14520079D01*
X13174944Y-14520079D02*
X13174944Y-14529603D01*
X13174944Y-14529603D02*
X13165420Y-14548650D01*
X13165420Y-14548650D02*
X13155896Y-14558174D01*
X13155896Y-14558174D02*
X13136848Y-14567698D01*
X13136848Y-14567698D02*
X13098753Y-14567698D01*
X13098753Y-14567698D02*
X13079706Y-14577222D01*
X13079706Y-14577222D02*
X13070182Y-14586746D01*
X13070182Y-14586746D02*
X13060658Y-14605793D01*
X13060658Y-14605793D02*
X13060658Y-14643888D01*
X13060658Y-14643888D02*
X13070182Y-14662936D01*
X13070182Y-14662936D02*
X13079706Y-14672460D01*
X13079706Y-14672460D02*
X13098753Y-14681984D01*
X13098753Y-14681984D02*
X13136848Y-14681984D01*
X13136848Y-14681984D02*
X13155896Y-14672460D01*
X13155896Y-14672460D02*
X13165420Y-14662936D01*
X13165420Y-14662936D02*
X13174944Y-14643888D01*
X13174944Y-14643888D02*
X13174944Y-14605793D01*
X13174944Y-14605793D02*
X13165420Y-14586746D01*
X13165420Y-14586746D02*
X13155896Y-14577222D01*
X13155896Y-14577222D02*
X13136848Y-14567698D01*
X13251134Y-14481984D02*
X13251134Y-14520079D01*
X13327325Y-14481984D02*
X13327325Y-14520079D01*
X13622563Y-14758174D02*
X13613039Y-14748650D01*
X13613039Y-14748650D02*
X13593991Y-14720079D01*
X13593991Y-14720079D02*
X13584468Y-14701031D01*
X13584468Y-14701031D02*
X13574944Y-14672460D01*
X13574944Y-14672460D02*
X13565420Y-14624841D01*
X13565420Y-14624841D02*
X13565420Y-14586746D01*
X13565420Y-14586746D02*
X13574944Y-14539127D01*
X13574944Y-14539127D02*
X13584468Y-14510555D01*
X13584468Y-14510555D02*
X13593991Y-14491508D01*
X13593991Y-14491508D02*
X13613039Y-14462936D01*
X13613039Y-14462936D02*
X13622563Y-14453412D01*
X13784468Y-14548650D02*
X13784468Y-14681984D01*
X13736848Y-14472460D02*
X13689229Y-14615317D01*
X13689229Y-14615317D02*
X13813039Y-14615317D01*
X14041610Y-14681984D02*
X14041610Y-14481984D01*
X14127325Y-14681984D02*
X14127325Y-14577222D01*
X14127325Y-14577222D02*
X14117801Y-14558174D01*
X14117801Y-14558174D02*
X14098753Y-14548650D01*
X14098753Y-14548650D02*
X14070182Y-14548650D01*
X14070182Y-14548650D02*
X14051134Y-14558174D01*
X14051134Y-14558174D02*
X14041610Y-14567698D01*
X14251134Y-14681984D02*
X14232087Y-14672460D01*
X14232087Y-14672460D02*
X14222563Y-14662936D01*
X14222563Y-14662936D02*
X14213039Y-14643888D01*
X14213039Y-14643888D02*
X14213039Y-14586746D01*
X14213039Y-14586746D02*
X14222563Y-14567698D01*
X14222563Y-14567698D02*
X14232087Y-14558174D01*
X14232087Y-14558174D02*
X14251134Y-14548650D01*
X14251134Y-14548650D02*
X14279706Y-14548650D01*
X14279706Y-14548650D02*
X14298753Y-14558174D01*
X14298753Y-14558174D02*
X14308277Y-14567698D01*
X14308277Y-14567698D02*
X14317801Y-14586746D01*
X14317801Y-14586746D02*
X14317801Y-14643888D01*
X14317801Y-14643888D02*
X14308277Y-14662936D01*
X14308277Y-14662936D02*
X14298753Y-14672460D01*
X14298753Y-14672460D02*
X14279706Y-14681984D01*
X14279706Y-14681984D02*
X14251134Y-14681984D01*
X14432087Y-14681984D02*
X14413039Y-14672460D01*
X14413039Y-14672460D02*
X14403515Y-14653412D01*
X14403515Y-14653412D02*
X14403515Y-14481984D01*
X14584468Y-14672460D02*
X14565420Y-14681984D01*
X14565420Y-14681984D02*
X14527325Y-14681984D01*
X14527325Y-14681984D02*
X14508277Y-14672460D01*
X14508277Y-14672460D02*
X14498753Y-14653412D01*
X14498753Y-14653412D02*
X14498753Y-14577222D01*
X14498753Y-14577222D02*
X14508277Y-14558174D01*
X14508277Y-14558174D02*
X14527325Y-14548650D01*
X14527325Y-14548650D02*
X14565420Y-14548650D01*
X14565420Y-14548650D02*
X14584468Y-14558174D01*
X14584468Y-14558174D02*
X14593991Y-14577222D01*
X14593991Y-14577222D02*
X14593991Y-14596269D01*
X14593991Y-14596269D02*
X14498753Y-14615317D01*
X14670182Y-14672460D02*
X14689230Y-14681984D01*
X14689230Y-14681984D02*
X14727325Y-14681984D01*
X14727325Y-14681984D02*
X14746372Y-14672460D01*
X14746372Y-14672460D02*
X14755896Y-14653412D01*
X14755896Y-14653412D02*
X14755896Y-14643888D01*
X14755896Y-14643888D02*
X14746372Y-14624841D01*
X14746372Y-14624841D02*
X14727325Y-14615317D01*
X14727325Y-14615317D02*
X14698753Y-14615317D01*
X14698753Y-14615317D02*
X14679706Y-14605793D01*
X14679706Y-14605793D02*
X14670182Y-14586746D01*
X14670182Y-14586746D02*
X14670182Y-14577222D01*
X14670182Y-14577222D02*
X14679706Y-14558174D01*
X14679706Y-14558174D02*
X14698753Y-14548650D01*
X14698753Y-14548650D02*
X14727325Y-14548650D01*
X14727325Y-14548650D02*
X14746372Y-14558174D01*
X14822563Y-14758174D02*
X14832087Y-14748650D01*
X14832087Y-14748650D02*
X14851134Y-14720079D01*
X14851134Y-14720079D02*
X14860658Y-14701031D01*
X14860658Y-14701031D02*
X14870182Y-14672460D01*
X14870182Y-14672460D02*
X14879706Y-14624841D01*
X14879706Y-14624841D02*
X14879706Y-14586746D01*
X14879706Y-14586746D02*
X14870182Y-14539127D01*
X14870182Y-14539127D02*
X14860658Y-14510555D01*
X14860658Y-14510555D02*
X14851134Y-14491508D01*
X14851134Y-14491508D02*
X14832087Y-14462936D01*
X14832087Y-14462936D02*
X14822563Y-14453412D01*
M02*
