M48
; DRILL file {KiCad 8.0.5-8.0.5-0~ubuntu24.04.1} date 2024-09-30T22:35:52+0200
; FORMAT={-:-/ absolute / metric / decimal}
; #@! TF.CreationDate,2024-09-30T22:35:52+02:00
; #@! TF.GenerationSoftware,Kicad,Pcbnew,8.0.5-8.0.5-0~ubuntu24.04.1
; #@! TF.FileFunction,Plated,1,2,PTH
FMAT,2
METRIC
; #@! TA.AperFunction,Plated,PTH,ViaDrill
T1C0.300
; #@! TA.AperFunction,Plated,PTH,ComponentDrill
T2C0.500
; #@! TA.AperFunction,Plated,PTH,ComponentDrill
T3C0.800
; #@! TA.AperFunction,Plated,PTH,ComponentDrill
T4C0.950
; #@! TA.AperFunction,Plated,PTH,ComponentDrill
T5C1.000
; #@! TA.AperFunction,Plated,PTH,ComponentDrill
T6C1.100
; #@! TA.AperFunction,Plated,PTH,ComponentDrill
T7C1.270
; #@! TA.AperFunction,Plated,PTH,ComponentDrill
T8C3.500
%
G90
G05
T1
X102.5Y-86.9
X103.2Y-83.6
X103.9Y-110.1
X104.0Y-111.1
X104.1Y-93.55
X105.6Y-92.3
X105.75Y-104.5
X105.75Y-105.5
X105.75Y-106.5
X105.75Y-107.5
X106.0Y-108.3
X106.1Y-102.0
X107.0Y-108.6
X107.6Y-100.4
X107.75Y-92.0
X108.1Y-108.6
X108.7Y-101.7
X109.0Y-90.3
X110.4Y-110.6
X111.4Y-96.4
X111.6Y-94.8
X112.9Y-116.45
X113.75Y-106.25
X114.0Y-109.35
X115.35Y-116.6
X117.7Y-100.2
X118.9Y-100.6
X123.6Y-110.9
X123.8Y-115.4
X124.1Y-106.55
X124.95Y-98.95
X125.9Y-112.9
X127.0Y-86.8
X127.05Y-98.65
X127.6Y-115.4
X130.0Y-83.0
X131.9Y-86.7
X133.25Y-90.75
X133.7Y-69.7
X134.0Y-88.75
X135.0Y-86.25
X135.25Y-94.9
X135.4Y-89.85
X135.6Y-77.3
X135.95Y-99.0
X136.25Y-87.7
X136.25Y-88.95
X136.45Y-94.25
X136.85Y-89.95
X137.3Y-83.2
X137.95Y-89.55
X138.45Y-98.65
X138.5Y-87.4
X138.6Y-95.7
X139.1Y-108.7
X139.25Y-110.85
X139.4Y-103.95
X139.5Y-105.75
X140.35Y-111.7
X140.4Y-89.1
X141.45Y-102.85
X141.5Y-82.5
X142.2Y-96.2
X142.4Y-98.7
X142.8Y-74.95
X143.2Y-101.2
X143.25Y-106.65
X143.85Y-70.6
X144.5Y-63.25
X144.7Y-86.2
X145.1Y-110.2
X145.2Y-111.0
X146.0Y-106.65
X146.5Y-67.5
X146.9Y-73.55
X147.0Y-76.0
X147.0Y-84.5
X147.4Y-80.65
X147.45Y-116.8
X147.5Y-70.9
X148.75Y-106.6
X148.8Y-72.1
X148.9Y-66.55
X149.5Y-82.7
X149.55Y-114.15
X150.25Y-112.35
X150.35Y-78.4
X151.0Y-97.8
X151.1Y-95.8
X151.55Y-62.9
X151.9Y-69.7
X152.15Y-77.95
X153.3Y-95.2
X153.67Y-86.36
X154.8Y-95.8
X155.8Y-94.8
X156.95Y-110.9
X157.226Y-77.724
X157.226Y-85.344
X157.4Y-103.8
X157.48Y-80.01
X158.496Y-73.914
X158.9Y-105.6
X159.0Y-84.9
X160.0Y-101.4
X160.35Y-92.25
X160.528Y-77.47
X160.782Y-80.01
X165.5Y-101.5
X166.0Y-111.0
X166.5Y-98.3
T2
X104.375Y-67.0
X104.375Y-114.5
X105.144Y-65.144
X105.144Y-68.856
X105.144Y-112.644
X105.144Y-116.356
X107.0Y-64.375
X107.0Y-69.625
X107.0Y-111.875
X107.0Y-117.125
X108.856Y-65.144
X108.856Y-68.856
X108.856Y-112.644
X108.856Y-116.356
X109.625Y-67.0
X109.625Y-114.5
X158.875Y-67.0
X158.875Y-114.5
X159.644Y-65.144
X159.644Y-68.856
X159.644Y-112.644
X159.644Y-116.356
X161.5Y-64.375
X161.5Y-69.625
X161.5Y-111.875
X161.5Y-117.125
X163.356Y-65.144
X163.356Y-68.856
X163.356Y-112.644
X163.356Y-116.356
X164.125Y-67.0
X164.125Y-114.5
T3
X105.658Y-76.8
X106.329Y-78.4
X108.829Y-78.4
X109.5Y-80.0
X123.829Y-90.9
X124.5Y-92.5
X126.158Y-71.3
X126.829Y-72.9
X127.0Y-92.5
X127.671Y-94.1
X129.329Y-72.9
X130.0Y-74.5
X159.42Y-103.5
X161.96Y-103.5
X164.5Y-103.5
T4
X126.342Y-63.5
X126.342Y-81.5
X127.0Y-101.5
X127.0Y-104.0
X127.0Y-106.5
X127.0Y-109.0
X128.842Y-63.5
X128.842Y-81.5
X131.342Y-63.5
X131.342Y-81.5
X135.0Y-92.0
X135.0Y-101.0
X137.5Y-92.0
X137.5Y-101.0
X140.0Y-92.0
X140.0Y-101.0
X142.5Y-92.0
X145.0Y-92.0
X163.0Y-91.0
X163.0Y-93.5
X163.0Y-96.0
X163.025Y-74.5
X163.025Y-77.0
X163.025Y-79.5
X163.025Y-82.0
X163.025Y-84.5
T5
X106.25Y-87.975
X106.25Y-97.0
X108.75Y-87.975
X108.75Y-97.0
X133.25Y-116.0
X135.75Y-116.0
X142.25Y-116.0
X144.75Y-116.0
X147.5Y-101.0
X150.0Y-101.0
X151.25Y-116.0
X153.0Y-92.0
X153.75Y-116.0
X155.5Y-92.0
T6
X114.96Y-112.13
X117.5Y-112.13
X120.04Y-112.13
T7
X139.88Y-63.6
X139.88Y-66.14
X139.88Y-68.68
X139.88Y-71.22
X139.88Y-73.76
X139.88Y-76.3
X139.88Y-78.84
X139.88Y-81.38
X155.12Y-63.6
X155.12Y-66.14
X155.12Y-68.68
X155.12Y-71.22
X155.12Y-73.76
X155.12Y-76.3
X155.12Y-78.84
X155.12Y-81.38
T8
X107.0Y-67.0
X107.0Y-114.5
X161.5Y-67.0
X161.5Y-114.5
T5
X112.642Y-70.5G85X112.642Y-72.5
G05
X118.342Y-68.5G85X116.342Y-68.5
G05
X118.342Y-74.5G85X116.342Y-74.5
G05
M30
