G04 #@! TF.GenerationSoftware,KiCad,Pcbnew,8.0.5-8.0.5-0~ubuntu24.04.1*
G04 #@! TF.CreationDate,2024-09-30T22:34:35+02:00*
G04 #@! TF.ProjectId,ESP32-C3_LED_driver_PCB,45535033-322d-4433-935f-4c45445f6472,v1.0*
G04 #@! TF.SameCoordinates,Original*
G04 #@! TF.FileFunction,Copper,L2,Bot*
G04 #@! TF.FilePolarity,Positive*
%FSLAX46Y46*%
G04 Gerber Fmt 4.6, Leading zero omitted, Abs format (unit mm)*
G04 Created by KiCad (PCBNEW 8.0.5-8.0.5-0~ubuntu24.04.1) date 2024-09-30 22:34:35*
%MOMM*%
%LPD*%
G01*
G04 APERTURE LIST*
G04 Aperture macros list*
%AMRoundRect*
0 Rectangle with rounded corners*
0 $1 Rounding radius*
0 $2 $3 $4 $5 $6 $7 $8 $9 X,Y pos of 4 corners*
0 Add a 4 corners polygon primitive as box body*
4,1,4,$2,$3,$4,$5,$6,$7,$8,$9,$2,$3,0*
0 Add four circle primitives for the rounded corners*
1,1,$1+$1,$2,$3*
1,1,$1+$1,$4,$5*
1,1,$1+$1,$6,$7*
1,1,$1+$1,$8,$9*
0 Add four rect primitives between the rounded corners*
20,1,$1+$1,$2,$3,$4,$5,0*
20,1,$1+$1,$4,$5,$6,$7,0*
20,1,$1+$1,$6,$7,$8,$9,0*
20,1,$1+$1,$8,$9,$2,$3,0*%
%AMFreePoly0*
4,1,19,0.500000,-0.750000,0.000000,-0.750000,0.000000,-0.744911,-0.071157,-0.744911,-0.207708,-0.704816,-0.327430,-0.627875,-0.420627,-0.520320,-0.479746,-0.390866,-0.500000,-0.250000,-0.500000,0.250000,-0.479746,0.390866,-0.420627,0.520320,-0.327430,0.627875,-0.207708,0.704816,-0.071157,0.744911,0.000000,0.744911,0.000000,0.750000,0.500000,0.750000,0.500000,-0.750000,0.500000,-0.750000,
$1*%
%AMFreePoly1*
4,1,19,0.000000,0.744911,0.071157,0.744911,0.207708,0.704816,0.327430,0.627875,0.420627,0.520320,0.479746,0.390866,0.500000,0.250000,0.500000,-0.250000,0.479746,-0.390866,0.420627,-0.520320,0.327430,-0.627875,0.207708,-0.704816,0.071157,-0.744911,0.000000,-0.744911,0.000000,-0.750000,-0.500000,-0.750000,-0.500000,0.750000,0.000000,0.750000,0.000000,0.744911,0.000000,0.744911,
$1*%
G04 Aperture macros list end*
G04 #@! TA.AperFunction,ComponentPad*
%ADD10R,1.500000X1.500000*%
G04 #@! TD*
G04 #@! TA.AperFunction,ComponentPad*
%ADD11C,1.600000*%
G04 #@! TD*
G04 #@! TA.AperFunction,SMDPad,CuDef*
%ADD12RoundRect,0.250000X-0.625000X0.400000X-0.625000X-0.400000X0.625000X-0.400000X0.625000X0.400000X0*%
G04 #@! TD*
G04 #@! TA.AperFunction,SMDPad,CuDef*
%ADD13RoundRect,0.250000X0.625000X-0.400000X0.625000X0.400000X-0.625000X0.400000X-0.625000X-0.400000X0*%
G04 #@! TD*
G04 #@! TA.AperFunction,SMDPad,CuDef*
%ADD14RoundRect,0.150000X-0.150000X0.587500X-0.150000X-0.587500X0.150000X-0.587500X0.150000X0.587500X0*%
G04 #@! TD*
G04 #@! TA.AperFunction,ComponentPad*
%ADD15RoundRect,0.250000X0.600000X0.750000X-0.600000X0.750000X-0.600000X-0.750000X0.600000X-0.750000X0*%
G04 #@! TD*
G04 #@! TA.AperFunction,ComponentPad*
%ADD16O,1.700000X2.000000*%
G04 #@! TD*
G04 #@! TA.AperFunction,ComponentPad*
%ADD17O,1.700000X1.950000*%
G04 #@! TD*
G04 #@! TA.AperFunction,ComponentPad*
%ADD18RoundRect,0.250000X0.600000X0.725000X-0.600000X0.725000X-0.600000X-0.725000X0.600000X-0.725000X0*%
G04 #@! TD*
G04 #@! TA.AperFunction,ComponentPad*
%ADD19C,0.800000*%
G04 #@! TD*
G04 #@! TA.AperFunction,ComponentPad*
%ADD20C,7.000000*%
G04 #@! TD*
G04 #@! TA.AperFunction,ComponentPad*
%ADD21RoundRect,0.250000X-0.600000X-0.750000X0.600000X-0.750000X0.600000X0.750000X-0.600000X0.750000X0*%
G04 #@! TD*
G04 #@! TA.AperFunction,SMDPad,CuDef*
%ADD22RoundRect,0.250000X0.400000X0.625000X-0.400000X0.625000X-0.400000X-0.625000X0.400000X-0.625000X0*%
G04 #@! TD*
G04 #@! TA.AperFunction,ComponentPad*
%ADD23R,1.600000X1.600000*%
G04 #@! TD*
G04 #@! TA.AperFunction,SMDPad,CuDef*
%ADD24RoundRect,0.250000X-0.400000X-0.625000X0.400000X-0.625000X0.400000X0.625000X-0.400000X0.625000X0*%
G04 #@! TD*
G04 #@! TA.AperFunction,ComponentPad*
%ADD25R,1.905000X2.000000*%
G04 #@! TD*
G04 #@! TA.AperFunction,ComponentPad*
%ADD26O,1.905000X2.000000*%
G04 #@! TD*
G04 #@! TA.AperFunction,SMDPad,CuDef*
%ADD27RoundRect,0.150000X0.587500X0.150000X-0.587500X0.150000X-0.587500X-0.150000X0.587500X-0.150000X0*%
G04 #@! TD*
G04 #@! TA.AperFunction,SMDPad,CuDef*
%ADD28FreePoly0,180.000000*%
G04 #@! TD*
G04 #@! TA.AperFunction,SMDPad,CuDef*
%ADD29FreePoly1,180.000000*%
G04 #@! TD*
G04 #@! TA.AperFunction,SMDPad,CuDef*
%ADD30FreePoly1,0.000000*%
G04 #@! TD*
G04 #@! TA.AperFunction,SMDPad,CuDef*
%ADD31FreePoly0,0.000000*%
G04 #@! TD*
G04 #@! TA.AperFunction,ComponentPad*
%ADD32RoundRect,0.250000X-0.600000X-0.725000X0.600000X-0.725000X0.600000X0.725000X-0.600000X0.725000X0*%
G04 #@! TD*
G04 #@! TA.AperFunction,ComponentPad*
%ADD33C,1.905000*%
G04 #@! TD*
G04 #@! TA.AperFunction,ComponentPad*
%ADD34RoundRect,0.250000X-0.725000X0.600000X-0.725000X-0.600000X0.725000X-0.600000X0.725000X0.600000X0*%
G04 #@! TD*
G04 #@! TA.AperFunction,ComponentPad*
%ADD35O,1.950000X1.700000*%
G04 #@! TD*
G04 #@! TA.AperFunction,ComponentPad*
%ADD36R,3.500000X3.500000*%
G04 #@! TD*
G04 #@! TA.AperFunction,ComponentPad*
%ADD37RoundRect,0.750000X-1.000000X0.750000X-1.000000X-0.750000X1.000000X-0.750000X1.000000X0.750000X0*%
G04 #@! TD*
G04 #@! TA.AperFunction,ComponentPad*
%ADD38RoundRect,0.875000X-0.875000X0.875000X-0.875000X-0.875000X0.875000X-0.875000X0.875000X0.875000X0*%
G04 #@! TD*
G04 #@! TA.AperFunction,ComponentPad*
%ADD39RoundRect,0.250000X0.725000X-0.600000X0.725000X0.600000X-0.725000X0.600000X-0.725000X-0.600000X0*%
G04 #@! TD*
G04 #@! TA.AperFunction,ViaPad*
%ADD40C,0.600000*%
G04 #@! TD*
G04 #@! TA.AperFunction,Conductor*
%ADD41C,0.200000*%
G04 #@! TD*
G04 #@! TA.AperFunction,Conductor*
%ADD42C,0.600000*%
G04 #@! TD*
G04 #@! TA.AperFunction,Conductor*
%ADD43C,0.400000*%
G04 #@! TD*
G04 #@! TA.AperFunction,Conductor*
%ADD44C,0.800000*%
G04 #@! TD*
G04 #@! TA.AperFunction,Conductor*
%ADD45C,1.000000*%
G04 #@! TD*
G04 #@! TA.AperFunction,Conductor*
%ADD46C,2.000000*%
G04 #@! TD*
G04 #@! TA.AperFunction,Conductor*
%ADD47C,1.500000*%
G04 #@! TD*
G04 APERTURE END LIST*
D10*
X161960000Y-103500000D03*
D11*
X159420000Y-103500000D03*
X164500000Y-103500000D03*
D12*
X149000000Y-90950000D03*
X149000000Y-94050000D03*
D13*
X149000000Y-88550000D03*
X149000000Y-85450000D03*
D14*
X147000000Y-96500000D03*
X148900000Y-96500000D03*
X147950000Y-98375000D03*
D15*
X150000000Y-101000000D03*
D16*
X147500000Y-101000000D03*
D17*
X135000000Y-101000000D03*
X137500000Y-101000000D03*
D18*
X140000000Y-101000000D03*
D19*
X109625000Y-67000000D03*
X108856155Y-68856155D03*
X108856155Y-65143845D03*
X107000000Y-69625000D03*
D20*
X107000000Y-67000000D03*
D19*
X107000000Y-64375000D03*
X105143845Y-68856155D03*
X105143845Y-65143845D03*
X104375000Y-67000000D03*
X158875000Y-67000000D03*
X159643845Y-65143845D03*
X159643845Y-68856155D03*
X161500000Y-64375000D03*
D20*
X161500000Y-67000000D03*
D19*
X161500000Y-69625000D03*
X163356155Y-65143845D03*
X163356155Y-68856155D03*
X164125000Y-67000000D03*
X104375000Y-114500000D03*
X105143845Y-112643845D03*
X105143845Y-116356155D03*
X107000000Y-111875000D03*
D20*
X107000000Y-114500000D03*
D19*
X107000000Y-117125000D03*
X108856155Y-112643845D03*
X108856155Y-116356155D03*
X109625000Y-114500000D03*
X164125000Y-114500000D03*
X163356155Y-116356155D03*
X163356155Y-112643845D03*
X161500000Y-117125000D03*
D20*
X161500000Y-114500000D03*
D19*
X161500000Y-111875000D03*
X159643845Y-116356155D03*
X159643845Y-112643845D03*
X158875000Y-114500000D03*
D12*
X144700000Y-107950000D03*
X144700000Y-104850000D03*
D21*
X151250000Y-116000000D03*
D16*
X153750000Y-116000000D03*
D22*
X137050000Y-112750000D03*
X133950000Y-112750000D03*
D17*
X135000000Y-92000000D03*
X137500000Y-92000000D03*
X140000000Y-92000000D03*
X142500000Y-92000000D03*
D18*
X145000000Y-92000000D03*
D14*
X153750000Y-112100000D03*
X154700000Y-110225000D03*
X152800000Y-110225000D03*
D11*
X130000000Y-74500000D03*
X129329063Y-72900000D03*
D23*
X126829063Y-72900000D03*
X126158126Y-71300000D03*
D14*
X141950000Y-110225000D03*
X143850000Y-110225000D03*
X142900000Y-112100000D03*
D12*
X141950000Y-104850000D03*
X141950000Y-107950000D03*
D21*
X142250000Y-116000000D03*
D16*
X144750000Y-116000000D03*
D24*
X132450000Y-97000000D03*
X135550000Y-97000000D03*
D12*
X155500000Y-107950000D03*
X155500000Y-104850000D03*
D25*
X120040000Y-112130000D03*
D26*
X117500000Y-112130000D03*
X114960000Y-112130000D03*
D27*
X129625000Y-102450000D03*
X131500000Y-103400000D03*
X131500000Y-101500000D03*
D22*
X137050000Y-110050000D03*
X133950000Y-110050000D03*
D28*
X123300000Y-71500000D03*
D29*
X122000000Y-71500000D03*
D27*
X131500000Y-109500000D03*
X131500000Y-111400000D03*
X129625000Y-110450000D03*
D30*
X122000000Y-79000000D03*
D31*
X120700000Y-79000000D03*
D21*
X133250000Y-116000000D03*
D16*
X135750000Y-116000000D03*
D22*
X133950000Y-107350000D03*
X137050000Y-107350000D03*
D12*
X150100000Y-104850000D03*
X150100000Y-107950000D03*
D27*
X131500000Y-105600000D03*
X131500000Y-107500000D03*
X129625000Y-106550000D03*
D32*
X126341874Y-63500000D03*
D17*
X128841874Y-63500000D03*
X131341874Y-63500000D03*
D22*
X133950000Y-104650000D03*
X137050000Y-104650000D03*
D21*
X106250000Y-87975000D03*
D16*
X108750000Y-87975000D03*
D33*
X155120000Y-66140000D03*
X139880000Y-81380000D03*
X139880000Y-78840000D03*
X139880000Y-76300000D03*
X139880000Y-73760000D03*
X139880000Y-71220000D03*
X139880000Y-68680000D03*
X139880000Y-66140000D03*
X155120000Y-63600000D03*
X139880000Y-63600000D03*
X155120000Y-71220000D03*
X155120000Y-68680000D03*
X155120000Y-73760000D03*
X155120000Y-76300000D03*
X155120000Y-78840000D03*
X155120000Y-81380000D03*
D34*
X163025000Y-74500000D03*
D35*
X163025000Y-77000000D03*
X163025000Y-79500000D03*
X163025000Y-82000000D03*
X163025000Y-84500000D03*
D21*
X153000000Y-92000000D03*
D16*
X155500000Y-92000000D03*
D36*
X117341874Y-74500000D03*
D37*
X117341874Y-68500000D03*
D38*
X112641874Y-71500000D03*
D12*
X147400000Y-104850000D03*
X147400000Y-107950000D03*
D39*
X127000000Y-109000000D03*
D35*
X127000000Y-106500000D03*
X127000000Y-104000000D03*
X127000000Y-101500000D03*
D31*
X123200000Y-75500000D03*
D30*
X124500000Y-75500000D03*
D12*
X152800000Y-104850000D03*
X152800000Y-107950000D03*
D34*
X163000000Y-91000000D03*
D35*
X163000000Y-93500000D03*
X163000000Y-96000000D03*
D32*
X126341874Y-81500000D03*
D17*
X128841874Y-81500000D03*
X131341874Y-81500000D03*
D11*
X127670937Y-94100000D03*
X127000000Y-92500000D03*
D23*
X124500000Y-92500000D03*
X123829063Y-90900000D03*
D14*
X147400000Y-110175000D03*
X149300000Y-110175000D03*
X148350000Y-112050000D03*
D16*
X108750000Y-97000000D03*
D21*
X106250000Y-97000000D03*
D23*
X105658126Y-76800000D03*
X106329063Y-78400000D03*
D11*
X108829063Y-78400000D03*
X109500000Y-80000000D03*
D12*
X129500000Y-96450000D03*
X129500000Y-99550000D03*
D40*
X151900000Y-69700000D03*
X130000000Y-83000000D03*
X133700000Y-69700000D03*
X135600000Y-77300000D03*
X105600000Y-92300000D03*
X109000000Y-90300000D03*
X111600000Y-94800000D03*
X111400000Y-96400000D03*
X107600000Y-100400000D03*
X108700000Y-101700000D03*
X106100000Y-102000000D03*
X140400000Y-89100000D03*
X138500000Y-87400000D03*
X141500000Y-82500000D03*
X144700000Y-86200000D03*
X127000000Y-86800000D03*
X131900000Y-86700000D03*
X125900000Y-112900000D03*
X157400000Y-103800000D03*
X151000000Y-97800000D03*
X154800000Y-95800000D03*
X151100000Y-95800000D03*
X153300000Y-95200000D03*
X155800000Y-94800000D03*
X137300000Y-83200000D03*
X117700000Y-100200000D03*
X118900000Y-100600000D03*
X166500000Y-98300000D03*
X165500000Y-101500000D03*
X160000000Y-101400000D03*
X153670000Y-86360000D03*
X157226000Y-85344000D03*
X157226000Y-77724000D03*
X157480000Y-80010000D03*
X160782000Y-80010000D03*
X160528000Y-77470000D03*
X158496000Y-73914000D03*
X142800000Y-74950000D03*
X147400000Y-80650000D03*
X147000000Y-84500000D03*
X150350000Y-78400000D03*
X148900000Y-66550000D03*
X144500000Y-63250000D03*
X151550000Y-62900000D03*
X166000000Y-111000000D03*
X156950000Y-110900000D03*
X158900000Y-105600000D03*
X127050000Y-98650000D03*
X124950000Y-98950000D03*
X124100000Y-106550000D03*
X123600000Y-110900000D03*
X127600000Y-115400000D03*
X123800000Y-115400000D03*
X114000000Y-109350000D03*
X115350000Y-116600000D03*
X112900000Y-116450000D03*
X102500000Y-86900000D03*
X103200000Y-83600000D03*
X107750000Y-92000000D03*
X104100000Y-93550000D03*
X146900000Y-73550000D03*
X140350000Y-111700000D03*
X145200000Y-111000000D03*
X145100000Y-110200000D03*
X143250000Y-106650000D03*
X148750000Y-106600000D03*
X146000000Y-106650000D03*
X150250000Y-112350000D03*
X149550000Y-114150000D03*
X147450000Y-116800000D03*
X139250000Y-110850000D03*
X139100000Y-108700000D03*
X139500000Y-105750000D03*
X139400000Y-103950000D03*
X141450000Y-102850000D03*
X143200000Y-101200000D03*
X142400000Y-98700000D03*
X142200000Y-96200000D03*
X135950000Y-99000000D03*
X138450000Y-98650000D03*
X138600000Y-95700000D03*
X135250000Y-94900000D03*
X136450000Y-94250000D03*
X136850000Y-89950000D03*
X135400000Y-89850000D03*
X137950000Y-89550000D03*
X136250000Y-87700000D03*
X136250000Y-88950000D03*
X160350000Y-92250000D03*
X159000000Y-84900000D03*
X149500000Y-82700000D03*
X152150000Y-77950000D03*
X113750000Y-106250000D03*
X110400000Y-110600000D03*
X103900000Y-110100000D03*
X104000000Y-111100000D03*
X105750000Y-104500000D03*
X105750000Y-105500000D03*
X105750000Y-106500000D03*
X105750000Y-107500000D03*
X106000000Y-108300000D03*
X107000000Y-108600000D03*
X108100000Y-108600000D03*
X133250000Y-90750000D03*
X134000000Y-88750000D03*
X135000000Y-86250000D03*
X147000000Y-76000000D03*
X148800000Y-72100000D03*
X146500000Y-67500000D03*
X143850000Y-70600000D03*
X147500000Y-70900000D03*
D41*
X151900000Y-69700000D02*
X151900000Y-66820000D01*
X151900000Y-66820000D02*
X155120000Y-63600000D01*
D42*
X159420000Y-103500000D02*
X159800000Y-103880000D01*
D43*
X131500000Y-103400000D02*
X131600000Y-103300000D01*
X135300000Y-104000000D02*
X135300000Y-106000000D01*
X131600000Y-103300000D02*
X134600000Y-103300000D01*
X134600000Y-103300000D02*
X135300000Y-104000000D01*
X135300000Y-106000000D02*
X133950000Y-107350000D01*
D41*
X137050000Y-110050000D02*
X136100000Y-109100000D01*
X134357968Y-102675000D02*
X134123654Y-102440685D01*
X136100000Y-109100000D02*
X136100000Y-104000000D01*
X134123654Y-102440685D02*
X133450000Y-101767032D01*
X136100000Y-104000000D02*
X134775000Y-102675000D01*
X134775000Y-102675000D02*
X134357968Y-102675000D01*
X133450000Y-101767032D02*
X133450000Y-90950000D01*
X133450000Y-90950000D02*
X133250000Y-90750000D01*
D44*
X135425000Y-114225000D02*
X138075000Y-114225000D01*
X138075000Y-114225000D02*
X139000000Y-113300000D01*
X133950000Y-112750000D02*
X135425000Y-114225000D01*
D43*
X131300000Y-77200000D02*
X137300000Y-83200000D01*
X130600000Y-77200000D02*
X131300000Y-77200000D01*
X124500000Y-75500000D02*
X126200000Y-77200000D01*
X126200000Y-77200000D02*
X130600000Y-77200000D01*
D44*
X120700000Y-79000000D02*
X120700000Y-79805601D01*
X120700000Y-79805601D02*
X125894399Y-85000000D01*
X125894399Y-85000000D02*
X139500000Y-85000000D01*
X139500000Y-85000000D02*
X145000000Y-90500000D01*
X145000000Y-90500000D02*
X145000000Y-92000000D01*
D41*
X150100000Y-104850000D02*
X151300000Y-103650000D01*
X151300000Y-103650000D02*
X153950000Y-103650000D01*
X153950000Y-103650000D02*
X155050000Y-102550000D01*
X155050000Y-102550000D02*
X155050000Y-100248528D01*
X155050000Y-100248528D02*
X160350000Y-94948528D01*
X160350000Y-94948528D02*
X160350000Y-92250000D01*
X155500000Y-104850000D02*
X155500000Y-101000000D01*
X155500000Y-101000000D02*
X163000000Y-93500000D01*
X159000000Y-77640000D02*
X155120000Y-73760000D01*
X159000000Y-84900000D02*
X159000000Y-77640000D01*
X144700000Y-104850000D02*
X144700000Y-96050000D01*
X148850000Y-91900000D02*
X149900000Y-91900000D01*
X149900000Y-91900000D02*
X151700000Y-90100000D01*
X144700000Y-96050000D02*
X148850000Y-91900000D01*
X151700000Y-90100000D02*
X151700000Y-84950000D01*
X151700000Y-84950000D02*
X149500000Y-82750000D01*
X152150000Y-74190000D02*
X155120000Y-71220000D01*
X149500000Y-82750000D02*
X149500000Y-82700000D01*
X152150000Y-77950000D02*
X152150000Y-74190000D01*
D42*
X155500000Y-107950000D02*
X154100000Y-106550000D01*
X151500000Y-106550000D02*
X151550000Y-106550000D01*
X150100000Y-107950000D02*
X151500000Y-106550000D01*
X150100000Y-107950000D02*
X148750000Y-106600000D01*
X144700000Y-107950000D02*
X146000000Y-106650000D01*
X144550000Y-107950000D02*
X143250000Y-106650000D01*
X144700000Y-107950000D02*
X144550000Y-107950000D01*
X154700000Y-110225000D02*
X154700000Y-108750000D01*
X154700000Y-108750000D02*
X155500000Y-107950000D01*
X149300000Y-110175000D02*
X149300000Y-108750000D01*
X149300000Y-108750000D02*
X150100000Y-107950000D01*
X143850000Y-110225000D02*
X143850000Y-108800000D01*
X143850000Y-108800000D02*
X144700000Y-107950000D01*
D41*
X152800000Y-104850000D02*
X155500000Y-104850000D01*
X147400000Y-104850000D02*
X150100000Y-104850000D01*
X141950000Y-104850000D02*
X144700000Y-104850000D01*
D45*
X148350000Y-112050000D02*
X148350000Y-112400000D01*
X148350000Y-112400000D02*
X144750000Y-116000000D01*
X153750000Y-112100000D02*
X153750000Y-116000000D01*
X135750000Y-116000000D02*
X138565578Y-116000000D01*
X138565578Y-116000000D02*
X142465578Y-112100000D01*
X142465578Y-112100000D02*
X142900000Y-112100000D01*
D41*
X120040000Y-112130000D02*
X120040000Y-115736522D01*
X120040000Y-115736522D02*
X122103478Y-117800000D01*
X137896948Y-117800000D02*
X141246948Y-114450000D01*
X122103478Y-117800000D02*
X137896948Y-117800000D01*
X141246948Y-114450000D02*
X143125000Y-114450000D01*
X143125000Y-114450000D02*
X147400000Y-110175000D01*
X152800000Y-107950000D02*
X152800000Y-110225000D01*
X147400000Y-107950000D02*
X147400000Y-110175000D01*
X141950000Y-107950000D02*
X141950000Y-110225000D01*
D46*
X144750000Y-116907538D02*
X144750000Y-116000000D01*
X121565000Y-119100000D02*
X139900000Y-119100000D01*
X139900000Y-119100000D02*
X142557538Y-119100000D01*
X142557538Y-119100000D02*
X144750000Y-116907538D01*
X117500000Y-115035000D02*
X121565000Y-119100000D01*
X117500000Y-112130000D02*
X117500000Y-115035000D01*
D44*
X133950000Y-107350000D02*
X135400000Y-108800000D01*
X135400000Y-108800000D02*
X135400000Y-111300000D01*
X135400000Y-111300000D02*
X133950000Y-112750000D01*
D42*
X135000000Y-101000000D02*
X137000000Y-103000000D01*
X137000000Y-103000000D02*
X138100000Y-103000000D01*
D45*
X120700000Y-79000000D02*
X120700000Y-82550000D01*
X120700000Y-82550000D02*
X106250000Y-97000000D01*
D41*
X137050000Y-104650000D02*
X137050000Y-104050000D01*
X137050000Y-104050000D02*
X135275000Y-102275000D01*
X135275000Y-102275000D02*
X134523654Y-102275000D01*
X134523654Y-102275000D02*
X133850000Y-101601346D01*
X133850000Y-101601346D02*
X133850000Y-88900000D01*
X133850000Y-88900000D02*
X134000000Y-88750000D01*
X131500000Y-109500000D02*
X133400000Y-109500000D01*
X133400000Y-109500000D02*
X133950000Y-110050000D01*
X131500000Y-105600000D02*
X133000000Y-105600000D01*
X133000000Y-105600000D02*
X133950000Y-104650000D01*
X135000000Y-86250000D02*
X132450000Y-88800000D01*
X132450000Y-88800000D02*
X132450000Y-97000000D01*
X137050000Y-110050000D02*
X137050000Y-112750000D01*
X137050000Y-104650000D02*
X137050000Y-107350000D01*
X129500000Y-96450000D02*
X131900000Y-96450000D01*
X131900000Y-96450000D02*
X132450000Y-97000000D01*
X131500000Y-101500000D02*
X129550000Y-99550000D01*
X129550000Y-99550000D02*
X129500000Y-99550000D01*
X133750000Y-110250000D02*
X133950000Y-110050000D01*
D45*
X129625000Y-102450000D02*
X127950000Y-102450000D01*
X127950000Y-102450000D02*
X127000000Y-101500000D01*
X129625000Y-106550000D02*
X129550000Y-106550000D01*
X129550000Y-106550000D02*
X127000000Y-104000000D01*
X129625000Y-110450000D02*
X129625000Y-108949570D01*
X129625000Y-108949570D02*
X127175430Y-106500000D01*
X127175430Y-106500000D02*
X127000000Y-106500000D01*
D41*
X163000000Y-93500000D02*
X141132500Y-71632500D01*
X141132500Y-71632500D02*
X141132500Y-64852500D01*
X141132500Y-64852500D02*
X139880000Y-63600000D01*
X140000000Y-92000000D02*
X140125000Y-92000000D01*
X140125000Y-92000000D02*
X141625000Y-93500000D01*
X141625000Y-93500000D02*
X145609744Y-93500000D01*
X145609744Y-93500000D02*
X147000000Y-92109744D01*
X147000000Y-92109744D02*
X147000000Y-90500000D01*
X147000000Y-90500000D02*
X137600000Y-81100000D01*
X137600000Y-81100000D02*
X137600000Y-73500000D01*
X137600000Y-73500000D02*
X139880000Y-71220000D01*
X149000000Y-90950000D02*
X145450000Y-94500000D01*
X145450000Y-94500000D02*
X140000000Y-94500000D01*
X140000000Y-94500000D02*
X137500000Y-92000000D01*
X149000000Y-88550000D02*
X142500000Y-82050000D01*
X142500000Y-82050000D02*
X142500000Y-76380000D01*
X142500000Y-76380000D02*
X139880000Y-73760000D01*
X149000000Y-90950000D02*
X149000000Y-88550000D01*
D45*
X117341874Y-74500000D02*
X119000000Y-74500000D01*
X119000000Y-74500000D02*
X122000000Y-71500000D01*
X123200000Y-75500000D02*
X123200000Y-74552977D01*
X123200000Y-74552977D02*
X124852977Y-72900000D01*
X124852977Y-72900000D02*
X126829063Y-72900000D01*
X123300000Y-71500000D02*
X125958126Y-71500000D01*
X125958126Y-71500000D02*
X126158126Y-71300000D01*
D47*
X126158126Y-71300000D02*
X126158126Y-72229063D01*
X126158126Y-72229063D02*
X126829063Y-72900000D01*
X126341874Y-63500000D02*
X126341874Y-71116252D01*
X126341874Y-71116252D02*
X126158126Y-71300000D01*
D45*
X147950000Y-98375000D02*
X147950000Y-100550000D01*
X147950000Y-100550000D02*
X147500000Y-101000000D01*
X150300000Y-101300000D02*
X150000000Y-101000000D01*
D41*
X147000000Y-96500000D02*
X149000000Y-94500000D01*
X149000000Y-94500000D02*
X149000000Y-94050000D01*
D45*
X122000000Y-76700000D02*
X123200000Y-75500000D01*
X122000000Y-79000000D02*
X122000000Y-76700000D01*
D42*
X132737500Y-100337500D02*
X131900000Y-99500000D01*
X132737500Y-102162500D02*
X132737500Y-100337500D01*
X131500000Y-103400000D02*
X132737500Y-102162500D01*
G04 #@! TA.AperFunction,Conductor*
G36*
X132845629Y-101924224D02*
G01*
X132885560Y-101981559D01*
X132887736Y-101988789D01*
X132890424Y-101998820D01*
X132890425Y-101998822D01*
X132913552Y-102038878D01*
X132916057Y-102043216D01*
X132959715Y-102118834D01*
X132969479Y-102135746D01*
X132969481Y-102135749D01*
X133088349Y-102254617D01*
X133088355Y-102254622D01*
X133643134Y-102809400D01*
X133870377Y-103036644D01*
X133870380Y-103036648D01*
X133896551Y-103062819D01*
X133930036Y-103124142D01*
X133925052Y-103193834D01*
X133883180Y-103249767D01*
X133817716Y-103274184D01*
X133808870Y-103274500D01*
X133499999Y-103274500D01*
X133499980Y-103274501D01*
X133397203Y-103285000D01*
X133397200Y-103285001D01*
X133230668Y-103340185D01*
X133230663Y-103340187D01*
X133081342Y-103432289D01*
X132957289Y-103556342D01*
X132897473Y-103653320D01*
X132845525Y-103700044D01*
X132776562Y-103711267D01*
X132750631Y-103700000D01*
X131800000Y-103700000D01*
X131800000Y-104200000D01*
X132153134Y-104200000D01*
X132153149Y-104199999D01*
X132189989Y-104197100D01*
X132189995Y-104197099D01*
X132347693Y-104151283D01*
X132347696Y-104151282D01*
X132489052Y-104067685D01*
X132489061Y-104067678D01*
X132587819Y-103968921D01*
X132649142Y-103935436D01*
X132718834Y-103940420D01*
X132774767Y-103982292D01*
X132799184Y-104047756D01*
X132799500Y-104056602D01*
X132799500Y-104875500D01*
X132779815Y-104942539D01*
X132727011Y-104988294D01*
X132675500Y-104999500D01*
X132608308Y-104999500D01*
X132541269Y-104979815D01*
X132520626Y-104963180D01*
X132489370Y-104931923D01*
X132489362Y-104931917D01*
X132401223Y-104879792D01*
X132347898Y-104848256D01*
X132347897Y-104848255D01*
X132347896Y-104848255D01*
X132347893Y-104848254D01*
X132190073Y-104802402D01*
X132190067Y-104802401D01*
X132153201Y-104799500D01*
X132153194Y-104799500D01*
X130846806Y-104799500D01*
X130846798Y-104799500D01*
X130809932Y-104802401D01*
X130809926Y-104802402D01*
X130652106Y-104848254D01*
X130652103Y-104848255D01*
X130510637Y-104931917D01*
X130510629Y-104931923D01*
X130394423Y-105048129D01*
X130394417Y-105048137D01*
X130310755Y-105189603D01*
X130310754Y-105189606D01*
X130264902Y-105347426D01*
X130264901Y-105347432D01*
X130262000Y-105384298D01*
X130262000Y-105545341D01*
X130242315Y-105612380D01*
X130189511Y-105658135D01*
X130120353Y-105668079D01*
X130090558Y-105659907D01*
X130086499Y-105658225D01*
X130046262Y-105631342D01*
X128511819Y-104096898D01*
X128478334Y-104035575D01*
X128475500Y-104009217D01*
X128475500Y-103893713D01*
X128446603Y-103711267D01*
X128444819Y-103700000D01*
X130279204Y-103700000D01*
X130311218Y-103810198D01*
X130394814Y-103951552D01*
X130394821Y-103951561D01*
X130510938Y-104067678D01*
X130510947Y-104067685D01*
X130652303Y-104151282D01*
X130652306Y-104151283D01*
X130810004Y-104197099D01*
X130810010Y-104197100D01*
X130846850Y-104199999D01*
X130846866Y-104200000D01*
X131200000Y-104200000D01*
X131200000Y-103700000D01*
X130279204Y-103700000D01*
X128444819Y-103700000D01*
X128442246Y-103683757D01*
X128419195Y-103612816D01*
X128417201Y-103542977D01*
X128453281Y-103483144D01*
X128515982Y-103452316D01*
X128537127Y-103450500D01*
X129723543Y-103450500D01*
X129853582Y-103424632D01*
X129916835Y-103412051D01*
X130098914Y-103336632D01*
X130196544Y-103271398D01*
X130263222Y-103250520D01*
X130265435Y-103250500D01*
X130278186Y-103250500D01*
X130278194Y-103250500D01*
X130315069Y-103247598D01*
X130315071Y-103247597D01*
X130315073Y-103247597D01*
X130359887Y-103234577D01*
X130472898Y-103201744D01*
X130610760Y-103120213D01*
X130615740Y-103117268D01*
X130678861Y-103100000D01*
X131200000Y-103100000D01*
X131800000Y-103100000D01*
X132720796Y-103100000D01*
X132688781Y-102989801D01*
X132605185Y-102848447D01*
X132605178Y-102848438D01*
X132489061Y-102732321D01*
X132489052Y-102732314D01*
X132347696Y-102648717D01*
X132347693Y-102648716D01*
X132189995Y-102602900D01*
X132189989Y-102602899D01*
X132153149Y-102600000D01*
X131800000Y-102600000D01*
X131800000Y-103100000D01*
X131200000Y-103100000D01*
X131200000Y-102600000D01*
X130987000Y-102600000D01*
X130919961Y-102580315D01*
X130874206Y-102527511D01*
X130863000Y-102476000D01*
X130863000Y-102424500D01*
X130882685Y-102357461D01*
X130935489Y-102311706D01*
X130987000Y-102300500D01*
X132153186Y-102300500D01*
X132153194Y-102300500D01*
X132190069Y-102297598D01*
X132190071Y-102297597D01*
X132190073Y-102297597D01*
X132231691Y-102285505D01*
X132347898Y-102251744D01*
X132489365Y-102168081D01*
X132605581Y-102051865D01*
X132661231Y-101957764D01*
X132712298Y-101910083D01*
X132781040Y-101897579D01*
X132845629Y-101924224D01*
G37*
G04 #@! TD.AperFunction*
G04 #@! TA.AperFunction,Conductor*
G36*
X140957304Y-72314600D02*
G01*
X140987614Y-72336849D01*
X159997692Y-91346927D01*
X160031177Y-91408250D01*
X160026193Y-91477942D01*
X159984321Y-91533875D01*
X159975983Y-91539602D01*
X159847737Y-91620184D01*
X159720184Y-91747737D01*
X159624211Y-91900476D01*
X159564631Y-92070745D01*
X159564630Y-92070750D01*
X159544435Y-92249996D01*
X159544435Y-92250003D01*
X159564630Y-92429249D01*
X159564631Y-92429254D01*
X159624211Y-92599523D01*
X159720185Y-92752263D01*
X159722445Y-92755097D01*
X159723334Y-92757275D01*
X159723889Y-92758158D01*
X159723734Y-92758255D01*
X159748855Y-92819783D01*
X159749500Y-92832412D01*
X159749500Y-94648430D01*
X159729815Y-94715469D01*
X159713181Y-94736111D01*
X154569481Y-99879810D01*
X154569479Y-99879812D01*
X154548843Y-99915556D01*
X154540120Y-99930666D01*
X154490423Y-100016743D01*
X154449499Y-100169471D01*
X154449499Y-100169473D01*
X154449499Y-100337574D01*
X154449500Y-100337587D01*
X154449500Y-102249903D01*
X154429815Y-102316942D01*
X154413181Y-102337584D01*
X153737584Y-103013181D01*
X153676261Y-103046666D01*
X153649903Y-103049500D01*
X151379057Y-103049500D01*
X151220942Y-103049500D01*
X151068215Y-103090423D01*
X151051628Y-103100000D01*
X151035038Y-103109578D01*
X151035037Y-103109577D01*
X150931287Y-103169477D01*
X150931282Y-103169481D01*
X150819478Y-103281286D01*
X150437582Y-103663181D01*
X150376259Y-103696666D01*
X150349901Y-103699500D01*
X149424998Y-103699500D01*
X149424980Y-103699501D01*
X149322203Y-103710000D01*
X149322200Y-103710001D01*
X149155668Y-103765185D01*
X149155663Y-103765187D01*
X149006342Y-103857289D01*
X148882289Y-103981342D01*
X148855539Y-104024712D01*
X148803591Y-104071436D01*
X148734628Y-104082659D01*
X148670546Y-104054815D01*
X148644461Y-104024712D01*
X148634904Y-104009217D01*
X148617712Y-103981344D01*
X148493656Y-103857288D01*
X148344334Y-103765186D01*
X148177797Y-103710001D01*
X148177795Y-103710000D01*
X148075010Y-103699500D01*
X146724998Y-103699500D01*
X146724981Y-103699501D01*
X146622203Y-103710000D01*
X146622200Y-103710001D01*
X146455668Y-103765185D01*
X146455663Y-103765187D01*
X146306342Y-103857289D01*
X146182289Y-103981342D01*
X146155539Y-104024712D01*
X146103591Y-104071436D01*
X146034628Y-104082659D01*
X145970546Y-104054815D01*
X145944461Y-104024712D01*
X145934904Y-104009217D01*
X145917712Y-103981344D01*
X145793656Y-103857288D01*
X145644334Y-103765186D01*
X145477797Y-103710001D01*
X145477794Y-103710000D01*
X145411897Y-103703268D01*
X145347205Y-103676871D01*
X145307054Y-103619690D01*
X145300500Y-103579910D01*
X145300500Y-96350096D01*
X145320185Y-96283057D01*
X145336814Y-96262420D01*
X146030070Y-95569164D01*
X146091392Y-95535680D01*
X146161084Y-95540664D01*
X146217017Y-95582536D01*
X146241434Y-95648000D01*
X146236826Y-95691441D01*
X146202402Y-95809926D01*
X146202401Y-95809932D01*
X146199500Y-95846798D01*
X146199500Y-97153201D01*
X146202401Y-97190067D01*
X146202402Y-97190073D01*
X146248254Y-97347893D01*
X146248255Y-97347896D01*
X146331917Y-97489362D01*
X146331923Y-97489370D01*
X146448129Y-97605576D01*
X146448133Y-97605579D01*
X146448135Y-97605581D01*
X146589602Y-97689244D01*
X146631224Y-97701336D01*
X146747426Y-97735097D01*
X146747429Y-97735097D01*
X146747431Y-97735098D01*
X146784306Y-97738000D01*
X146945341Y-97738000D01*
X147012380Y-97757685D01*
X147058135Y-97810489D01*
X147068079Y-97879647D01*
X147059902Y-97909452D01*
X146987950Y-98083160D01*
X146987947Y-98083170D01*
X146949500Y-98276456D01*
X146949500Y-99538804D01*
X146929815Y-99605843D01*
X146881796Y-99649288D01*
X146792182Y-99694949D01*
X146620213Y-99819890D01*
X146469890Y-99970213D01*
X146344951Y-100142179D01*
X146248444Y-100331585D01*
X146182753Y-100533760D01*
X146157576Y-100692722D01*
X146149500Y-100743713D01*
X146149500Y-101256287D01*
X146182754Y-101466243D01*
X146228257Y-101606287D01*
X146248444Y-101668414D01*
X146344951Y-101857820D01*
X146469890Y-102029786D01*
X146620213Y-102180109D01*
X146792179Y-102305048D01*
X146792181Y-102305049D01*
X146792184Y-102305051D01*
X146981588Y-102401557D01*
X147183757Y-102467246D01*
X147393713Y-102500500D01*
X147393714Y-102500500D01*
X147606286Y-102500500D01*
X147606287Y-102500500D01*
X147816243Y-102467246D01*
X148018412Y-102401557D01*
X148207816Y-102305051D01*
X148332634Y-102214366D01*
X148379784Y-102180110D01*
X148379784Y-102180109D01*
X148379792Y-102180104D01*
X148518604Y-102041291D01*
X148579923Y-102007809D01*
X148649615Y-102012793D01*
X148705549Y-102054664D01*
X148711821Y-102063878D01*
X148715185Y-102069333D01*
X148715186Y-102069334D01*
X148807288Y-102218656D01*
X148931344Y-102342712D01*
X149080666Y-102434814D01*
X149247203Y-102489999D01*
X149349991Y-102500500D01*
X150650008Y-102500499D01*
X150752797Y-102489999D01*
X150919334Y-102434814D01*
X151068656Y-102342712D01*
X151192712Y-102218656D01*
X151284814Y-102069334D01*
X151339999Y-101902797D01*
X151350500Y-101800009D01*
X151350499Y-100199992D01*
X151348074Y-100176257D01*
X151339999Y-100097203D01*
X151339998Y-100097200D01*
X151315686Y-100023831D01*
X151284814Y-99930666D01*
X151192712Y-99781344D01*
X151068656Y-99657288D01*
X150948741Y-99583324D01*
X150919336Y-99565187D01*
X150919331Y-99565185D01*
X150917862Y-99564698D01*
X150752797Y-99510001D01*
X150752795Y-99510000D01*
X150650010Y-99499500D01*
X149349998Y-99499500D01*
X149349981Y-99499501D01*
X149247203Y-99510000D01*
X149247200Y-99510001D01*
X149113504Y-99554304D01*
X149043675Y-99556706D01*
X148983634Y-99520974D01*
X148952441Y-99458453D01*
X148950500Y-99436598D01*
X148950500Y-98276456D01*
X148912052Y-98083170D01*
X148912051Y-98083169D01*
X148912051Y-98083165D01*
X148891411Y-98033336D01*
X148836633Y-97901088D01*
X148771398Y-97803456D01*
X148750520Y-97736778D01*
X148750500Y-97734565D01*
X148750500Y-97721813D01*
X148750499Y-97721798D01*
X148750420Y-97720795D01*
X149200000Y-97720795D01*
X149310198Y-97688781D01*
X149451552Y-97605185D01*
X149451561Y-97605178D01*
X149567678Y-97489061D01*
X149567685Y-97489052D01*
X149651282Y-97347696D01*
X149651283Y-97347693D01*
X149697099Y-97189995D01*
X149697100Y-97189989D01*
X149699999Y-97153149D01*
X149700000Y-97153134D01*
X149700000Y-96800000D01*
X149200000Y-96800000D01*
X149200000Y-97720795D01*
X148750420Y-97720795D01*
X148749258Y-97706031D01*
X148747598Y-97684931D01*
X148737008Y-97648481D01*
X148709457Y-97553650D01*
X148701744Y-97527102D01*
X148685716Y-97500000D01*
X148617268Y-97384258D01*
X148600000Y-97321138D01*
X148600000Y-96800000D01*
X148100000Y-96800000D01*
X148100000Y-97013000D01*
X148080315Y-97080039D01*
X148027511Y-97125794D01*
X147976000Y-97137000D01*
X147924500Y-97137000D01*
X147857461Y-97117315D01*
X147811706Y-97064511D01*
X147800500Y-97013000D01*
X147800500Y-96600097D01*
X147820185Y-96533058D01*
X147836819Y-96512416D01*
X148112916Y-96236319D01*
X148174239Y-96202834D01*
X148200597Y-96200000D01*
X149700000Y-96200000D01*
X149700000Y-95846865D01*
X149699999Y-95846850D01*
X149697100Y-95810010D01*
X149697099Y-95810004D01*
X149651283Y-95652306D01*
X149651282Y-95652303D01*
X149567685Y-95510947D01*
X149567678Y-95510938D01*
X149468920Y-95412180D01*
X149435435Y-95350857D01*
X149440419Y-95281165D01*
X149482291Y-95225232D01*
X149547755Y-95200815D01*
X149556601Y-95200499D01*
X149675002Y-95200499D01*
X149675008Y-95200499D01*
X149777797Y-95189999D01*
X149944334Y-95134814D01*
X150093656Y-95042712D01*
X150217712Y-94918656D01*
X150309814Y-94769334D01*
X150364999Y-94602797D01*
X150375500Y-94500009D01*
X150375499Y-93599992D01*
X150369023Y-93536600D01*
X150364999Y-93497203D01*
X150364998Y-93497200D01*
X150355839Y-93469561D01*
X150309814Y-93330666D01*
X150217712Y-93181344D01*
X150093656Y-93057288D01*
X149944334Y-92965186D01*
X149777797Y-92910001D01*
X149777795Y-92910000D01*
X149675016Y-92899500D01*
X149675009Y-92899500D01*
X148999097Y-92899500D01*
X148932058Y-92879815D01*
X148886303Y-92827011D01*
X148876359Y-92757853D01*
X148905384Y-92694297D01*
X148911416Y-92687819D01*
X149062416Y-92536819D01*
X149123739Y-92503334D01*
X149150097Y-92500500D01*
X149813331Y-92500500D01*
X149813347Y-92500501D01*
X149820943Y-92500501D01*
X149979054Y-92500501D01*
X149979057Y-92500501D01*
X150131785Y-92459577D01*
X150215387Y-92411309D01*
X150268716Y-92380520D01*
X150380520Y-92268716D01*
X150380520Y-92268714D01*
X150390724Y-92258511D01*
X150390728Y-92258506D01*
X151437821Y-91211412D01*
X151499142Y-91177929D01*
X151568834Y-91182913D01*
X151624767Y-91224785D01*
X151649184Y-91290249D01*
X151649500Y-91299095D01*
X151649500Y-92800001D01*
X151649501Y-92800018D01*
X151660000Y-92902796D01*
X151660001Y-92902799D01*
X151693798Y-93004790D01*
X151715186Y-93069334D01*
X151807288Y-93218656D01*
X151931344Y-93342712D01*
X152080666Y-93434814D01*
X152247203Y-93489999D01*
X152349991Y-93500500D01*
X153650008Y-93500499D01*
X153752797Y-93489999D01*
X153919334Y-93434814D01*
X154068656Y-93342712D01*
X154192712Y-93218656D01*
X154284814Y-93069334D01*
X154284814Y-93069331D01*
X154288448Y-93063441D01*
X154340395Y-93016716D01*
X154409358Y-93005493D01*
X154473440Y-93033336D01*
X154481668Y-93040856D01*
X154620535Y-93179723D01*
X154620540Y-93179727D01*
X154792442Y-93304620D01*
X154981779Y-93401094D01*
X154981785Y-93401096D01*
X155099999Y-93439505D01*
X155100000Y-93439505D01*
X155900000Y-93439505D01*
X156018214Y-93401096D01*
X156018220Y-93401094D01*
X156207557Y-93304620D01*
X156379459Y-93179727D01*
X156379464Y-93179723D01*
X156529723Y-93029464D01*
X156529727Y-93029459D01*
X156654620Y-92857557D01*
X156751095Y-92668217D01*
X156816757Y-92466129D01*
X156816757Y-92466126D01*
X156827231Y-92400000D01*
X155900000Y-92400000D01*
X155900000Y-93439505D01*
X155100000Y-93439505D01*
X155100000Y-92307106D01*
X155192993Y-92400099D01*
X155307007Y-92465925D01*
X155434174Y-92500000D01*
X155565826Y-92500000D01*
X155692993Y-92465925D01*
X155807007Y-92400099D01*
X155900099Y-92307007D01*
X155965925Y-92192993D01*
X156000000Y-92065826D01*
X156000000Y-91934174D01*
X155965925Y-91807007D01*
X155900099Y-91692993D01*
X155807106Y-91600000D01*
X155900000Y-91600000D01*
X156827231Y-91600000D01*
X156816757Y-91533873D01*
X156816757Y-91533870D01*
X156751095Y-91331782D01*
X156654620Y-91142442D01*
X156529727Y-90970540D01*
X156529723Y-90970535D01*
X156379464Y-90820276D01*
X156379459Y-90820272D01*
X156207557Y-90695379D01*
X156018222Y-90598907D01*
X155900000Y-90560494D01*
X155900000Y-91600000D01*
X155807106Y-91600000D01*
X155807007Y-91599901D01*
X155692993Y-91534075D01*
X155565826Y-91500000D01*
X155434174Y-91500000D01*
X155307007Y-91534075D01*
X155192993Y-91599901D01*
X155100000Y-91692894D01*
X155100000Y-90560494D01*
X155099999Y-90560494D01*
X154981777Y-90598907D01*
X154792442Y-90695379D01*
X154620541Y-90820271D01*
X154481668Y-90959144D01*
X154420345Y-90992628D01*
X154350653Y-90987644D01*
X154294720Y-90945772D01*
X154288448Y-90936558D01*
X154192712Y-90781344D01*
X154068657Y-90657289D01*
X154068656Y-90657288D01*
X153952259Y-90585494D01*
X153919336Y-90565187D01*
X153919331Y-90565185D01*
X153914270Y-90563508D01*
X153752797Y-90510001D01*
X153752795Y-90510000D01*
X153650016Y-90499500D01*
X152375685Y-90499500D01*
X152308646Y-90479815D01*
X152262891Y-90427011D01*
X152252947Y-90357853D01*
X152257913Y-90339752D01*
X152257473Y-90339634D01*
X152259575Y-90331785D01*
X152259577Y-90331784D01*
X152294745Y-90200536D01*
X152300500Y-90179058D01*
X152300500Y-90020943D01*
X152300500Y-85039059D01*
X152300501Y-85039046D01*
X152300501Y-84870945D01*
X152300501Y-84870943D01*
X152259577Y-84718215D01*
X152230639Y-84668095D01*
X152180520Y-84581284D01*
X152068716Y-84469480D01*
X152068715Y-84469479D01*
X152064385Y-84465149D01*
X152064374Y-84465139D01*
X150337050Y-82737815D01*
X150303565Y-82676492D01*
X150301511Y-82664017D01*
X150285369Y-82520750D01*
X150285368Y-82520745D01*
X150249667Y-82418717D01*
X150225789Y-82350478D01*
X150214528Y-82332557D01*
X150129815Y-82197737D01*
X150002262Y-82070184D01*
X149849523Y-81974211D01*
X149679254Y-81914631D01*
X149679249Y-81914630D01*
X149500004Y-81894435D01*
X149499996Y-81894435D01*
X149320750Y-81914630D01*
X149320745Y-81914631D01*
X149150476Y-81974211D01*
X148997737Y-82070184D01*
X148870184Y-82197737D01*
X148774211Y-82350476D01*
X148714631Y-82520745D01*
X148714630Y-82520750D01*
X148694435Y-82699996D01*
X148694435Y-82700003D01*
X148714630Y-82879249D01*
X148714631Y-82879254D01*
X148774211Y-83049523D01*
X148861084Y-83187780D01*
X148870184Y-83202262D01*
X148997738Y-83329816D01*
X149150478Y-83425789D01*
X149320745Y-83485368D01*
X149351317Y-83488812D01*
X149415729Y-83515876D01*
X149425116Y-83524351D01*
X150056170Y-84155405D01*
X150089655Y-84216728D01*
X150084671Y-84286420D01*
X150042799Y-84342353D01*
X149977335Y-84366770D01*
X149929485Y-84360792D01*
X149777697Y-84310494D01*
X149777690Y-84310493D01*
X149674986Y-84300000D01*
X149400000Y-84300000D01*
X149400000Y-85050000D01*
X150374999Y-85050000D01*
X150374999Y-85000028D01*
X150374998Y-85000013D01*
X150364506Y-84897304D01*
X150314207Y-84745515D01*
X150311805Y-84675686D01*
X150347536Y-84615644D01*
X150410057Y-84584451D01*
X150479516Y-84592011D01*
X150519594Y-84618829D01*
X151063181Y-85162416D01*
X151096666Y-85223739D01*
X151099500Y-85250097D01*
X151099500Y-89799902D01*
X151079815Y-89866941D01*
X151063181Y-89887583D01*
X150554083Y-90396681D01*
X150492760Y-90430166D01*
X150423068Y-90425182D01*
X150367135Y-90383310D01*
X150348696Y-90348004D01*
X150343321Y-90331784D01*
X150309814Y-90230666D01*
X150217712Y-90081344D01*
X150093656Y-89957288D01*
X149944334Y-89865186D01*
X149944330Y-89865184D01*
X149938325Y-89862385D01*
X149885884Y-89816215D01*
X149866728Y-89749023D01*
X149886940Y-89682141D01*
X149938325Y-89637615D01*
X149944322Y-89634817D01*
X149944334Y-89634814D01*
X150093656Y-89542712D01*
X150217712Y-89418656D01*
X150309814Y-89269334D01*
X150364999Y-89102797D01*
X150375500Y-89000009D01*
X150375499Y-88099992D01*
X150374418Y-88089414D01*
X150364999Y-87997203D01*
X150364998Y-87997200D01*
X150354206Y-87964632D01*
X150309814Y-87830666D01*
X150217712Y-87681344D01*
X150093656Y-87557288D01*
X149944334Y-87465186D01*
X149777797Y-87410001D01*
X149777795Y-87410000D01*
X149675016Y-87399500D01*
X149675009Y-87399500D01*
X148750097Y-87399500D01*
X148683058Y-87379815D01*
X148662416Y-87363181D01*
X148093388Y-86794153D01*
X148059903Y-86732830D01*
X148064887Y-86663138D01*
X148106759Y-86607205D01*
X148172223Y-86582788D01*
X148215661Y-86588215D01*
X148215689Y-86588089D01*
X148217143Y-86588400D01*
X148220077Y-86588767D01*
X148222308Y-86589506D01*
X148325019Y-86599999D01*
X148599999Y-86599999D01*
X149400000Y-86599999D01*
X149674972Y-86599999D01*
X149674986Y-86599998D01*
X149777697Y-86589505D01*
X149944119Y-86534358D01*
X149944124Y-86534356D01*
X150093345Y-86442315D01*
X150217315Y-86318345D01*
X150309356Y-86169124D01*
X150309358Y-86169119D01*
X150364505Y-86002697D01*
X150364506Y-86002690D01*
X150374999Y-85899986D01*
X150375000Y-85899973D01*
X150375000Y-85850000D01*
X149400000Y-85850000D01*
X149400000Y-86599999D01*
X148599999Y-86599999D01*
X148600000Y-86599998D01*
X148600000Y-85850000D01*
X147625001Y-85850000D01*
X147625001Y-85899986D01*
X147635494Y-86002699D01*
X147636233Y-86004929D01*
X147636283Y-86006385D01*
X147636911Y-86009319D01*
X147636387Y-86009431D01*
X147638633Y-86074757D01*
X147602899Y-86134798D01*
X147540378Y-86165988D01*
X147470918Y-86158426D01*
X147430845Y-86131610D01*
X146299248Y-85000013D01*
X147625000Y-85000013D01*
X147625000Y-85050000D01*
X148600000Y-85050000D01*
X148600000Y-84300000D01*
X148325029Y-84300000D01*
X148325012Y-84300001D01*
X148222302Y-84310494D01*
X148055880Y-84365641D01*
X148055875Y-84365643D01*
X147906654Y-84457684D01*
X147782684Y-84581654D01*
X147690643Y-84730875D01*
X147690641Y-84730880D01*
X147635494Y-84897302D01*
X147635493Y-84897309D01*
X147625000Y-85000013D01*
X146299248Y-85000013D01*
X143136819Y-81837584D01*
X143103334Y-81776261D01*
X143100500Y-81749903D01*
X143100500Y-76469060D01*
X143100501Y-76469047D01*
X143100501Y-76300944D01*
X143100501Y-76300943D01*
X143059577Y-76148216D01*
X143009927Y-76062219D01*
X142980524Y-76011290D01*
X142980518Y-76011282D01*
X141297419Y-74328183D01*
X141263934Y-74266860D01*
X141264894Y-74210062D01*
X141318095Y-73999976D01*
X141328189Y-73878155D01*
X141337980Y-73760005D01*
X141337980Y-73759994D01*
X141318095Y-73520027D01*
X141318095Y-73520024D01*
X141258983Y-73286595D01*
X141162255Y-73066078D01*
X141030551Y-72864490D01*
X140867463Y-72687329D01*
X140783536Y-72622006D01*
X140739656Y-72587853D01*
X140698843Y-72531143D01*
X140695168Y-72461370D01*
X140729800Y-72400687D01*
X140739648Y-72392152D01*
X140823773Y-72326675D01*
X140888764Y-72301034D01*
X140957304Y-72314600D01*
G37*
G04 #@! TD.AperFunction*
G04 #@! TA.AperFunction,Conductor*
G36*
X134619905Y-101291657D02*
G01*
X134708343Y-101380095D01*
X134742820Y-101400000D01*
X134724000Y-101400000D01*
X134656961Y-101380315D01*
X134611206Y-101327511D01*
X134600000Y-101276000D01*
X134600000Y-101257180D01*
X134619905Y-101291657D01*
G37*
G04 #@! TD.AperFunction*
G04 #@! TA.AperFunction,Conductor*
G36*
X135400000Y-101276000D02*
G01*
X135380315Y-101343039D01*
X135327511Y-101388794D01*
X135276000Y-101400000D01*
X135257180Y-101400000D01*
X135291657Y-101380095D01*
X135380095Y-101291657D01*
X135400000Y-101257180D01*
X135400000Y-101276000D01*
G37*
G04 #@! TD.AperFunction*
G04 #@! TA.AperFunction,Conductor*
G36*
X108362930Y-96679963D02*
G01*
X108369685Y-96656961D01*
X108422489Y-96611206D01*
X108434245Y-96608648D01*
X108362930Y-96679963D01*
G37*
G04 #@! TD.AperFunction*
G04 #@! TA.AperFunction,Conductor*
G36*
X162708343Y-95619905D02*
G01*
X162619905Y-95708343D01*
X162600000Y-95742819D01*
X162600000Y-95724000D01*
X162619685Y-95656961D01*
X162672489Y-95611206D01*
X162724000Y-95600000D01*
X162742820Y-95600000D01*
X162708343Y-95619905D01*
G37*
G04 #@! TD.AperFunction*
G04 #@! TA.AperFunction,Conductor*
G36*
X139142677Y-85920185D02*
G01*
X139163319Y-85936819D01*
X141508507Y-88282007D01*
X143832385Y-90605884D01*
X143865870Y-90667207D01*
X143860886Y-90736899D01*
X143832387Y-90781245D01*
X143807286Y-90806345D01*
X143711820Y-90961121D01*
X143659872Y-91007846D01*
X143590910Y-91019067D01*
X143526828Y-90991224D01*
X143518601Y-90983705D01*
X143379786Y-90844890D01*
X143207820Y-90719951D01*
X143018414Y-90623444D01*
X143018413Y-90623443D01*
X143018412Y-90623443D01*
X142816243Y-90557754D01*
X142816241Y-90557753D01*
X142816240Y-90557753D01*
X142654957Y-90532208D01*
X142606287Y-90524500D01*
X142393713Y-90524500D01*
X142345042Y-90532208D01*
X142183760Y-90557753D01*
X141981585Y-90623444D01*
X141792179Y-90719951D01*
X141620213Y-90844890D01*
X141469894Y-90995209D01*
X141469890Y-90995214D01*
X141350318Y-91159793D01*
X141294989Y-91202459D01*
X141225375Y-91208438D01*
X141163580Y-91175833D01*
X141149682Y-91159793D01*
X141030109Y-90995214D01*
X141030105Y-90995209D01*
X140879786Y-90844890D01*
X140707820Y-90719951D01*
X140518414Y-90623444D01*
X140518413Y-90623443D01*
X140518412Y-90623443D01*
X140316243Y-90557754D01*
X140316241Y-90557753D01*
X140316240Y-90557753D01*
X140154957Y-90532208D01*
X140106287Y-90524500D01*
X139893713Y-90524500D01*
X139845042Y-90532208D01*
X139683760Y-90557753D01*
X139481585Y-90623444D01*
X139292179Y-90719951D01*
X139120213Y-90844890D01*
X138969894Y-90995209D01*
X138969890Y-90995214D01*
X138850318Y-91159793D01*
X138794989Y-91202459D01*
X138725375Y-91208438D01*
X138663580Y-91175833D01*
X138649682Y-91159793D01*
X138530109Y-90995214D01*
X138530105Y-90995209D01*
X138379786Y-90844890D01*
X138207820Y-90719951D01*
X138018414Y-90623444D01*
X138018413Y-90623443D01*
X138018412Y-90623443D01*
X137816243Y-90557754D01*
X137816241Y-90557753D01*
X137816240Y-90557753D01*
X137654957Y-90532208D01*
X137606287Y-90524500D01*
X137393713Y-90524500D01*
X137345042Y-90532208D01*
X137183760Y-90557753D01*
X136981585Y-90623444D01*
X136792179Y-90719951D01*
X136620213Y-90844890D01*
X136469894Y-90995209D01*
X136469890Y-90995214D01*
X136350008Y-91160218D01*
X136294678Y-91202884D01*
X136225065Y-91208863D01*
X136163270Y-91176257D01*
X136149372Y-91160218D01*
X136029727Y-90995540D01*
X136029723Y-90995535D01*
X135879464Y-90845276D01*
X135879459Y-90845272D01*
X135707557Y-90720379D01*
X135518222Y-90623907D01*
X135400000Y-90585494D01*
X135400000Y-91742819D01*
X135380095Y-91708343D01*
X135291657Y-91619905D01*
X135183343Y-91557370D01*
X135062535Y-91525000D01*
X134937465Y-91525000D01*
X134816657Y-91557370D01*
X134708343Y-91619905D01*
X134619905Y-91708343D01*
X134600000Y-91742819D01*
X134600000Y-90585494D01*
X134594968Y-90581838D01*
X134542976Y-90583324D01*
X134483144Y-90547243D01*
X134452316Y-90484542D01*
X134450500Y-90463398D01*
X134450500Y-89480809D01*
X134470185Y-89413770D01*
X134497191Y-89383859D01*
X134502252Y-89379821D01*
X134502262Y-89379816D01*
X134629816Y-89252262D01*
X134725789Y-89099522D01*
X134785368Y-88929255D01*
X134789897Y-88889059D01*
X134805565Y-88750003D01*
X134805565Y-88749996D01*
X134785369Y-88570750D01*
X134785368Y-88570745D01*
X134725788Y-88400476D01*
X134686582Y-88338080D01*
X134629816Y-88247738D01*
X134502262Y-88120184D01*
X134453292Y-88089414D01*
X134349520Y-88024209D01*
X134332446Y-88018235D01*
X134275671Y-87977513D01*
X134249924Y-87912560D01*
X134263381Y-87843999D01*
X134285718Y-87813516D01*
X135018536Y-87080698D01*
X135079857Y-87047215D01*
X135092310Y-87045163D01*
X135179255Y-87035368D01*
X135349522Y-86975789D01*
X135502262Y-86879816D01*
X135629816Y-86752262D01*
X135725789Y-86599522D01*
X135785368Y-86429255D01*
X135785369Y-86429249D01*
X135805565Y-86250003D01*
X135805565Y-86249996D01*
X135785369Y-86070750D01*
X135785367Y-86070742D01*
X135783517Y-86065454D01*
X135779956Y-85995675D01*
X135814685Y-85935048D01*
X135876678Y-85902821D01*
X135900559Y-85900500D01*
X139075638Y-85900500D01*
X139142677Y-85920185D01*
G37*
G04 #@! TD.AperFunction*
G04 #@! TA.AperFunction,Conductor*
G36*
X141544958Y-76274194D02*
G01*
X141863181Y-76592416D01*
X141896666Y-76653739D01*
X141899500Y-76680097D01*
X141899500Y-81963330D01*
X141899499Y-81963348D01*
X141899499Y-82129054D01*
X141899498Y-82129054D01*
X141940423Y-82281785D01*
X141960316Y-82316239D01*
X141960317Y-82316243D01*
X142019475Y-82418709D01*
X142019481Y-82418717D01*
X142138349Y-82537585D01*
X142138355Y-82537590D01*
X147589902Y-87989137D01*
X147623387Y-88050460D01*
X147625580Y-88089414D01*
X147624500Y-88099986D01*
X147624500Y-89000001D01*
X147624501Y-89000019D01*
X147635000Y-89102796D01*
X147635001Y-89102799D01*
X147665109Y-89193657D01*
X147690186Y-89269334D01*
X147782288Y-89418656D01*
X147906344Y-89542712D01*
X148055666Y-89634814D01*
X148055667Y-89634814D01*
X148055670Y-89634816D01*
X148061677Y-89637617D01*
X148114117Y-89683788D01*
X148133271Y-89750981D01*
X148113057Y-89817862D01*
X148061677Y-89862383D01*
X148055670Y-89865183D01*
X147906342Y-89957289D01*
X147782289Y-90081342D01*
X147720583Y-90181384D01*
X147668635Y-90228109D01*
X147599672Y-90239330D01*
X147535590Y-90211487D01*
X147507656Y-90178286D01*
X147480521Y-90131285D01*
X147364385Y-90015149D01*
X147364374Y-90015139D01*
X140307422Y-82958187D01*
X140273937Y-82896864D01*
X140278921Y-82827172D01*
X140320793Y-82771239D01*
X140354841Y-82753225D01*
X140465653Y-82715183D01*
X140465656Y-82715181D01*
X140465664Y-82715179D01*
X140677439Y-82600572D01*
X140867463Y-82452671D01*
X141030551Y-82275510D01*
X141162255Y-82073922D01*
X141258983Y-81853405D01*
X141318095Y-81619976D01*
X141329562Y-81481588D01*
X141337980Y-81380005D01*
X141337980Y-81379994D01*
X141318095Y-81140027D01*
X141318095Y-81140024D01*
X141258983Y-80906595D01*
X141162255Y-80686078D01*
X141030551Y-80484490D01*
X140867463Y-80307329D01*
X140755749Y-80220379D01*
X140739656Y-80207853D01*
X140698843Y-80151143D01*
X140695168Y-80081370D01*
X140729800Y-80020687D01*
X140739656Y-80012147D01*
X140803067Y-79962792D01*
X140867463Y-79912671D01*
X141030551Y-79735510D01*
X141162255Y-79533922D01*
X141258983Y-79313405D01*
X141318095Y-79079976D01*
X141327565Y-78965685D01*
X141337980Y-78840005D01*
X141337980Y-78839994D01*
X141320532Y-78629434D01*
X141318095Y-78600024D01*
X141258983Y-78366595D01*
X141162255Y-78146078D01*
X141030551Y-77944490D01*
X140867463Y-77767329D01*
X140790573Y-77707483D01*
X140739656Y-77667853D01*
X140698843Y-77611143D01*
X140695168Y-77541370D01*
X140729800Y-77480687D01*
X140739656Y-77472147D01*
X140760072Y-77456255D01*
X140867463Y-77372671D01*
X141030551Y-77195510D01*
X141162255Y-76993922D01*
X141258983Y-76773405D01*
X141318095Y-76539976D01*
X141333701Y-76351631D01*
X141358854Y-76286451D01*
X141415255Y-76245212D01*
X141484999Y-76241014D01*
X141544958Y-76274194D01*
G37*
G04 #@! TD.AperFunction*
G04 #@! TA.AperFunction,Conductor*
G36*
X124000000Y-76755500D02*
G01*
X124000003Y-76755500D01*
X124571886Y-76755500D01*
X124571889Y-76755500D01*
X124679151Y-76740078D01*
X124748309Y-76750022D01*
X124784478Y-76775135D01*
X125753453Y-77744111D01*
X125753454Y-77744112D01*
X125868192Y-77820777D01*
X125975571Y-77865254D01*
X125995672Y-77873580D01*
X125995676Y-77873580D01*
X125995677Y-77873581D01*
X126131003Y-77900500D01*
X126131006Y-77900500D01*
X126131007Y-77900500D01*
X130531007Y-77900500D01*
X130958481Y-77900500D01*
X131025520Y-77920185D01*
X131046162Y-77936819D01*
X136508631Y-83399287D01*
X136537991Y-83446013D01*
X136574210Y-83549520D01*
X136574212Y-83549524D01*
X136670184Y-83702262D01*
X136797738Y-83829816D01*
X136862496Y-83870506D01*
X136908787Y-83922841D01*
X136919435Y-83991894D01*
X136891060Y-84055743D01*
X136832670Y-84094115D01*
X136796524Y-84099500D01*
X126318760Y-84099500D01*
X126251721Y-84079815D01*
X126231079Y-84063181D01*
X125272814Y-83104916D01*
X125239329Y-83043593D01*
X125244313Y-82973901D01*
X125286185Y-82917968D01*
X125351649Y-82893551D01*
X125415658Y-82907475D01*
X125415992Y-82906760D01*
X125419160Y-82908237D01*
X125419922Y-82908403D01*
X125421575Y-82909363D01*
X125422533Y-82909810D01*
X125422540Y-82909814D01*
X125589077Y-82964999D01*
X125691865Y-82975500D01*
X126991882Y-82975499D01*
X127094671Y-82964999D01*
X127261208Y-82909814D01*
X127410530Y-82817712D01*
X127534586Y-82693656D01*
X127626688Y-82544334D01*
X127626688Y-82544331D01*
X127630052Y-82538879D01*
X127682000Y-82492154D01*
X127750962Y-82480931D01*
X127815044Y-82508774D01*
X127823272Y-82516294D01*
X127962087Y-82655109D01*
X128134053Y-82780048D01*
X128134055Y-82780049D01*
X128134058Y-82780051D01*
X128323462Y-82876557D01*
X128525631Y-82942246D01*
X128735587Y-82975500D01*
X128735588Y-82975500D01*
X128948160Y-82975500D01*
X128948161Y-82975500D01*
X129158117Y-82942246D01*
X129360286Y-82876557D01*
X129549690Y-82780051D01*
X129607823Y-82737815D01*
X129721660Y-82655109D01*
X129721662Y-82655106D01*
X129721666Y-82655104D01*
X129871978Y-82504792D01*
X129991865Y-82339779D01*
X130047194Y-82297115D01*
X130116807Y-82291136D01*
X130178603Y-82323741D01*
X130192501Y-82339781D01*
X130312146Y-82504459D01*
X130312150Y-82504464D01*
X130462409Y-82654723D01*
X130462414Y-82654727D01*
X130634316Y-82779620D01*
X130823653Y-82876094D01*
X130823659Y-82876096D01*
X130941873Y-82914505D01*
X130941874Y-82914505D01*
X131741874Y-82914505D01*
X131860088Y-82876096D01*
X131860094Y-82876094D01*
X132049431Y-82779620D01*
X132221333Y-82654727D01*
X132221338Y-82654723D01*
X132371597Y-82504464D01*
X132371601Y-82504459D01*
X132496494Y-82332557D01*
X132592969Y-82143217D01*
X132658631Y-81941130D01*
X132658631Y-81941129D01*
X132665145Y-81900000D01*
X131741874Y-81900000D01*
X131741874Y-82914505D01*
X130941874Y-82914505D01*
X130941874Y-81757180D01*
X130961779Y-81791657D01*
X131050217Y-81880095D01*
X131158531Y-81942630D01*
X131279339Y-81975000D01*
X131404409Y-81975000D01*
X131525217Y-81942630D01*
X131633531Y-81880095D01*
X131721969Y-81791657D01*
X131784504Y-81683343D01*
X131816874Y-81562535D01*
X131816874Y-81437465D01*
X131784504Y-81316657D01*
X131721969Y-81208343D01*
X131633531Y-81119905D01*
X131599054Y-81100000D01*
X131741874Y-81100000D01*
X132665146Y-81100000D01*
X132665145Y-81099999D01*
X132658631Y-81058870D01*
X132658631Y-81058869D01*
X132592969Y-80856782D01*
X132496494Y-80667442D01*
X132371601Y-80495540D01*
X132371597Y-80495535D01*
X132221338Y-80345276D01*
X132221333Y-80345272D01*
X132049431Y-80220379D01*
X131860096Y-80123907D01*
X131741874Y-80085494D01*
X131741874Y-81100000D01*
X131599054Y-81100000D01*
X131525217Y-81057370D01*
X131404409Y-81025000D01*
X131279339Y-81025000D01*
X131158531Y-81057370D01*
X131050217Y-81119905D01*
X130961779Y-81208343D01*
X130941874Y-81242819D01*
X130941874Y-80085494D01*
X130941873Y-80085494D01*
X130823651Y-80123907D01*
X130634316Y-80220379D01*
X130462414Y-80345272D01*
X130462409Y-80345276D01*
X130312150Y-80495535D01*
X130312146Y-80495540D01*
X130192501Y-80660218D01*
X130137171Y-80702884D01*
X130067558Y-80708863D01*
X130005763Y-80676257D01*
X129991865Y-80660218D01*
X129871983Y-80495214D01*
X129871979Y-80495209D01*
X129721660Y-80344890D01*
X129549694Y-80219951D01*
X129360288Y-80123444D01*
X129360287Y-80123443D01*
X129360286Y-80123443D01*
X129158117Y-80057754D01*
X129158115Y-80057753D01*
X129158114Y-80057753D01*
X128996831Y-80032208D01*
X128948161Y-80024500D01*
X128735587Y-80024500D01*
X128686916Y-80032208D01*
X128525634Y-80057753D01*
X128323459Y-80123444D01*
X128134053Y-80219951D01*
X127962089Y-80344889D01*
X127823272Y-80483706D01*
X127761949Y-80517190D01*
X127692257Y-80512206D01*
X127636324Y-80470334D01*
X127630052Y-80461120D01*
X127620921Y-80446317D01*
X127534586Y-80306344D01*
X127410530Y-80182288D01*
X127261208Y-80090186D01*
X127094671Y-80035001D01*
X127094669Y-80035000D01*
X126991884Y-80024500D01*
X125691872Y-80024500D01*
X125691855Y-80024501D01*
X125589077Y-80035000D01*
X125589074Y-80035001D01*
X125422542Y-80090185D01*
X125422537Y-80090187D01*
X125273216Y-80182289D01*
X125149163Y-80306342D01*
X125057061Y-80455663D01*
X125057059Y-80455668D01*
X125043957Y-80495208D01*
X125001875Y-80622203D01*
X125001875Y-80622204D01*
X125001874Y-80622204D01*
X124991374Y-80724983D01*
X124991374Y-82275001D01*
X124991375Y-82275018D01*
X125001874Y-82377796D01*
X125001875Y-82377799D01*
X125057059Y-82544331D01*
X125060114Y-82550882D01*
X125058067Y-82551836D01*
X125073617Y-82608685D01*
X125052688Y-82675347D01*
X124999042Y-82720111D01*
X124929710Y-82728766D01*
X124866706Y-82698564D01*
X124861957Y-82694059D01*
X124311310Y-82143412D01*
X122482065Y-80314166D01*
X122448580Y-80252843D01*
X122453564Y-80183151D01*
X122495436Y-80127218D01*
X122502683Y-80122184D01*
X122598483Y-80060618D01*
X122599919Y-80059801D01*
X122604098Y-80057011D01*
X122655873Y-80012147D01*
X122712832Y-79962791D01*
X122806986Y-79854130D01*
X122884770Y-79733094D01*
X122941742Y-79608342D01*
X122943986Y-79604053D01*
X122944498Y-79602308D01*
X122944499Y-79602308D01*
X122985035Y-79464256D01*
X123005497Y-79321941D01*
X123005497Y-79265601D01*
X123005500Y-79265590D01*
X123005500Y-78734426D01*
X123005497Y-78734399D01*
X123005497Y-78678062D01*
X123005496Y-78678055D01*
X123005170Y-78675789D01*
X123001762Y-78652079D01*
X123000500Y-78634434D01*
X123000500Y-77165782D01*
X123020185Y-77098743D01*
X123036819Y-77078101D01*
X123323102Y-76791819D01*
X123384425Y-76758334D01*
X123410783Y-76755500D01*
X123700000Y-76755500D01*
X123771940Y-76750355D01*
X123809259Y-76739396D01*
X123861841Y-76735636D01*
X124000000Y-76755500D01*
G37*
G04 #@! TD.AperFunction*
G04 #@! TA.AperFunction,Conductor*
G36*
X161502443Y-61000596D02*
G01*
X161965865Y-61018803D01*
X161975535Y-61019564D01*
X162433696Y-61073792D01*
X162443300Y-61075313D01*
X162895775Y-61165316D01*
X162905234Y-61167587D01*
X163349257Y-61292814D01*
X163358517Y-61295822D01*
X163791339Y-61455499D01*
X163800334Y-61459225D01*
X164219300Y-61652370D01*
X164227952Y-61656778D01*
X164630502Y-61882217D01*
X164638767Y-61887282D01*
X164942435Y-62090187D01*
X165022367Y-62143596D01*
X165030243Y-62149319D01*
X165392539Y-62434929D01*
X165399937Y-62441247D01*
X165738715Y-62754411D01*
X165745588Y-62761284D01*
X166019288Y-63057370D01*
X166058747Y-63100056D01*
X166065070Y-63107460D01*
X166350680Y-63469756D01*
X166356403Y-63477632D01*
X166612711Y-63861223D01*
X166617786Y-63869504D01*
X166843216Y-64272038D01*
X166847629Y-64280699D01*
X167040774Y-64699665D01*
X167044500Y-64708660D01*
X167204177Y-65141482D01*
X167207185Y-65150742D01*
X167332412Y-65594765D01*
X167334685Y-65604233D01*
X167424685Y-66056693D01*
X167426208Y-66066309D01*
X167480433Y-66524445D01*
X167481197Y-66534152D01*
X167499404Y-66997556D01*
X167499500Y-67002424D01*
X167499500Y-114497575D01*
X167499404Y-114502443D01*
X167481197Y-114965847D01*
X167480433Y-114975554D01*
X167426208Y-115433690D01*
X167424685Y-115443306D01*
X167334685Y-115895766D01*
X167332412Y-115905234D01*
X167207185Y-116349257D01*
X167204177Y-116358517D01*
X167044500Y-116791339D01*
X167040774Y-116800334D01*
X166847629Y-117219300D01*
X166843210Y-117227971D01*
X166617792Y-117630483D01*
X166612711Y-117638776D01*
X166356403Y-118022367D01*
X166350680Y-118030243D01*
X166065070Y-118392539D01*
X166058747Y-118399943D01*
X165745594Y-118738709D01*
X165738709Y-118745594D01*
X165399943Y-119058747D01*
X165392539Y-119065070D01*
X165030243Y-119350680D01*
X165022367Y-119356403D01*
X164638776Y-119612711D01*
X164630483Y-119617792D01*
X164227975Y-119843209D01*
X164219300Y-119847629D01*
X163800334Y-120040774D01*
X163791339Y-120044500D01*
X163358517Y-120204177D01*
X163349257Y-120207185D01*
X162905234Y-120332412D01*
X162895766Y-120334685D01*
X162443306Y-120424685D01*
X162433690Y-120426208D01*
X161975554Y-120480433D01*
X161965847Y-120481197D01*
X161502443Y-120499404D01*
X161497575Y-120499500D01*
X143565727Y-120499500D01*
X143498688Y-120479815D01*
X143452933Y-120427011D01*
X143442989Y-120357853D01*
X143472014Y-120294297D01*
X143492838Y-120275184D01*
X143535048Y-120244517D01*
X145894517Y-117885048D01*
X146033343Y-117693972D01*
X146140568Y-117483531D01*
X146167203Y-117401557D01*
X146213553Y-117258906D01*
X146222962Y-117199500D01*
X146250500Y-117025635D01*
X146250500Y-115965781D01*
X146270185Y-115898742D01*
X146286814Y-115878105D01*
X146964936Y-115199983D01*
X149899500Y-115199983D01*
X149899500Y-116800001D01*
X149899501Y-116800018D01*
X149910000Y-116902796D01*
X149910001Y-116902799D01*
X149953668Y-117034576D01*
X149965186Y-117069334D01*
X150057288Y-117218656D01*
X150181344Y-117342712D01*
X150330666Y-117434814D01*
X150497203Y-117489999D01*
X150599991Y-117500500D01*
X151900008Y-117500499D01*
X152002797Y-117489999D01*
X152169334Y-117434814D01*
X152318656Y-117342712D01*
X152442712Y-117218656D01*
X152534814Y-117069334D01*
X152534814Y-117069331D01*
X152538178Y-117063879D01*
X152590126Y-117017154D01*
X152659088Y-117005931D01*
X152723170Y-117033774D01*
X152731398Y-117041294D01*
X152870213Y-117180109D01*
X153042179Y-117305048D01*
X153042181Y-117305049D01*
X153042184Y-117305051D01*
X153231588Y-117401557D01*
X153433757Y-117467246D01*
X153643713Y-117500500D01*
X153643714Y-117500500D01*
X153856286Y-117500500D01*
X153856287Y-117500500D01*
X154066243Y-117467246D01*
X154268412Y-117401557D01*
X154457816Y-117305051D01*
X154569765Y-117223716D01*
X154629786Y-117180109D01*
X154629788Y-117180106D01*
X154629792Y-117180104D01*
X154780104Y-117029792D01*
X154780106Y-117029788D01*
X154780109Y-117029786D01*
X154905048Y-116857820D01*
X154905047Y-116857820D01*
X154905051Y-116857816D01*
X155001557Y-116668412D01*
X155067246Y-116466243D01*
X155100500Y-116256287D01*
X155100500Y-115743713D01*
X155067246Y-115533757D01*
X155001557Y-115331588D01*
X154905051Y-115142184D01*
X154905049Y-115142181D01*
X154905048Y-115142179D01*
X154777241Y-114966266D01*
X154778108Y-114965635D01*
X154751641Y-114906581D01*
X154750500Y-114889800D01*
X154750500Y-114500000D01*
X157495176Y-114500000D01*
X157514461Y-114892550D01*
X157572129Y-115281308D01*
X157667625Y-115662549D01*
X157800016Y-116032559D01*
X157800023Y-116032575D01*
X157968062Y-116387864D01*
X158170109Y-116724958D01*
X158399737Y-117034576D01*
X160011855Y-115422458D01*
X160041806Y-115474334D01*
X160181457Y-115656331D01*
X160343669Y-115818543D01*
X160525666Y-115958194D01*
X160577540Y-115988143D01*
X158965422Y-117600261D01*
X159275041Y-117829890D01*
X159612135Y-118031937D01*
X159967424Y-118199976D01*
X159967440Y-118199983D01*
X160337450Y-118332374D01*
X160718691Y-118427870D01*
X161107449Y-118485538D01*
X161500000Y-118504823D01*
X161892550Y-118485538D01*
X162281308Y-118427870D01*
X162662549Y-118332374D01*
X163032559Y-118199983D01*
X163032575Y-118199976D01*
X163387864Y-118031937D01*
X163724958Y-117829890D01*
X164034576Y-117600261D01*
X162422459Y-115988144D01*
X162474334Y-115958194D01*
X162656331Y-115818543D01*
X162818543Y-115656331D01*
X162958194Y-115474334D01*
X162988144Y-115422459D01*
X164600261Y-117034576D01*
X164829890Y-116724958D01*
X165031937Y-116387864D01*
X165199976Y-116032575D01*
X165199983Y-116032559D01*
X165332374Y-115662549D01*
X165427870Y-115281308D01*
X165485538Y-114892550D01*
X165504823Y-114500000D01*
X165485538Y-114107449D01*
X165427870Y-113718691D01*
X165332374Y-113337450D01*
X165199983Y-112967440D01*
X165199976Y-112967424D01*
X165031937Y-112612135D01*
X164829890Y-112275041D01*
X164600261Y-111965422D01*
X162988143Y-113577540D01*
X162958194Y-113525666D01*
X162818543Y-113343669D01*
X162656331Y-113181457D01*
X162474334Y-113041806D01*
X162422459Y-113011856D01*
X164034577Y-111399737D01*
X163724958Y-111170109D01*
X163387864Y-110968062D01*
X163032575Y-110800023D01*
X163032559Y-110800016D01*
X162662549Y-110667625D01*
X162281308Y-110572129D01*
X161892550Y-110514461D01*
X161500000Y-110495176D01*
X161107449Y-110514461D01*
X160718691Y-110572129D01*
X160337450Y-110667625D01*
X159967440Y-110800016D01*
X159967424Y-110800023D01*
X159612135Y-110968062D01*
X159275048Y-111170105D01*
X159275034Y-111170114D01*
X158965422Y-111399736D01*
X158965421Y-111399736D01*
X160577540Y-113011855D01*
X160525666Y-113041806D01*
X160343669Y-113181457D01*
X160181457Y-113343669D01*
X160041806Y-113525666D01*
X160011855Y-113577540D01*
X158399736Y-111965421D01*
X158399736Y-111965422D01*
X158170114Y-112275034D01*
X158170105Y-112275048D01*
X157968062Y-112612135D01*
X157800023Y-112967424D01*
X157800016Y-112967440D01*
X157667625Y-113337450D01*
X157572129Y-113718691D01*
X157514461Y-114107449D01*
X157495176Y-114500000D01*
X154750500Y-114500000D01*
X154750500Y-112001456D01*
X154712052Y-111808170D01*
X154712051Y-111808169D01*
X154712051Y-111808165D01*
X154711105Y-111805880D01*
X154636633Y-111626088D01*
X154571398Y-111528456D01*
X154550520Y-111461778D01*
X154550500Y-111459565D01*
X154550500Y-111446813D01*
X154550499Y-111446798D01*
X154550420Y-111445795D01*
X155000000Y-111445795D01*
X155110198Y-111413781D01*
X155251552Y-111330185D01*
X155251561Y-111330178D01*
X155367678Y-111214061D01*
X155367685Y-111214052D01*
X155451282Y-111072696D01*
X155451283Y-111072693D01*
X155497099Y-110914995D01*
X155497100Y-110914989D01*
X155499999Y-110878149D01*
X155500000Y-110878134D01*
X155500000Y-110525000D01*
X155000000Y-110525000D01*
X155000000Y-111445795D01*
X154550420Y-111445795D01*
X154549388Y-111432685D01*
X154547598Y-111409931D01*
X154546458Y-111406008D01*
X154506279Y-111267712D01*
X154501744Y-111252102D01*
X154482904Y-111220245D01*
X154417268Y-111109258D01*
X154400000Y-111046138D01*
X154400000Y-110525000D01*
X153900000Y-110525000D01*
X153900000Y-110738000D01*
X153880315Y-110805039D01*
X153827511Y-110850794D01*
X153776000Y-110862000D01*
X153724500Y-110862000D01*
X153657461Y-110842315D01*
X153611706Y-110789511D01*
X153600500Y-110738000D01*
X153600500Y-109571813D01*
X153600499Y-109571798D01*
X153597598Y-109534932D01*
X153597597Y-109534926D01*
X153551745Y-109377106D01*
X153551744Y-109377103D01*
X153551744Y-109377102D01*
X153491668Y-109275518D01*
X153474485Y-109207793D01*
X153496645Y-109141531D01*
X153551112Y-109097768D01*
X153572456Y-109091142D01*
X153577797Y-109089999D01*
X153584816Y-109087673D01*
X153744334Y-109034814D01*
X153893656Y-108942712D01*
X154017712Y-108818656D01*
X154044756Y-108774810D01*
X154096700Y-108728088D01*
X154165662Y-108716864D01*
X154229745Y-108744706D01*
X154255832Y-108774811D01*
X154282684Y-108818345D01*
X154309198Y-108844859D01*
X154342683Y-108906182D01*
X154337699Y-108975874D01*
X154295827Y-109031807D01*
X154284638Y-109039272D01*
X154148447Y-109119814D01*
X154148438Y-109119821D01*
X154032321Y-109235938D01*
X154032314Y-109235947D01*
X153948717Y-109377303D01*
X153948716Y-109377306D01*
X153902900Y-109535004D01*
X153902899Y-109535010D01*
X153900000Y-109571850D01*
X153900000Y-109925000D01*
X155500000Y-109925000D01*
X155500000Y-109571865D01*
X155499999Y-109571850D01*
X155497100Y-109535010D01*
X155497099Y-109535004D01*
X155451283Y-109377306D01*
X155451282Y-109377303D01*
X155367685Y-109235947D01*
X155367681Y-109235942D01*
X155274738Y-109143000D01*
X155224000Y-109143000D01*
X155156961Y-109123315D01*
X155136758Y-109099999D01*
X155900000Y-109099999D01*
X156174972Y-109099999D01*
X156174986Y-109099998D01*
X156277697Y-109089505D01*
X156444119Y-109034358D01*
X156444124Y-109034356D01*
X156593345Y-108942315D01*
X156717315Y-108818345D01*
X156809356Y-108669124D01*
X156809358Y-108669119D01*
X156864505Y-108502697D01*
X156864506Y-108502690D01*
X156874999Y-108399986D01*
X156875000Y-108399973D01*
X156875000Y-108350000D01*
X155900000Y-108350000D01*
X155900000Y-109099999D01*
X155136758Y-109099999D01*
X155111206Y-109070511D01*
X155100000Y-109019000D01*
X155100000Y-107550000D01*
X155900000Y-107550000D01*
X156874999Y-107550000D01*
X156874999Y-107500028D01*
X156874998Y-107500013D01*
X156864505Y-107397302D01*
X156809358Y-107230880D01*
X156809356Y-107230875D01*
X156717315Y-107081654D01*
X156593345Y-106957684D01*
X156444124Y-106865643D01*
X156444119Y-106865641D01*
X156277697Y-106810494D01*
X156277690Y-106810493D01*
X156174986Y-106800000D01*
X155900000Y-106800000D01*
X155900000Y-107550000D01*
X155100000Y-107550000D01*
X155100000Y-106800000D01*
X154825029Y-106800000D01*
X154825012Y-106800001D01*
X154722302Y-106810494D01*
X154555880Y-106865641D01*
X154555875Y-106865643D01*
X154406654Y-106957684D01*
X154282682Y-107081656D01*
X154255831Y-107125189D01*
X154203883Y-107171913D01*
X154134920Y-107183134D01*
X154070838Y-107155290D01*
X154044754Y-107125187D01*
X154017712Y-107081344D01*
X153893657Y-106957289D01*
X153893656Y-106957288D01*
X153744334Y-106865186D01*
X153577797Y-106810001D01*
X153577795Y-106810000D01*
X153475010Y-106799500D01*
X152124998Y-106799500D01*
X152124981Y-106799501D01*
X152022203Y-106810000D01*
X152022200Y-106810001D01*
X151855668Y-106865185D01*
X151855663Y-106865187D01*
X151706342Y-106957289D01*
X151582288Y-107081343D01*
X151582285Y-107081347D01*
X151555244Y-107125188D01*
X151503296Y-107171913D01*
X151434334Y-107183134D01*
X151370252Y-107155291D01*
X151344167Y-107125187D01*
X151317317Y-107081656D01*
X151193345Y-106957684D01*
X151044124Y-106865643D01*
X151044119Y-106865641D01*
X150877697Y-106810494D01*
X150877690Y-106810493D01*
X150774986Y-106800000D01*
X150500000Y-106800000D01*
X150500000Y-109099999D01*
X150774972Y-109099999D01*
X150774986Y-109099998D01*
X150877697Y-109089505D01*
X151044119Y-109034358D01*
X151044124Y-109034356D01*
X151193345Y-108942315D01*
X151317316Y-108818344D01*
X151317320Y-108818339D01*
X151344167Y-108774813D01*
X151396114Y-108728087D01*
X151465076Y-108716864D01*
X151529159Y-108744707D01*
X151555245Y-108774812D01*
X151582096Y-108818346D01*
X151582288Y-108818656D01*
X151706344Y-108942712D01*
X151855666Y-109034814D01*
X152022203Y-109089999D01*
X152022204Y-109089999D01*
X152027553Y-109091144D01*
X152088987Y-109124424D01*
X152122677Y-109185635D01*
X152117925Y-109255343D01*
X152108332Y-109275517D01*
X152048254Y-109377105D01*
X152048254Y-109377106D01*
X152002402Y-109534926D01*
X152002401Y-109534932D01*
X151999500Y-109571798D01*
X151999500Y-110878201D01*
X152002401Y-110915067D01*
X152002402Y-110915073D01*
X152048254Y-111072893D01*
X152048255Y-111072896D01*
X152048256Y-111072898D01*
X152053712Y-111082123D01*
X152131917Y-111214362D01*
X152131923Y-111214370D01*
X152248129Y-111330576D01*
X152248133Y-111330579D01*
X152248135Y-111330581D01*
X152389602Y-111414244D01*
X152392201Y-111414999D01*
X152547426Y-111460097D01*
X152547429Y-111460097D01*
X152547431Y-111460098D01*
X152584306Y-111463000D01*
X152745341Y-111463000D01*
X152812380Y-111482685D01*
X152858135Y-111535489D01*
X152868079Y-111604647D01*
X152859902Y-111634452D01*
X152787950Y-111808160D01*
X152787947Y-111808170D01*
X152749500Y-112001456D01*
X152749500Y-114841489D01*
X152729815Y-114908528D01*
X152677011Y-114954283D01*
X152607853Y-114964227D01*
X152544297Y-114935202D01*
X152519961Y-114906586D01*
X152511304Y-114892550D01*
X152442712Y-114781344D01*
X152318656Y-114657288D01*
X152169334Y-114565186D01*
X152002797Y-114510001D01*
X152002795Y-114510000D01*
X151900010Y-114499500D01*
X150599998Y-114499500D01*
X150599981Y-114499501D01*
X150497203Y-114510000D01*
X150497200Y-114510001D01*
X150330668Y-114565185D01*
X150330663Y-114565187D01*
X150181342Y-114657289D01*
X150057289Y-114781342D01*
X149965187Y-114930663D01*
X149965185Y-114930668D01*
X149946450Y-114987206D01*
X149910001Y-115097203D01*
X149910001Y-115097204D01*
X149910000Y-115097204D01*
X149899500Y-115199983D01*
X146964936Y-115199983D01*
X148987778Y-113177141D01*
X148987782Y-113177139D01*
X149127139Y-113037782D01*
X149236632Y-112873914D01*
X149312051Y-112691835D01*
X149324799Y-112627748D01*
X149350500Y-112498543D01*
X149350500Y-111951456D01*
X149312052Y-111758170D01*
X149312051Y-111758169D01*
X149312051Y-111758165D01*
X149291357Y-111708205D01*
X149236633Y-111576088D01*
X149207366Y-111532287D01*
X149171398Y-111478456D01*
X149150520Y-111411778D01*
X149150500Y-111409565D01*
X149150500Y-111396813D01*
X149150499Y-111396798D01*
X149150420Y-111395795D01*
X149600000Y-111395795D01*
X149710198Y-111363781D01*
X149851552Y-111280185D01*
X149851561Y-111280178D01*
X149967678Y-111164061D01*
X149967685Y-111164052D01*
X150051282Y-111022696D01*
X150051283Y-111022693D01*
X150097099Y-110864995D01*
X150097100Y-110864989D01*
X150099999Y-110828149D01*
X150100000Y-110828134D01*
X150100000Y-110475000D01*
X149600000Y-110475000D01*
X149600000Y-111395795D01*
X149150420Y-111395795D01*
X149149564Y-111384921D01*
X149147598Y-111359931D01*
X149143754Y-111346701D01*
X149102356Y-111204209D01*
X149101744Y-111202102D01*
X149089653Y-111181657D01*
X149017268Y-111059258D01*
X149000000Y-110996138D01*
X149000000Y-110475000D01*
X148500000Y-110475000D01*
X148500000Y-110688000D01*
X148480315Y-110755039D01*
X148427511Y-110800794D01*
X148376000Y-110812000D01*
X148324500Y-110812000D01*
X148257461Y-110792315D01*
X148211706Y-110739511D01*
X148200500Y-110688000D01*
X148200500Y-109521813D01*
X148200499Y-109521798D01*
X148197598Y-109484932D01*
X148197597Y-109484926D01*
X148153105Y-109331786D01*
X148151744Y-109327102D01*
X148117086Y-109268498D01*
X148099904Y-109200776D01*
X148122064Y-109134513D01*
X148176530Y-109090750D01*
X148184803Y-109087677D01*
X148344334Y-109034814D01*
X148493656Y-108942712D01*
X148617712Y-108818656D01*
X148644756Y-108774810D01*
X148696700Y-108728088D01*
X148765662Y-108716864D01*
X148829745Y-108744706D01*
X148855832Y-108774811D01*
X148882684Y-108818346D01*
X148887161Y-108824007D01*
X148884638Y-108826001D01*
X148911264Y-108874763D01*
X148906280Y-108944455D01*
X148864408Y-109000388D01*
X148853219Y-109007853D01*
X148748447Y-109069814D01*
X148748438Y-109069821D01*
X148632321Y-109185938D01*
X148632314Y-109185947D01*
X148548717Y-109327303D01*
X148548716Y-109327306D01*
X148502900Y-109485004D01*
X148502899Y-109485010D01*
X148500000Y-109521850D01*
X148500000Y-109875000D01*
X150100000Y-109875000D01*
X150100000Y-109521865D01*
X150099999Y-109521850D01*
X150097100Y-109485010D01*
X150097099Y-109485004D01*
X150051283Y-109327306D01*
X150051282Y-109327303D01*
X149967685Y-109185947D01*
X149967681Y-109185942D01*
X149924738Y-109143000D01*
X149824000Y-109143000D01*
X149756961Y-109123315D01*
X149711206Y-109070511D01*
X149700000Y-109019000D01*
X149700000Y-106800000D01*
X149425029Y-106800000D01*
X149425012Y-106800001D01*
X149322302Y-106810494D01*
X149155880Y-106865641D01*
X149155875Y-106865643D01*
X149006654Y-106957684D01*
X148882682Y-107081656D01*
X148855831Y-107125189D01*
X148803883Y-107171913D01*
X148734920Y-107183134D01*
X148670838Y-107155290D01*
X148644754Y-107125187D01*
X148617712Y-107081344D01*
X148493657Y-106957289D01*
X148493656Y-106957288D01*
X148344334Y-106865186D01*
X148177797Y-106810001D01*
X148177795Y-106810000D01*
X148075010Y-106799500D01*
X146724998Y-106799500D01*
X146724981Y-106799501D01*
X146622203Y-106810000D01*
X146622200Y-106810001D01*
X146455668Y-106865185D01*
X146455663Y-106865187D01*
X146306342Y-106957289D01*
X146182288Y-107081343D01*
X146182285Y-107081347D01*
X146155244Y-107125188D01*
X146103296Y-107171913D01*
X146034334Y-107183134D01*
X145970252Y-107155291D01*
X145944167Y-107125187D01*
X145917317Y-107081656D01*
X145793345Y-106957684D01*
X145644124Y-106865643D01*
X145644119Y-106865641D01*
X145477697Y-106810494D01*
X145477690Y-106810493D01*
X145374986Y-106800000D01*
X145100000Y-106800000D01*
X145100000Y-109099999D01*
X145374972Y-109099999D01*
X145374986Y-109099998D01*
X145477697Y-109089505D01*
X145644119Y-109034358D01*
X145644124Y-109034356D01*
X145793345Y-108942315D01*
X145917316Y-108818344D01*
X145917320Y-108818339D01*
X145944167Y-108774813D01*
X145996114Y-108728087D01*
X146065076Y-108716864D01*
X146129159Y-108744707D01*
X146155245Y-108774812D01*
X146182096Y-108818346D01*
X146182288Y-108818656D01*
X146306344Y-108942712D01*
X146455666Y-109034814D01*
X146615184Y-109087673D01*
X146672629Y-109127446D01*
X146699452Y-109191962D01*
X146687137Y-109260737D01*
X146682913Y-109268498D01*
X146648256Y-109327101D01*
X146648254Y-109327106D01*
X146602402Y-109484926D01*
X146602401Y-109484932D01*
X146599500Y-109521798D01*
X146599500Y-110074903D01*
X146579815Y-110141942D01*
X146563181Y-110162584D01*
X143941443Y-112784321D01*
X143880120Y-112817806D01*
X143810428Y-112812822D01*
X143754495Y-112770950D01*
X143730078Y-112705486D01*
X143744930Y-112637213D01*
X143750661Y-112627748D01*
X143786627Y-112573921D01*
X143786632Y-112573914D01*
X143862051Y-112391835D01*
X143885283Y-112275041D01*
X143900500Y-112198543D01*
X143900500Y-112001456D01*
X143862052Y-111808170D01*
X143862051Y-111808169D01*
X143862051Y-111808165D01*
X143861105Y-111805880D01*
X143786633Y-111626088D01*
X143721398Y-111528456D01*
X143700520Y-111461778D01*
X143700500Y-111459565D01*
X143700500Y-111446813D01*
X143700499Y-111446798D01*
X143700420Y-111445795D01*
X144150000Y-111445795D01*
X144260198Y-111413781D01*
X144401552Y-111330185D01*
X144401561Y-111330178D01*
X144517678Y-111214061D01*
X144517685Y-111214052D01*
X144601282Y-111072696D01*
X144601283Y-111072693D01*
X144647099Y-110914995D01*
X144647100Y-110914989D01*
X144649999Y-110878149D01*
X144650000Y-110878134D01*
X144650000Y-110525000D01*
X144150000Y-110525000D01*
X144150000Y-111445795D01*
X143700420Y-111445795D01*
X143699388Y-111432685D01*
X143697598Y-111409931D01*
X143696458Y-111406008D01*
X143656279Y-111267712D01*
X143651744Y-111252102D01*
X143632904Y-111220245D01*
X143567268Y-111109258D01*
X143550000Y-111046138D01*
X143550000Y-110525000D01*
X143050000Y-110525000D01*
X143050000Y-110738000D01*
X143030315Y-110805039D01*
X142977511Y-110850794D01*
X142926000Y-110862000D01*
X142874500Y-110862000D01*
X142807461Y-110842315D01*
X142761706Y-110789511D01*
X142750500Y-110738000D01*
X142750500Y-109571813D01*
X142750499Y-109571798D01*
X142747598Y-109534932D01*
X142747597Y-109534926D01*
X142701745Y-109377106D01*
X142701744Y-109377103D01*
X142701744Y-109377102D01*
X142641668Y-109275518D01*
X142624485Y-109207793D01*
X142646645Y-109141531D01*
X142701112Y-109097768D01*
X142722456Y-109091142D01*
X142727797Y-109089999D01*
X142734816Y-109087673D01*
X142894334Y-109034814D01*
X143043656Y-108942712D01*
X143167712Y-108818656D01*
X143219755Y-108734279D01*
X143271701Y-108687556D01*
X143340664Y-108676333D01*
X143404746Y-108704176D01*
X143430831Y-108734280D01*
X143482680Y-108818340D01*
X143482683Y-108818344D01*
X143493594Y-108829255D01*
X143527079Y-108890578D01*
X143522095Y-108960270D01*
X143480223Y-109016203D01*
X143446848Y-109032849D01*
X143446965Y-109033118D01*
X143442023Y-109035256D01*
X143440511Y-109036011D01*
X143439809Y-109036214D01*
X143439803Y-109036217D01*
X143298447Y-109119814D01*
X143298438Y-109119821D01*
X143182321Y-109235938D01*
X143182314Y-109235947D01*
X143098717Y-109377303D01*
X143098716Y-109377306D01*
X143052900Y-109535004D01*
X143052899Y-109535010D01*
X143050000Y-109571850D01*
X143050000Y-109925000D01*
X144650000Y-109925000D01*
X144650000Y-109571865D01*
X144649999Y-109571850D01*
X144647100Y-109535010D01*
X144647099Y-109535004D01*
X144601283Y-109377306D01*
X144601282Y-109377303D01*
X144517685Y-109235947D01*
X144517681Y-109235942D01*
X144424738Y-109143000D01*
X144424000Y-109143000D01*
X144356961Y-109123315D01*
X144311206Y-109070511D01*
X144300000Y-109019000D01*
X144300000Y-106800000D01*
X144025029Y-106800000D01*
X144025012Y-106800001D01*
X143922302Y-106810494D01*
X143755880Y-106865641D01*
X143755875Y-106865643D01*
X143606654Y-106957684D01*
X143482682Y-107081656D01*
X143430831Y-107165720D01*
X143378883Y-107212444D01*
X143309920Y-107223665D01*
X143245838Y-107195822D01*
X143219754Y-107165718D01*
X143167712Y-107081344D01*
X143043657Y-106957289D01*
X143043656Y-106957288D01*
X142894334Y-106865186D01*
X142727797Y-106810001D01*
X142727795Y-106810000D01*
X142625010Y-106799500D01*
X141274998Y-106799500D01*
X141274981Y-106799501D01*
X141172203Y-106810000D01*
X141172200Y-106810001D01*
X141005668Y-106865185D01*
X141005663Y-106865187D01*
X140856342Y-106957289D01*
X140732289Y-107081342D01*
X140640187Y-107230663D01*
X140640185Y-107230668D01*
X140640115Y-107230880D01*
X140585001Y-107397203D01*
X140585001Y-107397204D01*
X140585000Y-107397204D01*
X140574500Y-107499983D01*
X140574500Y-108400001D01*
X140574501Y-108400019D01*
X140585000Y-108502796D01*
X140585001Y-108502799D01*
X140640185Y-108669331D01*
X140640187Y-108669336D01*
X140649849Y-108685001D01*
X140732288Y-108818656D01*
X140856344Y-108942712D01*
X141005666Y-109034814D01*
X141172203Y-109089999D01*
X141172204Y-109089999D01*
X141177553Y-109091144D01*
X141238987Y-109124424D01*
X141272677Y-109185635D01*
X141267925Y-109255343D01*
X141258332Y-109275517D01*
X141198254Y-109377105D01*
X141198254Y-109377106D01*
X141152402Y-109534926D01*
X141152401Y-109534932D01*
X141149500Y-109571798D01*
X141149500Y-110878201D01*
X141152401Y-110915067D01*
X141152402Y-110915073D01*
X141198254Y-111072893D01*
X141198255Y-111072896D01*
X141198256Y-111072898D01*
X141203712Y-111082123D01*
X141281917Y-111214362D01*
X141281923Y-111214370D01*
X141398129Y-111330576D01*
X141398138Y-111330583D01*
X141525675Y-111406008D01*
X141573359Y-111457077D01*
X141585862Y-111525819D01*
X141559217Y-111590408D01*
X141550235Y-111600421D01*
X138187477Y-114963181D01*
X138126154Y-114996666D01*
X138099796Y-114999500D01*
X136860758Y-114999500D01*
X136793719Y-114979815D01*
X136773077Y-114963181D01*
X136629786Y-114819890D01*
X136457820Y-114694951D01*
X136268414Y-114598444D01*
X136268413Y-114598443D01*
X136268412Y-114598443D01*
X136066243Y-114532754D01*
X136066241Y-114532753D01*
X136066240Y-114532753D01*
X135874868Y-114502443D01*
X135856287Y-114499500D01*
X135643713Y-114499500D01*
X135625132Y-114502443D01*
X135433760Y-114532753D01*
X135231585Y-114598444D01*
X135042179Y-114694951D01*
X134870215Y-114819889D01*
X134731398Y-114958706D01*
X134670075Y-114992190D01*
X134600383Y-114987206D01*
X134544450Y-114945334D01*
X134538178Y-114936120D01*
X134479809Y-114841489D01*
X134442712Y-114781344D01*
X134318656Y-114657288D01*
X134169334Y-114565186D01*
X134002797Y-114510001D01*
X134002795Y-114510000D01*
X133900010Y-114499500D01*
X132599998Y-114499500D01*
X132599981Y-114499501D01*
X132497203Y-114510000D01*
X132497200Y-114510001D01*
X132330668Y-114565185D01*
X132330663Y-114565187D01*
X132181342Y-114657289D01*
X132057289Y-114781342D01*
X131965187Y-114930663D01*
X131965185Y-114930668D01*
X131946450Y-114987206D01*
X131910001Y-115097203D01*
X131910001Y-115097204D01*
X131910000Y-115097204D01*
X131899500Y-115199983D01*
X131899500Y-116800001D01*
X131899501Y-116800018D01*
X131910000Y-116902796D01*
X131930346Y-116964195D01*
X131954305Y-117036497D01*
X131956707Y-117106324D01*
X131920976Y-117166366D01*
X131858455Y-117197559D01*
X131836599Y-117199500D01*
X122403576Y-117199500D01*
X122336537Y-117179815D01*
X122315895Y-117163181D01*
X120676819Y-115524105D01*
X120643334Y-115462782D01*
X120640500Y-115436424D01*
X120640500Y-113754499D01*
X120660185Y-113687460D01*
X120712989Y-113641705D01*
X120764500Y-113630499D01*
X121040371Y-113630499D01*
X121040372Y-113630499D01*
X121099983Y-113624091D01*
X121234831Y-113573796D01*
X121350046Y-113487546D01*
X121396878Y-113424986D01*
X132800001Y-113424986D01*
X132810494Y-113527697D01*
X132865641Y-113694119D01*
X132865643Y-113694124D01*
X132957684Y-113843345D01*
X133081654Y-113967315D01*
X133230875Y-114059356D01*
X133230880Y-114059358D01*
X133397302Y-114114505D01*
X133397309Y-114114506D01*
X133500019Y-114124999D01*
X134350000Y-114124999D01*
X134399972Y-114124999D01*
X134399986Y-114124998D01*
X134502697Y-114114505D01*
X134669119Y-114059358D01*
X134669124Y-114059356D01*
X134818345Y-113967315D01*
X134942315Y-113843345D01*
X135034356Y-113694124D01*
X135034358Y-113694119D01*
X135089505Y-113527697D01*
X135089506Y-113527690D01*
X135099999Y-113424986D01*
X135100000Y-113424973D01*
X135100000Y-113150000D01*
X134350000Y-113150000D01*
X134350000Y-114124999D01*
X133500019Y-114124999D01*
X133549999Y-114124998D01*
X133550000Y-114124998D01*
X133550000Y-113150000D01*
X132800001Y-113150000D01*
X132800001Y-113424986D01*
X121396878Y-113424986D01*
X121436296Y-113372331D01*
X121486591Y-113237483D01*
X121493000Y-113177873D01*
X121492999Y-111700000D01*
X130279204Y-111700000D01*
X130311218Y-111810198D01*
X130394814Y-111951552D01*
X130394821Y-111951561D01*
X130510938Y-112067678D01*
X130510947Y-112067685D01*
X130652303Y-112151282D01*
X130652306Y-112151283D01*
X130810004Y-112197099D01*
X130810010Y-112197100D01*
X130846850Y-112199999D01*
X130846866Y-112200000D01*
X131200000Y-112200000D01*
X131200000Y-111700000D01*
X130279204Y-111700000D01*
X121492999Y-111700000D01*
X121492999Y-111082128D01*
X121486591Y-111022517D01*
X121478890Y-111001870D01*
X121436297Y-110887671D01*
X121436293Y-110887664D01*
X121350047Y-110772455D01*
X121350044Y-110772452D01*
X121234835Y-110686206D01*
X121234828Y-110686202D01*
X121099982Y-110635908D01*
X121099983Y-110635908D01*
X121040383Y-110629501D01*
X121040381Y-110629500D01*
X121040373Y-110629500D01*
X121040364Y-110629500D01*
X119039629Y-110629500D01*
X119039623Y-110629501D01*
X118980016Y-110635908D01*
X118845171Y-110686202D01*
X118845164Y-110686206D01*
X118729955Y-110772452D01*
X118729952Y-110772455D01*
X118643706Y-110887664D01*
X118643699Y-110887676D01*
X118636596Y-110906721D01*
X118594723Y-110962653D01*
X118529258Y-110987068D01*
X118460986Y-110972214D01*
X118447538Y-110963707D01*
X118286433Y-110846657D01*
X118249422Y-110827799D01*
X118075996Y-110739433D01*
X117851368Y-110666446D01*
X117618097Y-110629500D01*
X117618092Y-110629500D01*
X117381908Y-110629500D01*
X117381903Y-110629500D01*
X117148631Y-110666446D01*
X116924003Y-110739433D01*
X116713566Y-110846657D01*
X116619516Y-110914989D01*
X116522490Y-110985483D01*
X116522488Y-110985485D01*
X116522487Y-110985485D01*
X116355482Y-111152490D01*
X116317906Y-111204209D01*
X116262575Y-111246874D01*
X116192962Y-111252852D01*
X116131167Y-111220245D01*
X116117271Y-111204207D01*
X116067907Y-111136263D01*
X116067902Y-111136257D01*
X115906242Y-110974597D01*
X115721276Y-110840211D01*
X115517570Y-110736417D01*
X115360000Y-110685219D01*
X115360000Y-111752182D01*
X115297708Y-111689890D01*
X115172292Y-111617482D01*
X115032409Y-111580000D01*
X114887591Y-111580000D01*
X114747708Y-111617482D01*
X114622292Y-111689890D01*
X114519890Y-111792292D01*
X114447482Y-111917708D01*
X114410000Y-112057591D01*
X114410000Y-112202409D01*
X114447482Y-112342292D01*
X114519890Y-112467708D01*
X114622292Y-112570110D01*
X114747708Y-112642518D01*
X114887591Y-112680000D01*
X115032409Y-112680000D01*
X115172292Y-112642518D01*
X115297708Y-112570110D01*
X115360000Y-112507818D01*
X115360000Y-113574779D01*
X115517563Y-113523585D01*
X115517566Y-113523583D01*
X115721276Y-113419788D01*
X115802614Y-113360693D01*
X115868421Y-113337213D01*
X115936475Y-113353038D01*
X115985169Y-113403144D01*
X115999500Y-113461011D01*
X115999500Y-115153097D01*
X116036446Y-115386368D01*
X116109433Y-115610996D01*
X116135701Y-115662549D01*
X116216657Y-115821434D01*
X116355483Y-116012510D01*
X120587490Y-120244517D01*
X120629697Y-120275182D01*
X120672362Y-120330513D01*
X120678341Y-120400126D01*
X120645735Y-120461921D01*
X120584896Y-120496278D01*
X120556811Y-120499500D01*
X107002425Y-120499500D01*
X106997557Y-120499404D01*
X106534152Y-120481197D01*
X106524445Y-120480433D01*
X106066309Y-120426208D01*
X106056693Y-120424685D01*
X105604233Y-120334685D01*
X105594765Y-120332412D01*
X105150742Y-120207185D01*
X105141482Y-120204177D01*
X104708660Y-120044500D01*
X104699665Y-120040774D01*
X104280699Y-119847629D01*
X104272038Y-119843216D01*
X103869504Y-119617786D01*
X103861223Y-119612711D01*
X103477632Y-119356403D01*
X103469756Y-119350680D01*
X103107460Y-119065070D01*
X103100056Y-119058747D01*
X102761284Y-118745588D01*
X102754411Y-118738715D01*
X102441247Y-118399937D01*
X102434929Y-118392539D01*
X102149319Y-118030243D01*
X102143596Y-118022367D01*
X101887288Y-117638776D01*
X101882217Y-117630502D01*
X101656778Y-117227952D01*
X101652370Y-117219300D01*
X101642347Y-117197559D01*
X101459225Y-116800334D01*
X101455499Y-116791339D01*
X101295822Y-116358517D01*
X101292814Y-116349257D01*
X101167587Y-115905234D01*
X101165314Y-115895766D01*
X101151213Y-115824877D01*
X101075313Y-115443300D01*
X101073791Y-115433690D01*
X101068190Y-115386368D01*
X101019564Y-114975535D01*
X101018803Y-114965865D01*
X101000596Y-114502443D01*
X101000548Y-114500000D01*
X102995176Y-114500000D01*
X103014461Y-114892550D01*
X103072129Y-115281308D01*
X103167625Y-115662549D01*
X103300016Y-116032559D01*
X103300023Y-116032575D01*
X103468062Y-116387864D01*
X103670109Y-116724958D01*
X103899737Y-117034576D01*
X105511855Y-115422458D01*
X105541806Y-115474334D01*
X105681457Y-115656331D01*
X105843669Y-115818543D01*
X106025666Y-115958194D01*
X106077540Y-115988143D01*
X104465422Y-117600261D01*
X104775041Y-117829890D01*
X105112135Y-118031937D01*
X105467424Y-118199976D01*
X105467440Y-118199983D01*
X105837450Y-118332374D01*
X106218691Y-118427870D01*
X106607449Y-118485538D01*
X107000000Y-118504823D01*
X107392550Y-118485538D01*
X107781308Y-118427870D01*
X108162549Y-118332374D01*
X108532559Y-118199983D01*
X108532575Y-118199976D01*
X108887864Y-118031937D01*
X109224958Y-117829890D01*
X109534576Y-117600261D01*
X107922459Y-115988144D01*
X107974334Y-115958194D01*
X108156331Y-115818543D01*
X108318543Y-115656331D01*
X108458194Y-115474334D01*
X108488144Y-115422459D01*
X110100261Y-117034576D01*
X110329890Y-116724958D01*
X110531937Y-116387864D01*
X110699976Y-116032575D01*
X110699983Y-116032559D01*
X110832374Y-115662549D01*
X110927870Y-115281308D01*
X110985538Y-114892550D01*
X111004823Y-114500000D01*
X110985538Y-114107449D01*
X110927870Y-113718691D01*
X110832374Y-113337450D01*
X110699983Y-112967440D01*
X110699976Y-112967424D01*
X110531937Y-112612135D01*
X110482707Y-112530000D01*
X113547286Y-112530000D01*
X113613917Y-112735068D01*
X113717711Y-112938776D01*
X113852097Y-113123742D01*
X114013757Y-113285402D01*
X114198723Y-113419788D01*
X114402433Y-113523583D01*
X114402436Y-113523585D01*
X114559999Y-113574779D01*
X114560000Y-113574779D01*
X114560000Y-112530000D01*
X113547286Y-112530000D01*
X110482707Y-112530000D01*
X110329890Y-112275041D01*
X110100261Y-111965422D01*
X108488143Y-113577540D01*
X108458194Y-113525666D01*
X108318543Y-113343669D01*
X108156331Y-113181457D01*
X107974334Y-113041806D01*
X107922459Y-113011856D01*
X109204315Y-111729999D01*
X113547286Y-111729999D01*
X113547286Y-111730000D01*
X114560000Y-111730000D01*
X114560000Y-110685219D01*
X114402429Y-110736417D01*
X114198723Y-110840211D01*
X114013757Y-110974597D01*
X113852097Y-111136257D01*
X113717711Y-111321223D01*
X113613917Y-111524931D01*
X113547286Y-111729999D01*
X109204315Y-111729999D01*
X109534577Y-111399737D01*
X109224958Y-111170109D01*
X108887864Y-110968062D01*
X108532575Y-110800023D01*
X108532559Y-110800016D01*
X108162549Y-110667625D01*
X107781308Y-110572129D01*
X107392550Y-110514461D01*
X107000000Y-110495176D01*
X106607449Y-110514461D01*
X106218691Y-110572129D01*
X105837450Y-110667625D01*
X105467440Y-110800016D01*
X105467424Y-110800023D01*
X105112135Y-110968062D01*
X104775048Y-111170105D01*
X104775034Y-111170114D01*
X104465422Y-111399736D01*
X104465421Y-111399736D01*
X106077540Y-113011855D01*
X106025666Y-113041806D01*
X105843669Y-113181457D01*
X105681457Y-113343669D01*
X105541806Y-113525666D01*
X105511856Y-113577540D01*
X103899736Y-111965421D01*
X103899736Y-111965422D01*
X103670114Y-112275034D01*
X103670105Y-112275048D01*
X103468062Y-112612135D01*
X103300023Y-112967424D01*
X103300016Y-112967440D01*
X103167625Y-113337450D01*
X103072129Y-113718691D01*
X103014461Y-114107449D01*
X102995176Y-114500000D01*
X101000548Y-114500000D01*
X101000500Y-114497575D01*
X101000500Y-96199983D01*
X104899500Y-96199983D01*
X104899500Y-97800001D01*
X104899501Y-97800018D01*
X104910000Y-97902796D01*
X104910001Y-97902799D01*
X104944031Y-98005493D01*
X104965186Y-98069334D01*
X105057288Y-98218656D01*
X105181344Y-98342712D01*
X105330666Y-98434814D01*
X105497203Y-98489999D01*
X105599991Y-98500500D01*
X106900008Y-98500499D01*
X106909798Y-98499499D01*
X106917895Y-98498671D01*
X107002797Y-98489999D01*
X107169334Y-98434814D01*
X107318656Y-98342712D01*
X107442712Y-98218656D01*
X107534814Y-98069334D01*
X107534814Y-98069331D01*
X107538448Y-98063441D01*
X107590395Y-98016716D01*
X107659358Y-98005493D01*
X107723440Y-98033336D01*
X107731668Y-98040856D01*
X107870535Y-98179723D01*
X107870540Y-98179727D01*
X108042442Y-98304620D01*
X108231779Y-98401094D01*
X108231785Y-98401096D01*
X108349999Y-98439505D01*
X108350000Y-98439505D01*
X109150000Y-98439505D01*
X109268214Y-98401096D01*
X109268220Y-98401094D01*
X109457557Y-98304620D01*
X109629459Y-98179727D01*
X109629464Y-98179723D01*
X109779723Y-98029464D01*
X109779727Y-98029459D01*
X109904620Y-97857557D01*
X110001095Y-97668217D01*
X110066757Y-97466129D01*
X110066757Y-97466126D01*
X110077231Y-97400000D01*
X109150000Y-97400000D01*
X109150000Y-98439505D01*
X108350000Y-98439505D01*
X108350000Y-97307106D01*
X108442993Y-97400099D01*
X108557007Y-97465925D01*
X108684174Y-97500000D01*
X108815826Y-97500000D01*
X108942993Y-97465925D01*
X109057007Y-97400099D01*
X109150099Y-97307007D01*
X109215925Y-97192993D01*
X109250000Y-97065826D01*
X109250000Y-96934174D01*
X109215925Y-96807007D01*
X109150099Y-96692993D01*
X109057106Y-96600000D01*
X110077231Y-96600000D01*
X110066757Y-96533873D01*
X110066757Y-96533870D01*
X110001095Y-96331782D01*
X109904620Y-96142442D01*
X109779727Y-95970540D01*
X109779723Y-95970535D01*
X109629464Y-95820276D01*
X109629459Y-95820272D01*
X109457557Y-95695379D01*
X109286334Y-95608135D01*
X109235538Y-95560160D01*
X109218743Y-95492339D01*
X109226359Y-95469992D01*
X115244671Y-95469992D01*
X115244671Y-95470007D01*
X115263964Y-95764363D01*
X115263965Y-95764373D01*
X115263966Y-95764380D01*
X115317770Y-96034876D01*
X115321518Y-96053716D01*
X115321521Y-96053730D01*
X115416349Y-96333080D01*
X115546825Y-96597660D01*
X115546829Y-96597667D01*
X115710725Y-96842955D01*
X115905241Y-97064758D01*
X116127044Y-97259274D01*
X116314096Y-97384258D01*
X116372335Y-97423172D01*
X116636923Y-97553652D01*
X116916278Y-97648481D01*
X117205620Y-97706034D01*
X117233888Y-97707886D01*
X117499993Y-97725329D01*
X117500000Y-97725329D01*
X117500007Y-97725329D01*
X117735675Y-97709881D01*
X117794380Y-97706034D01*
X118083722Y-97648481D01*
X118363077Y-97553652D01*
X118627665Y-97423172D01*
X118872957Y-97259273D01*
X119094758Y-97064758D01*
X119289273Y-96842957D01*
X119453172Y-96597665D01*
X119583652Y-96333077D01*
X119678481Y-96053722D01*
X119736034Y-95764380D01*
X119741480Y-95681285D01*
X119755329Y-95470007D01*
X119755329Y-95469992D01*
X119741442Y-95258130D01*
X127078490Y-95258130D01*
X127224605Y-95326264D01*
X127224619Y-95326269D01*
X127444326Y-95385139D01*
X127444337Y-95385141D01*
X127670935Y-95404966D01*
X127670939Y-95404966D01*
X127897536Y-95385141D01*
X127897547Y-95385139D01*
X128117254Y-95326269D01*
X128117263Y-95326266D01*
X128263381Y-95258129D01*
X127670938Y-94665685D01*
X127670937Y-94665685D01*
X127078490Y-95258130D01*
X119741442Y-95258130D01*
X119736035Y-95175636D01*
X119736034Y-95175620D01*
X119678481Y-94886278D01*
X119583652Y-94606923D01*
X119453172Y-94342336D01*
X119442664Y-94326610D01*
X119394411Y-94254394D01*
X119291247Y-94099998D01*
X126365971Y-94099998D01*
X126365971Y-94100002D01*
X126385795Y-94326599D01*
X126385797Y-94326610D01*
X126444667Y-94546317D01*
X126444672Y-94546331D01*
X126512805Y-94692445D01*
X127350857Y-93854394D01*
X127298196Y-93945606D01*
X127270937Y-94047339D01*
X127270937Y-94152661D01*
X127298196Y-94254394D01*
X127350857Y-94345606D01*
X127425331Y-94420080D01*
X127516543Y-94472741D01*
X127618276Y-94500000D01*
X127723598Y-94500000D01*
X127825331Y-94472741D01*
X127916543Y-94420080D01*
X127991017Y-94345606D01*
X128043678Y-94254394D01*
X128070937Y-94152661D01*
X128070937Y-94099999D01*
X128236622Y-94099999D01*
X128236622Y-94100000D01*
X128829066Y-94692444D01*
X128897202Y-94546326D01*
X128897206Y-94546317D01*
X128956076Y-94326610D01*
X128956078Y-94326599D01*
X128975903Y-94100002D01*
X128975903Y-94099997D01*
X128956078Y-93873400D01*
X128956076Y-93873389D01*
X128897206Y-93653682D01*
X128897201Y-93653668D01*
X128829067Y-93507553D01*
X128236622Y-94099999D01*
X128070937Y-94099999D01*
X128070937Y-94047339D01*
X128043678Y-93945606D01*
X127991017Y-93854394D01*
X127916543Y-93779920D01*
X127825331Y-93727259D01*
X127723598Y-93700000D01*
X127618276Y-93700000D01*
X127516543Y-93727259D01*
X127425332Y-93779919D01*
X127670937Y-93534315D01*
X128263382Y-92941869D01*
X128253899Y-92888088D01*
X128256240Y-92834462D01*
X128285140Y-92726606D01*
X128285141Y-92726599D01*
X128304966Y-92500002D01*
X128304966Y-92499997D01*
X128285141Y-92273400D01*
X128285139Y-92273389D01*
X128226269Y-92053682D01*
X128226264Y-92053668D01*
X128158130Y-91907553D01*
X127320082Y-92745602D01*
X127372741Y-92654394D01*
X127400000Y-92552661D01*
X127400000Y-92447339D01*
X127372741Y-92345606D01*
X127320080Y-92254394D01*
X127245606Y-92179920D01*
X127154394Y-92127259D01*
X127052661Y-92100000D01*
X126947339Y-92100000D01*
X126845606Y-92127259D01*
X126754394Y-92179920D01*
X126679920Y-92254394D01*
X126627259Y-92345606D01*
X126600000Y-92447339D01*
X126600000Y-92552661D01*
X126627259Y-92654394D01*
X126679920Y-92745606D01*
X126754394Y-92820080D01*
X126845606Y-92872741D01*
X126947339Y-92900000D01*
X127052661Y-92900000D01*
X127154394Y-92872741D01*
X127245602Y-92820081D01*
X127000000Y-93065685D01*
X126407553Y-93658130D01*
X126417037Y-93711912D01*
X126414696Y-93765537D01*
X126385796Y-93873392D01*
X126385796Y-93873396D01*
X126365971Y-94099998D01*
X119291247Y-94099998D01*
X119289273Y-94097043D01*
X119220315Y-94018412D01*
X119094758Y-93875241D01*
X118872955Y-93680725D01*
X118627667Y-93516829D01*
X118627660Y-93516825D01*
X118363080Y-93386349D01*
X118083730Y-93291521D01*
X118083724Y-93291519D01*
X118083722Y-93291519D01*
X117794380Y-93233966D01*
X117794373Y-93233965D01*
X117794363Y-93233964D01*
X117500007Y-93214671D01*
X117499993Y-93214671D01*
X117205636Y-93233964D01*
X117205624Y-93233965D01*
X117205620Y-93233966D01*
X117205612Y-93233967D01*
X117205609Y-93233968D01*
X116916283Y-93291518D01*
X116916269Y-93291521D01*
X116636919Y-93386349D01*
X116372334Y-93516828D01*
X116127041Y-93680728D01*
X115905241Y-93875241D01*
X115710728Y-94097041D01*
X115546828Y-94342334D01*
X115416349Y-94606919D01*
X115321521Y-94886269D01*
X115321518Y-94886283D01*
X115263968Y-95175609D01*
X115263964Y-95175636D01*
X115244671Y-95469992D01*
X109226359Y-95469992D01*
X109241281Y-95426204D01*
X109254937Y-95409981D01*
X114612783Y-90052135D01*
X122528563Y-90052135D01*
X122528563Y-91747870D01*
X122528564Y-91747876D01*
X122534971Y-91807483D01*
X122585265Y-91942328D01*
X122585269Y-91942335D01*
X122671515Y-92057544D01*
X122671518Y-92057547D01*
X122786727Y-92143793D01*
X122786734Y-92143797D01*
X122831681Y-92160561D01*
X122921580Y-92194091D01*
X122981190Y-92200500D01*
X123075500Y-92200499D01*
X123142538Y-92220183D01*
X123188294Y-92272986D01*
X123199500Y-92324499D01*
X123199500Y-93347870D01*
X123199501Y-93347876D01*
X123205908Y-93407483D01*
X123256202Y-93542328D01*
X123256206Y-93542335D01*
X123342452Y-93657544D01*
X123342455Y-93657547D01*
X123457664Y-93743793D01*
X123457671Y-93743797D01*
X123592517Y-93794091D01*
X123592516Y-93794091D01*
X123599444Y-93794835D01*
X123652127Y-93800500D01*
X125347872Y-93800499D01*
X125407483Y-93794091D01*
X125542331Y-93743796D01*
X125657546Y-93657546D01*
X125743796Y-93542331D01*
X125794091Y-93407483D01*
X125800500Y-93347873D01*
X125800499Y-93185173D01*
X125820183Y-93118137D01*
X125836818Y-93097495D01*
X126434315Y-92500000D01*
X125836818Y-91902503D01*
X125803333Y-91841180D01*
X125800499Y-91814822D01*
X125800499Y-91652129D01*
X125800498Y-91652123D01*
X125794091Y-91592516D01*
X125743797Y-91457671D01*
X125743793Y-91457664D01*
X125657547Y-91342455D01*
X125657544Y-91342452D01*
X125656764Y-91341868D01*
X126407553Y-91341868D01*
X127000000Y-91934315D01*
X127000001Y-91934315D01*
X127592444Y-91341869D01*
X127446322Y-91273732D01*
X127446317Y-91273730D01*
X127226610Y-91214860D01*
X127226599Y-91214858D01*
X127000002Y-91195034D01*
X126999998Y-91195034D01*
X126773400Y-91214858D01*
X126773389Y-91214860D01*
X126553680Y-91273731D01*
X126407553Y-91341868D01*
X125656764Y-91341868D01*
X125542335Y-91256206D01*
X125542328Y-91256202D01*
X125407482Y-91205908D01*
X125407483Y-91205908D01*
X125347883Y-91199501D01*
X125347881Y-91199500D01*
X125347873Y-91199500D01*
X125347865Y-91199500D01*
X125253562Y-91199500D01*
X125186523Y-91179815D01*
X125140768Y-91127011D01*
X125129562Y-91075500D01*
X125129562Y-90052129D01*
X125129561Y-90052123D01*
X125129560Y-90052116D01*
X125123154Y-89992517D01*
X125110014Y-89957288D01*
X125072860Y-89857671D01*
X125072856Y-89857664D01*
X124986610Y-89742455D01*
X124986607Y-89742452D01*
X124871398Y-89656206D01*
X124871391Y-89656202D01*
X124736545Y-89605908D01*
X124736546Y-89605908D01*
X124676946Y-89599501D01*
X124676944Y-89599500D01*
X124676936Y-89599500D01*
X124676927Y-89599500D01*
X122981192Y-89599500D01*
X122981186Y-89599501D01*
X122921579Y-89605908D01*
X122786734Y-89656202D01*
X122786727Y-89656206D01*
X122671518Y-89742452D01*
X122671515Y-89742455D01*
X122585269Y-89857664D01*
X122585265Y-89857671D01*
X122534971Y-89992517D01*
X122528564Y-90052116D01*
X122528564Y-90052123D01*
X122528563Y-90052135D01*
X114612783Y-90052135D01*
X121337778Y-83327141D01*
X121337782Y-83327139D01*
X121477139Y-83187782D01*
X121586632Y-83023914D01*
X121606686Y-82975499D01*
X121647669Y-82876558D01*
X121662049Y-82841840D01*
X121662051Y-82841836D01*
X121689132Y-82705689D01*
X121698078Y-82660718D01*
X121698078Y-82660717D01*
X121700500Y-82648541D01*
X121700500Y-82378962D01*
X121720185Y-82311923D01*
X121772989Y-82266168D01*
X121842147Y-82256224D01*
X121905703Y-82285249D01*
X121912181Y-82291281D01*
X125194935Y-85574035D01*
X125275520Y-85654620D01*
X125320365Y-85699465D01*
X125393607Y-85748404D01*
X125467852Y-85798013D01*
X125515851Y-85817895D01*
X125631733Y-85865895D01*
X125803059Y-85899973D01*
X125805703Y-85900499D01*
X125805707Y-85900500D01*
X125805708Y-85900500D01*
X134099441Y-85900500D01*
X134166480Y-85920185D01*
X134212235Y-85972989D01*
X134222179Y-86042147D01*
X134216483Y-86065454D01*
X134214631Y-86070746D01*
X134204837Y-86157667D01*
X134177770Y-86222081D01*
X134169298Y-86231464D01*
X132081286Y-88319478D01*
X131969481Y-88431282D01*
X131969479Y-88431285D01*
X131919361Y-88518094D01*
X131919359Y-88518096D01*
X131890425Y-88568209D01*
X131890424Y-88568210D01*
X131874544Y-88627472D01*
X131849499Y-88720943D01*
X131849499Y-88720945D01*
X131849499Y-88889046D01*
X131849500Y-88889059D01*
X131849500Y-95561267D01*
X131829815Y-95628306D01*
X131777011Y-95674061D01*
X131764506Y-95678972D01*
X131730671Y-95690184D01*
X131730663Y-95690187D01*
X131581342Y-95782289D01*
X131550451Y-95813181D01*
X131489128Y-95846666D01*
X131462770Y-95849500D01*
X130938733Y-95849500D01*
X130871694Y-95829815D01*
X130825939Y-95777011D01*
X130821028Y-95764506D01*
X130816495Y-95750829D01*
X130809814Y-95730666D01*
X130717712Y-95581344D01*
X130593656Y-95457288D01*
X130491729Y-95394419D01*
X130444336Y-95365187D01*
X130444331Y-95365185D01*
X130401092Y-95350857D01*
X130277797Y-95310001D01*
X130277795Y-95310000D01*
X130175010Y-95299500D01*
X128824998Y-95299500D01*
X128824981Y-95299501D01*
X128722203Y-95310000D01*
X128722200Y-95310001D01*
X128555668Y-95365185D01*
X128555659Y-95365190D01*
X128441731Y-95435460D01*
X128415255Y-95442704D01*
X128407162Y-95456470D01*
X128282287Y-95581345D01*
X128190187Y-95730663D01*
X128190185Y-95730668D01*
X128166496Y-95802158D01*
X128135001Y-95897203D01*
X128135001Y-95897204D01*
X128135000Y-95897204D01*
X128124500Y-95999983D01*
X128124500Y-96900001D01*
X128124501Y-96900019D01*
X128135000Y-97002796D01*
X128135001Y-97002799D01*
X128180433Y-97139902D01*
X128190186Y-97169334D01*
X128282288Y-97318656D01*
X128406344Y-97442712D01*
X128555666Y-97534814D01*
X128722203Y-97589999D01*
X128824991Y-97600500D01*
X130175008Y-97600499D01*
X130277797Y-97589999D01*
X130444334Y-97534814D01*
X130593656Y-97442712D01*
X130717712Y-97318656D01*
X130809814Y-97169334D01*
X130821028Y-97135494D01*
X130860801Y-97078050D01*
X130925317Y-97051228D01*
X130938733Y-97050500D01*
X131175501Y-97050500D01*
X131242540Y-97070185D01*
X131288295Y-97122989D01*
X131299501Y-97174500D01*
X131299501Y-97675018D01*
X131310000Y-97777796D01*
X131310001Y-97777799D01*
X131353627Y-97909452D01*
X131365186Y-97944334D01*
X131457288Y-98093656D01*
X131581344Y-98217712D01*
X131730666Y-98309814D01*
X131897203Y-98364999D01*
X131999991Y-98375500D01*
X132725500Y-98375499D01*
X132792539Y-98395183D01*
X132838294Y-98447987D01*
X132849500Y-98499499D01*
X132849500Y-100907311D01*
X132829815Y-100974350D01*
X132777011Y-101020105D01*
X132707853Y-101030049D01*
X132644297Y-101001024D01*
X132618769Y-100970433D01*
X132605585Y-100948140D01*
X132605576Y-100948129D01*
X132489370Y-100831923D01*
X132489362Y-100831917D01*
X132347896Y-100748255D01*
X132347893Y-100748254D01*
X132190073Y-100702402D01*
X132190067Y-100702401D01*
X132153201Y-100699500D01*
X132153194Y-100699500D01*
X131600097Y-100699500D01*
X131533058Y-100679815D01*
X131512416Y-100663181D01*
X130911818Y-100062583D01*
X130878333Y-100001260D01*
X130875499Y-99974911D01*
X130875499Y-99099992D01*
X130864999Y-98997203D01*
X130809814Y-98830666D01*
X130717712Y-98681344D01*
X130593656Y-98557288D01*
X130444334Y-98465186D01*
X130277797Y-98410001D01*
X130277795Y-98410000D01*
X130175010Y-98399500D01*
X128824998Y-98399500D01*
X128824981Y-98399501D01*
X128722203Y-98410000D01*
X128722200Y-98410001D01*
X128555668Y-98465185D01*
X128555663Y-98465187D01*
X128406342Y-98557289D01*
X128282289Y-98681342D01*
X128190187Y-98830663D01*
X128190186Y-98830666D01*
X128135001Y-98997203D01*
X128135001Y-98997204D01*
X128135000Y-98997204D01*
X128124500Y-99099983D01*
X128124500Y-100000001D01*
X128124501Y-100000019D01*
X128135000Y-100102796D01*
X128135001Y-100102799D01*
X128190185Y-100269331D01*
X128190189Y-100269340D01*
X128254504Y-100373611D01*
X128272944Y-100441003D01*
X128252021Y-100507666D01*
X128198379Y-100552436D01*
X128129048Y-100561097D01*
X128066041Y-100530900D01*
X128061284Y-100526388D01*
X128004786Y-100469890D01*
X127832820Y-100344951D01*
X127643414Y-100248444D01*
X127643413Y-100248443D01*
X127643412Y-100248443D01*
X127441243Y-100182754D01*
X127441241Y-100182753D01*
X127441240Y-100182753D01*
X127279957Y-100157208D01*
X127231287Y-100149500D01*
X126768713Y-100149500D01*
X126720042Y-100157208D01*
X126558760Y-100182753D01*
X126356585Y-100248444D01*
X126167179Y-100344951D01*
X125995213Y-100469890D01*
X125844890Y-100620213D01*
X125719951Y-100792179D01*
X125623444Y-100981585D01*
X125557753Y-101183760D01*
X125524500Y-101393713D01*
X125524500Y-101606286D01*
X125555182Y-101800009D01*
X125557754Y-101816243D01*
X125621617Y-102012793D01*
X125623444Y-102018414D01*
X125719951Y-102207820D01*
X125844890Y-102379786D01*
X125995209Y-102530105D01*
X125995214Y-102530109D01*
X126159793Y-102649682D01*
X126202459Y-102705011D01*
X126208438Y-102774625D01*
X126175833Y-102836420D01*
X126159793Y-102850318D01*
X125995214Y-102969890D01*
X125995209Y-102969894D01*
X125844890Y-103120213D01*
X125719951Y-103292179D01*
X125623444Y-103481585D01*
X125557753Y-103683760D01*
X125524500Y-103893713D01*
X125524500Y-104106286D01*
X125555790Y-104303848D01*
X125557754Y-104316243D01*
X125618042Y-104501790D01*
X125623444Y-104518414D01*
X125719951Y-104707820D01*
X125844890Y-104879786D01*
X125995209Y-105030105D01*
X125995214Y-105030109D01*
X126159793Y-105149682D01*
X126202459Y-105205011D01*
X126208438Y-105274625D01*
X126175833Y-105336420D01*
X126159793Y-105350318D01*
X125995214Y-105469890D01*
X125995209Y-105469894D01*
X125844890Y-105620213D01*
X125719951Y-105792179D01*
X125623444Y-105981585D01*
X125623443Y-105981587D01*
X125623443Y-105981588D01*
X125591298Y-106080520D01*
X125557753Y-106183760D01*
X125524500Y-106393713D01*
X125524500Y-106606286D01*
X125555181Y-106800001D01*
X125557754Y-106816243D01*
X125603711Y-106957684D01*
X125623444Y-107018414D01*
X125719951Y-107207820D01*
X125844890Y-107379786D01*
X125983705Y-107518601D01*
X126017190Y-107579924D01*
X126012206Y-107649616D01*
X125970334Y-107705549D01*
X125961121Y-107711821D01*
X125806342Y-107807289D01*
X125682289Y-107931342D01*
X125590187Y-108080663D01*
X125590186Y-108080666D01*
X125535001Y-108247203D01*
X125535001Y-108247204D01*
X125535000Y-108247204D01*
X125524500Y-108349983D01*
X125524500Y-109650001D01*
X125524501Y-109650018D01*
X125535000Y-109752796D01*
X125535001Y-109752799D01*
X125575495Y-109875000D01*
X125590186Y-109919334D01*
X125682288Y-110068656D01*
X125806344Y-110192712D01*
X125955666Y-110284814D01*
X126122203Y-110339999D01*
X126224991Y-110350500D01*
X127775008Y-110350499D01*
X127877797Y-110339999D01*
X128044334Y-110284814D01*
X128193656Y-110192712D01*
X128193659Y-110192708D01*
X128197903Y-110190091D01*
X128265295Y-110171651D01*
X128331959Y-110192573D01*
X128376729Y-110246215D01*
X128387000Y-110295630D01*
X128387000Y-110665695D01*
X128389901Y-110702567D01*
X128389902Y-110702573D01*
X128435754Y-110860393D01*
X128435755Y-110860396D01*
X128435756Y-110860398D01*
X128446285Y-110878201D01*
X128519417Y-111001862D01*
X128519423Y-111001870D01*
X128635629Y-111118076D01*
X128635633Y-111118079D01*
X128635635Y-111118081D01*
X128777102Y-111201744D01*
X128785580Y-111204207D01*
X128934926Y-111247597D01*
X128934929Y-111247597D01*
X128934931Y-111247598D01*
X128971806Y-111250500D01*
X128984565Y-111250500D01*
X129051604Y-111270185D01*
X129053456Y-111271398D01*
X129151086Y-111336632D01*
X129151087Y-111336632D01*
X129151088Y-111336633D01*
X129296360Y-111396806D01*
X129333165Y-111412051D01*
X129333169Y-111412051D01*
X129333170Y-111412052D01*
X129526456Y-111450500D01*
X129526459Y-111450500D01*
X129723543Y-111450500D01*
X129900139Y-111415372D01*
X129916835Y-111412051D01*
X130098914Y-111336632D01*
X130196544Y-111271398D01*
X130263222Y-111250520D01*
X130265435Y-111250500D01*
X130278186Y-111250500D01*
X130278194Y-111250500D01*
X130315069Y-111247598D01*
X130315071Y-111247597D01*
X130315073Y-111247597D01*
X130356691Y-111235505D01*
X130472898Y-111201744D01*
X130597851Y-111127846D01*
X130615740Y-111117268D01*
X130678861Y-111100000D01*
X131200000Y-111100000D01*
X131200000Y-110600000D01*
X130987000Y-110600000D01*
X130919961Y-110580315D01*
X130874206Y-110527511D01*
X130863000Y-110476000D01*
X130863000Y-110424500D01*
X130882685Y-110357461D01*
X130935489Y-110311706D01*
X130987000Y-110300500D01*
X132153186Y-110300500D01*
X132153194Y-110300500D01*
X132190069Y-110297598D01*
X132190071Y-110297597D01*
X132190073Y-110297597D01*
X132234078Y-110284812D01*
X132347898Y-110251744D01*
X132489365Y-110168081D01*
X132520626Y-110136820D01*
X132581948Y-110103334D01*
X132608308Y-110100500D01*
X132675501Y-110100500D01*
X132742540Y-110120185D01*
X132788295Y-110172989D01*
X132799501Y-110224500D01*
X132799501Y-110725012D01*
X132800233Y-110732176D01*
X132787460Y-110800869D01*
X132739576Y-110851751D01*
X132671786Y-110868668D01*
X132605610Y-110846249D01*
X132589193Y-110832453D01*
X132489061Y-110732321D01*
X132489052Y-110732314D01*
X132347696Y-110648717D01*
X132347693Y-110648716D01*
X132189995Y-110602900D01*
X132189989Y-110602899D01*
X132153149Y-110600000D01*
X131800000Y-110600000D01*
X131800000Y-111100000D01*
X132720796Y-111100000D01*
X132726634Y-111092224D01*
X132782627Y-111050432D01*
X132852326Y-111045546D01*
X132913602Y-111079118D01*
X132931334Y-111101578D01*
X132957288Y-111143656D01*
X133081344Y-111267712D01*
X133125187Y-111294754D01*
X133171912Y-111346701D01*
X133183135Y-111415664D01*
X133155292Y-111479746D01*
X133125189Y-111505831D01*
X133081656Y-111532682D01*
X132957682Y-111656656D01*
X132931656Y-111698851D01*
X132879707Y-111745575D01*
X132810744Y-111756796D01*
X132746663Y-111728952D01*
X132726957Y-111708205D01*
X132720797Y-111700000D01*
X131800000Y-111700000D01*
X131800000Y-112200000D01*
X132153134Y-112200000D01*
X132153149Y-112199999D01*
X132189989Y-112197100D01*
X132189995Y-112197099D01*
X132347693Y-112151283D01*
X132347696Y-112151282D01*
X132489052Y-112067685D01*
X132489057Y-112067681D01*
X132589751Y-111966987D01*
X132651074Y-111933502D01*
X132720766Y-111938486D01*
X132776700Y-111980357D01*
X132801117Y-112045821D01*
X132800792Y-112067263D01*
X132800000Y-112075013D01*
X132800000Y-112350000D01*
X135099999Y-112350000D01*
X135099999Y-112075028D01*
X135099998Y-112075013D01*
X135089505Y-111972302D01*
X135034358Y-111805880D01*
X135034356Y-111805875D01*
X134942315Y-111656654D01*
X134818345Y-111532684D01*
X134774811Y-111505832D01*
X134728086Y-111453884D01*
X134716865Y-111384921D01*
X134744708Y-111320839D01*
X134774807Y-111294757D01*
X134818656Y-111267712D01*
X134942712Y-111143656D01*
X135034814Y-110994334D01*
X135089999Y-110827797D01*
X135100500Y-110725009D01*
X135100499Y-109374992D01*
X135096085Y-109331786D01*
X135089999Y-109272203D01*
X135089998Y-109272200D01*
X135088771Y-109268498D01*
X135034814Y-109105666D01*
X134942712Y-108956344D01*
X134818656Y-108832288D01*
X134818655Y-108832287D01*
X134774812Y-108805245D01*
X134728087Y-108753297D01*
X134716864Y-108684335D01*
X134744707Y-108620253D01*
X134774813Y-108594167D01*
X134818339Y-108567320D01*
X134818344Y-108567316D01*
X134942315Y-108443345D01*
X135034356Y-108294124D01*
X135034358Y-108294119D01*
X135089505Y-108127697D01*
X135089506Y-108127690D01*
X135099999Y-108024986D01*
X135100000Y-108024973D01*
X135100000Y-107750000D01*
X132800001Y-107750000D01*
X132786320Y-107763681D01*
X132724997Y-107797166D01*
X132698639Y-107800000D01*
X131800000Y-107800000D01*
X131800000Y-108300000D01*
X132153134Y-108300000D01*
X132153149Y-108299999D01*
X132189989Y-108297100D01*
X132189995Y-108297099D01*
X132347693Y-108251283D01*
X132347696Y-108251282D01*
X132489052Y-108167685D01*
X132489057Y-108167681D01*
X132599886Y-108056852D01*
X132661209Y-108023367D01*
X132730901Y-108028351D01*
X132786835Y-108070222D01*
X132806880Y-108121549D01*
X132809077Y-108121079D01*
X132810492Y-108127692D01*
X132865641Y-108294119D01*
X132865643Y-108294124D01*
X132957684Y-108443345D01*
X133081656Y-108567317D01*
X133125187Y-108594167D01*
X133171912Y-108646115D01*
X133183135Y-108715077D01*
X133155291Y-108779160D01*
X133125188Y-108805244D01*
X133081347Y-108832285D01*
X133081343Y-108832288D01*
X133050451Y-108863181D01*
X132989128Y-108896666D01*
X132962770Y-108899500D01*
X132608308Y-108899500D01*
X132541269Y-108879815D01*
X132520626Y-108863180D01*
X132489370Y-108831923D01*
X132489362Y-108831917D01*
X132389990Y-108773149D01*
X132347898Y-108748256D01*
X132347897Y-108748255D01*
X132347896Y-108748255D01*
X132347893Y-108748254D01*
X132190073Y-108702402D01*
X132190067Y-108702401D01*
X132153201Y-108699500D01*
X132153194Y-108699500D01*
X130846806Y-108699500D01*
X130846798Y-108699500D01*
X130809932Y-108702401D01*
X130734158Y-108724416D01*
X130664289Y-108724216D01*
X130605619Y-108686273D01*
X130585005Y-108652795D01*
X130564961Y-108604404D01*
X130564960Y-108604401D01*
X130511635Y-108475662D01*
X130511629Y-108475651D01*
X130474470Y-108420038D01*
X130453593Y-108353361D01*
X130472078Y-108285981D01*
X130524057Y-108239291D01*
X130593027Y-108228115D01*
X130640698Y-108244418D01*
X130652307Y-108251284D01*
X130810004Y-108297099D01*
X130810010Y-108297100D01*
X130846850Y-108299999D01*
X130846866Y-108300000D01*
X131200000Y-108300000D01*
X131200000Y-107800000D01*
X130279204Y-107800000D01*
X130303699Y-107884316D01*
X130303499Y-107954185D01*
X130265556Y-108012855D01*
X130201918Y-108041698D01*
X130132788Y-108031556D01*
X130096941Y-108006591D01*
X129818609Y-107728259D01*
X129785124Y-107666936D01*
X129790108Y-107597244D01*
X129831980Y-107541311D01*
X129882099Y-107518961D01*
X129898048Y-107515787D01*
X129916835Y-107512051D01*
X130098914Y-107436632D01*
X130196544Y-107371398D01*
X130263222Y-107350520D01*
X130265435Y-107350500D01*
X130278186Y-107350500D01*
X130278194Y-107350500D01*
X130315069Y-107347598D01*
X130315071Y-107347597D01*
X130315073Y-107347597D01*
X130356691Y-107335505D01*
X130472898Y-107301744D01*
X130614365Y-107218081D01*
X130614364Y-107218081D01*
X130615740Y-107217268D01*
X130678861Y-107200000D01*
X131200000Y-107200000D01*
X131200000Y-106700000D01*
X130987000Y-106700000D01*
X130919961Y-106680315D01*
X130874206Y-106627511D01*
X130863000Y-106576000D01*
X130863000Y-106524500D01*
X130882685Y-106457461D01*
X130935489Y-106411706D01*
X130987000Y-106400500D01*
X132153186Y-106400500D01*
X132153194Y-106400500D01*
X132190069Y-106397598D01*
X132190071Y-106397597D01*
X132190073Y-106397597D01*
X132231691Y-106385505D01*
X132347898Y-106351744D01*
X132489365Y-106268081D01*
X132520626Y-106236820D01*
X132581948Y-106203334D01*
X132608308Y-106200500D01*
X132770146Y-106200500D01*
X132837185Y-106220185D01*
X132882940Y-106272989D01*
X132892884Y-106342147D01*
X132875684Y-106389598D01*
X132865644Y-106405873D01*
X132865641Y-106405880D01*
X132810494Y-106572302D01*
X132810493Y-106572309D01*
X132800000Y-106675013D01*
X132800000Y-106843898D01*
X132780315Y-106910937D01*
X132727511Y-106956692D01*
X132658353Y-106966636D01*
X132594797Y-106937611D01*
X132588319Y-106931579D01*
X132489061Y-106832321D01*
X132489052Y-106832314D01*
X132347696Y-106748717D01*
X132347693Y-106748716D01*
X132189995Y-106702900D01*
X132189989Y-106702899D01*
X132153149Y-106700000D01*
X131800000Y-106700000D01*
X131800000Y-107200000D01*
X132720796Y-107200000D01*
X132694241Y-107108594D01*
X132694441Y-107038725D01*
X132732384Y-106980055D01*
X132796022Y-106951212D01*
X132813318Y-106950000D01*
X135099999Y-106950000D01*
X135099999Y-106675028D01*
X135099998Y-106675013D01*
X135089505Y-106572302D01*
X135034358Y-106405880D01*
X135034356Y-106405875D01*
X134942315Y-106256654D01*
X134818345Y-106132684D01*
X134774811Y-106105832D01*
X134728086Y-106053884D01*
X134716865Y-105984921D01*
X134744708Y-105920839D01*
X134774807Y-105894757D01*
X134818656Y-105867712D01*
X134942712Y-105743656D01*
X135034814Y-105594334D01*
X135089999Y-105427797D01*
X135100500Y-105325009D01*
X135100499Y-104149095D01*
X135120184Y-104082057D01*
X135172987Y-104036302D01*
X135242146Y-104026358D01*
X135305702Y-104055383D01*
X135312180Y-104061415D01*
X135463181Y-104212416D01*
X135496666Y-104273739D01*
X135499500Y-104300097D01*
X135499500Y-109013330D01*
X135499499Y-109013348D01*
X135499499Y-109179054D01*
X135499498Y-109179054D01*
X135501343Y-109185938D01*
X135540423Y-109331785D01*
X135565368Y-109374991D01*
X135619477Y-109468712D01*
X135619481Y-109468717D01*
X135738349Y-109587585D01*
X135738355Y-109587590D01*
X135863181Y-109712416D01*
X135896666Y-109773739D01*
X135899500Y-109800097D01*
X135899500Y-110725001D01*
X135899501Y-110725019D01*
X135910000Y-110827796D01*
X135910001Y-110827799D01*
X135965185Y-110994331D01*
X135965187Y-110994336D01*
X135969829Y-111001862D01*
X136057288Y-111143656D01*
X136181344Y-111267712D01*
X136224712Y-111294461D01*
X136271436Y-111346409D01*
X136282659Y-111415372D01*
X136254815Y-111479454D01*
X136224713Y-111505537D01*
X136196434Y-111522980D01*
X136181342Y-111532289D01*
X136057289Y-111656342D01*
X135965187Y-111805663D01*
X135965185Y-111805668D01*
X135964358Y-111808165D01*
X135910001Y-111972203D01*
X135910001Y-111972204D01*
X135910000Y-111972204D01*
X135899500Y-112074983D01*
X135899500Y-113425001D01*
X135899501Y-113425018D01*
X135910000Y-113527796D01*
X135910001Y-113527799D01*
X135965185Y-113694331D01*
X135965187Y-113694336D01*
X135980209Y-113718691D01*
X136057288Y-113843656D01*
X136181344Y-113967712D01*
X136330666Y-114059814D01*
X136497203Y-114114999D01*
X136599991Y-114125500D01*
X137500008Y-114125499D01*
X137500016Y-114125498D01*
X137500019Y-114125498D01*
X137556302Y-114119748D01*
X137602797Y-114114999D01*
X137769334Y-114059814D01*
X137918656Y-113967712D01*
X138042712Y-113843656D01*
X138134814Y-113694334D01*
X138189999Y-113527797D01*
X138200500Y-113425009D01*
X138200499Y-112074992D01*
X138199709Y-112067263D01*
X138189999Y-111972203D01*
X138189998Y-111972200D01*
X138171941Y-111917708D01*
X138134814Y-111805666D01*
X138042712Y-111656344D01*
X137918656Y-111532288D01*
X137918655Y-111532287D01*
X137898411Y-111519800D01*
X137875287Y-111505538D01*
X137828563Y-111453592D01*
X137817340Y-111384630D01*
X137845183Y-111320547D01*
X137875286Y-111294462D01*
X137918656Y-111267712D01*
X138042712Y-111143656D01*
X138134814Y-110994334D01*
X138189999Y-110827797D01*
X138200500Y-110725009D01*
X138200499Y-109374992D01*
X138196085Y-109331786D01*
X138189999Y-109272203D01*
X138189998Y-109272200D01*
X138188771Y-109268498D01*
X138134814Y-109105666D01*
X138042712Y-108956344D01*
X137918656Y-108832288D01*
X137918655Y-108832287D01*
X137896049Y-108818344D01*
X137875287Y-108805538D01*
X137828563Y-108753592D01*
X137817340Y-108684630D01*
X137845183Y-108620547D01*
X137875286Y-108594462D01*
X137918656Y-108567712D01*
X138042712Y-108443656D01*
X138134814Y-108294334D01*
X138189999Y-108127797D01*
X138200500Y-108025009D01*
X138200499Y-106674992D01*
X138189999Y-106572203D01*
X138134814Y-106405666D01*
X138042712Y-106256344D01*
X137918656Y-106132288D01*
X137918655Y-106132287D01*
X137898411Y-106119800D01*
X137875287Y-106105538D01*
X137828563Y-106053592D01*
X137817340Y-105984630D01*
X137845183Y-105920547D01*
X137875286Y-105894462D01*
X137918656Y-105867712D01*
X138042712Y-105743656D01*
X138134814Y-105594334D01*
X138189999Y-105427797D01*
X138200500Y-105325009D01*
X138200499Y-103974992D01*
X138198105Y-103951561D01*
X138189999Y-103872203D01*
X138189998Y-103872200D01*
X138185057Y-103857288D01*
X138134814Y-103705666D01*
X138042712Y-103556344D01*
X137918656Y-103432288D01*
X137769334Y-103340186D01*
X137602797Y-103285001D01*
X137602795Y-103285000D01*
X137500016Y-103274500D01*
X137500009Y-103274500D01*
X137175097Y-103274500D01*
X137108058Y-103254815D01*
X137087416Y-103238181D01*
X136029392Y-102180157D01*
X135995907Y-102118834D01*
X136000891Y-102049142D01*
X136026987Y-102008548D01*
X136026553Y-102008177D01*
X136029275Y-102004988D01*
X136029415Y-102004772D01*
X136029724Y-102004462D01*
X136149372Y-101839781D01*
X136204702Y-101797115D01*
X136274315Y-101791136D01*
X136336110Y-101823741D01*
X136350008Y-101839781D01*
X136469890Y-102004785D01*
X136469894Y-102004790D01*
X136620213Y-102155109D01*
X136792179Y-102280048D01*
X136792181Y-102280049D01*
X136792184Y-102280051D01*
X136981588Y-102376557D01*
X137183757Y-102442246D01*
X137393713Y-102475500D01*
X137393714Y-102475500D01*
X137606286Y-102475500D01*
X137606287Y-102475500D01*
X137816243Y-102442246D01*
X138018412Y-102376557D01*
X138207816Y-102280051D01*
X138345374Y-102180110D01*
X138379784Y-102155110D01*
X138379784Y-102155109D01*
X138379792Y-102155104D01*
X138518604Y-102016291D01*
X138579923Y-101982809D01*
X138649615Y-101987793D01*
X138705549Y-102029664D01*
X138711821Y-102038878D01*
X138715185Y-102044333D01*
X138715186Y-102044334D01*
X138807288Y-102193656D01*
X138931344Y-102317712D01*
X139080666Y-102409814D01*
X139247203Y-102464999D01*
X139349991Y-102475500D01*
X140650008Y-102475499D01*
X140752797Y-102464999D01*
X140919334Y-102409814D01*
X141068656Y-102317712D01*
X141192712Y-102193656D01*
X141284814Y-102044334D01*
X141339999Y-101877797D01*
X141350500Y-101775009D01*
X141350499Y-100224992D01*
X141348851Y-100208863D01*
X141339999Y-100122203D01*
X141339998Y-100122200D01*
X141320243Y-100062583D01*
X141284814Y-99955666D01*
X141192712Y-99806344D01*
X141068656Y-99682288D01*
X140919334Y-99590186D01*
X140752797Y-99535001D01*
X140752795Y-99535000D01*
X140650010Y-99524500D01*
X139349998Y-99524500D01*
X139349981Y-99524501D01*
X139247203Y-99535000D01*
X139247200Y-99535001D01*
X139080668Y-99590185D01*
X139080663Y-99590187D01*
X138931342Y-99682289D01*
X138807289Y-99806342D01*
X138711821Y-99961121D01*
X138659873Y-100007845D01*
X138590910Y-100019068D01*
X138526828Y-99991224D01*
X138518601Y-99983705D01*
X138379786Y-99844890D01*
X138207820Y-99719951D01*
X138018414Y-99623444D01*
X138018413Y-99623443D01*
X138018412Y-99623443D01*
X137816243Y-99557754D01*
X137816241Y-99557753D01*
X137816240Y-99557753D01*
X137654957Y-99532208D01*
X137606287Y-99524500D01*
X137393713Y-99524500D01*
X137345042Y-99532208D01*
X137183760Y-99557753D01*
X136981585Y-99623444D01*
X136792179Y-99719951D01*
X136620213Y-99844890D01*
X136469894Y-99995209D01*
X136469890Y-99995214D01*
X136350008Y-100160218D01*
X136294678Y-100202884D01*
X136225065Y-100208863D01*
X136163270Y-100176257D01*
X136149372Y-100160218D01*
X136029727Y-99995540D01*
X136029723Y-99995535D01*
X135879464Y-99845276D01*
X135879459Y-99845272D01*
X135707557Y-99720379D01*
X135518222Y-99623907D01*
X135400000Y-99585494D01*
X135400000Y-100742819D01*
X135380095Y-100708343D01*
X135291657Y-100619905D01*
X135183343Y-100557370D01*
X135062535Y-100525000D01*
X134937465Y-100525000D01*
X134816657Y-100557370D01*
X134708343Y-100619905D01*
X134619905Y-100708343D01*
X134600000Y-100742819D01*
X134600000Y-99585494D01*
X134594968Y-99581838D01*
X134542976Y-99583324D01*
X134483144Y-99547243D01*
X134452316Y-99484542D01*
X134450500Y-99463398D01*
X134450500Y-98285523D01*
X134470185Y-98218484D01*
X134522989Y-98172729D01*
X134592147Y-98162785D01*
X134655703Y-98191810D01*
X134662181Y-98197842D01*
X134681654Y-98217315D01*
X134830875Y-98309356D01*
X134830880Y-98309358D01*
X134997302Y-98364505D01*
X134997309Y-98364506D01*
X135100019Y-98374999D01*
X135950000Y-98374999D01*
X135999972Y-98374999D01*
X135999986Y-98374998D01*
X136102697Y-98364505D01*
X136269119Y-98309358D01*
X136269124Y-98309356D01*
X136418345Y-98217315D01*
X136542315Y-98093345D01*
X136634356Y-97944124D01*
X136634358Y-97944119D01*
X136689505Y-97777697D01*
X136689506Y-97777690D01*
X136699999Y-97674986D01*
X136700000Y-97674973D01*
X136700000Y-97400000D01*
X135950000Y-97400000D01*
X135950000Y-98374999D01*
X135100019Y-98374999D01*
X135149999Y-98374998D01*
X135150000Y-98374998D01*
X135150000Y-96600000D01*
X135950000Y-96600000D01*
X136699999Y-96600000D01*
X136699999Y-96325028D01*
X136699998Y-96325013D01*
X136689505Y-96222302D01*
X136634358Y-96055880D01*
X136634356Y-96055875D01*
X136542315Y-95906654D01*
X136418345Y-95782684D01*
X136269124Y-95690643D01*
X136269119Y-95690641D01*
X136102697Y-95635494D01*
X136102690Y-95635493D01*
X135999986Y-95625000D01*
X135950000Y-95625000D01*
X135950000Y-96600000D01*
X135150000Y-96600000D01*
X135150000Y-95625000D01*
X135149999Y-95624999D01*
X135100029Y-95625000D01*
X135100011Y-95625001D01*
X134997302Y-95635494D01*
X134830880Y-95690641D01*
X134830875Y-95690643D01*
X134681654Y-95782684D01*
X134662181Y-95802158D01*
X134600858Y-95835643D01*
X134531166Y-95830659D01*
X134475233Y-95788787D01*
X134450816Y-95723323D01*
X134450500Y-95714477D01*
X134450500Y-93536600D01*
X134470185Y-93469561D01*
X134522989Y-93423806D01*
X134592147Y-93413862D01*
X134598766Y-93415401D01*
X134600000Y-93414505D01*
X134600000Y-92257180D01*
X134619905Y-92291657D01*
X134708343Y-92380095D01*
X134816657Y-92442630D01*
X134937465Y-92475000D01*
X135062535Y-92475000D01*
X135183343Y-92442630D01*
X135291657Y-92380095D01*
X135380095Y-92291657D01*
X135400000Y-92257180D01*
X135400000Y-93414505D01*
X135518214Y-93376096D01*
X135518220Y-93376094D01*
X135707557Y-93279620D01*
X135879459Y-93154727D01*
X135879464Y-93154723D01*
X136029721Y-93004466D01*
X136149371Y-92839781D01*
X136204701Y-92797115D01*
X136274314Y-92791136D01*
X136336110Y-92823741D01*
X136350008Y-92839781D01*
X136469890Y-93004785D01*
X136469894Y-93004790D01*
X136620213Y-93155109D01*
X136792179Y-93280048D01*
X136792181Y-93280049D01*
X136792184Y-93280051D01*
X136981588Y-93376557D01*
X137183757Y-93442246D01*
X137393713Y-93475500D01*
X137393714Y-93475500D01*
X137606286Y-93475500D01*
X137606287Y-93475500D01*
X137816243Y-93442246D01*
X137952873Y-93397851D01*
X138022708Y-93395856D01*
X138078867Y-93428102D01*
X139515139Y-94864374D01*
X139515149Y-94864385D01*
X139519479Y-94868715D01*
X139519480Y-94868716D01*
X139631284Y-94980520D01*
X139712804Y-95027585D01*
X139768215Y-95059577D01*
X139920943Y-95100501D01*
X139920946Y-95100501D01*
X140086653Y-95100501D01*
X140086669Y-95100500D01*
X144500903Y-95100500D01*
X144567942Y-95120185D01*
X144613697Y-95172989D01*
X144623641Y-95242147D01*
X144594616Y-95305703D01*
X144588590Y-95312174D01*
X144458060Y-95442704D01*
X144331286Y-95569478D01*
X144219481Y-95681282D01*
X144219479Y-95681285D01*
X144190971Y-95730664D01*
X144190970Y-95730666D01*
X144140423Y-95818214D01*
X144135753Y-95835643D01*
X144099499Y-95970943D01*
X144099499Y-95970945D01*
X144099499Y-96139046D01*
X144099500Y-96139059D01*
X144099500Y-103579911D01*
X144079815Y-103646950D01*
X144027011Y-103692705D01*
X143988102Y-103703269D01*
X143922202Y-103710001D01*
X143922200Y-103710001D01*
X143755668Y-103765185D01*
X143755663Y-103765187D01*
X143606342Y-103857289D01*
X143482289Y-103981342D01*
X143430539Y-104065243D01*
X143378591Y-104111967D01*
X143309628Y-104123190D01*
X143245546Y-104095346D01*
X143219461Y-104065243D01*
X143201610Y-104036302D01*
X143167712Y-103981344D01*
X143043656Y-103857288D01*
X142894334Y-103765186D01*
X142727797Y-103710001D01*
X142727795Y-103710000D01*
X142625010Y-103699500D01*
X141274998Y-103699500D01*
X141274981Y-103699501D01*
X141172203Y-103710000D01*
X141172200Y-103710001D01*
X141005668Y-103765185D01*
X141005663Y-103765187D01*
X140856342Y-103857289D01*
X140732289Y-103981342D01*
X140640187Y-104130663D01*
X140640185Y-104130668D01*
X140633354Y-104151283D01*
X140585001Y-104297203D01*
X140585001Y-104297204D01*
X140585000Y-104297204D01*
X140574500Y-104399983D01*
X140574500Y-105300001D01*
X140574501Y-105300019D01*
X140585000Y-105402796D01*
X140585001Y-105402799D01*
X140640185Y-105569331D01*
X140640187Y-105569336D01*
X140651719Y-105588032D01*
X140732288Y-105718656D01*
X140856344Y-105842712D01*
X141005666Y-105934814D01*
X141172203Y-105989999D01*
X141274991Y-106000500D01*
X142625008Y-106000499D01*
X142727797Y-105989999D01*
X142894334Y-105934814D01*
X143043656Y-105842712D01*
X143167712Y-105718656D01*
X143219461Y-105634756D01*
X143271409Y-105588032D01*
X143340371Y-105576809D01*
X143404454Y-105604653D01*
X143430539Y-105634757D01*
X143455538Y-105675288D01*
X143482288Y-105718656D01*
X143606344Y-105842712D01*
X143755666Y-105934814D01*
X143922203Y-105989999D01*
X144024991Y-106000500D01*
X145375008Y-106000499D01*
X145477797Y-105989999D01*
X145644334Y-105934814D01*
X145793656Y-105842712D01*
X145917712Y-105718656D01*
X145944461Y-105675287D01*
X145996408Y-105628563D01*
X146065370Y-105617340D01*
X146129453Y-105645183D01*
X146155537Y-105675286D01*
X146182288Y-105718656D01*
X146306344Y-105842712D01*
X146455666Y-105934814D01*
X146622203Y-105989999D01*
X146724991Y-106000500D01*
X148075008Y-106000499D01*
X148177797Y-105989999D01*
X148344334Y-105934814D01*
X148493656Y-105842712D01*
X148617712Y-105718656D01*
X148644461Y-105675287D01*
X148696408Y-105628563D01*
X148765370Y-105617340D01*
X148829453Y-105645183D01*
X148855537Y-105675286D01*
X148882288Y-105718656D01*
X149006344Y-105842712D01*
X149155666Y-105934814D01*
X149322203Y-105989999D01*
X149424991Y-106000500D01*
X150775008Y-106000499D01*
X150877797Y-105989999D01*
X151044334Y-105934814D01*
X151193656Y-105842712D01*
X151317712Y-105718656D01*
X151344461Y-105675287D01*
X151396408Y-105628563D01*
X151465370Y-105617340D01*
X151529453Y-105645183D01*
X151555537Y-105675286D01*
X151582288Y-105718656D01*
X151706344Y-105842712D01*
X151855666Y-105934814D01*
X152022203Y-105989999D01*
X152124991Y-106000500D01*
X153475008Y-106000499D01*
X153577797Y-105989999D01*
X153744334Y-105934814D01*
X153893656Y-105842712D01*
X154017712Y-105718656D01*
X154044461Y-105675287D01*
X154096408Y-105628563D01*
X154165370Y-105617340D01*
X154229453Y-105645183D01*
X154255537Y-105675286D01*
X154282288Y-105718656D01*
X154406344Y-105842712D01*
X154555666Y-105934814D01*
X154722203Y-105989999D01*
X154824991Y-106000500D01*
X156175008Y-106000499D01*
X156277797Y-105989999D01*
X156444334Y-105934814D01*
X156593656Y-105842712D01*
X156717712Y-105718656D01*
X156809814Y-105569334D01*
X156864999Y-105402797D01*
X156875500Y-105300009D01*
X156875499Y-104399992D01*
X156874508Y-104390294D01*
X156864999Y-104297203D01*
X156864998Y-104297200D01*
X156848938Y-104248735D01*
X156809814Y-104130666D01*
X156717712Y-103981344D01*
X156593656Y-103857288D01*
X156444334Y-103765186D01*
X156277797Y-103710001D01*
X156277794Y-103710000D01*
X156211897Y-103703268D01*
X156147205Y-103676871D01*
X156107054Y-103619690D01*
X156100500Y-103579910D01*
X156100500Y-103499998D01*
X158114532Y-103499998D01*
X158114532Y-103500001D01*
X158134364Y-103726686D01*
X158134366Y-103726697D01*
X158193258Y-103946488D01*
X158193261Y-103946497D01*
X158289431Y-104152732D01*
X158289432Y-104152734D01*
X158419954Y-104339141D01*
X158580858Y-104500045D01*
X158580861Y-104500047D01*
X158767266Y-104630568D01*
X158973504Y-104726739D01*
X159193308Y-104785635D01*
X159351786Y-104799500D01*
X159419998Y-104805468D01*
X159420000Y-104805468D01*
X159420002Y-104805468D01*
X159488214Y-104799500D01*
X159646692Y-104785635D01*
X159866496Y-104726739D01*
X160020164Y-104655080D01*
X160027883Y-104652129D01*
X160027860Y-104652072D01*
X160041334Y-104646490D01*
X160179179Y-104589393D01*
X160310289Y-104501789D01*
X160421789Y-104390289D01*
X160488321Y-104290714D01*
X160541931Y-104245912D01*
X160611256Y-104237204D01*
X160674284Y-104267358D01*
X160711003Y-104326800D01*
X160714711Y-104346350D01*
X160715907Y-104357480D01*
X160766202Y-104492328D01*
X160766206Y-104492335D01*
X160852452Y-104607544D01*
X160852455Y-104607547D01*
X160967664Y-104693793D01*
X160967671Y-104693797D01*
X161102517Y-104744091D01*
X161102516Y-104744091D01*
X161109444Y-104744835D01*
X161162127Y-104750500D01*
X162757872Y-104750499D01*
X162817483Y-104744091D01*
X162952331Y-104693796D01*
X163067546Y-104607546D01*
X163153796Y-104492331D01*
X163204091Y-104357483D01*
X163209858Y-104303842D01*
X163236593Y-104239296D01*
X163293985Y-104199447D01*
X163363810Y-104196952D01*
X163423900Y-104232604D01*
X163434721Y-104245978D01*
X163499954Y-104339141D01*
X163660858Y-104500045D01*
X163660861Y-104500047D01*
X163847266Y-104630568D01*
X164053504Y-104726739D01*
X164273308Y-104785635D01*
X164431786Y-104799500D01*
X164499998Y-104805468D01*
X164500000Y-104805468D01*
X164500002Y-104805468D01*
X164568214Y-104799500D01*
X164726692Y-104785635D01*
X164946496Y-104726739D01*
X165152734Y-104630568D01*
X165339139Y-104500047D01*
X165500047Y-104339139D01*
X165630568Y-104152734D01*
X165726739Y-103946496D01*
X165785635Y-103726692D01*
X165805468Y-103500000D01*
X165785635Y-103273308D01*
X165726739Y-103053504D01*
X165630568Y-102847266D01*
X165500047Y-102660861D01*
X165500045Y-102660858D01*
X165339141Y-102499954D01*
X165152734Y-102369432D01*
X165152732Y-102369431D01*
X164946497Y-102273261D01*
X164946488Y-102273258D01*
X164726697Y-102214366D01*
X164726693Y-102214365D01*
X164726692Y-102214365D01*
X164726691Y-102214364D01*
X164726686Y-102214364D01*
X164500002Y-102194532D01*
X164499998Y-102194532D01*
X164273313Y-102214364D01*
X164273302Y-102214366D01*
X164053511Y-102273258D01*
X164053502Y-102273261D01*
X163847267Y-102369431D01*
X163847265Y-102369432D01*
X163660858Y-102499954D01*
X163499956Y-102660856D01*
X163434721Y-102754022D01*
X163380144Y-102797646D01*
X163310645Y-102804839D01*
X163248291Y-102773317D01*
X163212877Y-102713087D01*
X163209856Y-102696150D01*
X163204091Y-102642516D01*
X163153797Y-102507671D01*
X163153793Y-102507664D01*
X163067547Y-102392455D01*
X163067544Y-102392452D01*
X162952335Y-102306206D01*
X162952328Y-102306202D01*
X162817482Y-102255908D01*
X162817483Y-102255908D01*
X162757883Y-102249501D01*
X162757881Y-102249500D01*
X162757873Y-102249500D01*
X162757864Y-102249500D01*
X161162129Y-102249500D01*
X161162123Y-102249501D01*
X161102516Y-102255908D01*
X160967671Y-102306202D01*
X160967664Y-102306206D01*
X160852455Y-102392452D01*
X160852452Y-102392455D01*
X160766206Y-102507664D01*
X160766202Y-102507671D01*
X160715908Y-102642516D01*
X160710142Y-102696154D01*
X160683404Y-102760705D01*
X160626012Y-102800553D01*
X160556186Y-102803046D01*
X160496098Y-102767393D01*
X160485278Y-102754021D01*
X160420045Y-102660858D01*
X160259141Y-102499954D01*
X160072734Y-102369432D01*
X160072732Y-102369431D01*
X159866497Y-102273261D01*
X159866488Y-102273258D01*
X159646697Y-102214366D01*
X159646693Y-102214365D01*
X159646692Y-102214365D01*
X159646691Y-102214364D01*
X159646686Y-102214364D01*
X159420002Y-102194532D01*
X159419998Y-102194532D01*
X159193313Y-102214364D01*
X159193302Y-102214366D01*
X158973511Y-102273258D01*
X158973502Y-102273261D01*
X158767267Y-102369431D01*
X158767265Y-102369432D01*
X158580858Y-102499954D01*
X158419954Y-102660858D01*
X158289432Y-102847265D01*
X158289431Y-102847267D01*
X158193261Y-103053502D01*
X158193258Y-103053511D01*
X158134366Y-103273302D01*
X158134364Y-103273313D01*
X158114532Y-103499998D01*
X156100500Y-103499998D01*
X156100500Y-101300096D01*
X156120185Y-101233057D01*
X156136814Y-101212420D01*
X161314361Y-96034873D01*
X161375680Y-96001391D01*
X161445372Y-96006375D01*
X161501305Y-96048247D01*
X161524511Y-96103159D01*
X161558242Y-96316127D01*
X161558242Y-96316130D01*
X161623904Y-96518217D01*
X161720379Y-96707557D01*
X161845272Y-96879459D01*
X161845276Y-96879464D01*
X161995535Y-97029723D01*
X161995540Y-97029727D01*
X162167442Y-97154620D01*
X162356782Y-97251095D01*
X162558873Y-97316758D01*
X162599999Y-97323270D01*
X162600000Y-97323270D01*
X163400000Y-97323270D01*
X163441126Y-97316758D01*
X163643217Y-97251095D01*
X163832557Y-97154620D01*
X164004459Y-97029727D01*
X164004464Y-97029723D01*
X164154723Y-96879464D01*
X164154727Y-96879459D01*
X164279620Y-96707557D01*
X164376092Y-96518222D01*
X164414506Y-96400000D01*
X163400000Y-96400000D01*
X163400000Y-97323270D01*
X162600000Y-97323270D01*
X162600000Y-96257180D01*
X162619905Y-96291657D01*
X162708343Y-96380095D01*
X162816657Y-96442630D01*
X162937465Y-96475000D01*
X163062535Y-96475000D01*
X163183343Y-96442630D01*
X163291657Y-96380095D01*
X163380095Y-96291657D01*
X163442630Y-96183343D01*
X163475000Y-96062535D01*
X163475000Y-95937465D01*
X163442630Y-95816657D01*
X163380095Y-95708343D01*
X163291657Y-95619905D01*
X163257180Y-95600000D01*
X164414506Y-95600000D01*
X164414505Y-95599999D01*
X164376092Y-95481777D01*
X164279620Y-95292442D01*
X164154727Y-95120540D01*
X164154723Y-95120535D01*
X164004464Y-94970276D01*
X164004459Y-94970272D01*
X163839781Y-94850627D01*
X163797115Y-94795297D01*
X163791136Y-94725684D01*
X163823741Y-94663889D01*
X163839776Y-94649994D01*
X164004792Y-94530104D01*
X164155104Y-94379792D01*
X164155106Y-94379788D01*
X164155109Y-94379786D01*
X164280048Y-94207820D01*
X164280047Y-94207820D01*
X164280051Y-94207816D01*
X164376557Y-94018412D01*
X164442246Y-93816243D01*
X164475500Y-93606287D01*
X164475500Y-93393713D01*
X164442246Y-93183757D01*
X164376557Y-92981588D01*
X164280051Y-92792184D01*
X164280049Y-92792181D01*
X164280048Y-92792179D01*
X164155109Y-92620213D01*
X164016294Y-92481398D01*
X163982809Y-92420075D01*
X163987793Y-92350383D01*
X164029665Y-92294450D01*
X164038879Y-92288178D01*
X164044331Y-92284814D01*
X164044334Y-92284814D01*
X164193656Y-92192712D01*
X164317712Y-92068656D01*
X164409814Y-91919334D01*
X164464999Y-91752797D01*
X164475500Y-91650009D01*
X164475499Y-90349992D01*
X164467145Y-90268216D01*
X164464999Y-90247203D01*
X164464998Y-90247200D01*
X164449168Y-90199429D01*
X164409814Y-90080666D01*
X164317712Y-89931344D01*
X164193656Y-89807288D01*
X164088543Y-89742454D01*
X164044336Y-89715187D01*
X164044331Y-89715185D01*
X164042862Y-89714698D01*
X163877797Y-89660001D01*
X163877795Y-89660000D01*
X163775010Y-89649500D01*
X162224998Y-89649500D01*
X162224981Y-89649501D01*
X162122203Y-89660000D01*
X162122200Y-89660001D01*
X161955668Y-89715185D01*
X161955663Y-89715187D01*
X161806342Y-89807289D01*
X161682289Y-89931342D01*
X161590187Y-90080663D01*
X161590186Y-90080666D01*
X161535001Y-90247203D01*
X161535001Y-90247204D01*
X161535000Y-90247204D01*
X161524500Y-90349983D01*
X161524500Y-90875903D01*
X161504815Y-90942942D01*
X161452011Y-90988697D01*
X161382853Y-90998641D01*
X161319297Y-90969616D01*
X161312819Y-90963584D01*
X141769319Y-71420084D01*
X141735834Y-71358761D01*
X141733000Y-71332403D01*
X141733000Y-69699996D01*
X151094435Y-69699996D01*
X151094435Y-69700003D01*
X151114630Y-69879249D01*
X151114631Y-69879254D01*
X151174211Y-70049523D01*
X151235666Y-70147327D01*
X151270184Y-70202262D01*
X151397738Y-70329816D01*
X151550478Y-70425789D01*
X151720745Y-70485368D01*
X151720750Y-70485369D01*
X151899996Y-70505565D01*
X151900000Y-70505565D01*
X151900004Y-70505565D01*
X152079249Y-70485369D01*
X152079252Y-70485368D01*
X152079255Y-70485368D01*
X152249522Y-70425789D01*
X152402262Y-70329816D01*
X152529816Y-70202262D01*
X152625789Y-70049522D01*
X152685368Y-69879255D01*
X152686481Y-69869380D01*
X152705565Y-69700003D01*
X152705565Y-69699996D01*
X152685369Y-69520750D01*
X152685368Y-69520745D01*
X152625788Y-69350476D01*
X152529813Y-69197734D01*
X152527550Y-69194896D01*
X152526659Y-69192715D01*
X152526111Y-69191842D01*
X152526264Y-69191745D01*
X152501144Y-69130209D01*
X152500500Y-69117587D01*
X152500500Y-67120096D01*
X152520185Y-67053057D01*
X152536814Y-67032420D01*
X153455508Y-66113726D01*
X153516827Y-66080244D01*
X153586518Y-66085228D01*
X153642452Y-66127100D01*
X153666761Y-66191170D01*
X153682399Y-66379889D01*
X153741491Y-66613240D01*
X153838184Y-66833679D01*
X153847055Y-66847257D01*
X154486123Y-66208190D01*
X154509403Y-66325223D01*
X154557271Y-66440785D01*
X154626764Y-66544789D01*
X154715211Y-66633236D01*
X154819215Y-66702729D01*
X154934777Y-66750597D01*
X155051808Y-66773876D01*
X154430571Y-67395113D01*
X154401909Y-67416486D01*
X154322564Y-67459426D01*
X154322563Y-67459426D01*
X154322561Y-67459428D01*
X154132540Y-67607327D01*
X154132537Y-67607329D01*
X154132534Y-67607332D01*
X153969449Y-67784490D01*
X153837743Y-67986081D01*
X153741017Y-68206594D01*
X153681904Y-68440027D01*
X153662020Y-68679994D01*
X153662020Y-68680005D01*
X153681904Y-68919972D01*
X153741017Y-69153405D01*
X153827460Y-69350476D01*
X153837745Y-69373922D01*
X153969449Y-69575510D01*
X154132537Y-69752671D01*
X154222608Y-69822776D01*
X154260344Y-69852147D01*
X154301157Y-69908857D01*
X154304831Y-69978630D01*
X154270199Y-70039313D01*
X154260344Y-70047853D01*
X154132539Y-70147327D01*
X154132534Y-70147332D01*
X153969449Y-70324490D01*
X153837743Y-70526081D01*
X153741017Y-70746594D01*
X153681904Y-70980027D01*
X153662020Y-71219994D01*
X153662020Y-71220005D01*
X153681904Y-71459972D01*
X153735105Y-71670062D01*
X153732479Y-71739883D01*
X153702580Y-71788183D01*
X151781286Y-73709478D01*
X151669481Y-73821282D01*
X151669479Y-73821284D01*
X151652902Y-73849998D01*
X151636646Y-73878155D01*
X151623745Y-73900500D01*
X151596458Y-73947763D01*
X151590423Y-73958215D01*
X151549499Y-74110943D01*
X151549499Y-74110945D01*
X151549499Y-74279046D01*
X151549500Y-74279059D01*
X151549500Y-77367587D01*
X151529815Y-77434626D01*
X151522450Y-77444896D01*
X151520186Y-77447734D01*
X151424211Y-77600476D01*
X151364631Y-77770745D01*
X151364630Y-77770750D01*
X151344435Y-77949996D01*
X151344435Y-77950003D01*
X151364630Y-78129249D01*
X151364631Y-78129254D01*
X151424211Y-78299523D01*
X151487347Y-78400002D01*
X151520184Y-78452262D01*
X151647738Y-78579816D01*
X151722193Y-78626599D01*
X151796314Y-78673173D01*
X151800478Y-78675789D01*
X151967976Y-78734399D01*
X151970745Y-78735368D01*
X151970750Y-78735369D01*
X152149996Y-78755565D01*
X152150000Y-78755565D01*
X152150004Y-78755565D01*
X152329249Y-78735369D01*
X152329252Y-78735368D01*
X152329255Y-78735368D01*
X152499522Y-78675789D01*
X152652262Y-78579816D01*
X152779816Y-78452262D01*
X152875789Y-78299522D01*
X152935368Y-78129255D01*
X152939330Y-78094091D01*
X152955565Y-77950003D01*
X152955565Y-77949996D01*
X152935369Y-77770750D01*
X152935368Y-77770745D01*
X152915800Y-77714822D01*
X152875789Y-77600478D01*
X152850947Y-77560943D01*
X152824223Y-77518412D01*
X152779816Y-77447738D01*
X152779814Y-77447736D01*
X152779813Y-77447734D01*
X152777550Y-77444896D01*
X152776659Y-77442715D01*
X152776111Y-77441842D01*
X152776264Y-77441745D01*
X152751144Y-77380209D01*
X152750500Y-77367587D01*
X152750500Y-74490096D01*
X152770185Y-74423057D01*
X152786815Y-74402419D01*
X153455041Y-73734192D01*
X153516364Y-73700708D01*
X153586056Y-73705692D01*
X153641989Y-73747564D01*
X153666298Y-73811634D01*
X153681904Y-73999972D01*
X153741017Y-74233405D01*
X153832947Y-74442985D01*
X153837745Y-74453922D01*
X153969449Y-74655510D01*
X154132537Y-74832671D01*
X154184019Y-74872741D01*
X154260344Y-74932147D01*
X154301157Y-74988857D01*
X154304831Y-75058630D01*
X154270199Y-75119313D01*
X154260344Y-75127853D01*
X154132539Y-75227327D01*
X154132534Y-75227332D01*
X153969449Y-75404490D01*
X153837743Y-75606081D01*
X153741017Y-75826594D01*
X153681904Y-76060027D01*
X153662020Y-76299994D01*
X153662020Y-76300005D01*
X153681904Y-76539972D01*
X153681904Y-76539975D01*
X153681905Y-76539976D01*
X153741017Y-76773405D01*
X153837745Y-76993922D01*
X153969449Y-77195510D01*
X154132537Y-77372671D01*
X154191318Y-77418422D01*
X154260344Y-77472147D01*
X154301157Y-77528857D01*
X154304831Y-77598630D01*
X154270199Y-77659313D01*
X154260344Y-77667853D01*
X154132539Y-77767327D01*
X154132534Y-77767332D01*
X153969449Y-77944490D01*
X153837743Y-78146081D01*
X153741017Y-78366594D01*
X153681904Y-78600027D01*
X153662020Y-78839994D01*
X153662020Y-78840005D01*
X153681904Y-79079972D01*
X153741017Y-79313405D01*
X153807186Y-79464256D01*
X153837745Y-79533922D01*
X153969449Y-79735510D01*
X154132537Y-79912671D01*
X154196933Y-79962792D01*
X154260344Y-80012147D01*
X154301157Y-80068857D01*
X154304831Y-80138630D01*
X154270199Y-80199313D01*
X154260344Y-80207853D01*
X154132539Y-80307327D01*
X154132534Y-80307332D01*
X153969449Y-80484490D01*
X153837743Y-80686081D01*
X153741017Y-80906594D01*
X153681904Y-81140027D01*
X153662020Y-81379994D01*
X153662020Y-81380005D01*
X153681904Y-81619972D01*
X153741017Y-81853405D01*
X153794007Y-81974211D01*
X153837745Y-82073922D01*
X153969449Y-82275510D01*
X154132537Y-82452671D01*
X154322561Y-82600572D01*
X154534336Y-82715179D01*
X154645160Y-82753225D01*
X154762083Y-82793365D01*
X154762085Y-82793365D01*
X154762087Y-82793366D01*
X154999601Y-82833000D01*
X154999602Y-82833000D01*
X155240398Y-82833000D01*
X155240399Y-82833000D01*
X155477913Y-82793366D01*
X155705664Y-82715179D01*
X155917439Y-82600572D01*
X156107463Y-82452671D01*
X156270551Y-82275510D01*
X156402255Y-82073922D01*
X156498983Y-81853405D01*
X156558095Y-81619976D01*
X156569562Y-81481588D01*
X156577980Y-81380005D01*
X156577980Y-81379994D01*
X156558095Y-81140027D01*
X156558095Y-81140024D01*
X156498983Y-80906595D01*
X156402255Y-80686078D01*
X156270551Y-80484490D01*
X156107463Y-80307329D01*
X155995749Y-80220379D01*
X155979656Y-80207853D01*
X155938843Y-80151143D01*
X155935168Y-80081370D01*
X155969800Y-80020687D01*
X155979656Y-80012147D01*
X156043067Y-79962792D01*
X156107463Y-79912671D01*
X156270551Y-79735510D01*
X156402255Y-79533922D01*
X156498983Y-79313405D01*
X156558095Y-79079976D01*
X156567565Y-78965685D01*
X156577980Y-78840005D01*
X156577980Y-78839994D01*
X156560532Y-78629434D01*
X156558095Y-78600024D01*
X156498983Y-78366595D01*
X156402255Y-78146078D01*
X156270551Y-77944490D01*
X156107463Y-77767329D01*
X156030573Y-77707483D01*
X155979656Y-77667853D01*
X155938843Y-77611143D01*
X155935168Y-77541370D01*
X155969800Y-77480687D01*
X155979656Y-77472147D01*
X156000072Y-77456255D01*
X156107463Y-77372671D01*
X156270551Y-77195510D01*
X156402255Y-76993922D01*
X156498983Y-76773405D01*
X156558095Y-76539976D01*
X156573701Y-76351631D01*
X156598854Y-76286451D01*
X156655255Y-76245212D01*
X156724999Y-76241014D01*
X156784958Y-76274194D01*
X158363181Y-77852416D01*
X158396666Y-77913739D01*
X158399500Y-77940097D01*
X158399500Y-84317587D01*
X158379815Y-84384626D01*
X158372450Y-84394896D01*
X158370186Y-84397734D01*
X158274211Y-84550476D01*
X158214631Y-84720745D01*
X158214630Y-84720750D01*
X158194435Y-84899996D01*
X158194435Y-84900000D01*
X158214630Y-85079249D01*
X158214631Y-85079254D01*
X158274211Y-85249523D01*
X158274572Y-85250097D01*
X158370184Y-85402262D01*
X158497738Y-85529816D01*
X158650478Y-85625789D01*
X158820745Y-85685368D01*
X158820750Y-85685369D01*
X158999996Y-85705565D01*
X159000000Y-85705565D01*
X159000004Y-85705565D01*
X159179249Y-85685369D01*
X159179252Y-85685368D01*
X159179255Y-85685368D01*
X159349522Y-85625789D01*
X159502262Y-85529816D01*
X159629816Y-85402262D01*
X159725789Y-85249522D01*
X159785368Y-85079255D01*
X159789899Y-85039046D01*
X159805565Y-84900000D01*
X161610494Y-84900000D01*
X161648907Y-85018222D01*
X161745379Y-85207557D01*
X161870272Y-85379459D01*
X161870276Y-85379464D01*
X162020535Y-85529723D01*
X162020540Y-85529727D01*
X162192442Y-85654620D01*
X162381782Y-85751095D01*
X162583873Y-85816758D01*
X162624999Y-85823270D01*
X162625000Y-85823270D01*
X163425000Y-85823270D01*
X163466126Y-85816758D01*
X163668217Y-85751095D01*
X163857557Y-85654620D01*
X164029459Y-85529727D01*
X164029464Y-85529723D01*
X164179723Y-85379464D01*
X164179727Y-85379459D01*
X164304620Y-85207557D01*
X164401092Y-85018222D01*
X164439506Y-84900000D01*
X163425000Y-84900000D01*
X163425000Y-85823270D01*
X162625000Y-85823270D01*
X162625000Y-84900000D01*
X161610494Y-84900000D01*
X159805565Y-84900000D01*
X159805565Y-84899996D01*
X159785369Y-84720750D01*
X159785368Y-84720745D01*
X159749706Y-84618829D01*
X159725789Y-84550478D01*
X159629816Y-84397738D01*
X159629814Y-84397736D01*
X159629813Y-84397734D01*
X159627550Y-84394896D01*
X159626659Y-84392715D01*
X159626111Y-84391842D01*
X159626264Y-84391745D01*
X159601144Y-84330209D01*
X159600500Y-84317587D01*
X159600500Y-77729060D01*
X159600501Y-77729047D01*
X159600501Y-77560944D01*
X159598139Y-77552128D01*
X159559577Y-77408216D01*
X159506475Y-77316239D01*
X159480524Y-77271290D01*
X159480518Y-77271282D01*
X156537419Y-74328183D01*
X156503934Y-74266860D01*
X156504894Y-74210062D01*
X156558095Y-73999976D01*
X156568189Y-73878155D01*
X156570524Y-73849983D01*
X161549500Y-73849983D01*
X161549500Y-75150001D01*
X161549501Y-75150018D01*
X161560000Y-75252796D01*
X161560001Y-75252799D01*
X161610267Y-75404490D01*
X161615186Y-75419334D01*
X161699606Y-75556202D01*
X161707289Y-75568657D01*
X161831344Y-75692712D01*
X161986120Y-75788178D01*
X162032845Y-75840126D01*
X162044068Y-75909088D01*
X162016224Y-75973171D01*
X162008706Y-75981398D01*
X161869889Y-76120215D01*
X161744951Y-76292179D01*
X161648444Y-76481585D01*
X161648443Y-76481587D01*
X161648443Y-76481588D01*
X161629471Y-76539978D01*
X161582753Y-76683760D01*
X161549500Y-76893713D01*
X161549500Y-77106286D01*
X161571066Y-77242452D01*
X161582754Y-77316243D01*
X161640029Y-77492517D01*
X161648444Y-77518414D01*
X161744951Y-77707820D01*
X161869890Y-77879786D01*
X162020209Y-78030105D01*
X162020214Y-78030109D01*
X162184793Y-78149682D01*
X162227459Y-78205011D01*
X162233438Y-78274625D01*
X162200833Y-78336420D01*
X162184793Y-78350318D01*
X162020214Y-78469890D01*
X162020209Y-78469894D01*
X161869890Y-78620213D01*
X161744951Y-78792179D01*
X161648444Y-78981585D01*
X161582753Y-79183760D01*
X161549500Y-79393713D01*
X161549500Y-79606286D01*
X161575967Y-79773396D01*
X161582754Y-79816243D01*
X161646407Y-80012147D01*
X161648444Y-80018414D01*
X161744951Y-80207820D01*
X161869890Y-80379786D01*
X162020209Y-80530105D01*
X162020214Y-80530109D01*
X162184793Y-80649682D01*
X162227459Y-80705011D01*
X162233438Y-80774625D01*
X162200833Y-80836420D01*
X162184793Y-80850318D01*
X162020214Y-80969890D01*
X162020209Y-80969894D01*
X161869890Y-81120213D01*
X161744951Y-81292179D01*
X161648444Y-81481585D01*
X161582753Y-81683760D01*
X161565664Y-81791657D01*
X161549500Y-81893713D01*
X161549500Y-82106287D01*
X161554140Y-82135580D01*
X161582069Y-82311923D01*
X161582754Y-82316243D01*
X161645311Y-82508774D01*
X161648444Y-82518414D01*
X161744951Y-82707820D01*
X161869890Y-82879786D01*
X162020209Y-83030105D01*
X162020214Y-83030109D01*
X162185218Y-83149991D01*
X162227884Y-83205320D01*
X162233863Y-83274934D01*
X162201258Y-83336729D01*
X162185218Y-83350627D01*
X162020540Y-83470272D01*
X162020535Y-83470276D01*
X161870276Y-83620535D01*
X161870272Y-83620540D01*
X161745379Y-83792442D01*
X161648907Y-83981777D01*
X161610494Y-84099999D01*
X161610494Y-84100000D01*
X162767820Y-84100000D01*
X162733343Y-84119905D01*
X162644905Y-84208343D01*
X162582370Y-84316657D01*
X162550000Y-84437465D01*
X162550000Y-84562535D01*
X162582370Y-84683343D01*
X162644905Y-84791657D01*
X162733343Y-84880095D01*
X162841657Y-84942630D01*
X162962465Y-84975000D01*
X163087535Y-84975000D01*
X163208343Y-84942630D01*
X163316657Y-84880095D01*
X163405095Y-84791657D01*
X163467630Y-84683343D01*
X163500000Y-84562535D01*
X163500000Y-84437465D01*
X163467630Y-84316657D01*
X163405095Y-84208343D01*
X163316657Y-84119905D01*
X163282180Y-84100000D01*
X164439506Y-84100000D01*
X164439505Y-84099999D01*
X164401092Y-83981777D01*
X164304620Y-83792442D01*
X164179727Y-83620540D01*
X164179723Y-83620535D01*
X164029464Y-83470276D01*
X164029459Y-83470272D01*
X163864781Y-83350627D01*
X163822115Y-83295297D01*
X163816136Y-83225684D01*
X163848741Y-83163889D01*
X163864776Y-83149994D01*
X164029792Y-83030104D01*
X164180104Y-82879792D01*
X164180106Y-82879788D01*
X164180109Y-82879786D01*
X164299700Y-82715181D01*
X164305051Y-82707816D01*
X164401557Y-82518412D01*
X164467246Y-82316243D01*
X164467931Y-82311923D01*
X164495860Y-82135580D01*
X164500500Y-82106287D01*
X164500500Y-81893713D01*
X164467246Y-81683757D01*
X164401557Y-81481588D01*
X164305051Y-81292184D01*
X164305049Y-81292181D01*
X164305048Y-81292179D01*
X164180109Y-81120213D01*
X164029792Y-80969896D01*
X164022098Y-80964306D01*
X163865204Y-80850316D01*
X163822540Y-80794989D01*
X163816561Y-80725376D01*
X163849166Y-80663580D01*
X163865199Y-80649686D01*
X164029792Y-80530104D01*
X164180104Y-80379792D01*
X164180106Y-80379788D01*
X164180109Y-80379786D01*
X164291404Y-80226599D01*
X164305051Y-80207816D01*
X164401557Y-80018412D01*
X164467246Y-79816243D01*
X164500500Y-79606287D01*
X164500500Y-79393713D01*
X164467246Y-79183757D01*
X164401557Y-78981588D01*
X164305051Y-78792184D01*
X164305049Y-78792181D01*
X164305048Y-78792179D01*
X164180109Y-78620213D01*
X164029792Y-78469896D01*
X163933590Y-78400002D01*
X163865204Y-78350316D01*
X163822540Y-78294989D01*
X163816561Y-78225376D01*
X163849166Y-78163580D01*
X163865199Y-78149686D01*
X164029792Y-78030104D01*
X164180104Y-77879792D01*
X164180106Y-77879788D01*
X164180109Y-77879786D01*
X164305048Y-77707820D01*
X164305047Y-77707820D01*
X164305051Y-77707816D01*
X164401557Y-77518412D01*
X164467246Y-77316243D01*
X164500500Y-77106287D01*
X164500500Y-76893713D01*
X164467246Y-76683757D01*
X164401557Y-76481588D01*
X164305051Y-76292184D01*
X164305049Y-76292181D01*
X164305048Y-76292179D01*
X164180109Y-76120213D01*
X164041294Y-75981398D01*
X164007809Y-75920075D01*
X164012793Y-75850383D01*
X164054665Y-75794450D01*
X164063879Y-75788178D01*
X164069331Y-75784814D01*
X164069334Y-75784814D01*
X164218656Y-75692712D01*
X164342712Y-75568656D01*
X164434814Y-75419334D01*
X164489999Y-75252797D01*
X164500500Y-75150009D01*
X164500499Y-73849992D01*
X164497566Y-73821284D01*
X164489999Y-73747203D01*
X164489998Y-73747200D01*
X164477498Y-73709478D01*
X164434814Y-73580666D01*
X164342712Y-73431344D01*
X164218656Y-73307288D01*
X164100586Y-73234462D01*
X164069336Y-73215187D01*
X164069331Y-73215185D01*
X164067862Y-73214698D01*
X163902797Y-73160001D01*
X163902795Y-73160000D01*
X163800010Y-73149500D01*
X162249998Y-73149500D01*
X162249981Y-73149501D01*
X162147203Y-73160000D01*
X162147200Y-73160001D01*
X161980668Y-73215185D01*
X161980663Y-73215187D01*
X161831342Y-73307289D01*
X161707289Y-73431342D01*
X161615187Y-73580663D01*
X161615186Y-73580666D01*
X161560001Y-73747203D01*
X161560001Y-73747204D01*
X161560000Y-73747204D01*
X161549500Y-73849983D01*
X156570524Y-73849983D01*
X156577980Y-73760005D01*
X156577980Y-73759994D01*
X156558095Y-73520027D01*
X156558095Y-73520024D01*
X156498983Y-73286595D01*
X156402255Y-73066078D01*
X156270551Y-72864490D01*
X156107463Y-72687329D01*
X156023536Y-72622006D01*
X155979656Y-72587853D01*
X155938843Y-72531143D01*
X155935168Y-72461370D01*
X155969800Y-72400687D01*
X155979656Y-72392147D01*
X156000072Y-72376255D01*
X156107463Y-72292671D01*
X156270551Y-72115510D01*
X156402255Y-71913922D01*
X156498983Y-71693405D01*
X156558095Y-71459976D01*
X156577980Y-71220000D01*
X156577538Y-71214668D01*
X156558095Y-70980027D01*
X156558095Y-70980024D01*
X156498983Y-70746595D01*
X156402255Y-70526078D01*
X156270551Y-70324490D01*
X156107463Y-70147329D01*
X155987984Y-70054335D01*
X155979656Y-70047853D01*
X155938843Y-69991143D01*
X155935168Y-69921370D01*
X155969800Y-69860687D01*
X155979656Y-69852147D01*
X156010486Y-69828151D01*
X156107463Y-69752671D01*
X156270551Y-69575510D01*
X156402255Y-69373922D01*
X156498983Y-69153405D01*
X156558095Y-68919976D01*
X156574661Y-68720057D01*
X156577980Y-68680005D01*
X156577980Y-68679994D01*
X156564723Y-68520016D01*
X156558095Y-68440024D01*
X156498983Y-68206595D01*
X156402255Y-67986078D01*
X156270551Y-67784490D01*
X156107463Y-67607329D01*
X155973358Y-67502951D01*
X155917441Y-67459429D01*
X155917432Y-67459423D01*
X155838088Y-67416484D01*
X155809425Y-67395111D01*
X155414315Y-67000000D01*
X157495176Y-67000000D01*
X157514461Y-67392550D01*
X157572129Y-67781308D01*
X157667625Y-68162549D01*
X157800016Y-68532559D01*
X157800023Y-68532575D01*
X157968062Y-68887864D01*
X158170109Y-69224958D01*
X158399737Y-69534576D01*
X160011855Y-67922458D01*
X160041806Y-67974334D01*
X160181457Y-68156331D01*
X160343669Y-68318543D01*
X160525666Y-68458194D01*
X160577540Y-68488143D01*
X158965422Y-70100261D01*
X159275041Y-70329890D01*
X159612135Y-70531937D01*
X159967424Y-70699976D01*
X159967440Y-70699983D01*
X160337450Y-70832374D01*
X160718691Y-70927870D01*
X161107449Y-70985538D01*
X161500000Y-71004823D01*
X161892550Y-70985538D01*
X162281308Y-70927870D01*
X162662549Y-70832374D01*
X163032559Y-70699983D01*
X163032575Y-70699976D01*
X163387864Y-70531937D01*
X163724958Y-70329890D01*
X164034576Y-70100261D01*
X162422459Y-68488144D01*
X162474334Y-68458194D01*
X162656331Y-68318543D01*
X162818543Y-68156331D01*
X162958194Y-67974334D01*
X162988144Y-67922459D01*
X164600261Y-69534576D01*
X164829890Y-69224958D01*
X165031937Y-68887864D01*
X165199976Y-68532575D01*
X165199983Y-68532559D01*
X165332374Y-68162549D01*
X165427870Y-67781308D01*
X165485538Y-67392550D01*
X165504823Y-67000000D01*
X165485538Y-66607449D01*
X165427870Y-66218691D01*
X165332374Y-65837450D01*
X165199983Y-65467440D01*
X165199976Y-65467424D01*
X165031937Y-65112135D01*
X164829890Y-64775041D01*
X164600261Y-64465422D01*
X162988143Y-66077540D01*
X162958194Y-66025666D01*
X162818543Y-65843669D01*
X162656331Y-65681457D01*
X162474334Y-65541806D01*
X162422458Y-65511855D01*
X164034576Y-63899737D01*
X163724958Y-63670109D01*
X163387864Y-63468062D01*
X163032575Y-63300023D01*
X163032559Y-63300016D01*
X162662549Y-63167625D01*
X162281308Y-63072129D01*
X161892550Y-63014461D01*
X161500000Y-62995176D01*
X161107449Y-63014461D01*
X160718691Y-63072129D01*
X160337450Y-63167625D01*
X159967440Y-63300016D01*
X159967424Y-63300023D01*
X159612135Y-63468062D01*
X159275048Y-63670105D01*
X159275034Y-63670114D01*
X158965422Y-63899736D01*
X158965421Y-63899736D01*
X160577540Y-65511855D01*
X160525666Y-65541806D01*
X160343669Y-65681457D01*
X160181457Y-65843669D01*
X160041806Y-66025666D01*
X160011856Y-66077540D01*
X158399736Y-64465421D01*
X158399736Y-64465422D01*
X158170114Y-64775034D01*
X158170105Y-64775048D01*
X157968062Y-65112135D01*
X157800023Y-65467424D01*
X157800016Y-65467440D01*
X157667625Y-65837450D01*
X157572129Y-66218691D01*
X157514461Y-66607449D01*
X157495176Y-67000000D01*
X155414315Y-67000000D01*
X155188191Y-66773876D01*
X155305223Y-66750597D01*
X155420785Y-66702729D01*
X155524789Y-66633236D01*
X155613236Y-66544789D01*
X155682729Y-66440785D01*
X155730597Y-66325223D01*
X155753876Y-66208191D01*
X156392942Y-66847258D01*
X156392943Y-66847258D01*
X156401814Y-66833681D01*
X156498508Y-66613240D01*
X156557600Y-66379889D01*
X156577478Y-66140005D01*
X156577478Y-66139994D01*
X156557600Y-65900110D01*
X156498508Y-65666759D01*
X156401816Y-65446321D01*
X156401815Y-65446319D01*
X156392943Y-65432741D01*
X155753876Y-66071808D01*
X155730597Y-65954777D01*
X155682729Y-65839215D01*
X155613236Y-65735211D01*
X155524789Y-65646764D01*
X155420785Y-65577271D01*
X155305223Y-65529403D01*
X155188191Y-65506123D01*
X155809426Y-64884886D01*
X155838081Y-64863518D01*
X155917439Y-64820572D01*
X156107463Y-64672671D01*
X156270551Y-64495510D01*
X156402255Y-64293922D01*
X156498983Y-64073405D01*
X156558095Y-63839976D01*
X156577980Y-63600000D01*
X156558095Y-63360024D01*
X156498983Y-63126595D01*
X156402255Y-62906078D01*
X156270551Y-62704490D01*
X156107463Y-62527329D01*
X155973358Y-62422951D01*
X155917441Y-62379429D01*
X155705665Y-62264821D01*
X155705656Y-62264818D01*
X155477916Y-62186634D01*
X155299777Y-62156908D01*
X155240399Y-62147000D01*
X154999601Y-62147000D01*
X154952098Y-62154926D01*
X154762083Y-62186634D01*
X154534343Y-62264818D01*
X154534334Y-62264821D01*
X154322558Y-62379429D01*
X154205764Y-62470334D01*
X154132537Y-62527329D01*
X154132534Y-62527331D01*
X154132534Y-62527332D01*
X153969449Y-62704490D01*
X153837743Y-62906081D01*
X153741017Y-63126594D01*
X153681904Y-63360027D01*
X153662020Y-63599994D01*
X153662020Y-63600005D01*
X153681904Y-63839972D01*
X153735105Y-64050061D01*
X153732479Y-64119882D01*
X153702580Y-64168182D01*
X151531286Y-66339478D01*
X151419481Y-66451282D01*
X151419479Y-66451284D01*
X151399913Y-66485174D01*
X151391643Y-66499500D01*
X151340423Y-66588215D01*
X151299499Y-66740943D01*
X151299499Y-66740945D01*
X151299499Y-66909046D01*
X151299500Y-66909059D01*
X151299500Y-69117587D01*
X151279815Y-69184626D01*
X151272450Y-69194896D01*
X151270186Y-69197734D01*
X151174211Y-69350476D01*
X151114631Y-69520745D01*
X151114630Y-69520750D01*
X151094435Y-69699996D01*
X141733000Y-69699996D01*
X141733000Y-64773445D01*
X141733000Y-64773443D01*
X141692077Y-64620716D01*
X141662817Y-64570035D01*
X141613024Y-64483790D01*
X141613021Y-64483786D01*
X141613020Y-64483784D01*
X141501216Y-64371980D01*
X141501215Y-64371979D01*
X141496885Y-64367649D01*
X141496874Y-64367639D01*
X141297419Y-64168184D01*
X141263934Y-64106861D01*
X141264894Y-64050063D01*
X141283902Y-63975000D01*
X141318095Y-63839976D01*
X141337980Y-63600000D01*
X141318095Y-63360024D01*
X141258983Y-63126595D01*
X141162255Y-62906078D01*
X141030551Y-62704490D01*
X140867463Y-62527329D01*
X140733358Y-62422951D01*
X140677441Y-62379429D01*
X140465665Y-62264821D01*
X140465656Y-62264818D01*
X140237916Y-62186634D01*
X140059777Y-62156908D01*
X140000399Y-62147000D01*
X139759601Y-62147000D01*
X139712098Y-62154926D01*
X139522083Y-62186634D01*
X139294343Y-62264818D01*
X139294334Y-62264821D01*
X139082558Y-62379429D01*
X138965764Y-62470334D01*
X138892537Y-62527329D01*
X138892534Y-62527331D01*
X138892534Y-62527332D01*
X138729449Y-62704490D01*
X138597743Y-62906081D01*
X138501017Y-63126594D01*
X138441904Y-63360027D01*
X138422020Y-63599994D01*
X138422020Y-63600005D01*
X138441904Y-63839972D01*
X138501017Y-64073405D01*
X138589448Y-64275008D01*
X138597745Y-64293922D01*
X138729449Y-64495510D01*
X138892537Y-64672671D01*
X138927219Y-64699665D01*
X139020344Y-64772147D01*
X139061157Y-64828857D01*
X139064831Y-64898630D01*
X139030199Y-64959313D01*
X139020344Y-64967853D01*
X138892539Y-65067327D01*
X138892534Y-65067332D01*
X138729449Y-65244490D01*
X138597743Y-65446081D01*
X138501017Y-65666594D01*
X138441904Y-65900027D01*
X138422020Y-66139994D01*
X138422020Y-66140005D01*
X138441904Y-66379972D01*
X138441904Y-66379975D01*
X138441905Y-66379976D01*
X138483641Y-66544789D01*
X138501017Y-66613405D01*
X138576969Y-66786559D01*
X138597745Y-66833922D01*
X138729449Y-67035510D01*
X138892537Y-67212671D01*
X138961869Y-67266634D01*
X139020344Y-67312147D01*
X139061157Y-67368857D01*
X139064831Y-67438630D01*
X139030199Y-67499313D01*
X139020344Y-67507853D01*
X138892539Y-67607327D01*
X138892534Y-67607332D01*
X138729449Y-67784490D01*
X138597743Y-67986081D01*
X138501017Y-68206594D01*
X138441904Y-68440027D01*
X138422020Y-68679994D01*
X138422020Y-68680005D01*
X138441904Y-68919972D01*
X138501017Y-69153405D01*
X138587460Y-69350476D01*
X138597745Y-69373922D01*
X138729449Y-69575510D01*
X138892537Y-69752671D01*
X138982608Y-69822776D01*
X139020344Y-69852147D01*
X139061157Y-69908857D01*
X139064831Y-69978630D01*
X139030199Y-70039313D01*
X139020344Y-70047853D01*
X138892539Y-70147327D01*
X138892534Y-70147332D01*
X138729449Y-70324490D01*
X138597743Y-70526081D01*
X138501017Y-70746594D01*
X138441904Y-70980027D01*
X138422020Y-71219994D01*
X138422020Y-71220005D01*
X138441904Y-71459972D01*
X138495105Y-71670062D01*
X138492479Y-71739883D01*
X138462580Y-71788183D01*
X137231286Y-73019478D01*
X137119481Y-73131282D01*
X137119479Y-73131284D01*
X137102901Y-73160000D01*
X137089685Y-73182891D01*
X137040423Y-73268215D01*
X136999499Y-73420943D01*
X136999499Y-73420945D01*
X136999499Y-73589046D01*
X136999500Y-73589059D01*
X136999500Y-81013330D01*
X136999499Y-81013348D01*
X136999499Y-81179054D01*
X136999498Y-81179054D01*
X137040424Y-81331789D01*
X137040425Y-81331790D01*
X137067194Y-81378154D01*
X137067195Y-81378155D01*
X137119479Y-81468714D01*
X137119481Y-81468717D01*
X137238349Y-81587585D01*
X137238355Y-81587590D01*
X139538584Y-83887819D01*
X139572069Y-83949142D01*
X139567085Y-84018834D01*
X139525213Y-84074767D01*
X139459749Y-84099184D01*
X139450903Y-84099500D01*
X137803476Y-84099500D01*
X137736437Y-84079815D01*
X137690682Y-84027011D01*
X137680738Y-83957853D01*
X137709763Y-83894297D01*
X137737504Y-83870506D01*
X137802262Y-83829816D01*
X137929816Y-83702262D01*
X138025789Y-83549522D01*
X138085368Y-83379255D01*
X138088608Y-83350500D01*
X138105565Y-83200003D01*
X138105565Y-83199996D01*
X138085369Y-83020750D01*
X138085368Y-83020745D01*
X138069535Y-82975498D01*
X138025789Y-82850478D01*
X138020361Y-82841840D01*
X137931237Y-82700000D01*
X137929816Y-82697738D01*
X137802262Y-82570184D01*
X137761117Y-82544331D01*
X137649524Y-82474212D01*
X137649520Y-82474210D01*
X137546013Y-82437991D01*
X137499287Y-82408631D01*
X131746546Y-76655888D01*
X131746545Y-76655887D01*
X131631807Y-76579222D01*
X131504332Y-76526421D01*
X131504322Y-76526418D01*
X131368996Y-76499500D01*
X131368994Y-76499500D01*
X131368993Y-76499500D01*
X130668993Y-76499500D01*
X126541519Y-76499500D01*
X126474480Y-76479815D01*
X126453838Y-76463181D01*
X125648787Y-75658130D01*
X129407553Y-75658130D01*
X129553668Y-75726264D01*
X129553682Y-75726269D01*
X129773389Y-75785139D01*
X129773400Y-75785141D01*
X129999998Y-75804966D01*
X130000002Y-75804966D01*
X130226599Y-75785141D01*
X130226610Y-75785139D01*
X130446317Y-75726269D01*
X130446326Y-75726265D01*
X130592445Y-75658129D01*
X130000001Y-75065685D01*
X130000000Y-75065685D01*
X129407553Y-75658130D01*
X125648787Y-75658130D01*
X125541819Y-75551162D01*
X125508334Y-75489839D01*
X125505500Y-75463481D01*
X125505500Y-75234426D01*
X125505497Y-75234399D01*
X125505497Y-75178060D01*
X125499705Y-75137779D01*
X125485035Y-75035744D01*
X125485035Y-75035743D01*
X125444498Y-74897691D01*
X125414805Y-74832672D01*
X125384776Y-74766918D01*
X125384773Y-74766914D01*
X125384770Y-74766906D01*
X125306986Y-74645870D01*
X125306985Y-74645869D01*
X125306984Y-74645867D01*
X125306981Y-74645863D01*
X125212847Y-74537226D01*
X125212830Y-74537207D01*
X125212829Y-74537206D01*
X125169888Y-74499998D01*
X128695034Y-74499998D01*
X128695034Y-74500002D01*
X128714858Y-74726599D01*
X128714860Y-74726610D01*
X128773730Y-74946317D01*
X128773735Y-74946331D01*
X128841868Y-75092445D01*
X129679920Y-74254394D01*
X129627259Y-74345606D01*
X129600000Y-74447339D01*
X129600000Y-74552661D01*
X129627259Y-74654394D01*
X129679920Y-74745606D01*
X129754394Y-74820080D01*
X129845606Y-74872741D01*
X129947339Y-74900000D01*
X130052661Y-74900000D01*
X130154394Y-74872741D01*
X130245606Y-74820080D01*
X130320080Y-74745606D01*
X130372741Y-74654394D01*
X130400000Y-74552661D01*
X130400000Y-74499999D01*
X130565685Y-74499999D01*
X130565685Y-74500000D01*
X131158129Y-75092444D01*
X131226265Y-74946326D01*
X131226269Y-74946317D01*
X131285139Y-74726610D01*
X131285141Y-74726599D01*
X131304966Y-74500002D01*
X131304966Y-74499997D01*
X131285141Y-74273400D01*
X131285139Y-74273389D01*
X131226269Y-74053682D01*
X131226264Y-74053668D01*
X131158130Y-73907553D01*
X130565685Y-74499999D01*
X130400000Y-74499999D01*
X130400000Y-74447339D01*
X130372741Y-74345606D01*
X130320080Y-74254394D01*
X130245606Y-74179920D01*
X130154394Y-74127259D01*
X130052661Y-74100000D01*
X129947339Y-74100000D01*
X129845606Y-74127259D01*
X129754395Y-74179919D01*
X130000000Y-73934315D01*
X130592445Y-73341869D01*
X130582962Y-73288088D01*
X130585303Y-73234462D01*
X130614203Y-73126606D01*
X130614204Y-73126599D01*
X130634029Y-72900002D01*
X130634029Y-72899997D01*
X130614204Y-72673400D01*
X130614202Y-72673389D01*
X130555332Y-72453682D01*
X130555327Y-72453668D01*
X130487193Y-72307553D01*
X129649145Y-73145602D01*
X129701804Y-73054394D01*
X129729063Y-72952661D01*
X129729063Y-72847339D01*
X129701804Y-72745606D01*
X129649143Y-72654394D01*
X129574669Y-72579920D01*
X129483457Y-72527259D01*
X129381724Y-72500000D01*
X129276402Y-72500000D01*
X129174669Y-72527259D01*
X129083457Y-72579920D01*
X129008983Y-72654394D01*
X128956322Y-72745606D01*
X128929063Y-72847339D01*
X128929063Y-72952661D01*
X128956322Y-73054394D01*
X129008983Y-73145606D01*
X129083457Y-73220080D01*
X129174669Y-73272741D01*
X129276402Y-73300000D01*
X129381724Y-73300000D01*
X129483457Y-73272741D01*
X129574665Y-73220081D01*
X129329063Y-73465685D01*
X128736616Y-74058130D01*
X128746100Y-74111912D01*
X128743759Y-74165537D01*
X128714859Y-74273392D01*
X128714859Y-74273396D01*
X128695034Y-74499998D01*
X125169888Y-74499998D01*
X125104091Y-74442985D01*
X125040963Y-74402415D01*
X125002705Y-74377828D01*
X124956951Y-74325024D01*
X124947007Y-74255866D01*
X124976032Y-74192310D01*
X124982042Y-74185854D01*
X125231080Y-73936817D01*
X125292402Y-73903334D01*
X125318760Y-73900500D01*
X125491883Y-73900500D01*
X125558922Y-73920185D01*
X125591148Y-73950187D01*
X125671517Y-74057546D01*
X125700251Y-74079056D01*
X125786727Y-74143793D01*
X125786734Y-74143797D01*
X125921580Y-74194091D01*
X125921579Y-74194091D01*
X125928507Y-74194835D01*
X125981190Y-74200500D01*
X127676935Y-74200499D01*
X127736546Y-74194091D01*
X127871394Y-74143796D01*
X127986609Y-74057546D01*
X128072859Y-73942331D01*
X128123154Y-73807483D01*
X128129563Y-73747873D01*
X128129562Y-73585173D01*
X128149246Y-73518137D01*
X128165881Y-73497495D01*
X128763378Y-72900000D01*
X128165881Y-72302503D01*
X128132396Y-72241180D01*
X128129562Y-72214822D01*
X128129562Y-72052129D01*
X128129561Y-72052123D01*
X128123154Y-71992516D01*
X128072860Y-71857671D01*
X128072856Y-71857664D01*
X127986610Y-71742455D01*
X127986607Y-71742452D01*
X127985827Y-71741868D01*
X128736616Y-71741868D01*
X129329063Y-72334315D01*
X129329064Y-72334315D01*
X129921507Y-71741869D01*
X129775385Y-71673732D01*
X129775380Y-71673730D01*
X129555673Y-71614860D01*
X129555662Y-71614858D01*
X129329065Y-71595034D01*
X129329061Y-71595034D01*
X129102463Y-71614858D01*
X129102452Y-71614860D01*
X128882743Y-71673731D01*
X128736616Y-71741868D01*
X127985827Y-71741868D01*
X127871398Y-71656206D01*
X127871391Y-71656202D01*
X127736545Y-71605908D01*
X127736546Y-71605908D01*
X127676946Y-71599501D01*
X127676944Y-71599500D01*
X127676936Y-71599500D01*
X127676928Y-71599500D01*
X127670383Y-71599500D01*
X127603344Y-71579815D01*
X127557589Y-71527011D01*
X127547645Y-71457853D01*
X127552452Y-71437182D01*
X127561582Y-71409082D01*
X127561582Y-71409081D01*
X127561583Y-71409078D01*
X127591530Y-71220000D01*
X127592374Y-71214673D01*
X127592374Y-64635132D01*
X127610834Y-64570037D01*
X127626688Y-64544334D01*
X127626689Y-64544330D01*
X127630051Y-64538880D01*
X127681998Y-64492155D01*
X127750960Y-64480931D01*
X127815043Y-64508773D01*
X127823272Y-64516294D01*
X127962087Y-64655109D01*
X128134053Y-64780048D01*
X128134055Y-64780049D01*
X128134058Y-64780051D01*
X128323462Y-64876557D01*
X128525631Y-64942246D01*
X128735587Y-64975500D01*
X128735588Y-64975500D01*
X128948160Y-64975500D01*
X128948161Y-64975500D01*
X129158117Y-64942246D01*
X129360286Y-64876557D01*
X129549690Y-64780051D01*
X129697486Y-64672672D01*
X129721660Y-64655109D01*
X129721662Y-64655106D01*
X129721666Y-64655104D01*
X129871978Y-64504792D01*
X129991865Y-64339779D01*
X130047194Y-64297115D01*
X130116807Y-64291136D01*
X130178603Y-64323741D01*
X130192501Y-64339781D01*
X130312146Y-64504459D01*
X130312150Y-64504464D01*
X130462409Y-64654723D01*
X130462414Y-64654727D01*
X130634316Y-64779620D01*
X130823653Y-64876094D01*
X130823659Y-64876096D01*
X130941873Y-64914505D01*
X130941874Y-64914505D01*
X131741874Y-64914505D01*
X131860088Y-64876096D01*
X131860094Y-64876094D01*
X132049431Y-64779620D01*
X132221333Y-64654727D01*
X132221338Y-64654723D01*
X132371597Y-64504464D01*
X132371601Y-64504459D01*
X132496494Y-64332557D01*
X132592969Y-64143217D01*
X132658631Y-63941130D01*
X132658631Y-63941129D01*
X132665145Y-63900000D01*
X131741874Y-63900000D01*
X131741874Y-64914505D01*
X130941874Y-64914505D01*
X130941874Y-63757180D01*
X130961779Y-63791657D01*
X131050217Y-63880095D01*
X131158531Y-63942630D01*
X131279339Y-63975000D01*
X131404409Y-63975000D01*
X131525217Y-63942630D01*
X131633531Y-63880095D01*
X131721969Y-63791657D01*
X131784504Y-63683343D01*
X131816874Y-63562535D01*
X131816874Y-63437465D01*
X131784504Y-63316657D01*
X131721969Y-63208343D01*
X131633531Y-63119905D01*
X131599054Y-63100000D01*
X131741874Y-63100000D01*
X132665146Y-63100000D01*
X132665145Y-63099999D01*
X132658631Y-63058870D01*
X132658631Y-63058869D01*
X132592969Y-62856782D01*
X132496494Y-62667442D01*
X132371601Y-62495540D01*
X132371597Y-62495535D01*
X132221338Y-62345276D01*
X132221333Y-62345272D01*
X132049431Y-62220379D01*
X131860096Y-62123907D01*
X131741874Y-62085494D01*
X131741874Y-63100000D01*
X131599054Y-63100000D01*
X131525217Y-63057370D01*
X131404409Y-63025000D01*
X131279339Y-63025000D01*
X131158531Y-63057370D01*
X131050217Y-63119905D01*
X130961779Y-63208343D01*
X130941874Y-63242819D01*
X130941874Y-62085494D01*
X130941873Y-62085494D01*
X130823651Y-62123907D01*
X130634316Y-62220379D01*
X130462414Y-62345272D01*
X130462409Y-62345276D01*
X130312150Y-62495535D01*
X130312146Y-62495540D01*
X130192501Y-62660218D01*
X130137171Y-62702884D01*
X130067558Y-62708863D01*
X130005763Y-62676257D01*
X129991865Y-62660218D01*
X129871983Y-62495214D01*
X129871979Y-62495209D01*
X129721660Y-62344890D01*
X129549694Y-62219951D01*
X129360288Y-62123444D01*
X129360287Y-62123443D01*
X129360286Y-62123443D01*
X129158117Y-62057754D01*
X129158115Y-62057753D01*
X129158114Y-62057753D01*
X128996831Y-62032208D01*
X128948161Y-62024500D01*
X128735587Y-62024500D01*
X128686916Y-62032208D01*
X128525634Y-62057753D01*
X128323459Y-62123444D01*
X128134053Y-62219951D01*
X127962089Y-62344889D01*
X127823272Y-62483706D01*
X127761949Y-62517190D01*
X127692257Y-62512206D01*
X127636324Y-62470334D01*
X127630052Y-62461120D01*
X127534586Y-62306344D01*
X127410531Y-62182289D01*
X127410530Y-62182288D01*
X127261208Y-62090186D01*
X127094671Y-62035001D01*
X127094669Y-62035000D01*
X126991884Y-62024500D01*
X125691872Y-62024500D01*
X125691855Y-62024501D01*
X125589077Y-62035000D01*
X125589074Y-62035001D01*
X125422542Y-62090185D01*
X125422537Y-62090187D01*
X125273216Y-62182289D01*
X125149163Y-62306342D01*
X125057061Y-62455663D01*
X125057059Y-62455668D01*
X125033313Y-62527329D01*
X125001875Y-62622203D01*
X125001875Y-62622204D01*
X125001874Y-62622204D01*
X124991374Y-62724983D01*
X124991374Y-64275001D01*
X124991375Y-64275018D01*
X125001874Y-64377796D01*
X125001875Y-64377799D01*
X125040881Y-64495509D01*
X125057060Y-64544334D01*
X125072913Y-64570036D01*
X125091374Y-64635132D01*
X125091374Y-70012415D01*
X125071689Y-70079454D01*
X125041686Y-70111681D01*
X125000583Y-70142450D01*
X125000577Y-70142457D01*
X124914332Y-70257664D01*
X124914328Y-70257671D01*
X124864034Y-70392517D01*
X124862252Y-70400062D01*
X124859979Y-70399525D01*
X124837697Y-70453312D01*
X124780303Y-70493157D01*
X124741150Y-70499500D01*
X124015563Y-70499500D01*
X123948524Y-70479815D01*
X123934361Y-70469214D01*
X123904094Y-70442988D01*
X123904091Y-70442985D01*
X123904089Y-70442984D01*
X123904090Y-70442984D01*
X123783142Y-70365255D01*
X123783136Y-70365252D01*
X123705539Y-70329815D01*
X123652259Y-70305483D01*
X123534650Y-70270950D01*
X123514308Y-70264977D01*
X123514296Y-70264974D01*
X123371889Y-70244500D01*
X122800000Y-70244500D01*
X122799997Y-70244500D01*
X122728061Y-70249644D01*
X122728056Y-70249645D01*
X122690735Y-70260603D01*
X122638158Y-70264363D01*
X122500001Y-70244500D01*
X122500000Y-70244500D01*
X121928111Y-70244500D01*
X121928110Y-70244500D01*
X121785703Y-70264974D01*
X121785691Y-70264977D01*
X121647741Y-70305483D01*
X121516863Y-70365252D01*
X121516861Y-70365254D01*
X121401523Y-70439376D01*
X121400083Y-70440196D01*
X121395901Y-70442988D01*
X121287169Y-70537207D01*
X121287166Y-70537210D01*
X121193018Y-70645864D01*
X121193015Y-70645867D01*
X121115231Y-70766905D01*
X121115223Y-70766918D01*
X121058263Y-70891643D01*
X121056015Y-70895939D01*
X121014967Y-71035735D01*
X121014026Y-71040063D01*
X121012889Y-71039815D01*
X120986026Y-71098608D01*
X120980010Y-71105067D01*
X119654728Y-72430350D01*
X119593405Y-72463835D01*
X119523713Y-72458851D01*
X119467781Y-72416981D01*
X119455583Y-72400687D01*
X119449420Y-72392454D01*
X119449418Y-72392453D01*
X119449418Y-72392452D01*
X119334209Y-72306206D01*
X119334202Y-72306202D01*
X119199356Y-72255908D01*
X119199357Y-72255908D01*
X119139757Y-72249501D01*
X119139755Y-72249500D01*
X119139747Y-72249500D01*
X119139738Y-72249500D01*
X115544003Y-72249500D01*
X115543997Y-72249501D01*
X115484390Y-72255908D01*
X115349545Y-72306202D01*
X115349538Y-72306206D01*
X115234329Y-72392452D01*
X115234326Y-72392455D01*
X115148080Y-72507664D01*
X115148076Y-72507671D01*
X115129862Y-72556507D01*
X115087991Y-72612441D01*
X115022526Y-72636858D01*
X114954253Y-72622006D01*
X114904848Y-72572601D01*
X114889855Y-72506594D01*
X114891873Y-72468615D01*
X114891874Y-72468578D01*
X114891874Y-71900000D01*
X113141874Y-71900000D01*
X113141874Y-71100000D01*
X114891873Y-71100000D01*
X114891873Y-70531423D01*
X114891872Y-70531411D01*
X114889079Y-70478808D01*
X114844636Y-70249012D01*
X114761994Y-70030024D01*
X114643534Y-69828158D01*
X114643529Y-69828151D01*
X114492662Y-69649213D01*
X114492660Y-69649211D01*
X114313722Y-69498344D01*
X114313715Y-69498339D01*
X114111849Y-69379879D01*
X113892861Y-69297237D01*
X113663064Y-69252794D01*
X113610491Y-69250001D01*
X113610453Y-69250000D01*
X113041874Y-69250000D01*
X113041874Y-70192894D01*
X112948881Y-70099901D01*
X112834867Y-70034075D01*
X112707700Y-70000000D01*
X112576048Y-70000000D01*
X112448881Y-70034075D01*
X112334867Y-70099901D01*
X112241874Y-70192894D01*
X112241874Y-69250000D01*
X111673297Y-69250000D01*
X111673285Y-69250001D01*
X111620682Y-69252794D01*
X111390886Y-69297237D01*
X111171898Y-69379879D01*
X110970032Y-69498339D01*
X110970025Y-69498344D01*
X110791087Y-69649211D01*
X110791085Y-69649213D01*
X110640218Y-69828151D01*
X110640213Y-69828158D01*
X110521753Y-70030024D01*
X110439111Y-70249012D01*
X110394668Y-70478808D01*
X110394668Y-70478809D01*
X110391875Y-70531382D01*
X110391874Y-70531421D01*
X110391874Y-71100000D01*
X112141874Y-71100000D01*
X112141874Y-71900000D01*
X110391875Y-71900000D01*
X110391875Y-72468588D01*
X110394668Y-72521191D01*
X110439111Y-72750987D01*
X110521753Y-72969975D01*
X110640213Y-73171841D01*
X110640218Y-73171848D01*
X110791085Y-73350786D01*
X110791087Y-73350788D01*
X110970025Y-73501655D01*
X110970032Y-73501660D01*
X111171898Y-73620120D01*
X111390886Y-73702762D01*
X111620683Y-73747205D01*
X111673256Y-73749998D01*
X111673295Y-73749999D01*
X112241873Y-73749999D01*
X112241874Y-73749998D01*
X112241874Y-72807106D01*
X112334867Y-72900099D01*
X112448881Y-72965925D01*
X112576048Y-73000000D01*
X112707700Y-73000000D01*
X112834867Y-72965925D01*
X112948881Y-72900099D01*
X113041874Y-72807106D01*
X113041874Y-73749999D01*
X113610450Y-73749999D01*
X113610462Y-73749998D01*
X113663065Y-73747205D01*
X113892861Y-73702762D01*
X114111849Y-73620120D01*
X114313715Y-73501660D01*
X114313722Y-73501655D01*
X114492660Y-73350788D01*
X114492662Y-73350786D01*
X114643529Y-73171848D01*
X114643534Y-73171841D01*
X114761994Y-72969975D01*
X114844636Y-72750986D01*
X114845630Y-72745851D01*
X114877685Y-72683769D01*
X114938216Y-72648872D01*
X115008004Y-72652240D01*
X115064893Y-72692805D01*
X115090820Y-72757686D01*
X115091374Y-72769395D01*
X115091374Y-76297870D01*
X115091375Y-76297876D01*
X115097782Y-76357483D01*
X115148076Y-76492328D01*
X115148080Y-76492335D01*
X115234326Y-76607544D01*
X115234329Y-76607547D01*
X115349538Y-76693793D01*
X115349545Y-76693797D01*
X115484391Y-76744091D01*
X115484390Y-76744091D01*
X115491318Y-76744835D01*
X115544001Y-76750500D01*
X119139746Y-76750499D01*
X119199357Y-76744091D01*
X119334205Y-76693796D01*
X119449420Y-76607546D01*
X119535670Y-76492331D01*
X119585965Y-76357483D01*
X119592374Y-76297873D01*
X119592373Y-75373051D01*
X119612057Y-75306013D01*
X119633713Y-75281686D01*
X119633474Y-75281447D01*
X119637608Y-75277312D01*
X119637714Y-75277194D01*
X119637771Y-75277145D01*
X119637782Y-75277139D01*
X119777139Y-75137782D01*
X119777139Y-75137780D01*
X119787343Y-75127577D01*
X119787346Y-75127572D01*
X122123102Y-72791819D01*
X122184425Y-72758334D01*
X122210783Y-72755500D01*
X122500000Y-72755500D01*
X122571940Y-72750355D01*
X122609259Y-72739396D01*
X122661841Y-72735636D01*
X122800000Y-72755500D01*
X122800003Y-72755500D01*
X123283193Y-72755500D01*
X123350232Y-72775185D01*
X123395987Y-72827989D01*
X123405931Y-72897147D01*
X123376906Y-72960703D01*
X123370874Y-72967181D01*
X122917113Y-73420943D01*
X122562220Y-73775836D01*
X122562218Y-73775838D01*
X122526422Y-73811634D01*
X122422859Y-73915196D01*
X122313371Y-74079056D01*
X122313364Y-74079069D01*
X122265722Y-74194090D01*
X122237950Y-74261137D01*
X122237947Y-74261149D01*
X122232172Y-74290182D01*
X122232172Y-74290183D01*
X122199500Y-74454433D01*
X122199500Y-75034217D01*
X122179815Y-75101256D01*
X122163181Y-75121898D01*
X121362220Y-75922859D01*
X121362218Y-75922861D01*
X121315183Y-75969896D01*
X121222859Y-76062219D01*
X121113371Y-76226080D01*
X121113364Y-76226093D01*
X121060331Y-76354130D01*
X121060330Y-76354132D01*
X121045735Y-76389364D01*
X121045736Y-76389365D01*
X121037950Y-76408161D01*
X121037947Y-76408169D01*
X120999500Y-76601456D01*
X120999500Y-77620500D01*
X120979815Y-77687539D01*
X120927011Y-77733294D01*
X120875500Y-77744500D01*
X120628110Y-77744500D01*
X120485703Y-77764974D01*
X120485691Y-77764977D01*
X120347741Y-77805483D01*
X120216863Y-77865252D01*
X120216861Y-77865254D01*
X120101523Y-77939376D01*
X120100083Y-77940196D01*
X120095901Y-77942988D01*
X119987169Y-78037207D01*
X119987166Y-78037210D01*
X119893018Y-78145864D01*
X119893015Y-78145867D01*
X119855007Y-78205011D01*
X119828919Y-78245606D01*
X119815231Y-78266905D01*
X119815223Y-78266918D01*
X119758263Y-78391643D01*
X119756015Y-78395939D01*
X119714966Y-78535738D01*
X119714963Y-78535748D01*
X119694503Y-78678059D01*
X119694503Y-78734399D01*
X119694500Y-78734409D01*
X119694500Y-79265573D01*
X119694503Y-79265601D01*
X119694503Y-79321939D01*
X119698238Y-79347917D01*
X119699500Y-79365564D01*
X119699500Y-82084217D01*
X119679815Y-82151256D01*
X119663181Y-82171898D01*
X106371897Y-95463181D01*
X106310574Y-95496666D01*
X106284216Y-95499500D01*
X105599998Y-95499500D01*
X105599980Y-95499501D01*
X105497203Y-95510000D01*
X105497200Y-95510001D01*
X105330668Y-95565185D01*
X105330663Y-95565187D01*
X105181342Y-95657289D01*
X105057289Y-95781342D01*
X104965187Y-95930663D01*
X104965186Y-95930666D01*
X104910001Y-96097203D01*
X104910001Y-96097204D01*
X104910000Y-96097204D01*
X104899500Y-96199983D01*
X101000500Y-96199983D01*
X101000500Y-87174983D01*
X104899500Y-87174983D01*
X104899500Y-88775001D01*
X104899501Y-88775018D01*
X104910000Y-88877796D01*
X104910001Y-88877799D01*
X104965185Y-89044331D01*
X104965187Y-89044336D01*
X104999226Y-89099522D01*
X105057288Y-89193656D01*
X105181344Y-89317712D01*
X105330666Y-89409814D01*
X105497203Y-89464999D01*
X105599991Y-89475500D01*
X106900008Y-89475499D01*
X107002797Y-89464999D01*
X107169334Y-89409814D01*
X107318656Y-89317712D01*
X107442712Y-89193656D01*
X107534814Y-89044334D01*
X107534814Y-89044331D01*
X107538448Y-89038441D01*
X107590395Y-88991716D01*
X107659358Y-88980493D01*
X107723440Y-89008336D01*
X107731668Y-89015856D01*
X107870535Y-89154723D01*
X107870540Y-89154727D01*
X108042442Y-89279620D01*
X108231779Y-89376094D01*
X108231785Y-89376096D01*
X108349999Y-89414505D01*
X108350000Y-89414505D01*
X109150000Y-89414505D01*
X109268214Y-89376096D01*
X109268220Y-89376094D01*
X109457557Y-89279620D01*
X109629459Y-89154727D01*
X109629464Y-89154723D01*
X109779723Y-89004464D01*
X109779727Y-89004459D01*
X109904620Y-88832557D01*
X110001095Y-88643217D01*
X110066757Y-88441129D01*
X110066757Y-88441126D01*
X110077231Y-88375000D01*
X109150000Y-88375000D01*
X109150000Y-89414505D01*
X108350000Y-89414505D01*
X108350000Y-88282106D01*
X108442993Y-88375099D01*
X108557007Y-88440925D01*
X108684174Y-88475000D01*
X108815826Y-88475000D01*
X108942993Y-88440925D01*
X109057007Y-88375099D01*
X109150099Y-88282007D01*
X109215925Y-88167993D01*
X109250000Y-88040826D01*
X109250000Y-87909174D01*
X109215925Y-87782007D01*
X109150099Y-87667993D01*
X109057106Y-87575000D01*
X109150000Y-87575000D01*
X110077231Y-87575000D01*
X110066757Y-87508873D01*
X110066757Y-87508870D01*
X110001095Y-87306782D01*
X109904620Y-87117442D01*
X109779727Y-86945540D01*
X109779723Y-86945535D01*
X109629464Y-86795276D01*
X109629459Y-86795272D01*
X109457557Y-86670379D01*
X109268222Y-86573907D01*
X109150000Y-86535494D01*
X109150000Y-87575000D01*
X109057106Y-87575000D01*
X109057007Y-87574901D01*
X108942993Y-87509075D01*
X108815826Y-87475000D01*
X108684174Y-87475000D01*
X108557007Y-87509075D01*
X108442993Y-87574901D01*
X108350000Y-87667894D01*
X108350000Y-86535494D01*
X108349999Y-86535494D01*
X108231777Y-86573907D01*
X108042442Y-86670379D01*
X107870541Y-86795271D01*
X107731668Y-86934144D01*
X107670345Y-86967628D01*
X107600653Y-86962644D01*
X107544720Y-86920772D01*
X107538448Y-86911558D01*
X107442712Y-86756344D01*
X107318657Y-86632289D01*
X107318656Y-86632288D01*
X107169334Y-86540186D01*
X107002797Y-86485001D01*
X107002795Y-86485000D01*
X106900010Y-86474500D01*
X105599998Y-86474500D01*
X105599981Y-86474501D01*
X105497203Y-86485000D01*
X105497200Y-86485001D01*
X105330668Y-86540185D01*
X105330663Y-86540187D01*
X105181342Y-86632289D01*
X105057289Y-86756342D01*
X104965187Y-86905663D01*
X104965185Y-86905668D01*
X104960180Y-86920772D01*
X104910001Y-87072203D01*
X104910001Y-87072204D01*
X104910000Y-87072204D01*
X104899500Y-87174983D01*
X101000500Y-87174983D01*
X101000500Y-81158130D01*
X108907553Y-81158130D01*
X109053668Y-81226264D01*
X109053682Y-81226269D01*
X109273389Y-81285139D01*
X109273400Y-81285141D01*
X109499998Y-81304966D01*
X109500002Y-81304966D01*
X109726599Y-81285141D01*
X109726610Y-81285139D01*
X109946317Y-81226269D01*
X109946326Y-81226265D01*
X110092445Y-81158129D01*
X109500001Y-80565685D01*
X109500000Y-80565685D01*
X108907553Y-81158130D01*
X101000500Y-81158130D01*
X101000500Y-79999998D01*
X108195034Y-79999998D01*
X108195034Y-80000002D01*
X108214858Y-80226599D01*
X108214860Y-80226610D01*
X108273730Y-80446317D01*
X108273735Y-80446331D01*
X108341868Y-80592445D01*
X109179920Y-79754394D01*
X109127259Y-79845606D01*
X109100000Y-79947339D01*
X109100000Y-80052661D01*
X109127259Y-80154394D01*
X109179920Y-80245606D01*
X109254394Y-80320080D01*
X109345606Y-80372741D01*
X109447339Y-80400000D01*
X109552661Y-80400000D01*
X109654394Y-80372741D01*
X109745606Y-80320080D01*
X109820080Y-80245606D01*
X109872741Y-80154394D01*
X109900000Y-80052661D01*
X109900000Y-79999999D01*
X110065685Y-79999999D01*
X110065685Y-80000000D01*
X110658129Y-80592444D01*
X110726265Y-80446326D01*
X110726269Y-80446317D01*
X110785139Y-80226610D01*
X110785141Y-80226599D01*
X110804966Y-80000002D01*
X110804966Y-79999997D01*
X110785141Y-79773400D01*
X110785139Y-79773389D01*
X110726269Y-79553682D01*
X110726264Y-79553668D01*
X110658130Y-79407553D01*
X110065685Y-79999999D01*
X109900000Y-79999999D01*
X109900000Y-79947339D01*
X109872741Y-79845606D01*
X109820080Y-79754394D01*
X109745606Y-79679920D01*
X109654394Y-79627259D01*
X109552661Y-79600000D01*
X109447339Y-79600000D01*
X109345606Y-79627259D01*
X109254395Y-79679919D01*
X109500000Y-79434315D01*
X110092445Y-78841869D01*
X110082962Y-78788088D01*
X110085303Y-78734462D01*
X110114203Y-78626606D01*
X110114204Y-78626599D01*
X110134029Y-78400002D01*
X110134029Y-78399997D01*
X110114204Y-78173400D01*
X110114202Y-78173389D01*
X110055332Y-77953682D01*
X110055327Y-77953668D01*
X109987193Y-77807553D01*
X109149145Y-78645602D01*
X109201804Y-78554394D01*
X109229063Y-78452661D01*
X109229063Y-78347339D01*
X109201804Y-78245606D01*
X109149143Y-78154394D01*
X109074669Y-78079920D01*
X108983457Y-78027259D01*
X108881724Y-78000000D01*
X108776402Y-78000000D01*
X108674669Y-78027259D01*
X108583457Y-78079920D01*
X108508983Y-78154394D01*
X108456322Y-78245606D01*
X108429063Y-78347339D01*
X108429063Y-78452661D01*
X108456322Y-78554394D01*
X108508983Y-78645606D01*
X108583457Y-78720080D01*
X108674669Y-78772741D01*
X108776402Y-78800000D01*
X108881724Y-78800000D01*
X108983457Y-78772741D01*
X109074665Y-78720081D01*
X108829063Y-78965685D01*
X108236616Y-79558130D01*
X108246100Y-79611912D01*
X108243759Y-79665537D01*
X108214859Y-79773392D01*
X108214859Y-79773396D01*
X108195034Y-79999998D01*
X101000500Y-79999998D01*
X101000500Y-75952135D01*
X104357626Y-75952135D01*
X104357626Y-77647870D01*
X104357627Y-77647876D01*
X104364034Y-77707483D01*
X104414328Y-77842328D01*
X104414332Y-77842335D01*
X104500578Y-77957544D01*
X104500581Y-77957547D01*
X104615790Y-78043793D01*
X104615797Y-78043797D01*
X104660744Y-78060561D01*
X104750643Y-78094091D01*
X104810253Y-78100500D01*
X104904563Y-78100499D01*
X104971601Y-78120183D01*
X105017357Y-78172986D01*
X105028563Y-78224499D01*
X105028563Y-79247870D01*
X105028564Y-79247876D01*
X105034971Y-79307483D01*
X105085265Y-79442328D01*
X105085269Y-79442335D01*
X105171515Y-79557544D01*
X105171518Y-79557547D01*
X105286727Y-79643793D01*
X105286734Y-79643797D01*
X105421580Y-79694091D01*
X105421579Y-79694091D01*
X105428507Y-79694835D01*
X105481190Y-79700500D01*
X107176935Y-79700499D01*
X107236546Y-79694091D01*
X107371394Y-79643796D01*
X107486609Y-79557546D01*
X107572859Y-79442331D01*
X107623154Y-79307483D01*
X107629563Y-79247873D01*
X107629562Y-79085173D01*
X107649246Y-79018137D01*
X107665881Y-78997495D01*
X108263378Y-78400000D01*
X107665881Y-77802503D01*
X107632396Y-77741180D01*
X107629562Y-77714822D01*
X107629562Y-77552129D01*
X107629561Y-77552123D01*
X107628405Y-77541370D01*
X107623154Y-77492517D01*
X107615556Y-77472147D01*
X107572860Y-77357671D01*
X107572856Y-77357664D01*
X107486610Y-77242455D01*
X107486607Y-77242452D01*
X107485827Y-77241868D01*
X108236616Y-77241868D01*
X108829063Y-77834315D01*
X108829064Y-77834315D01*
X109421507Y-77241869D01*
X109275385Y-77173732D01*
X109275380Y-77173730D01*
X109055673Y-77114860D01*
X109055662Y-77114858D01*
X108829065Y-77095034D01*
X108829061Y-77095034D01*
X108602463Y-77114858D01*
X108602452Y-77114860D01*
X108382743Y-77173731D01*
X108236616Y-77241868D01*
X107485827Y-77241868D01*
X107371398Y-77156206D01*
X107371391Y-77156202D01*
X107236545Y-77105908D01*
X107236546Y-77105908D01*
X107176946Y-77099501D01*
X107176944Y-77099500D01*
X107176936Y-77099500D01*
X107176928Y-77099500D01*
X107082625Y-77099500D01*
X107015586Y-77079815D01*
X106969831Y-77027011D01*
X106958625Y-76975500D01*
X106958625Y-75952129D01*
X106958624Y-75952123D01*
X106958623Y-75952116D01*
X106952217Y-75892517D01*
X106934475Y-75844949D01*
X106901923Y-75757671D01*
X106901919Y-75757664D01*
X106815673Y-75642455D01*
X106815670Y-75642452D01*
X106700461Y-75556206D01*
X106700454Y-75556202D01*
X106565608Y-75505908D01*
X106565609Y-75505908D01*
X106506009Y-75499501D01*
X106506007Y-75499500D01*
X106505999Y-75499500D01*
X106505990Y-75499500D01*
X104810255Y-75499500D01*
X104810249Y-75499501D01*
X104750642Y-75505908D01*
X104615797Y-75556202D01*
X104615790Y-75556206D01*
X104500581Y-75642452D01*
X104500578Y-75642455D01*
X104414332Y-75757664D01*
X104414328Y-75757671D01*
X104364034Y-75892517D01*
X104360772Y-75922862D01*
X104357627Y-75952123D01*
X104357626Y-75952135D01*
X101000500Y-75952135D01*
X101000500Y-67002424D01*
X101000548Y-67000000D01*
X102995176Y-67000000D01*
X103014461Y-67392550D01*
X103072129Y-67781308D01*
X103167625Y-68162549D01*
X103300016Y-68532559D01*
X103300023Y-68532575D01*
X103468062Y-68887864D01*
X103670109Y-69224958D01*
X103899737Y-69534576D01*
X105511855Y-67922458D01*
X105541806Y-67974334D01*
X105681457Y-68156331D01*
X105843669Y-68318543D01*
X106025666Y-68458194D01*
X106077540Y-68488143D01*
X104465422Y-70100261D01*
X104775041Y-70329890D01*
X105112135Y-70531937D01*
X105467424Y-70699976D01*
X105467440Y-70699983D01*
X105837450Y-70832374D01*
X106218691Y-70927870D01*
X106607449Y-70985538D01*
X107000000Y-71004823D01*
X107392550Y-70985538D01*
X107781308Y-70927870D01*
X108162549Y-70832374D01*
X108532559Y-70699983D01*
X108532575Y-70699976D01*
X108887864Y-70531937D01*
X109224958Y-70329890D01*
X109534576Y-70100261D01*
X107922459Y-68488144D01*
X107974334Y-68458194D01*
X108156331Y-68318543D01*
X108318543Y-68156331D01*
X108458194Y-67974334D01*
X108488144Y-67922459D01*
X110100261Y-69534576D01*
X110329890Y-69224958D01*
X110531937Y-68887864D01*
X110699976Y-68532575D01*
X110699983Y-68532559D01*
X110832374Y-68162549D01*
X110927870Y-67781308D01*
X110942037Y-67685803D01*
X115091874Y-67685803D01*
X115091874Y-68100000D01*
X116034768Y-68100000D01*
X115941775Y-68192993D01*
X115875949Y-68307007D01*
X115841874Y-68434174D01*
X115841874Y-68565826D01*
X115875949Y-68692993D01*
X115941775Y-68807007D01*
X116034768Y-68900000D01*
X115091875Y-68900000D01*
X115091875Y-69314197D01*
X115102274Y-69446332D01*
X115157251Y-69664519D01*
X115250302Y-69869374D01*
X115250305Y-69869380D01*
X115378433Y-70054323D01*
X115378443Y-70054335D01*
X115537538Y-70213430D01*
X115537550Y-70213440D01*
X115722493Y-70341568D01*
X115722499Y-70341571D01*
X115927354Y-70434622D01*
X116145541Y-70489599D01*
X116277684Y-70499999D01*
X116941873Y-70499999D01*
X116941874Y-70499998D01*
X116941874Y-69000000D01*
X117741874Y-69000000D01*
X117741874Y-70499999D01*
X118406056Y-70499999D01*
X118406071Y-70499998D01*
X118538206Y-70489599D01*
X118756393Y-70434622D01*
X118961248Y-70341571D01*
X118961254Y-70341568D01*
X119146197Y-70213440D01*
X119146209Y-70213430D01*
X119305304Y-70054335D01*
X119305314Y-70054323D01*
X119433442Y-69869380D01*
X119433445Y-69869374D01*
X119526496Y-69664519D01*
X119581473Y-69446332D01*
X119591873Y-69314196D01*
X119591874Y-69314184D01*
X119591874Y-68900000D01*
X118648980Y-68900000D01*
X118741973Y-68807007D01*
X118807799Y-68692993D01*
X118841874Y-68565826D01*
X118841874Y-68434174D01*
X118807799Y-68307007D01*
X118741973Y-68192993D01*
X118648980Y-68100000D01*
X119591873Y-68100000D01*
X119591873Y-67685817D01*
X119591872Y-67685802D01*
X119581473Y-67553667D01*
X119526496Y-67335480D01*
X119433445Y-67130625D01*
X119433442Y-67130619D01*
X119305314Y-66945676D01*
X119305304Y-66945664D01*
X119146209Y-66786569D01*
X119146197Y-66786559D01*
X118961254Y-66658431D01*
X118961248Y-66658428D01*
X118756393Y-66565377D01*
X118538206Y-66510400D01*
X118406070Y-66500000D01*
X117741874Y-66500000D01*
X117741874Y-68000000D01*
X116941874Y-68000000D01*
X116941874Y-66500000D01*
X116277691Y-66500000D01*
X116277676Y-66500001D01*
X116145541Y-66510400D01*
X115927354Y-66565377D01*
X115722499Y-66658428D01*
X115722493Y-66658431D01*
X115537550Y-66786559D01*
X115537538Y-66786569D01*
X115378443Y-66945664D01*
X115378433Y-66945676D01*
X115250305Y-67130619D01*
X115250302Y-67130625D01*
X115157251Y-67335480D01*
X115102274Y-67553667D01*
X115091874Y-67685803D01*
X110942037Y-67685803D01*
X110985538Y-67392550D01*
X111004823Y-67000000D01*
X110985538Y-66607449D01*
X110927870Y-66218691D01*
X110832374Y-65837450D01*
X110699983Y-65467440D01*
X110699976Y-65467424D01*
X110531937Y-65112135D01*
X110329890Y-64775041D01*
X110100261Y-64465422D01*
X108488143Y-66077540D01*
X108458194Y-66025666D01*
X108318543Y-65843669D01*
X108156331Y-65681457D01*
X107974334Y-65541806D01*
X107922459Y-65511856D01*
X109534577Y-63899737D01*
X109224958Y-63670109D01*
X108887864Y-63468062D01*
X108532575Y-63300023D01*
X108532559Y-63300016D01*
X108162549Y-63167625D01*
X107781308Y-63072129D01*
X107392550Y-63014461D01*
X107000000Y-62995176D01*
X106607449Y-63014461D01*
X106218691Y-63072129D01*
X105837450Y-63167625D01*
X105467440Y-63300016D01*
X105467424Y-63300023D01*
X105112135Y-63468062D01*
X104775048Y-63670105D01*
X104775034Y-63670114D01*
X104465422Y-63899736D01*
X104465421Y-63899736D01*
X106077540Y-65511855D01*
X106025666Y-65541806D01*
X105843669Y-65681457D01*
X105681457Y-65843669D01*
X105541806Y-66025666D01*
X105511855Y-66077540D01*
X103899736Y-64465421D01*
X103899736Y-64465422D01*
X103670114Y-64775034D01*
X103670105Y-64775048D01*
X103468062Y-65112135D01*
X103300023Y-65467424D01*
X103300016Y-65467440D01*
X103167625Y-65837450D01*
X103072129Y-66218691D01*
X103014461Y-66607449D01*
X102995176Y-67000000D01*
X101000548Y-67000000D01*
X101000596Y-66997556D01*
X101004073Y-66909059D01*
X101018803Y-66534132D01*
X101019564Y-66524466D01*
X101073792Y-66066299D01*
X101075314Y-66056693D01*
X101081486Y-66025666D01*
X101165317Y-65604218D01*
X101167587Y-65594765D01*
X101292814Y-65150742D01*
X101295822Y-65141482D01*
X101306649Y-65112135D01*
X101455502Y-64708651D01*
X101459225Y-64699665D01*
X101471669Y-64672672D01*
X101652376Y-64280685D01*
X101656772Y-64272057D01*
X101882224Y-63869485D01*
X101887275Y-63861243D01*
X102143606Y-63477617D01*
X102149319Y-63469756D01*
X102434934Y-63107453D01*
X102441235Y-63100074D01*
X102754424Y-62761270D01*
X102761270Y-62754424D01*
X103100074Y-62441235D01*
X103107453Y-62434934D01*
X103469758Y-62149317D01*
X103477617Y-62143606D01*
X103861243Y-61887275D01*
X103869485Y-61882224D01*
X104272057Y-61656772D01*
X104280685Y-61652376D01*
X104699673Y-61459221D01*
X104708651Y-61455502D01*
X105141489Y-61295819D01*
X105150742Y-61292814D01*
X105594765Y-61167587D01*
X105604218Y-61165317D01*
X106056703Y-61075312D01*
X106066299Y-61073792D01*
X106524466Y-61019564D01*
X106534132Y-61018803D01*
X106997557Y-61000596D01*
X107002425Y-61000500D01*
X107065892Y-61000500D01*
X161434108Y-61000500D01*
X161497575Y-61000500D01*
X161502443Y-61000596D01*
G37*
G04 #@! TD.AperFunction*
M02*
