G04 #@! TF.GenerationSoftware,KiCad,Pcbnew,8.0.5-8.0.5-0~ubuntu24.04.1*
G04 #@! TF.CreationDate,2024-09-30T22:34:35+02:00*
G04 #@! TF.ProjectId,ESP32-C3_LED_driver_PCB,45535033-322d-4433-935f-4c45445f6472,v1.0*
G04 #@! TF.SameCoordinates,Original*
G04 #@! TF.FileFunction,Soldermask,Bot*
G04 #@! TF.FilePolarity,Negative*
%FSLAX46Y46*%
G04 Gerber Fmt 4.6, Leading zero omitted, Abs format (unit mm)*
G04 Created by KiCad (PCBNEW 8.0.5-8.0.5-0~ubuntu24.04.1) date 2024-09-30 22:34:35*
%MOMM*%
%LPD*%
G01*
G04 APERTURE LIST*
G04 Aperture macros list*
%AMRoundRect*
0 Rectangle with rounded corners*
0 $1 Rounding radius*
0 $2 $3 $4 $5 $6 $7 $8 $9 X,Y pos of 4 corners*
0 Add a 4 corners polygon primitive as box body*
4,1,4,$2,$3,$4,$5,$6,$7,$8,$9,$2,$3,0*
0 Add four circle primitives for the rounded corners*
1,1,$1+$1,$2,$3*
1,1,$1+$1,$4,$5*
1,1,$1+$1,$6,$7*
1,1,$1+$1,$8,$9*
0 Add four rect primitives between the rounded corners*
20,1,$1+$1,$2,$3,$4,$5,0*
20,1,$1+$1,$4,$5,$6,$7,0*
20,1,$1+$1,$6,$7,$8,$9,0*
20,1,$1+$1,$8,$9,$2,$3,0*%
%AMFreePoly0*
4,1,19,0.500000,-0.750000,0.000000,-0.750000,0.000000,-0.744911,-0.071157,-0.744911,-0.207708,-0.704816,-0.327430,-0.627875,-0.420627,-0.520320,-0.479746,-0.390866,-0.500000,-0.250000,-0.500000,0.250000,-0.479746,0.390866,-0.420627,0.520320,-0.327430,0.627875,-0.207708,0.704816,-0.071157,0.744911,0.000000,0.744911,0.000000,0.750000,0.500000,0.750000,0.500000,-0.750000,0.500000,-0.750000,
$1*%
%AMFreePoly1*
4,1,19,0.000000,0.744911,0.071157,0.744911,0.207708,0.704816,0.327430,0.627875,0.420627,0.520320,0.479746,0.390866,0.500000,0.250000,0.500000,-0.250000,0.479746,-0.390866,0.420627,-0.520320,0.327430,-0.627875,0.207708,-0.704816,0.071157,-0.744911,0.000000,-0.744911,0.000000,-0.750000,-0.500000,-0.750000,-0.500000,0.750000,0.000000,0.750000,0.000000,0.744911,0.000000,0.744911,
$1*%
G04 Aperture macros list end*
%ADD10R,1.500000X1.500000*%
%ADD11C,1.600000*%
%ADD12RoundRect,0.250000X-0.625000X0.400000X-0.625000X-0.400000X0.625000X-0.400000X0.625000X0.400000X0*%
%ADD13RoundRect,0.250000X0.625000X-0.400000X0.625000X0.400000X-0.625000X0.400000X-0.625000X-0.400000X0*%
%ADD14RoundRect,0.150000X-0.150000X0.587500X-0.150000X-0.587500X0.150000X-0.587500X0.150000X0.587500X0*%
%ADD15RoundRect,0.250000X0.600000X0.750000X-0.600000X0.750000X-0.600000X-0.750000X0.600000X-0.750000X0*%
%ADD16O,1.700000X2.000000*%
%ADD17O,1.700000X1.950000*%
%ADD18RoundRect,0.250000X0.600000X0.725000X-0.600000X0.725000X-0.600000X-0.725000X0.600000X-0.725000X0*%
%ADD19C,0.800000*%
%ADD20C,7.000000*%
%ADD21RoundRect,0.250000X-0.600000X-0.750000X0.600000X-0.750000X0.600000X0.750000X-0.600000X0.750000X0*%
%ADD22RoundRect,0.250000X0.400000X0.625000X-0.400000X0.625000X-0.400000X-0.625000X0.400000X-0.625000X0*%
%ADD23R,1.600000X1.600000*%
%ADD24RoundRect,0.250000X-0.400000X-0.625000X0.400000X-0.625000X0.400000X0.625000X-0.400000X0.625000X0*%
%ADD25O,3.500000X3.500000*%
%ADD26R,1.905000X2.000000*%
%ADD27O,1.905000X2.000000*%
%ADD28RoundRect,0.150000X0.587500X0.150000X-0.587500X0.150000X-0.587500X-0.150000X0.587500X-0.150000X0*%
%ADD29FreePoly0,180.000000*%
%ADD30FreePoly1,180.000000*%
%ADD31FreePoly1,0.000000*%
%ADD32FreePoly0,0.000000*%
%ADD33RoundRect,0.250000X-0.600000X-0.725000X0.600000X-0.725000X0.600000X0.725000X-0.600000X0.725000X0*%
%ADD34C,2.109000*%
%ADD35RoundRect,0.250000X-0.725000X0.600000X-0.725000X-0.600000X0.725000X-0.600000X0.725000X0.600000X0*%
%ADD36O,1.950000X1.700000*%
%ADD37R,3.500000X3.500000*%
%ADD38RoundRect,0.750000X-1.000000X0.750000X-1.000000X-0.750000X1.000000X-0.750000X1.000000X0.750000X0*%
%ADD39RoundRect,0.875000X-0.875000X0.875000X-0.875000X-0.875000X0.875000X-0.875000X0.875000X0.875000X0*%
%ADD40RoundRect,0.250000X0.725000X-0.600000X0.725000X0.600000X-0.725000X0.600000X-0.725000X-0.600000X0*%
G04 APERTURE END LIST*
D10*
X161960000Y-103500000D03*
D11*
X159420000Y-103500000D03*
X164500000Y-103500000D03*
D12*
X149000000Y-90950000D03*
X149000000Y-94050000D03*
D13*
X149000000Y-88550000D03*
X149000000Y-85450000D03*
D14*
X147000000Y-96500000D03*
X148900000Y-96500000D03*
X147950000Y-98375000D03*
D15*
X150000000Y-101000000D03*
D16*
X147500000Y-101000000D03*
D17*
X135000000Y-101000000D03*
X137500000Y-101000000D03*
D18*
X140000000Y-101000000D03*
D19*
X109625000Y-67000000D03*
X108856155Y-68856155D03*
X108856155Y-65143845D03*
X107000000Y-69625000D03*
D20*
X107000000Y-67000000D03*
D19*
X107000000Y-64375000D03*
X105143845Y-68856155D03*
X105143845Y-65143845D03*
X104375000Y-67000000D03*
X158875000Y-67000000D03*
X159643845Y-65143845D03*
X159643845Y-68856155D03*
X161500000Y-64375000D03*
D20*
X161500000Y-67000000D03*
D19*
X161500000Y-69625000D03*
X163356155Y-65143845D03*
X163356155Y-68856155D03*
X164125000Y-67000000D03*
X104375000Y-114500000D03*
X105143845Y-112643845D03*
X105143845Y-116356155D03*
X107000000Y-111875000D03*
D20*
X107000000Y-114500000D03*
D19*
X107000000Y-117125000D03*
X108856155Y-112643845D03*
X108856155Y-116356155D03*
X109625000Y-114500000D03*
X164125000Y-114500000D03*
X163356155Y-116356155D03*
X163356155Y-112643845D03*
X161500000Y-117125000D03*
D20*
X161500000Y-114500000D03*
D19*
X161500000Y-111875000D03*
X159643845Y-116356155D03*
X159643845Y-112643845D03*
X158875000Y-114500000D03*
D12*
X144700000Y-107950000D03*
X144700000Y-104850000D03*
D21*
X151250000Y-116000000D03*
D16*
X153750000Y-116000000D03*
D22*
X137050000Y-112750000D03*
X133950000Y-112750000D03*
D17*
X135000000Y-92000000D03*
X137500000Y-92000000D03*
X140000000Y-92000000D03*
X142500000Y-92000000D03*
D18*
X145000000Y-92000000D03*
D14*
X153750000Y-112100000D03*
X154700000Y-110225000D03*
X152800000Y-110225000D03*
D11*
X130000000Y-74500000D03*
X129329063Y-72900000D03*
D23*
X126829063Y-72900000D03*
X126158126Y-71300000D03*
D14*
X141950000Y-110225000D03*
X143850000Y-110225000D03*
X142900000Y-112100000D03*
D12*
X141950000Y-104850000D03*
X141950000Y-107950000D03*
D21*
X142250000Y-116000000D03*
D16*
X144750000Y-116000000D03*
D24*
X132450000Y-97000000D03*
X135550000Y-97000000D03*
D12*
X155500000Y-107950000D03*
X155500000Y-104850000D03*
D25*
X117500000Y-95470000D03*
D26*
X120040000Y-112130000D03*
D27*
X117500000Y-112130000D03*
X114960000Y-112130000D03*
D28*
X129625000Y-102450000D03*
X131500000Y-103400000D03*
X131500000Y-101500000D03*
D22*
X137050000Y-110050000D03*
X133950000Y-110050000D03*
D29*
X123300000Y-71500000D03*
D30*
X122000000Y-71500000D03*
D28*
X131500000Y-109500000D03*
X131500000Y-111400000D03*
X129625000Y-110450000D03*
D31*
X122000000Y-79000000D03*
D32*
X120700000Y-79000000D03*
D21*
X133250000Y-116000000D03*
D16*
X135750000Y-116000000D03*
D22*
X133950000Y-107350000D03*
X137050000Y-107350000D03*
D12*
X150100000Y-104850000D03*
X150100000Y-107950000D03*
D28*
X131500000Y-105600000D03*
X131500000Y-107500000D03*
X129625000Y-106550000D03*
D33*
X126341874Y-63500000D03*
D17*
X128841874Y-63500000D03*
X131341874Y-63500000D03*
D22*
X133950000Y-104650000D03*
X137050000Y-104650000D03*
D21*
X106250000Y-87975000D03*
D16*
X108750000Y-87975000D03*
D34*
X155120000Y-66140000D03*
X139880000Y-81380000D03*
X139880000Y-78840000D03*
X139880000Y-76300000D03*
X139880000Y-73760000D03*
X139880000Y-71220000D03*
X139880000Y-68680000D03*
X139880000Y-66140000D03*
X155120000Y-63600000D03*
X139880000Y-63600000D03*
X155120000Y-71220000D03*
X155120000Y-68680000D03*
X155120000Y-73760000D03*
X155120000Y-76300000D03*
X155120000Y-78840000D03*
X155120000Y-81380000D03*
D35*
X163025000Y-74500000D03*
D36*
X163025000Y-77000000D03*
X163025000Y-79500000D03*
X163025000Y-82000000D03*
X163025000Y-84500000D03*
D21*
X153000000Y-92000000D03*
D16*
X155500000Y-92000000D03*
D37*
X117341874Y-74500000D03*
D38*
X117341874Y-68500000D03*
D39*
X112641874Y-71500000D03*
D12*
X147400000Y-104850000D03*
X147400000Y-107950000D03*
D40*
X127000000Y-109000000D03*
D36*
X127000000Y-106500000D03*
X127000000Y-104000000D03*
X127000000Y-101500000D03*
D32*
X123200000Y-75500000D03*
D31*
X124500000Y-75500000D03*
D12*
X152800000Y-104850000D03*
X152800000Y-107950000D03*
D35*
X163000000Y-91000000D03*
D36*
X163000000Y-93500000D03*
X163000000Y-96000000D03*
D33*
X126341874Y-81500000D03*
D17*
X128841874Y-81500000D03*
X131341874Y-81500000D03*
D11*
X127670937Y-94100000D03*
X127000000Y-92500000D03*
D23*
X124500000Y-92500000D03*
X123829063Y-90900000D03*
D14*
X147400000Y-110175000D03*
X149300000Y-110175000D03*
X148350000Y-112050000D03*
D16*
X108750000Y-97000000D03*
D21*
X106250000Y-97000000D03*
D23*
X105658126Y-76800000D03*
X106329063Y-78400000D03*
D11*
X108829063Y-78400000D03*
X109500000Y-80000000D03*
D12*
X129500000Y-96450000D03*
X129500000Y-99550000D03*
M02*
