G04 #@! TF.GenerationSoftware,KiCad,Pcbnew,8.0.5-8.0.5-0~ubuntu24.04.1*
G04 #@! TF.CreationDate,2024-09-30T22:34:35+02:00*
G04 #@! TF.ProjectId,ESP32-C3_LED_driver_PCB,45535033-322d-4433-935f-4c45445f6472,v1.0*
G04 #@! TF.SameCoordinates,Original*
G04 #@! TF.FileFunction,Legend,Bot*
G04 #@! TF.FilePolarity,Positive*
%FSLAX46Y46*%
G04 Gerber Fmt 4.6, Leading zero omitted, Abs format (unit mm)*
G04 Created by KiCad (PCBNEW 8.0.5-8.0.5-0~ubuntu24.04.1) date 2024-09-30 22:34:35*
%MOMM*%
%LPD*%
G01*
G04 APERTURE LIST*
G04 Aperture macros list*
%AMRoundRect*
0 Rectangle with rounded corners*
0 $1 Rounding radius*
0 $2 $3 $4 $5 $6 $7 $8 $9 X,Y pos of 4 corners*
0 Add a 4 corners polygon primitive as box body*
4,1,4,$2,$3,$4,$5,$6,$7,$8,$9,$2,$3,0*
0 Add four circle primitives for the rounded corners*
1,1,$1+$1,$2,$3*
1,1,$1+$1,$4,$5*
1,1,$1+$1,$6,$7*
1,1,$1+$1,$8,$9*
0 Add four rect primitives between the rounded corners*
20,1,$1+$1,$2,$3,$4,$5,0*
20,1,$1+$1,$4,$5,$6,$7,0*
20,1,$1+$1,$6,$7,$8,$9,0*
20,1,$1+$1,$8,$9,$2,$3,0*%
%AMFreePoly0*
4,1,19,0.500000,-0.750000,0.000000,-0.750000,0.000000,-0.744911,-0.071157,-0.744911,-0.207708,-0.704816,-0.327430,-0.627875,-0.420627,-0.520320,-0.479746,-0.390866,-0.500000,-0.250000,-0.500000,0.250000,-0.479746,0.390866,-0.420627,0.520320,-0.327430,0.627875,-0.207708,0.704816,-0.071157,0.744911,0.000000,0.744911,0.000000,0.750000,0.500000,0.750000,0.500000,-0.750000,0.500000,-0.750000,
$1*%
%AMFreePoly1*
4,1,19,0.000000,0.744911,0.071157,0.744911,0.207708,0.704816,0.327430,0.627875,0.420627,0.520320,0.479746,0.390866,0.500000,0.250000,0.500000,-0.250000,0.479746,-0.390866,0.420627,-0.520320,0.327430,-0.627875,0.207708,-0.704816,0.071157,-0.744911,0.000000,-0.744911,0.000000,-0.750000,-0.500000,-0.750000,-0.500000,0.750000,0.000000,0.750000,0.000000,0.744911,0.000000,0.744911,
$1*%
G04 Aperture macros list end*
%ADD10C,0.150000*%
%ADD11C,0.200000*%
%ADD12C,0.120000*%
%ADD13R,1.500000X1.500000*%
%ADD14C,1.600000*%
%ADD15RoundRect,0.250000X-0.625000X0.400000X-0.625000X-0.400000X0.625000X-0.400000X0.625000X0.400000X0*%
%ADD16RoundRect,0.250000X0.625000X-0.400000X0.625000X0.400000X-0.625000X0.400000X-0.625000X-0.400000X0*%
%ADD17RoundRect,0.150000X-0.150000X0.587500X-0.150000X-0.587500X0.150000X-0.587500X0.150000X0.587500X0*%
%ADD18RoundRect,0.250000X0.600000X0.750000X-0.600000X0.750000X-0.600000X-0.750000X0.600000X-0.750000X0*%
%ADD19O,1.700000X2.000000*%
%ADD20O,1.700000X1.950000*%
%ADD21RoundRect,0.250000X0.600000X0.725000X-0.600000X0.725000X-0.600000X-0.725000X0.600000X-0.725000X0*%
%ADD22C,0.800000*%
%ADD23C,7.000000*%
%ADD24RoundRect,0.250000X-0.600000X-0.750000X0.600000X-0.750000X0.600000X0.750000X-0.600000X0.750000X0*%
%ADD25RoundRect,0.250000X0.400000X0.625000X-0.400000X0.625000X-0.400000X-0.625000X0.400000X-0.625000X0*%
%ADD26R,1.600000X1.600000*%
%ADD27RoundRect,0.250000X-0.400000X-0.625000X0.400000X-0.625000X0.400000X0.625000X-0.400000X0.625000X0*%
%ADD28O,3.500000X3.500000*%
%ADD29R,1.905000X2.000000*%
%ADD30O,1.905000X2.000000*%
%ADD31RoundRect,0.150000X0.587500X0.150000X-0.587500X0.150000X-0.587500X-0.150000X0.587500X-0.150000X0*%
%ADD32FreePoly0,180.000000*%
%ADD33FreePoly1,180.000000*%
%ADD34FreePoly1,0.000000*%
%ADD35FreePoly0,0.000000*%
%ADD36RoundRect,0.250000X-0.600000X-0.725000X0.600000X-0.725000X0.600000X0.725000X-0.600000X0.725000X0*%
%ADD37C,2.109000*%
%ADD38RoundRect,0.250000X-0.725000X0.600000X-0.725000X-0.600000X0.725000X-0.600000X0.725000X0.600000X0*%
%ADD39O,1.950000X1.700000*%
%ADD40R,3.500000X3.500000*%
%ADD41RoundRect,0.750000X-1.000000X0.750000X-1.000000X-0.750000X1.000000X-0.750000X1.000000X0.750000X0*%
%ADD42RoundRect,0.875000X-0.875000X0.875000X-0.875000X-0.875000X0.875000X-0.875000X0.875000X0.875000X0*%
%ADD43RoundRect,0.250000X0.725000X-0.600000X0.725000X0.600000X-0.725000X0.600000X-0.725000X-0.600000X0*%
G04 APERTURE END LIST*
D10*
X147591792Y-83774580D02*
X147639411Y-83822200D01*
X147639411Y-83822200D02*
X147782268Y-83869819D01*
X147782268Y-83869819D02*
X147877506Y-83869819D01*
X147877506Y-83869819D02*
X148020363Y-83822200D01*
X148020363Y-83822200D02*
X148115601Y-83726961D01*
X148115601Y-83726961D02*
X148163220Y-83631723D01*
X148163220Y-83631723D02*
X148210839Y-83441247D01*
X148210839Y-83441247D02*
X148210839Y-83298390D01*
X148210839Y-83298390D02*
X148163220Y-83107914D01*
X148163220Y-83107914D02*
X148115601Y-83012676D01*
X148115601Y-83012676D02*
X148020363Y-82917438D01*
X148020363Y-82917438D02*
X147877506Y-82869819D01*
X147877506Y-82869819D02*
X147782268Y-82869819D01*
X147782268Y-82869819D02*
X147639411Y-82917438D01*
X147639411Y-82917438D02*
X147591792Y-82965057D01*
X147020363Y-83869819D02*
X147115601Y-83822200D01*
X147115601Y-83822200D02*
X147163220Y-83774580D01*
X147163220Y-83774580D02*
X147210839Y-83679342D01*
X147210839Y-83679342D02*
X147210839Y-83393628D01*
X147210839Y-83393628D02*
X147163220Y-83298390D01*
X147163220Y-83298390D02*
X147115601Y-83250771D01*
X147115601Y-83250771D02*
X147020363Y-83203152D01*
X147020363Y-83203152D02*
X146877506Y-83203152D01*
X146877506Y-83203152D02*
X146782268Y-83250771D01*
X146782268Y-83250771D02*
X146734649Y-83298390D01*
X146734649Y-83298390D02*
X146687030Y-83393628D01*
X146687030Y-83393628D02*
X146687030Y-83679342D01*
X146687030Y-83679342D02*
X146734649Y-83774580D01*
X146734649Y-83774580D02*
X146782268Y-83822200D01*
X146782268Y-83822200D02*
X146877506Y-83869819D01*
X146877506Y-83869819D02*
X147020363Y-83869819D01*
X145829887Y-83869819D02*
X145829887Y-82869819D01*
X145829887Y-83822200D02*
X145925125Y-83869819D01*
X145925125Y-83869819D02*
X146115601Y-83869819D01*
X146115601Y-83869819D02*
X146210839Y-83822200D01*
X146210839Y-83822200D02*
X146258458Y-83774580D01*
X146258458Y-83774580D02*
X146306077Y-83679342D01*
X146306077Y-83679342D02*
X146306077Y-83393628D01*
X146306077Y-83393628D02*
X146258458Y-83298390D01*
X146258458Y-83298390D02*
X146210839Y-83250771D01*
X146210839Y-83250771D02*
X146115601Y-83203152D01*
X146115601Y-83203152D02*
X145925125Y-83203152D01*
X145925125Y-83203152D02*
X145829887Y-83250771D01*
X144972744Y-83822200D02*
X145067982Y-83869819D01*
X145067982Y-83869819D02*
X145258458Y-83869819D01*
X145258458Y-83869819D02*
X145353696Y-83822200D01*
X145353696Y-83822200D02*
X145401315Y-83726961D01*
X145401315Y-83726961D02*
X145401315Y-83346009D01*
X145401315Y-83346009D02*
X145353696Y-83250771D01*
X145353696Y-83250771D02*
X145258458Y-83203152D01*
X145258458Y-83203152D02*
X145067982Y-83203152D01*
X145067982Y-83203152D02*
X144972744Y-83250771D01*
X144972744Y-83250771D02*
X144925125Y-83346009D01*
X144925125Y-83346009D02*
X144925125Y-83441247D01*
X144925125Y-83441247D02*
X145401315Y-83536485D01*
X144496553Y-83774580D02*
X144448934Y-83822200D01*
X144448934Y-83822200D02*
X144496553Y-83869819D01*
X144496553Y-83869819D02*
X144544172Y-83822200D01*
X144544172Y-83822200D02*
X144496553Y-83774580D01*
X144496553Y-83774580D02*
X144496553Y-83869819D01*
X144496553Y-83250771D02*
X144448934Y-83298390D01*
X144448934Y-83298390D02*
X144496553Y-83346009D01*
X144496553Y-83346009D02*
X144544172Y-83298390D01*
X144544172Y-83298390D02*
X144496553Y-83250771D01*
X144496553Y-83250771D02*
X144496553Y-83346009D01*
X143258458Y-83869819D02*
X143258458Y-82869819D01*
X142829887Y-83869819D02*
X142829887Y-83346009D01*
X142829887Y-83346009D02*
X142877506Y-83250771D01*
X142877506Y-83250771D02*
X142972744Y-83203152D01*
X142972744Y-83203152D02*
X143115601Y-83203152D01*
X143115601Y-83203152D02*
X143210839Y-83250771D01*
X143210839Y-83250771D02*
X143258458Y-83298390D01*
X142496553Y-83203152D02*
X142115601Y-83203152D01*
X142353696Y-82869819D02*
X142353696Y-83726961D01*
X142353696Y-83726961D02*
X142306077Y-83822200D01*
X142306077Y-83822200D02*
X142210839Y-83869819D01*
X142210839Y-83869819D02*
X142115601Y-83869819D01*
X141925124Y-83203152D02*
X141544172Y-83203152D01*
X141782267Y-82869819D02*
X141782267Y-83726961D01*
X141782267Y-83726961D02*
X141734648Y-83822200D01*
X141734648Y-83822200D02*
X141639410Y-83869819D01*
X141639410Y-83869819D02*
X141544172Y-83869819D01*
X141210838Y-83203152D02*
X141210838Y-84203152D01*
X141210838Y-83250771D02*
X141115600Y-83203152D01*
X141115600Y-83203152D02*
X140925124Y-83203152D01*
X140925124Y-83203152D02*
X140829886Y-83250771D01*
X140829886Y-83250771D02*
X140782267Y-83298390D01*
X140782267Y-83298390D02*
X140734648Y-83393628D01*
X140734648Y-83393628D02*
X140734648Y-83679342D01*
X140734648Y-83679342D02*
X140782267Y-83774580D01*
X140782267Y-83774580D02*
X140829886Y-83822200D01*
X140829886Y-83822200D02*
X140925124Y-83869819D01*
X140925124Y-83869819D02*
X141115600Y-83869819D01*
X141115600Y-83869819D02*
X141210838Y-83822200D01*
X140353695Y-83822200D02*
X140258457Y-83869819D01*
X140258457Y-83869819D02*
X140067981Y-83869819D01*
X140067981Y-83869819D02*
X139972743Y-83822200D01*
X139972743Y-83822200D02*
X139925124Y-83726961D01*
X139925124Y-83726961D02*
X139925124Y-83679342D01*
X139925124Y-83679342D02*
X139972743Y-83584104D01*
X139972743Y-83584104D02*
X140067981Y-83536485D01*
X140067981Y-83536485D02*
X140210838Y-83536485D01*
X140210838Y-83536485D02*
X140306076Y-83488866D01*
X140306076Y-83488866D02*
X140353695Y-83393628D01*
X140353695Y-83393628D02*
X140353695Y-83346009D01*
X140353695Y-83346009D02*
X140306076Y-83250771D01*
X140306076Y-83250771D02*
X140210838Y-83203152D01*
X140210838Y-83203152D02*
X140067981Y-83203152D01*
X140067981Y-83203152D02*
X139972743Y-83250771D01*
X139496552Y-83774580D02*
X139448933Y-83822200D01*
X139448933Y-83822200D02*
X139496552Y-83869819D01*
X139496552Y-83869819D02*
X139544171Y-83822200D01*
X139544171Y-83822200D02*
X139496552Y-83774580D01*
X139496552Y-83774580D02*
X139496552Y-83869819D01*
X139496552Y-83250771D02*
X139448933Y-83298390D01*
X139448933Y-83298390D02*
X139496552Y-83346009D01*
X139496552Y-83346009D02*
X139544171Y-83298390D01*
X139544171Y-83298390D02*
X139496552Y-83250771D01*
X139496552Y-83250771D02*
X139496552Y-83346009D01*
X138306077Y-82822200D02*
X139163219Y-84107914D01*
X137258458Y-82822200D02*
X138115600Y-84107914D01*
X136496553Y-83203152D02*
X136496553Y-84012676D01*
X136496553Y-84012676D02*
X136544172Y-84107914D01*
X136544172Y-84107914D02*
X136591791Y-84155533D01*
X136591791Y-84155533D02*
X136687029Y-84203152D01*
X136687029Y-84203152D02*
X136829886Y-84203152D01*
X136829886Y-84203152D02*
X136925124Y-84155533D01*
X136496553Y-83822200D02*
X136591791Y-83869819D01*
X136591791Y-83869819D02*
X136782267Y-83869819D01*
X136782267Y-83869819D02*
X136877505Y-83822200D01*
X136877505Y-83822200D02*
X136925124Y-83774580D01*
X136925124Y-83774580D02*
X136972743Y-83679342D01*
X136972743Y-83679342D02*
X136972743Y-83393628D01*
X136972743Y-83393628D02*
X136925124Y-83298390D01*
X136925124Y-83298390D02*
X136877505Y-83250771D01*
X136877505Y-83250771D02*
X136782267Y-83203152D01*
X136782267Y-83203152D02*
X136591791Y-83203152D01*
X136591791Y-83203152D02*
X136496553Y-83250771D01*
X136020362Y-83869819D02*
X136020362Y-83203152D01*
X136020362Y-82869819D02*
X136067981Y-82917438D01*
X136067981Y-82917438D02*
X136020362Y-82965057D01*
X136020362Y-82965057D02*
X135972743Y-82917438D01*
X135972743Y-82917438D02*
X136020362Y-82869819D01*
X136020362Y-82869819D02*
X136020362Y-82965057D01*
X135687029Y-83203152D02*
X135306077Y-83203152D01*
X135544172Y-82869819D02*
X135544172Y-83726961D01*
X135544172Y-83726961D02*
X135496553Y-83822200D01*
X135496553Y-83822200D02*
X135401315Y-83869819D01*
X135401315Y-83869819D02*
X135306077Y-83869819D01*
X134972743Y-83869819D02*
X134972743Y-82869819D01*
X134544172Y-83869819D02*
X134544172Y-83346009D01*
X134544172Y-83346009D02*
X134591791Y-83250771D01*
X134591791Y-83250771D02*
X134687029Y-83203152D01*
X134687029Y-83203152D02*
X134829886Y-83203152D01*
X134829886Y-83203152D02*
X134925124Y-83250771D01*
X134925124Y-83250771D02*
X134972743Y-83298390D01*
X133639410Y-83203152D02*
X133639410Y-83869819D01*
X134067981Y-83203152D02*
X134067981Y-83726961D01*
X134067981Y-83726961D02*
X134020362Y-83822200D01*
X134020362Y-83822200D02*
X133925124Y-83869819D01*
X133925124Y-83869819D02*
X133782267Y-83869819D01*
X133782267Y-83869819D02*
X133687029Y-83822200D01*
X133687029Y-83822200D02*
X133639410Y-83774580D01*
X133163219Y-83869819D02*
X133163219Y-82869819D01*
X133163219Y-83250771D02*
X133067981Y-83203152D01*
X133067981Y-83203152D02*
X132877505Y-83203152D01*
X132877505Y-83203152D02*
X132782267Y-83250771D01*
X132782267Y-83250771D02*
X132734648Y-83298390D01*
X132734648Y-83298390D02*
X132687029Y-83393628D01*
X132687029Y-83393628D02*
X132687029Y-83679342D01*
X132687029Y-83679342D02*
X132734648Y-83774580D01*
X132734648Y-83774580D02*
X132782267Y-83822200D01*
X132782267Y-83822200D02*
X132877505Y-83869819D01*
X132877505Y-83869819D02*
X133067981Y-83869819D01*
X133067981Y-83869819D02*
X133163219Y-83822200D01*
X132258457Y-83774580D02*
X132210838Y-83822200D01*
X132210838Y-83822200D02*
X132258457Y-83869819D01*
X132258457Y-83869819D02*
X132306076Y-83822200D01*
X132306076Y-83822200D02*
X132258457Y-83774580D01*
X132258457Y-83774580D02*
X132258457Y-83869819D01*
X131353696Y-83822200D02*
X131448934Y-83869819D01*
X131448934Y-83869819D02*
X131639410Y-83869819D01*
X131639410Y-83869819D02*
X131734648Y-83822200D01*
X131734648Y-83822200D02*
X131782267Y-83774580D01*
X131782267Y-83774580D02*
X131829886Y-83679342D01*
X131829886Y-83679342D02*
X131829886Y-83393628D01*
X131829886Y-83393628D02*
X131782267Y-83298390D01*
X131782267Y-83298390D02*
X131734648Y-83250771D01*
X131734648Y-83250771D02*
X131639410Y-83203152D01*
X131639410Y-83203152D02*
X131448934Y-83203152D01*
X131448934Y-83203152D02*
X131353696Y-83250771D01*
X130782267Y-83869819D02*
X130877505Y-83822200D01*
X130877505Y-83822200D02*
X130925124Y-83774580D01*
X130925124Y-83774580D02*
X130972743Y-83679342D01*
X130972743Y-83679342D02*
X130972743Y-83393628D01*
X130972743Y-83393628D02*
X130925124Y-83298390D01*
X130925124Y-83298390D02*
X130877505Y-83250771D01*
X130877505Y-83250771D02*
X130782267Y-83203152D01*
X130782267Y-83203152D02*
X130639410Y-83203152D01*
X130639410Y-83203152D02*
X130544172Y-83250771D01*
X130544172Y-83250771D02*
X130496553Y-83298390D01*
X130496553Y-83298390D02*
X130448934Y-83393628D01*
X130448934Y-83393628D02*
X130448934Y-83679342D01*
X130448934Y-83679342D02*
X130496553Y-83774580D01*
X130496553Y-83774580D02*
X130544172Y-83822200D01*
X130544172Y-83822200D02*
X130639410Y-83869819D01*
X130639410Y-83869819D02*
X130782267Y-83869819D01*
X130020362Y-83869819D02*
X130020362Y-83203152D01*
X130020362Y-83298390D02*
X129972743Y-83250771D01*
X129972743Y-83250771D02*
X129877505Y-83203152D01*
X129877505Y-83203152D02*
X129734648Y-83203152D01*
X129734648Y-83203152D02*
X129639410Y-83250771D01*
X129639410Y-83250771D02*
X129591791Y-83346009D01*
X129591791Y-83346009D02*
X129591791Y-83869819D01*
X129591791Y-83346009D02*
X129544172Y-83250771D01*
X129544172Y-83250771D02*
X129448934Y-83203152D01*
X129448934Y-83203152D02*
X129306077Y-83203152D01*
X129306077Y-83203152D02*
X129210838Y-83250771D01*
X129210838Y-83250771D02*
X129163219Y-83346009D01*
X129163219Y-83346009D02*
X129163219Y-83869819D01*
X127972744Y-82822200D02*
X128829886Y-84107914D01*
X127210839Y-83203152D02*
X127210839Y-84012676D01*
X127210839Y-84012676D02*
X127258458Y-84107914D01*
X127258458Y-84107914D02*
X127306077Y-84155533D01*
X127306077Y-84155533D02*
X127401315Y-84203152D01*
X127401315Y-84203152D02*
X127544172Y-84203152D01*
X127544172Y-84203152D02*
X127639410Y-84155533D01*
X127210839Y-83822200D02*
X127306077Y-83869819D01*
X127306077Y-83869819D02*
X127496553Y-83869819D01*
X127496553Y-83869819D02*
X127591791Y-83822200D01*
X127591791Y-83822200D02*
X127639410Y-83774580D01*
X127639410Y-83774580D02*
X127687029Y-83679342D01*
X127687029Y-83679342D02*
X127687029Y-83393628D01*
X127687029Y-83393628D02*
X127639410Y-83298390D01*
X127639410Y-83298390D02*
X127591791Y-83250771D01*
X127591791Y-83250771D02*
X127496553Y-83203152D01*
X127496553Y-83203152D02*
X127306077Y-83203152D01*
X127306077Y-83203152D02*
X127210839Y-83250771D01*
X126306077Y-83869819D02*
X126306077Y-83346009D01*
X126306077Y-83346009D02*
X126353696Y-83250771D01*
X126353696Y-83250771D02*
X126448934Y-83203152D01*
X126448934Y-83203152D02*
X126639410Y-83203152D01*
X126639410Y-83203152D02*
X126734648Y-83250771D01*
X126306077Y-83822200D02*
X126401315Y-83869819D01*
X126401315Y-83869819D02*
X126639410Y-83869819D01*
X126639410Y-83869819D02*
X126734648Y-83822200D01*
X126734648Y-83822200D02*
X126782267Y-83726961D01*
X126782267Y-83726961D02*
X126782267Y-83631723D01*
X126782267Y-83631723D02*
X126734648Y-83536485D01*
X126734648Y-83536485D02*
X126639410Y-83488866D01*
X126639410Y-83488866D02*
X126401315Y-83488866D01*
X126401315Y-83488866D02*
X126306077Y-83441247D01*
X125401315Y-83203152D02*
X125401315Y-83869819D01*
X125829886Y-83203152D02*
X125829886Y-83726961D01*
X125829886Y-83726961D02*
X125782267Y-83822200D01*
X125782267Y-83822200D02*
X125687029Y-83869819D01*
X125687029Y-83869819D02*
X125544172Y-83869819D01*
X125544172Y-83869819D02*
X125448934Y-83822200D01*
X125448934Y-83822200D02*
X125401315Y-83774580D01*
X125067981Y-83203152D02*
X124687029Y-83203152D01*
X124925124Y-82869819D02*
X124925124Y-83726961D01*
X124925124Y-83726961D02*
X124877505Y-83822200D01*
X124877505Y-83822200D02*
X124782267Y-83869819D01*
X124782267Y-83869819D02*
X124687029Y-83869819D01*
X124353695Y-83869819D02*
X124353695Y-82869819D01*
X123925124Y-83869819D02*
X123925124Y-83346009D01*
X123925124Y-83346009D02*
X123972743Y-83250771D01*
X123972743Y-83250771D02*
X124067981Y-83203152D01*
X124067981Y-83203152D02*
X124210838Y-83203152D01*
X124210838Y-83203152D02*
X124306076Y-83250771D01*
X124306076Y-83250771D02*
X124353695Y-83298390D01*
X123448933Y-83869819D02*
X123448933Y-83203152D01*
X123448933Y-82869819D02*
X123496552Y-82917438D01*
X123496552Y-82917438D02*
X123448933Y-82965057D01*
X123448933Y-82965057D02*
X123401314Y-82917438D01*
X123401314Y-82917438D02*
X123448933Y-82869819D01*
X123448933Y-82869819D02*
X123448933Y-82965057D01*
X122591791Y-83822200D02*
X122687029Y-83869819D01*
X122687029Y-83869819D02*
X122877505Y-83869819D01*
X122877505Y-83869819D02*
X122972743Y-83822200D01*
X122972743Y-83822200D02*
X123020362Y-83726961D01*
X123020362Y-83726961D02*
X123020362Y-83346009D01*
X123020362Y-83346009D02*
X122972743Y-83250771D01*
X122972743Y-83250771D02*
X122877505Y-83203152D01*
X122877505Y-83203152D02*
X122687029Y-83203152D01*
X122687029Y-83203152D02*
X122591791Y-83250771D01*
X122591791Y-83250771D02*
X122544172Y-83346009D01*
X122544172Y-83346009D02*
X122544172Y-83441247D01*
X122544172Y-83441247D02*
X123020362Y-83536485D01*
X122115600Y-83869819D02*
X122115600Y-83203152D01*
X122115600Y-83393628D02*
X122067981Y-83298390D01*
X122067981Y-83298390D02*
X122020362Y-83250771D01*
X122020362Y-83250771D02*
X121925124Y-83203152D01*
X121925124Y-83203152D02*
X121829886Y-83203152D01*
X121496552Y-83488866D02*
X120734648Y-83488866D01*
X120401314Y-83203152D02*
X120020362Y-83203152D01*
X120258457Y-82869819D02*
X120258457Y-83726961D01*
X120258457Y-83726961D02*
X120210838Y-83822200D01*
X120210838Y-83822200D02*
X120115600Y-83869819D01*
X120115600Y-83869819D02*
X120020362Y-83869819D01*
X119687028Y-83869819D02*
X119687028Y-82869819D01*
X119258457Y-83869819D02*
X119258457Y-83346009D01*
X119258457Y-83346009D02*
X119306076Y-83250771D01*
X119306076Y-83250771D02*
X119401314Y-83203152D01*
X119401314Y-83203152D02*
X119544171Y-83203152D01*
X119544171Y-83203152D02*
X119639409Y-83250771D01*
X119639409Y-83250771D02*
X119687028Y-83298390D01*
X118067981Y-82822200D02*
X118925123Y-84107914D01*
X117591790Y-83869819D02*
X117687028Y-83822200D01*
X117687028Y-83822200D02*
X117734647Y-83726961D01*
X117734647Y-83726961D02*
X117734647Y-82869819D01*
X116829885Y-83822200D02*
X116925123Y-83869819D01*
X116925123Y-83869819D02*
X117115599Y-83869819D01*
X117115599Y-83869819D02*
X117210837Y-83822200D01*
X117210837Y-83822200D02*
X117258456Y-83726961D01*
X117258456Y-83726961D02*
X117258456Y-83346009D01*
X117258456Y-83346009D02*
X117210837Y-83250771D01*
X117210837Y-83250771D02*
X117115599Y-83203152D01*
X117115599Y-83203152D02*
X116925123Y-83203152D01*
X116925123Y-83203152D02*
X116829885Y-83250771D01*
X116829885Y-83250771D02*
X116782266Y-83346009D01*
X116782266Y-83346009D02*
X116782266Y-83441247D01*
X116782266Y-83441247D02*
X117258456Y-83536485D01*
X115925123Y-83869819D02*
X115925123Y-82869819D01*
X115925123Y-83822200D02*
X116020361Y-83869819D01*
X116020361Y-83869819D02*
X116210837Y-83869819D01*
X116210837Y-83869819D02*
X116306075Y-83822200D01*
X116306075Y-83822200D02*
X116353694Y-83774580D01*
X116353694Y-83774580D02*
X116401313Y-83679342D01*
X116401313Y-83679342D02*
X116401313Y-83393628D01*
X116401313Y-83393628D02*
X116353694Y-83298390D01*
X116353694Y-83298390D02*
X116306075Y-83250771D01*
X116306075Y-83250771D02*
X116210837Y-83203152D01*
X116210837Y-83203152D02*
X116020361Y-83203152D01*
X116020361Y-83203152D02*
X115925123Y-83250771D01*
X115448932Y-83488866D02*
X114687028Y-83488866D01*
X114258456Y-83822200D02*
X114163218Y-83869819D01*
X114163218Y-83869819D02*
X113972742Y-83869819D01*
X113972742Y-83869819D02*
X113877504Y-83822200D01*
X113877504Y-83822200D02*
X113829885Y-83726961D01*
X113829885Y-83726961D02*
X113829885Y-83679342D01*
X113829885Y-83679342D02*
X113877504Y-83584104D01*
X113877504Y-83584104D02*
X113972742Y-83536485D01*
X113972742Y-83536485D02*
X114115599Y-83536485D01*
X114115599Y-83536485D02*
X114210837Y-83488866D01*
X114210837Y-83488866D02*
X114258456Y-83393628D01*
X114258456Y-83393628D02*
X114258456Y-83346009D01*
X114258456Y-83346009D02*
X114210837Y-83250771D01*
X114210837Y-83250771D02*
X114115599Y-83203152D01*
X114115599Y-83203152D02*
X113972742Y-83203152D01*
X113972742Y-83203152D02*
X113877504Y-83250771D01*
X113544170Y-83203152D02*
X113163218Y-83203152D01*
X113401313Y-82869819D02*
X113401313Y-83726961D01*
X113401313Y-83726961D02*
X113353694Y-83822200D01*
X113353694Y-83822200D02*
X113258456Y-83869819D01*
X113258456Y-83869819D02*
X113163218Y-83869819D01*
X112829884Y-83869819D02*
X112829884Y-83203152D01*
X112829884Y-83393628D02*
X112782265Y-83298390D01*
X112782265Y-83298390D02*
X112734646Y-83250771D01*
X112734646Y-83250771D02*
X112639408Y-83203152D01*
X112639408Y-83203152D02*
X112544170Y-83203152D01*
X112210836Y-83869819D02*
X112210836Y-83203152D01*
X112210836Y-82869819D02*
X112258455Y-82917438D01*
X112258455Y-82917438D02*
X112210836Y-82965057D01*
X112210836Y-82965057D02*
X112163217Y-82917438D01*
X112163217Y-82917438D02*
X112210836Y-82869819D01*
X112210836Y-82869819D02*
X112210836Y-82965057D01*
X111734646Y-83203152D02*
X111734646Y-84203152D01*
X111734646Y-83250771D02*
X111639408Y-83203152D01*
X111639408Y-83203152D02*
X111448932Y-83203152D01*
X111448932Y-83203152D02*
X111353694Y-83250771D01*
X111353694Y-83250771D02*
X111306075Y-83298390D01*
X111306075Y-83298390D02*
X111258456Y-83393628D01*
X111258456Y-83393628D02*
X111258456Y-83679342D01*
X111258456Y-83679342D02*
X111306075Y-83774580D01*
X111306075Y-83774580D02*
X111353694Y-83822200D01*
X111353694Y-83822200D02*
X111448932Y-83869819D01*
X111448932Y-83869819D02*
X111639408Y-83869819D01*
X111639408Y-83869819D02*
X111734646Y-83822200D01*
X110877503Y-83822200D02*
X110782265Y-83869819D01*
X110782265Y-83869819D02*
X110591789Y-83869819D01*
X110591789Y-83869819D02*
X110496551Y-83822200D01*
X110496551Y-83822200D02*
X110448932Y-83726961D01*
X110448932Y-83726961D02*
X110448932Y-83679342D01*
X110448932Y-83679342D02*
X110496551Y-83584104D01*
X110496551Y-83584104D02*
X110591789Y-83536485D01*
X110591789Y-83536485D02*
X110734646Y-83536485D01*
X110734646Y-83536485D02*
X110829884Y-83488866D01*
X110829884Y-83488866D02*
X110877503Y-83393628D01*
X110877503Y-83393628D02*
X110877503Y-83346009D01*
X110877503Y-83346009D02*
X110829884Y-83250771D01*
X110829884Y-83250771D02*
X110734646Y-83203152D01*
X110734646Y-83203152D02*
X110591789Y-83203152D01*
X110591789Y-83203152D02*
X110496551Y-83250771D01*
X110020360Y-83488866D02*
X109258456Y-83488866D01*
X108353694Y-83822200D02*
X108448932Y-83869819D01*
X108448932Y-83869819D02*
X108639408Y-83869819D01*
X108639408Y-83869819D02*
X108734646Y-83822200D01*
X108734646Y-83822200D02*
X108782265Y-83774580D01*
X108782265Y-83774580D02*
X108829884Y-83679342D01*
X108829884Y-83679342D02*
X108829884Y-83393628D01*
X108829884Y-83393628D02*
X108782265Y-83298390D01*
X108782265Y-83298390D02*
X108734646Y-83250771D01*
X108734646Y-83250771D02*
X108639408Y-83203152D01*
X108639408Y-83203152D02*
X108448932Y-83203152D01*
X108448932Y-83203152D02*
X108353694Y-83250771D01*
X107782265Y-83869819D02*
X107877503Y-83822200D01*
X107877503Y-83822200D02*
X107925122Y-83774580D01*
X107925122Y-83774580D02*
X107972741Y-83679342D01*
X107972741Y-83679342D02*
X107972741Y-83393628D01*
X107972741Y-83393628D02*
X107925122Y-83298390D01*
X107925122Y-83298390D02*
X107877503Y-83250771D01*
X107877503Y-83250771D02*
X107782265Y-83203152D01*
X107782265Y-83203152D02*
X107639408Y-83203152D01*
X107639408Y-83203152D02*
X107544170Y-83250771D01*
X107544170Y-83250771D02*
X107496551Y-83298390D01*
X107496551Y-83298390D02*
X107448932Y-83393628D01*
X107448932Y-83393628D02*
X107448932Y-83679342D01*
X107448932Y-83679342D02*
X107496551Y-83774580D01*
X107496551Y-83774580D02*
X107544170Y-83822200D01*
X107544170Y-83822200D02*
X107639408Y-83869819D01*
X107639408Y-83869819D02*
X107782265Y-83869819D01*
X107020360Y-83203152D02*
X107020360Y-83869819D01*
X107020360Y-83298390D02*
X106972741Y-83250771D01*
X106972741Y-83250771D02*
X106877503Y-83203152D01*
X106877503Y-83203152D02*
X106734646Y-83203152D01*
X106734646Y-83203152D02*
X106639408Y-83250771D01*
X106639408Y-83250771D02*
X106591789Y-83346009D01*
X106591789Y-83346009D02*
X106591789Y-83869819D01*
X106258455Y-83203152D02*
X105877503Y-83203152D01*
X106115598Y-82869819D02*
X106115598Y-83726961D01*
X106115598Y-83726961D02*
X106067979Y-83822200D01*
X106067979Y-83822200D02*
X105972741Y-83869819D01*
X105972741Y-83869819D02*
X105877503Y-83869819D01*
X105544169Y-83869819D02*
X105544169Y-83203152D01*
X105544169Y-83393628D02*
X105496550Y-83298390D01*
X105496550Y-83298390D02*
X105448931Y-83250771D01*
X105448931Y-83250771D02*
X105353693Y-83203152D01*
X105353693Y-83203152D02*
X105258455Y-83203152D01*
X104782264Y-83869819D02*
X104877502Y-83822200D01*
X104877502Y-83822200D02*
X104925121Y-83774580D01*
X104925121Y-83774580D02*
X104972740Y-83679342D01*
X104972740Y-83679342D02*
X104972740Y-83393628D01*
X104972740Y-83393628D02*
X104925121Y-83298390D01*
X104925121Y-83298390D02*
X104877502Y-83250771D01*
X104877502Y-83250771D02*
X104782264Y-83203152D01*
X104782264Y-83203152D02*
X104639407Y-83203152D01*
X104639407Y-83203152D02*
X104544169Y-83250771D01*
X104544169Y-83250771D02*
X104496550Y-83298390D01*
X104496550Y-83298390D02*
X104448931Y-83393628D01*
X104448931Y-83393628D02*
X104448931Y-83679342D01*
X104448931Y-83679342D02*
X104496550Y-83774580D01*
X104496550Y-83774580D02*
X104544169Y-83822200D01*
X104544169Y-83822200D02*
X104639407Y-83869819D01*
X104639407Y-83869819D02*
X104782264Y-83869819D01*
X103877502Y-83869819D02*
X103972740Y-83822200D01*
X103972740Y-83822200D02*
X104020359Y-83726961D01*
X104020359Y-83726961D02*
X104020359Y-82869819D01*
X103353692Y-83869819D02*
X103448930Y-83822200D01*
X103448930Y-83822200D02*
X103496549Y-83726961D01*
X103496549Y-83726961D02*
X103496549Y-82869819D01*
X102591787Y-83822200D02*
X102687025Y-83869819D01*
X102687025Y-83869819D02*
X102877501Y-83869819D01*
X102877501Y-83869819D02*
X102972739Y-83822200D01*
X102972739Y-83822200D02*
X103020358Y-83726961D01*
X103020358Y-83726961D02*
X103020358Y-83346009D01*
X103020358Y-83346009D02*
X102972739Y-83250771D01*
X102972739Y-83250771D02*
X102877501Y-83203152D01*
X102877501Y-83203152D02*
X102687025Y-83203152D01*
X102687025Y-83203152D02*
X102591787Y-83250771D01*
X102591787Y-83250771D02*
X102544168Y-83346009D01*
X102544168Y-83346009D02*
X102544168Y-83441247D01*
X102544168Y-83441247D02*
X103020358Y-83536485D01*
X102115596Y-83869819D02*
X102115596Y-83203152D01*
X102115596Y-83393628D02*
X102067977Y-83298390D01*
X102067977Y-83298390D02*
X102020358Y-83250771D01*
X102020358Y-83250771D02*
X101925120Y-83203152D01*
X101925120Y-83203152D02*
X101829882Y-83203152D01*
X158563220Y-119569819D02*
X158563220Y-118569819D01*
X158563220Y-118569819D02*
X158182268Y-118569819D01*
X158182268Y-118569819D02*
X158087030Y-118617438D01*
X158087030Y-118617438D02*
X158039411Y-118665057D01*
X158039411Y-118665057D02*
X157991792Y-118760295D01*
X157991792Y-118760295D02*
X157991792Y-118903152D01*
X157991792Y-118903152D02*
X158039411Y-118998390D01*
X158039411Y-118998390D02*
X158087030Y-119046009D01*
X158087030Y-119046009D02*
X158182268Y-119093628D01*
X158182268Y-119093628D02*
X158563220Y-119093628D01*
X156991792Y-119474580D02*
X157039411Y-119522200D01*
X157039411Y-119522200D02*
X157182268Y-119569819D01*
X157182268Y-119569819D02*
X157277506Y-119569819D01*
X157277506Y-119569819D02*
X157420363Y-119522200D01*
X157420363Y-119522200D02*
X157515601Y-119426961D01*
X157515601Y-119426961D02*
X157563220Y-119331723D01*
X157563220Y-119331723D02*
X157610839Y-119141247D01*
X157610839Y-119141247D02*
X157610839Y-118998390D01*
X157610839Y-118998390D02*
X157563220Y-118807914D01*
X157563220Y-118807914D02*
X157515601Y-118712676D01*
X157515601Y-118712676D02*
X157420363Y-118617438D01*
X157420363Y-118617438D02*
X157277506Y-118569819D01*
X157277506Y-118569819D02*
X157182268Y-118569819D01*
X157182268Y-118569819D02*
X157039411Y-118617438D01*
X157039411Y-118617438D02*
X156991792Y-118665057D01*
X156229887Y-119046009D02*
X156087030Y-119093628D01*
X156087030Y-119093628D02*
X156039411Y-119141247D01*
X156039411Y-119141247D02*
X155991792Y-119236485D01*
X155991792Y-119236485D02*
X155991792Y-119379342D01*
X155991792Y-119379342D02*
X156039411Y-119474580D01*
X156039411Y-119474580D02*
X156087030Y-119522200D01*
X156087030Y-119522200D02*
X156182268Y-119569819D01*
X156182268Y-119569819D02*
X156563220Y-119569819D01*
X156563220Y-119569819D02*
X156563220Y-118569819D01*
X156563220Y-118569819D02*
X156229887Y-118569819D01*
X156229887Y-118569819D02*
X156134649Y-118617438D01*
X156134649Y-118617438D02*
X156087030Y-118665057D01*
X156087030Y-118665057D02*
X156039411Y-118760295D01*
X156039411Y-118760295D02*
X156039411Y-118855533D01*
X156039411Y-118855533D02*
X156087030Y-118950771D01*
X156087030Y-118950771D02*
X156134649Y-118998390D01*
X156134649Y-118998390D02*
X156229887Y-119046009D01*
X156229887Y-119046009D02*
X156563220Y-119046009D01*
X155563220Y-119474580D02*
X155515601Y-119522200D01*
X155515601Y-119522200D02*
X155563220Y-119569819D01*
X155563220Y-119569819D02*
X155610839Y-119522200D01*
X155610839Y-119522200D02*
X155563220Y-119474580D01*
X155563220Y-119474580D02*
X155563220Y-119569819D01*
X155563220Y-118950771D02*
X155515601Y-118998390D01*
X155515601Y-118998390D02*
X155563220Y-119046009D01*
X155563220Y-119046009D02*
X155610839Y-118998390D01*
X155610839Y-118998390D02*
X155563220Y-118950771D01*
X155563220Y-118950771D02*
X155563220Y-119046009D01*
X154325125Y-119569819D02*
X154325125Y-118569819D01*
X153896554Y-119569819D02*
X153896554Y-119046009D01*
X153896554Y-119046009D02*
X153944173Y-118950771D01*
X153944173Y-118950771D02*
X154039411Y-118903152D01*
X154039411Y-118903152D02*
X154182268Y-118903152D01*
X154182268Y-118903152D02*
X154277506Y-118950771D01*
X154277506Y-118950771D02*
X154325125Y-118998390D01*
X153563220Y-118903152D02*
X153182268Y-118903152D01*
X153420363Y-118569819D02*
X153420363Y-119426961D01*
X153420363Y-119426961D02*
X153372744Y-119522200D01*
X153372744Y-119522200D02*
X153277506Y-119569819D01*
X153277506Y-119569819D02*
X153182268Y-119569819D01*
X152991791Y-118903152D02*
X152610839Y-118903152D01*
X152848934Y-118569819D02*
X152848934Y-119426961D01*
X152848934Y-119426961D02*
X152801315Y-119522200D01*
X152801315Y-119522200D02*
X152706077Y-119569819D01*
X152706077Y-119569819D02*
X152610839Y-119569819D01*
X152277505Y-118903152D02*
X152277505Y-119903152D01*
X152277505Y-118950771D02*
X152182267Y-118903152D01*
X152182267Y-118903152D02*
X151991791Y-118903152D01*
X151991791Y-118903152D02*
X151896553Y-118950771D01*
X151896553Y-118950771D02*
X151848934Y-118998390D01*
X151848934Y-118998390D02*
X151801315Y-119093628D01*
X151801315Y-119093628D02*
X151801315Y-119379342D01*
X151801315Y-119379342D02*
X151848934Y-119474580D01*
X151848934Y-119474580D02*
X151896553Y-119522200D01*
X151896553Y-119522200D02*
X151991791Y-119569819D01*
X151991791Y-119569819D02*
X152182267Y-119569819D01*
X152182267Y-119569819D02*
X152277505Y-119522200D01*
X151420362Y-119522200D02*
X151325124Y-119569819D01*
X151325124Y-119569819D02*
X151134648Y-119569819D01*
X151134648Y-119569819D02*
X151039410Y-119522200D01*
X151039410Y-119522200D02*
X150991791Y-119426961D01*
X150991791Y-119426961D02*
X150991791Y-119379342D01*
X150991791Y-119379342D02*
X151039410Y-119284104D01*
X151039410Y-119284104D02*
X151134648Y-119236485D01*
X151134648Y-119236485D02*
X151277505Y-119236485D01*
X151277505Y-119236485D02*
X151372743Y-119188866D01*
X151372743Y-119188866D02*
X151420362Y-119093628D01*
X151420362Y-119093628D02*
X151420362Y-119046009D01*
X151420362Y-119046009D02*
X151372743Y-118950771D01*
X151372743Y-118950771D02*
X151277505Y-118903152D01*
X151277505Y-118903152D02*
X151134648Y-118903152D01*
X151134648Y-118903152D02*
X151039410Y-118950771D01*
X150563219Y-119474580D02*
X150515600Y-119522200D01*
X150515600Y-119522200D02*
X150563219Y-119569819D01*
X150563219Y-119569819D02*
X150610838Y-119522200D01*
X150610838Y-119522200D02*
X150563219Y-119474580D01*
X150563219Y-119474580D02*
X150563219Y-119569819D01*
X150563219Y-118950771D02*
X150515600Y-118998390D01*
X150515600Y-118998390D02*
X150563219Y-119046009D01*
X150563219Y-119046009D02*
X150610838Y-118998390D01*
X150610838Y-118998390D02*
X150563219Y-118950771D01*
X150563219Y-118950771D02*
X150563219Y-119046009D01*
X149372744Y-118522200D02*
X150229886Y-119807914D01*
X148325125Y-118522200D02*
X149182267Y-119807914D01*
X147563220Y-118903152D02*
X147563220Y-119712676D01*
X147563220Y-119712676D02*
X147610839Y-119807914D01*
X147610839Y-119807914D02*
X147658458Y-119855533D01*
X147658458Y-119855533D02*
X147753696Y-119903152D01*
X147753696Y-119903152D02*
X147896553Y-119903152D01*
X147896553Y-119903152D02*
X147991791Y-119855533D01*
X147563220Y-119522200D02*
X147658458Y-119569819D01*
X147658458Y-119569819D02*
X147848934Y-119569819D01*
X147848934Y-119569819D02*
X147944172Y-119522200D01*
X147944172Y-119522200D02*
X147991791Y-119474580D01*
X147991791Y-119474580D02*
X148039410Y-119379342D01*
X148039410Y-119379342D02*
X148039410Y-119093628D01*
X148039410Y-119093628D02*
X147991791Y-118998390D01*
X147991791Y-118998390D02*
X147944172Y-118950771D01*
X147944172Y-118950771D02*
X147848934Y-118903152D01*
X147848934Y-118903152D02*
X147658458Y-118903152D01*
X147658458Y-118903152D02*
X147563220Y-118950771D01*
X147087029Y-119569819D02*
X147087029Y-118903152D01*
X147087029Y-118569819D02*
X147134648Y-118617438D01*
X147134648Y-118617438D02*
X147087029Y-118665057D01*
X147087029Y-118665057D02*
X147039410Y-118617438D01*
X147039410Y-118617438D02*
X147087029Y-118569819D01*
X147087029Y-118569819D02*
X147087029Y-118665057D01*
X146753696Y-118903152D02*
X146372744Y-118903152D01*
X146610839Y-118569819D02*
X146610839Y-119426961D01*
X146610839Y-119426961D02*
X146563220Y-119522200D01*
X146563220Y-119522200D02*
X146467982Y-119569819D01*
X146467982Y-119569819D02*
X146372744Y-119569819D01*
X146039410Y-119569819D02*
X146039410Y-118569819D01*
X145610839Y-119569819D02*
X145610839Y-119046009D01*
X145610839Y-119046009D02*
X145658458Y-118950771D01*
X145658458Y-118950771D02*
X145753696Y-118903152D01*
X145753696Y-118903152D02*
X145896553Y-118903152D01*
X145896553Y-118903152D02*
X145991791Y-118950771D01*
X145991791Y-118950771D02*
X146039410Y-118998390D01*
X144706077Y-118903152D02*
X144706077Y-119569819D01*
X145134648Y-118903152D02*
X145134648Y-119426961D01*
X145134648Y-119426961D02*
X145087029Y-119522200D01*
X145087029Y-119522200D02*
X144991791Y-119569819D01*
X144991791Y-119569819D02*
X144848934Y-119569819D01*
X144848934Y-119569819D02*
X144753696Y-119522200D01*
X144753696Y-119522200D02*
X144706077Y-119474580D01*
X144229886Y-119569819D02*
X144229886Y-118569819D01*
X144229886Y-118950771D02*
X144134648Y-118903152D01*
X144134648Y-118903152D02*
X143944172Y-118903152D01*
X143944172Y-118903152D02*
X143848934Y-118950771D01*
X143848934Y-118950771D02*
X143801315Y-118998390D01*
X143801315Y-118998390D02*
X143753696Y-119093628D01*
X143753696Y-119093628D02*
X143753696Y-119379342D01*
X143753696Y-119379342D02*
X143801315Y-119474580D01*
X143801315Y-119474580D02*
X143848934Y-119522200D01*
X143848934Y-119522200D02*
X143944172Y-119569819D01*
X143944172Y-119569819D02*
X144134648Y-119569819D01*
X144134648Y-119569819D02*
X144229886Y-119522200D01*
X143325124Y-119474580D02*
X143277505Y-119522200D01*
X143277505Y-119522200D02*
X143325124Y-119569819D01*
X143325124Y-119569819D02*
X143372743Y-119522200D01*
X143372743Y-119522200D02*
X143325124Y-119474580D01*
X143325124Y-119474580D02*
X143325124Y-119569819D01*
X142420363Y-119522200D02*
X142515601Y-119569819D01*
X142515601Y-119569819D02*
X142706077Y-119569819D01*
X142706077Y-119569819D02*
X142801315Y-119522200D01*
X142801315Y-119522200D02*
X142848934Y-119474580D01*
X142848934Y-119474580D02*
X142896553Y-119379342D01*
X142896553Y-119379342D02*
X142896553Y-119093628D01*
X142896553Y-119093628D02*
X142848934Y-118998390D01*
X142848934Y-118998390D02*
X142801315Y-118950771D01*
X142801315Y-118950771D02*
X142706077Y-118903152D01*
X142706077Y-118903152D02*
X142515601Y-118903152D01*
X142515601Y-118903152D02*
X142420363Y-118950771D01*
X141848934Y-119569819D02*
X141944172Y-119522200D01*
X141944172Y-119522200D02*
X141991791Y-119474580D01*
X141991791Y-119474580D02*
X142039410Y-119379342D01*
X142039410Y-119379342D02*
X142039410Y-119093628D01*
X142039410Y-119093628D02*
X141991791Y-118998390D01*
X141991791Y-118998390D02*
X141944172Y-118950771D01*
X141944172Y-118950771D02*
X141848934Y-118903152D01*
X141848934Y-118903152D02*
X141706077Y-118903152D01*
X141706077Y-118903152D02*
X141610839Y-118950771D01*
X141610839Y-118950771D02*
X141563220Y-118998390D01*
X141563220Y-118998390D02*
X141515601Y-119093628D01*
X141515601Y-119093628D02*
X141515601Y-119379342D01*
X141515601Y-119379342D02*
X141563220Y-119474580D01*
X141563220Y-119474580D02*
X141610839Y-119522200D01*
X141610839Y-119522200D02*
X141706077Y-119569819D01*
X141706077Y-119569819D02*
X141848934Y-119569819D01*
X141087029Y-119569819D02*
X141087029Y-118903152D01*
X141087029Y-118998390D02*
X141039410Y-118950771D01*
X141039410Y-118950771D02*
X140944172Y-118903152D01*
X140944172Y-118903152D02*
X140801315Y-118903152D01*
X140801315Y-118903152D02*
X140706077Y-118950771D01*
X140706077Y-118950771D02*
X140658458Y-119046009D01*
X140658458Y-119046009D02*
X140658458Y-119569819D01*
X140658458Y-119046009D02*
X140610839Y-118950771D01*
X140610839Y-118950771D02*
X140515601Y-118903152D01*
X140515601Y-118903152D02*
X140372744Y-118903152D01*
X140372744Y-118903152D02*
X140277505Y-118950771D01*
X140277505Y-118950771D02*
X140229886Y-119046009D01*
X140229886Y-119046009D02*
X140229886Y-119569819D01*
X139039411Y-118522200D02*
X139896553Y-119807914D01*
X138706077Y-119569819D02*
X138706077Y-118903152D01*
X138706077Y-119093628D02*
X138658458Y-118998390D01*
X138658458Y-118998390D02*
X138610839Y-118950771D01*
X138610839Y-118950771D02*
X138515601Y-118903152D01*
X138515601Y-118903152D02*
X138420363Y-118903152D01*
X137944172Y-119569819D02*
X138039410Y-119522200D01*
X138039410Y-119522200D02*
X138087029Y-119474580D01*
X138087029Y-119474580D02*
X138134648Y-119379342D01*
X138134648Y-119379342D02*
X138134648Y-119093628D01*
X138134648Y-119093628D02*
X138087029Y-118998390D01*
X138087029Y-118998390D02*
X138039410Y-118950771D01*
X138039410Y-118950771D02*
X137944172Y-118903152D01*
X137944172Y-118903152D02*
X137801315Y-118903152D01*
X137801315Y-118903152D02*
X137706077Y-118950771D01*
X137706077Y-118950771D02*
X137658458Y-118998390D01*
X137658458Y-118998390D02*
X137610839Y-119093628D01*
X137610839Y-119093628D02*
X137610839Y-119379342D01*
X137610839Y-119379342D02*
X137658458Y-119474580D01*
X137658458Y-119474580D02*
X137706077Y-119522200D01*
X137706077Y-119522200D02*
X137801315Y-119569819D01*
X137801315Y-119569819D02*
X137944172Y-119569819D01*
X137182267Y-119569819D02*
X137182267Y-118903152D01*
X137182267Y-118998390D02*
X137134648Y-118950771D01*
X137134648Y-118950771D02*
X137039410Y-118903152D01*
X137039410Y-118903152D02*
X136896553Y-118903152D01*
X136896553Y-118903152D02*
X136801315Y-118950771D01*
X136801315Y-118950771D02*
X136753696Y-119046009D01*
X136753696Y-119046009D02*
X136753696Y-119569819D01*
X136753696Y-119046009D02*
X136706077Y-118950771D01*
X136706077Y-118950771D02*
X136610839Y-118903152D01*
X136610839Y-118903152D02*
X136467982Y-118903152D01*
X136467982Y-118903152D02*
X136372743Y-118950771D01*
X136372743Y-118950771D02*
X136325124Y-119046009D01*
X136325124Y-119046009D02*
X136325124Y-119569819D01*
X135420363Y-119569819D02*
X135420363Y-119046009D01*
X135420363Y-119046009D02*
X135467982Y-118950771D01*
X135467982Y-118950771D02*
X135563220Y-118903152D01*
X135563220Y-118903152D02*
X135753696Y-118903152D01*
X135753696Y-118903152D02*
X135848934Y-118950771D01*
X135420363Y-119522200D02*
X135515601Y-119569819D01*
X135515601Y-119569819D02*
X135753696Y-119569819D01*
X135753696Y-119569819D02*
X135848934Y-119522200D01*
X135848934Y-119522200D02*
X135896553Y-119426961D01*
X135896553Y-119426961D02*
X135896553Y-119331723D01*
X135896553Y-119331723D02*
X135848934Y-119236485D01*
X135848934Y-119236485D02*
X135753696Y-119188866D01*
X135753696Y-119188866D02*
X135515601Y-119188866D01*
X135515601Y-119188866D02*
X135420363Y-119141247D01*
X134944172Y-119569819D02*
X134944172Y-118903152D01*
X134944172Y-118569819D02*
X134991791Y-118617438D01*
X134991791Y-118617438D02*
X134944172Y-118665057D01*
X134944172Y-118665057D02*
X134896553Y-118617438D01*
X134896553Y-118617438D02*
X134944172Y-118569819D01*
X134944172Y-118569819D02*
X134944172Y-118665057D01*
X134467982Y-118903152D02*
X134467982Y-119569819D01*
X134467982Y-118998390D02*
X134420363Y-118950771D01*
X134420363Y-118950771D02*
X134325125Y-118903152D01*
X134325125Y-118903152D02*
X134182268Y-118903152D01*
X134182268Y-118903152D02*
X134087030Y-118950771D01*
X134087030Y-118950771D02*
X134039411Y-119046009D01*
X134039411Y-119046009D02*
X134039411Y-119569819D01*
X133420363Y-118998390D02*
X133515601Y-118950771D01*
X133515601Y-118950771D02*
X133563220Y-118903152D01*
X133563220Y-118903152D02*
X133610839Y-118807914D01*
X133610839Y-118807914D02*
X133610839Y-118760295D01*
X133610839Y-118760295D02*
X133563220Y-118665057D01*
X133563220Y-118665057D02*
X133515601Y-118617438D01*
X133515601Y-118617438D02*
X133420363Y-118569819D01*
X133420363Y-118569819D02*
X133229887Y-118569819D01*
X133229887Y-118569819D02*
X133134649Y-118617438D01*
X133134649Y-118617438D02*
X133087030Y-118665057D01*
X133087030Y-118665057D02*
X133039411Y-118760295D01*
X133039411Y-118760295D02*
X133039411Y-118807914D01*
X133039411Y-118807914D02*
X133087030Y-118903152D01*
X133087030Y-118903152D02*
X133134649Y-118950771D01*
X133134649Y-118950771D02*
X133229887Y-118998390D01*
X133229887Y-118998390D02*
X133420363Y-118998390D01*
X133420363Y-118998390D02*
X133515601Y-119046009D01*
X133515601Y-119046009D02*
X133563220Y-119093628D01*
X133563220Y-119093628D02*
X133610839Y-119188866D01*
X133610839Y-119188866D02*
X133610839Y-119379342D01*
X133610839Y-119379342D02*
X133563220Y-119474580D01*
X133563220Y-119474580D02*
X133515601Y-119522200D01*
X133515601Y-119522200D02*
X133420363Y-119569819D01*
X133420363Y-119569819D02*
X133229887Y-119569819D01*
X133229887Y-119569819D02*
X133134649Y-119522200D01*
X133134649Y-119522200D02*
X133087030Y-119474580D01*
X133087030Y-119474580D02*
X133039411Y-119379342D01*
X133039411Y-119379342D02*
X133039411Y-119188866D01*
X133039411Y-119188866D02*
X133087030Y-119093628D01*
X133087030Y-119093628D02*
X133134649Y-119046009D01*
X133134649Y-119046009D02*
X133229887Y-118998390D01*
X132563220Y-119569819D02*
X132372744Y-119569819D01*
X132372744Y-119569819D02*
X132277506Y-119522200D01*
X132277506Y-119522200D02*
X132229887Y-119474580D01*
X132229887Y-119474580D02*
X132134649Y-119331723D01*
X132134649Y-119331723D02*
X132087030Y-119141247D01*
X132087030Y-119141247D02*
X132087030Y-118760295D01*
X132087030Y-118760295D02*
X132134649Y-118665057D01*
X132134649Y-118665057D02*
X132182268Y-118617438D01*
X132182268Y-118617438D02*
X132277506Y-118569819D01*
X132277506Y-118569819D02*
X132467982Y-118569819D01*
X132467982Y-118569819D02*
X132563220Y-118617438D01*
X132563220Y-118617438D02*
X132610839Y-118665057D01*
X132610839Y-118665057D02*
X132658458Y-118760295D01*
X132658458Y-118760295D02*
X132658458Y-118998390D01*
X132658458Y-118998390D02*
X132610839Y-119093628D01*
X132610839Y-119093628D02*
X132563220Y-119141247D01*
X132563220Y-119141247D02*
X132467982Y-119188866D01*
X132467982Y-119188866D02*
X132277506Y-119188866D01*
X132277506Y-119188866D02*
X132182268Y-119141247D01*
X132182268Y-119141247D02*
X132134649Y-119093628D01*
X132134649Y-119093628D02*
X132087030Y-118998390D01*
X131229887Y-118903152D02*
X131229887Y-119569819D01*
X131467982Y-118522200D02*
X131706077Y-119236485D01*
X131706077Y-119236485D02*
X131087030Y-119236485D01*
X129991792Y-118522200D02*
X130848934Y-119807914D01*
X129277506Y-119522200D02*
X129372744Y-119569819D01*
X129372744Y-119569819D02*
X129563220Y-119569819D01*
X129563220Y-119569819D02*
X129658458Y-119522200D01*
X129658458Y-119522200D02*
X129706077Y-119426961D01*
X129706077Y-119426961D02*
X129706077Y-119046009D01*
X129706077Y-119046009D02*
X129658458Y-118950771D01*
X129658458Y-118950771D02*
X129563220Y-118903152D01*
X129563220Y-118903152D02*
X129372744Y-118903152D01*
X129372744Y-118903152D02*
X129277506Y-118950771D01*
X129277506Y-118950771D02*
X129229887Y-119046009D01*
X129229887Y-119046009D02*
X129229887Y-119141247D01*
X129229887Y-119141247D02*
X129706077Y-119236485D01*
X128848934Y-119522200D02*
X128753696Y-119569819D01*
X128753696Y-119569819D02*
X128563220Y-119569819D01*
X128563220Y-119569819D02*
X128467982Y-119522200D01*
X128467982Y-119522200D02*
X128420363Y-119426961D01*
X128420363Y-119426961D02*
X128420363Y-119379342D01*
X128420363Y-119379342D02*
X128467982Y-119284104D01*
X128467982Y-119284104D02*
X128563220Y-119236485D01*
X128563220Y-119236485D02*
X128706077Y-119236485D01*
X128706077Y-119236485D02*
X128801315Y-119188866D01*
X128801315Y-119188866D02*
X128848934Y-119093628D01*
X128848934Y-119093628D02*
X128848934Y-119046009D01*
X128848934Y-119046009D02*
X128801315Y-118950771D01*
X128801315Y-118950771D02*
X128706077Y-118903152D01*
X128706077Y-118903152D02*
X128563220Y-118903152D01*
X128563220Y-118903152D02*
X128467982Y-118950771D01*
X127991791Y-118903152D02*
X127991791Y-119903152D01*
X127991791Y-118950771D02*
X127896553Y-118903152D01*
X127896553Y-118903152D02*
X127706077Y-118903152D01*
X127706077Y-118903152D02*
X127610839Y-118950771D01*
X127610839Y-118950771D02*
X127563220Y-118998390D01*
X127563220Y-118998390D02*
X127515601Y-119093628D01*
X127515601Y-119093628D02*
X127515601Y-119379342D01*
X127515601Y-119379342D02*
X127563220Y-119474580D01*
X127563220Y-119474580D02*
X127610839Y-119522200D01*
X127610839Y-119522200D02*
X127706077Y-119569819D01*
X127706077Y-119569819D02*
X127896553Y-119569819D01*
X127896553Y-119569819D02*
X127991791Y-119522200D01*
X127182267Y-118569819D02*
X126563220Y-118569819D01*
X126563220Y-118569819D02*
X126896553Y-118950771D01*
X126896553Y-118950771D02*
X126753696Y-118950771D01*
X126753696Y-118950771D02*
X126658458Y-118998390D01*
X126658458Y-118998390D02*
X126610839Y-119046009D01*
X126610839Y-119046009D02*
X126563220Y-119141247D01*
X126563220Y-119141247D02*
X126563220Y-119379342D01*
X126563220Y-119379342D02*
X126610839Y-119474580D01*
X126610839Y-119474580D02*
X126658458Y-119522200D01*
X126658458Y-119522200D02*
X126753696Y-119569819D01*
X126753696Y-119569819D02*
X127039410Y-119569819D01*
X127039410Y-119569819D02*
X127134648Y-119522200D01*
X127134648Y-119522200D02*
X127182267Y-119474580D01*
X126182267Y-118665057D02*
X126134648Y-118617438D01*
X126134648Y-118617438D02*
X126039410Y-118569819D01*
X126039410Y-118569819D02*
X125801315Y-118569819D01*
X125801315Y-118569819D02*
X125706077Y-118617438D01*
X125706077Y-118617438D02*
X125658458Y-118665057D01*
X125658458Y-118665057D02*
X125610839Y-118760295D01*
X125610839Y-118760295D02*
X125610839Y-118855533D01*
X125610839Y-118855533D02*
X125658458Y-118998390D01*
X125658458Y-118998390D02*
X126229886Y-119569819D01*
X126229886Y-119569819D02*
X125610839Y-119569819D01*
X125182267Y-119188866D02*
X124420363Y-119188866D01*
X123515601Y-119522200D02*
X123610839Y-119569819D01*
X123610839Y-119569819D02*
X123801315Y-119569819D01*
X123801315Y-119569819D02*
X123896553Y-119522200D01*
X123896553Y-119522200D02*
X123944172Y-119474580D01*
X123944172Y-119474580D02*
X123991791Y-119379342D01*
X123991791Y-119379342D02*
X123991791Y-119093628D01*
X123991791Y-119093628D02*
X123944172Y-118998390D01*
X123944172Y-118998390D02*
X123896553Y-118950771D01*
X123896553Y-118950771D02*
X123801315Y-118903152D01*
X123801315Y-118903152D02*
X123610839Y-118903152D01*
X123610839Y-118903152D02*
X123515601Y-118950771D01*
X123182267Y-118569819D02*
X122563220Y-118569819D01*
X122563220Y-118569819D02*
X122896553Y-118950771D01*
X122896553Y-118950771D02*
X122753696Y-118950771D01*
X122753696Y-118950771D02*
X122658458Y-118998390D01*
X122658458Y-118998390D02*
X122610839Y-119046009D01*
X122610839Y-119046009D02*
X122563220Y-119141247D01*
X122563220Y-119141247D02*
X122563220Y-119379342D01*
X122563220Y-119379342D02*
X122610839Y-119474580D01*
X122610839Y-119474580D02*
X122658458Y-119522200D01*
X122658458Y-119522200D02*
X122753696Y-119569819D01*
X122753696Y-119569819D02*
X123039410Y-119569819D01*
X123039410Y-119569819D02*
X123134648Y-119522200D01*
X123134648Y-119522200D02*
X123182267Y-119474580D01*
X122134648Y-119188866D02*
X121372744Y-119188866D01*
X120753696Y-119569819D02*
X120848934Y-119522200D01*
X120848934Y-119522200D02*
X120896553Y-119426961D01*
X120896553Y-119426961D02*
X120896553Y-118569819D01*
X119991791Y-119522200D02*
X120087029Y-119569819D01*
X120087029Y-119569819D02*
X120277505Y-119569819D01*
X120277505Y-119569819D02*
X120372743Y-119522200D01*
X120372743Y-119522200D02*
X120420362Y-119426961D01*
X120420362Y-119426961D02*
X120420362Y-119046009D01*
X120420362Y-119046009D02*
X120372743Y-118950771D01*
X120372743Y-118950771D02*
X120277505Y-118903152D01*
X120277505Y-118903152D02*
X120087029Y-118903152D01*
X120087029Y-118903152D02*
X119991791Y-118950771D01*
X119991791Y-118950771D02*
X119944172Y-119046009D01*
X119944172Y-119046009D02*
X119944172Y-119141247D01*
X119944172Y-119141247D02*
X120420362Y-119236485D01*
X119087029Y-119569819D02*
X119087029Y-118569819D01*
X119087029Y-119522200D02*
X119182267Y-119569819D01*
X119182267Y-119569819D02*
X119372743Y-119569819D01*
X119372743Y-119569819D02*
X119467981Y-119522200D01*
X119467981Y-119522200D02*
X119515600Y-119474580D01*
X119515600Y-119474580D02*
X119563219Y-119379342D01*
X119563219Y-119379342D02*
X119563219Y-119093628D01*
X119563219Y-119093628D02*
X119515600Y-118998390D01*
X119515600Y-118998390D02*
X119467981Y-118950771D01*
X119467981Y-118950771D02*
X119372743Y-118903152D01*
X119372743Y-118903152D02*
X119182267Y-118903152D01*
X119182267Y-118903152D02*
X119087029Y-118950771D01*
X118610838Y-119188866D02*
X117848934Y-119188866D01*
X116944172Y-119569819D02*
X116944172Y-118569819D01*
X116944172Y-119522200D02*
X117039410Y-119569819D01*
X117039410Y-119569819D02*
X117229886Y-119569819D01*
X117229886Y-119569819D02*
X117325124Y-119522200D01*
X117325124Y-119522200D02*
X117372743Y-119474580D01*
X117372743Y-119474580D02*
X117420362Y-119379342D01*
X117420362Y-119379342D02*
X117420362Y-119093628D01*
X117420362Y-119093628D02*
X117372743Y-118998390D01*
X117372743Y-118998390D02*
X117325124Y-118950771D01*
X117325124Y-118950771D02*
X117229886Y-118903152D01*
X117229886Y-118903152D02*
X117039410Y-118903152D01*
X117039410Y-118903152D02*
X116944172Y-118950771D01*
X116467981Y-119569819D02*
X116467981Y-118903152D01*
X116467981Y-119093628D02*
X116420362Y-118998390D01*
X116420362Y-118998390D02*
X116372743Y-118950771D01*
X116372743Y-118950771D02*
X116277505Y-118903152D01*
X116277505Y-118903152D02*
X116182267Y-118903152D01*
X115848933Y-119569819D02*
X115848933Y-118903152D01*
X115848933Y-118569819D02*
X115896552Y-118617438D01*
X115896552Y-118617438D02*
X115848933Y-118665057D01*
X115848933Y-118665057D02*
X115801314Y-118617438D01*
X115801314Y-118617438D02*
X115848933Y-118569819D01*
X115848933Y-118569819D02*
X115848933Y-118665057D01*
X115467981Y-118903152D02*
X115229886Y-119569819D01*
X115229886Y-119569819D02*
X114991791Y-118903152D01*
X114229886Y-119522200D02*
X114325124Y-119569819D01*
X114325124Y-119569819D02*
X114515600Y-119569819D01*
X114515600Y-119569819D02*
X114610838Y-119522200D01*
X114610838Y-119522200D02*
X114658457Y-119426961D01*
X114658457Y-119426961D02*
X114658457Y-119046009D01*
X114658457Y-119046009D02*
X114610838Y-118950771D01*
X114610838Y-118950771D02*
X114515600Y-118903152D01*
X114515600Y-118903152D02*
X114325124Y-118903152D01*
X114325124Y-118903152D02*
X114229886Y-118950771D01*
X114229886Y-118950771D02*
X114182267Y-119046009D01*
X114182267Y-119046009D02*
X114182267Y-119141247D01*
X114182267Y-119141247D02*
X114658457Y-119236485D01*
X113753695Y-119569819D02*
X113753695Y-118903152D01*
X113753695Y-119093628D02*
X113706076Y-118998390D01*
X113706076Y-118998390D02*
X113658457Y-118950771D01*
X113658457Y-118950771D02*
X113563219Y-118903152D01*
X113563219Y-118903152D02*
X113467981Y-118903152D01*
X113134647Y-119188866D02*
X112372743Y-119188866D01*
X111896552Y-118903152D02*
X111896552Y-119903152D01*
X111896552Y-118950771D02*
X111801314Y-118903152D01*
X111801314Y-118903152D02*
X111610838Y-118903152D01*
X111610838Y-118903152D02*
X111515600Y-118950771D01*
X111515600Y-118950771D02*
X111467981Y-118998390D01*
X111467981Y-118998390D02*
X111420362Y-119093628D01*
X111420362Y-119093628D02*
X111420362Y-119379342D01*
X111420362Y-119379342D02*
X111467981Y-119474580D01*
X111467981Y-119474580D02*
X111515600Y-119522200D01*
X111515600Y-119522200D02*
X111610838Y-119569819D01*
X111610838Y-119569819D02*
X111801314Y-119569819D01*
X111801314Y-119569819D02*
X111896552Y-119522200D01*
X110563219Y-119522200D02*
X110658457Y-119569819D01*
X110658457Y-119569819D02*
X110848933Y-119569819D01*
X110848933Y-119569819D02*
X110944171Y-119522200D01*
X110944171Y-119522200D02*
X110991790Y-119474580D01*
X110991790Y-119474580D02*
X111039409Y-119379342D01*
X111039409Y-119379342D02*
X111039409Y-119093628D01*
X111039409Y-119093628D02*
X110991790Y-118998390D01*
X110991790Y-118998390D02*
X110944171Y-118950771D01*
X110944171Y-118950771D02*
X110848933Y-118903152D01*
X110848933Y-118903152D02*
X110658457Y-118903152D01*
X110658457Y-118903152D02*
X110563219Y-118950771D01*
X110134647Y-119569819D02*
X110134647Y-118569819D01*
X110134647Y-118950771D02*
X110039409Y-118903152D01*
X110039409Y-118903152D02*
X109848933Y-118903152D01*
X109848933Y-118903152D02*
X109753695Y-118950771D01*
X109753695Y-118950771D02*
X109706076Y-118998390D01*
X109706076Y-118998390D02*
X109658457Y-119093628D01*
X109658457Y-119093628D02*
X109658457Y-119379342D01*
X109658457Y-119379342D02*
X109706076Y-119474580D01*
X109706076Y-119474580D02*
X109753695Y-119522200D01*
X109753695Y-119522200D02*
X109848933Y-119569819D01*
X109848933Y-119569819D02*
X110039409Y-119569819D01*
X110039409Y-119569819D02*
X110134647Y-119522200D01*
D11*
X123350000Y-72500000D02*
X123149986Y-74499998D01*
X122655025Y-76294975D02*
X120650000Y-78000000D01*
X125600000Y-64500000D02*
X124050000Y-71200000D01*
D10*
X120806077Y-70969819D02*
X120472744Y-71969819D01*
X120472744Y-71969819D02*
X120139411Y-70969819D01*
X119234649Y-71874580D02*
X119282268Y-71922200D01*
X119282268Y-71922200D02*
X119425125Y-71969819D01*
X119425125Y-71969819D02*
X119520363Y-71969819D01*
X119520363Y-71969819D02*
X119663220Y-71922200D01*
X119663220Y-71922200D02*
X119758458Y-71826961D01*
X119758458Y-71826961D02*
X119806077Y-71731723D01*
X119806077Y-71731723D02*
X119853696Y-71541247D01*
X119853696Y-71541247D02*
X119853696Y-71398390D01*
X119853696Y-71398390D02*
X119806077Y-71207914D01*
X119806077Y-71207914D02*
X119758458Y-71112676D01*
X119758458Y-71112676D02*
X119663220Y-71017438D01*
X119663220Y-71017438D02*
X119520363Y-70969819D01*
X119520363Y-70969819D02*
X119425125Y-70969819D01*
X119425125Y-70969819D02*
X119282268Y-71017438D01*
X119282268Y-71017438D02*
X119234649Y-71065057D01*
X118234649Y-71874580D02*
X118282268Y-71922200D01*
X118282268Y-71922200D02*
X118425125Y-71969819D01*
X118425125Y-71969819D02*
X118520363Y-71969819D01*
X118520363Y-71969819D02*
X118663220Y-71922200D01*
X118663220Y-71922200D02*
X118758458Y-71826961D01*
X118758458Y-71826961D02*
X118806077Y-71731723D01*
X118806077Y-71731723D02*
X118853696Y-71541247D01*
X118853696Y-71541247D02*
X118853696Y-71398390D01*
X118853696Y-71398390D02*
X118806077Y-71207914D01*
X118806077Y-71207914D02*
X118758458Y-71112676D01*
X118758458Y-71112676D02*
X118663220Y-71017438D01*
X118663220Y-71017438D02*
X118520363Y-70969819D01*
X118520363Y-70969819D02*
X118425125Y-70969819D01*
X118425125Y-70969819D02*
X118282268Y-71017438D01*
X118282268Y-71017438D02*
X118234649Y-71065057D01*
X128158458Y-75069819D02*
X127539411Y-75069819D01*
X127539411Y-75069819D02*
X127872744Y-75450771D01*
X127872744Y-75450771D02*
X127729887Y-75450771D01*
X127729887Y-75450771D02*
X127634649Y-75498390D01*
X127634649Y-75498390D02*
X127587030Y-75546009D01*
X127587030Y-75546009D02*
X127539411Y-75641247D01*
X127539411Y-75641247D02*
X127539411Y-75879342D01*
X127539411Y-75879342D02*
X127587030Y-75974580D01*
X127587030Y-75974580D02*
X127634649Y-76022200D01*
X127634649Y-76022200D02*
X127729887Y-76069819D01*
X127729887Y-76069819D02*
X128015601Y-76069819D01*
X128015601Y-76069819D02*
X128110839Y-76022200D01*
X128110839Y-76022200D02*
X128158458Y-75974580D01*
X127253696Y-75069819D02*
X126920363Y-76069819D01*
X126920363Y-76069819D02*
X126587030Y-75069819D01*
X126348934Y-75069819D02*
X125729887Y-75069819D01*
X125729887Y-75069819D02*
X126063220Y-75450771D01*
X126063220Y-75450771D02*
X125920363Y-75450771D01*
X125920363Y-75450771D02*
X125825125Y-75498390D01*
X125825125Y-75498390D02*
X125777506Y-75546009D01*
X125777506Y-75546009D02*
X125729887Y-75641247D01*
X125729887Y-75641247D02*
X125729887Y-75879342D01*
X125729887Y-75879342D02*
X125777506Y-75974580D01*
X125777506Y-75974580D02*
X125825125Y-76022200D01*
X125825125Y-76022200D02*
X125920363Y-76069819D01*
X125920363Y-76069819D02*
X126206077Y-76069819D01*
X126206077Y-76069819D02*
X126301315Y-76022200D01*
X126301315Y-76022200D02*
X126348934Y-75974580D01*
X118887030Y-78569819D02*
X119363220Y-78569819D01*
X119363220Y-78569819D02*
X119410839Y-79046009D01*
X119410839Y-79046009D02*
X119363220Y-78998390D01*
X119363220Y-78998390D02*
X119267982Y-78950771D01*
X119267982Y-78950771D02*
X119029887Y-78950771D01*
X119029887Y-78950771D02*
X118934649Y-78998390D01*
X118934649Y-78998390D02*
X118887030Y-79046009D01*
X118887030Y-79046009D02*
X118839411Y-79141247D01*
X118839411Y-79141247D02*
X118839411Y-79379342D01*
X118839411Y-79379342D02*
X118887030Y-79474580D01*
X118887030Y-79474580D02*
X118934649Y-79522200D01*
X118934649Y-79522200D02*
X119029887Y-79569819D01*
X119029887Y-79569819D02*
X119267982Y-79569819D01*
X119267982Y-79569819D02*
X119363220Y-79522200D01*
X119363220Y-79522200D02*
X119410839Y-79474580D01*
X118553696Y-78569819D02*
X118220363Y-79569819D01*
X118220363Y-79569819D02*
X117887030Y-78569819D01*
X147634819Y-91857142D02*
X147158628Y-91523809D01*
X147634819Y-91285714D02*
X146634819Y-91285714D01*
X146634819Y-91285714D02*
X146634819Y-91666666D01*
X146634819Y-91666666D02*
X146682438Y-91761904D01*
X146682438Y-91761904D02*
X146730057Y-91809523D01*
X146730057Y-91809523D02*
X146825295Y-91857142D01*
X146825295Y-91857142D02*
X146968152Y-91857142D01*
X146968152Y-91857142D02*
X147063390Y-91809523D01*
X147063390Y-91809523D02*
X147111009Y-91761904D01*
X147111009Y-91761904D02*
X147158628Y-91666666D01*
X147158628Y-91666666D02*
X147158628Y-91285714D01*
X147634819Y-92809523D02*
X147634819Y-92238095D01*
X147634819Y-92523809D02*
X146634819Y-92523809D01*
X146634819Y-92523809D02*
X146777676Y-92428571D01*
X146777676Y-92428571D02*
X146872914Y-92333333D01*
X146872914Y-92333333D02*
X146920533Y-92238095D01*
X147063390Y-93380952D02*
X147015771Y-93285714D01*
X147015771Y-93285714D02*
X146968152Y-93238095D01*
X146968152Y-93238095D02*
X146872914Y-93190476D01*
X146872914Y-93190476D02*
X146825295Y-93190476D01*
X146825295Y-93190476D02*
X146730057Y-93238095D01*
X146730057Y-93238095D02*
X146682438Y-93285714D01*
X146682438Y-93285714D02*
X146634819Y-93380952D01*
X146634819Y-93380952D02*
X146634819Y-93571428D01*
X146634819Y-93571428D02*
X146682438Y-93666666D01*
X146682438Y-93666666D02*
X146730057Y-93714285D01*
X146730057Y-93714285D02*
X146825295Y-93761904D01*
X146825295Y-93761904D02*
X146872914Y-93761904D01*
X146872914Y-93761904D02*
X146968152Y-93714285D01*
X146968152Y-93714285D02*
X147015771Y-93666666D01*
X147015771Y-93666666D02*
X147063390Y-93571428D01*
X147063390Y-93571428D02*
X147063390Y-93380952D01*
X147063390Y-93380952D02*
X147111009Y-93285714D01*
X147111009Y-93285714D02*
X147158628Y-93238095D01*
X147158628Y-93238095D02*
X147253866Y-93190476D01*
X147253866Y-93190476D02*
X147444342Y-93190476D01*
X147444342Y-93190476D02*
X147539580Y-93238095D01*
X147539580Y-93238095D02*
X147587200Y-93285714D01*
X147587200Y-93285714D02*
X147634819Y-93380952D01*
X147634819Y-93380952D02*
X147634819Y-93571428D01*
X147634819Y-93571428D02*
X147587200Y-93666666D01*
X147587200Y-93666666D02*
X147539580Y-93714285D01*
X147539580Y-93714285D02*
X147444342Y-93761904D01*
X147444342Y-93761904D02*
X147253866Y-93761904D01*
X147253866Y-93761904D02*
X147158628Y-93714285D01*
X147158628Y-93714285D02*
X147111009Y-93666666D01*
X147111009Y-93666666D02*
X147063390Y-93571428D01*
X147554819Y-86357142D02*
X147078628Y-86023809D01*
X147554819Y-85785714D02*
X146554819Y-85785714D01*
X146554819Y-85785714D02*
X146554819Y-86166666D01*
X146554819Y-86166666D02*
X146602438Y-86261904D01*
X146602438Y-86261904D02*
X146650057Y-86309523D01*
X146650057Y-86309523D02*
X146745295Y-86357142D01*
X146745295Y-86357142D02*
X146888152Y-86357142D01*
X146888152Y-86357142D02*
X146983390Y-86309523D01*
X146983390Y-86309523D02*
X147031009Y-86261904D01*
X147031009Y-86261904D02*
X147078628Y-86166666D01*
X147078628Y-86166666D02*
X147078628Y-85785714D01*
X147554819Y-87309523D02*
X147554819Y-86738095D01*
X147554819Y-87023809D02*
X146554819Y-87023809D01*
X146554819Y-87023809D02*
X146697676Y-86928571D01*
X146697676Y-86928571D02*
X146792914Y-86833333D01*
X146792914Y-86833333D02*
X146840533Y-86738095D01*
X146554819Y-87642857D02*
X146554819Y-88309523D01*
X146554819Y-88309523D02*
X147554819Y-87880952D01*
X146100057Y-97342261D02*
X146052438Y-97247023D01*
X146052438Y-97247023D02*
X145957200Y-97151785D01*
X145957200Y-97151785D02*
X145814342Y-97008928D01*
X145814342Y-97008928D02*
X145766723Y-96913690D01*
X145766723Y-96913690D02*
X145766723Y-96818452D01*
X146004819Y-96866071D02*
X145957200Y-96770833D01*
X145957200Y-96770833D02*
X145861961Y-96675595D01*
X145861961Y-96675595D02*
X145671485Y-96627976D01*
X145671485Y-96627976D02*
X145338152Y-96627976D01*
X145338152Y-96627976D02*
X145147676Y-96675595D01*
X145147676Y-96675595D02*
X145052438Y-96770833D01*
X145052438Y-96770833D02*
X145004819Y-96866071D01*
X145004819Y-96866071D02*
X145004819Y-97056547D01*
X145004819Y-97056547D02*
X145052438Y-97151785D01*
X145052438Y-97151785D02*
X145147676Y-97247023D01*
X145147676Y-97247023D02*
X145338152Y-97294642D01*
X145338152Y-97294642D02*
X145671485Y-97294642D01*
X145671485Y-97294642D02*
X145861961Y-97247023D01*
X145861961Y-97247023D02*
X145957200Y-97151785D01*
X145957200Y-97151785D02*
X146004819Y-97056547D01*
X146004819Y-97056547D02*
X146004819Y-96866071D01*
X145433390Y-97866071D02*
X145385771Y-97770833D01*
X145385771Y-97770833D02*
X145338152Y-97723214D01*
X145338152Y-97723214D02*
X145242914Y-97675595D01*
X145242914Y-97675595D02*
X145195295Y-97675595D01*
X145195295Y-97675595D02*
X145100057Y-97723214D01*
X145100057Y-97723214D02*
X145052438Y-97770833D01*
X145052438Y-97770833D02*
X145004819Y-97866071D01*
X145004819Y-97866071D02*
X145004819Y-98056547D01*
X145004819Y-98056547D02*
X145052438Y-98151785D01*
X145052438Y-98151785D02*
X145100057Y-98199404D01*
X145100057Y-98199404D02*
X145195295Y-98247023D01*
X145195295Y-98247023D02*
X145242914Y-98247023D01*
X145242914Y-98247023D02*
X145338152Y-98199404D01*
X145338152Y-98199404D02*
X145385771Y-98151785D01*
X145385771Y-98151785D02*
X145433390Y-98056547D01*
X145433390Y-98056547D02*
X145433390Y-97866071D01*
X145433390Y-97866071D02*
X145481009Y-97770833D01*
X145481009Y-97770833D02*
X145528628Y-97723214D01*
X145528628Y-97723214D02*
X145623866Y-97675595D01*
X145623866Y-97675595D02*
X145814342Y-97675595D01*
X145814342Y-97675595D02*
X145909580Y-97723214D01*
X145909580Y-97723214D02*
X145957200Y-97770833D01*
X145957200Y-97770833D02*
X146004819Y-97866071D01*
X146004819Y-97866071D02*
X146004819Y-98056547D01*
X146004819Y-98056547D02*
X145957200Y-98151785D01*
X145957200Y-98151785D02*
X145909580Y-98199404D01*
X145909580Y-98199404D02*
X145814342Y-98247023D01*
X145814342Y-98247023D02*
X145623866Y-98247023D01*
X145623866Y-98247023D02*
X145528628Y-98199404D01*
X145528628Y-98199404D02*
X145481009Y-98151785D01*
X145481009Y-98151785D02*
X145433390Y-98056547D01*
X145154819Y-101657142D02*
X144678628Y-101323809D01*
X145154819Y-101085714D02*
X144154819Y-101085714D01*
X144154819Y-101085714D02*
X144154819Y-101466666D01*
X144154819Y-101466666D02*
X144202438Y-101561904D01*
X144202438Y-101561904D02*
X144250057Y-101609523D01*
X144250057Y-101609523D02*
X144345295Y-101657142D01*
X144345295Y-101657142D02*
X144488152Y-101657142D01*
X144488152Y-101657142D02*
X144583390Y-101609523D01*
X144583390Y-101609523D02*
X144631009Y-101561904D01*
X144631009Y-101561904D02*
X144678628Y-101466666D01*
X144678628Y-101466666D02*
X144678628Y-101085714D01*
X145154819Y-102609523D02*
X145154819Y-102038095D01*
X145154819Y-102323809D02*
X144154819Y-102323809D01*
X144154819Y-102323809D02*
X144297676Y-102228571D01*
X144297676Y-102228571D02*
X144392914Y-102133333D01*
X144392914Y-102133333D02*
X144440533Y-102038095D01*
X144488152Y-103466666D02*
X145154819Y-103466666D01*
X144107200Y-103228571D02*
X144821485Y-102990476D01*
X144821485Y-102990476D02*
X144821485Y-103609523D01*
X140042857Y-113154819D02*
X140376190Y-112678628D01*
X140614285Y-113154819D02*
X140614285Y-112154819D01*
X140614285Y-112154819D02*
X140233333Y-112154819D01*
X140233333Y-112154819D02*
X140138095Y-112202438D01*
X140138095Y-112202438D02*
X140090476Y-112250057D01*
X140090476Y-112250057D02*
X140042857Y-112345295D01*
X140042857Y-112345295D02*
X140042857Y-112488152D01*
X140042857Y-112488152D02*
X140090476Y-112583390D01*
X140090476Y-112583390D02*
X140138095Y-112631009D01*
X140138095Y-112631009D02*
X140233333Y-112678628D01*
X140233333Y-112678628D02*
X140614285Y-112678628D01*
X139090476Y-113154819D02*
X139661904Y-113154819D01*
X139376190Y-113154819D02*
X139376190Y-112154819D01*
X139376190Y-112154819D02*
X139471428Y-112297676D01*
X139471428Y-112297676D02*
X139566666Y-112392914D01*
X139566666Y-112392914D02*
X139661904Y-112440533D01*
X138757142Y-112154819D02*
X138138095Y-112154819D01*
X138138095Y-112154819D02*
X138471428Y-112535771D01*
X138471428Y-112535771D02*
X138328571Y-112535771D01*
X138328571Y-112535771D02*
X138233333Y-112583390D01*
X138233333Y-112583390D02*
X138185714Y-112631009D01*
X138185714Y-112631009D02*
X138138095Y-112726247D01*
X138138095Y-112726247D02*
X138138095Y-112964342D01*
X138138095Y-112964342D02*
X138185714Y-113059580D01*
X138185714Y-113059580D02*
X138233333Y-113107200D01*
X138233333Y-113107200D02*
X138328571Y-113154819D01*
X138328571Y-113154819D02*
X138614285Y-113154819D01*
X138614285Y-113154819D02*
X138709523Y-113107200D01*
X138709523Y-113107200D02*
X138757142Y-113059580D01*
X153250057Y-113404761D02*
X153202438Y-113309523D01*
X153202438Y-113309523D02*
X153107200Y-113214285D01*
X153107200Y-113214285D02*
X152964342Y-113071428D01*
X152964342Y-113071428D02*
X152916723Y-112976190D01*
X152916723Y-112976190D02*
X152916723Y-112880952D01*
X153154819Y-112928571D02*
X153107200Y-112833333D01*
X153107200Y-112833333D02*
X153011961Y-112738095D01*
X153011961Y-112738095D02*
X152821485Y-112690476D01*
X152821485Y-112690476D02*
X152488152Y-112690476D01*
X152488152Y-112690476D02*
X152297676Y-112738095D01*
X152297676Y-112738095D02*
X152202438Y-112833333D01*
X152202438Y-112833333D02*
X152154819Y-112928571D01*
X152154819Y-112928571D02*
X152154819Y-113119047D01*
X152154819Y-113119047D02*
X152202438Y-113214285D01*
X152202438Y-113214285D02*
X152297676Y-113309523D01*
X152297676Y-113309523D02*
X152488152Y-113357142D01*
X152488152Y-113357142D02*
X152821485Y-113357142D01*
X152821485Y-113357142D02*
X153011961Y-113309523D01*
X153011961Y-113309523D02*
X153107200Y-113214285D01*
X153107200Y-113214285D02*
X153154819Y-113119047D01*
X153154819Y-113119047D02*
X153154819Y-112928571D01*
X152154819Y-114261904D02*
X152154819Y-113785714D01*
X152154819Y-113785714D02*
X152631009Y-113738095D01*
X152631009Y-113738095D02*
X152583390Y-113785714D01*
X152583390Y-113785714D02*
X152535771Y-113880952D01*
X152535771Y-113880952D02*
X152535771Y-114119047D01*
X152535771Y-114119047D02*
X152583390Y-114214285D01*
X152583390Y-114214285D02*
X152631009Y-114261904D01*
X152631009Y-114261904D02*
X152726247Y-114309523D01*
X152726247Y-114309523D02*
X152964342Y-114309523D01*
X152964342Y-114309523D02*
X153059580Y-114261904D01*
X153059580Y-114261904D02*
X153107200Y-114214285D01*
X153107200Y-114214285D02*
X153154819Y-114119047D01*
X153154819Y-114119047D02*
X153154819Y-113880952D01*
X153154819Y-113880952D02*
X153107200Y-113785714D01*
X153107200Y-113785714D02*
X153059580Y-113738095D01*
X142450057Y-113404761D02*
X142402438Y-113309523D01*
X142402438Y-113309523D02*
X142307200Y-113214285D01*
X142307200Y-113214285D02*
X142164342Y-113071428D01*
X142164342Y-113071428D02*
X142116723Y-112976190D01*
X142116723Y-112976190D02*
X142116723Y-112880952D01*
X142354819Y-112928571D02*
X142307200Y-112833333D01*
X142307200Y-112833333D02*
X142211961Y-112738095D01*
X142211961Y-112738095D02*
X142021485Y-112690476D01*
X142021485Y-112690476D02*
X141688152Y-112690476D01*
X141688152Y-112690476D02*
X141497676Y-112738095D01*
X141497676Y-112738095D02*
X141402438Y-112833333D01*
X141402438Y-112833333D02*
X141354819Y-112928571D01*
X141354819Y-112928571D02*
X141354819Y-113119047D01*
X141354819Y-113119047D02*
X141402438Y-113214285D01*
X141402438Y-113214285D02*
X141497676Y-113309523D01*
X141497676Y-113309523D02*
X141688152Y-113357142D01*
X141688152Y-113357142D02*
X142021485Y-113357142D01*
X142021485Y-113357142D02*
X142211961Y-113309523D01*
X142211961Y-113309523D02*
X142307200Y-113214285D01*
X142307200Y-113214285D02*
X142354819Y-113119047D01*
X142354819Y-113119047D02*
X142354819Y-112928571D01*
X141688152Y-114214285D02*
X142354819Y-114214285D01*
X141307200Y-113976190D02*
X142021485Y-113738095D01*
X142021485Y-113738095D02*
X142021485Y-114357142D01*
X142454819Y-102533333D02*
X141978628Y-102200000D01*
X142454819Y-101961905D02*
X141454819Y-101961905D01*
X141454819Y-101961905D02*
X141454819Y-102342857D01*
X141454819Y-102342857D02*
X141502438Y-102438095D01*
X141502438Y-102438095D02*
X141550057Y-102485714D01*
X141550057Y-102485714D02*
X141645295Y-102533333D01*
X141645295Y-102533333D02*
X141788152Y-102533333D01*
X141788152Y-102533333D02*
X141883390Y-102485714D01*
X141883390Y-102485714D02*
X141931009Y-102438095D01*
X141931009Y-102438095D02*
X141978628Y-102342857D01*
X141978628Y-102342857D02*
X141978628Y-101961905D01*
X141883390Y-103104762D02*
X141835771Y-103009524D01*
X141835771Y-103009524D02*
X141788152Y-102961905D01*
X141788152Y-102961905D02*
X141692914Y-102914286D01*
X141692914Y-102914286D02*
X141645295Y-102914286D01*
X141645295Y-102914286D02*
X141550057Y-102961905D01*
X141550057Y-102961905D02*
X141502438Y-103009524D01*
X141502438Y-103009524D02*
X141454819Y-103104762D01*
X141454819Y-103104762D02*
X141454819Y-103295238D01*
X141454819Y-103295238D02*
X141502438Y-103390476D01*
X141502438Y-103390476D02*
X141550057Y-103438095D01*
X141550057Y-103438095D02*
X141645295Y-103485714D01*
X141645295Y-103485714D02*
X141692914Y-103485714D01*
X141692914Y-103485714D02*
X141788152Y-103438095D01*
X141788152Y-103438095D02*
X141835771Y-103390476D01*
X141835771Y-103390476D02*
X141883390Y-103295238D01*
X141883390Y-103295238D02*
X141883390Y-103104762D01*
X141883390Y-103104762D02*
X141931009Y-103009524D01*
X141931009Y-103009524D02*
X141978628Y-102961905D01*
X141978628Y-102961905D02*
X142073866Y-102914286D01*
X142073866Y-102914286D02*
X142264342Y-102914286D01*
X142264342Y-102914286D02*
X142359580Y-102961905D01*
X142359580Y-102961905D02*
X142407200Y-103009524D01*
X142407200Y-103009524D02*
X142454819Y-103104762D01*
X142454819Y-103104762D02*
X142454819Y-103295238D01*
X142454819Y-103295238D02*
X142407200Y-103390476D01*
X142407200Y-103390476D02*
X142359580Y-103438095D01*
X142359580Y-103438095D02*
X142264342Y-103485714D01*
X142264342Y-103485714D02*
X142073866Y-103485714D01*
X142073866Y-103485714D02*
X141978628Y-103438095D01*
X141978628Y-103438095D02*
X141931009Y-103390476D01*
X141931009Y-103390476D02*
X141883390Y-103295238D01*
X134642857Y-99274819D02*
X134976190Y-98798628D01*
X135214285Y-99274819D02*
X135214285Y-98274819D01*
X135214285Y-98274819D02*
X134833333Y-98274819D01*
X134833333Y-98274819D02*
X134738095Y-98322438D01*
X134738095Y-98322438D02*
X134690476Y-98370057D01*
X134690476Y-98370057D02*
X134642857Y-98465295D01*
X134642857Y-98465295D02*
X134642857Y-98608152D01*
X134642857Y-98608152D02*
X134690476Y-98703390D01*
X134690476Y-98703390D02*
X134738095Y-98751009D01*
X134738095Y-98751009D02*
X134833333Y-98798628D01*
X134833333Y-98798628D02*
X135214285Y-98798628D01*
X133690476Y-99274819D02*
X134261904Y-99274819D01*
X133976190Y-99274819D02*
X133976190Y-98274819D01*
X133976190Y-98274819D02*
X134071428Y-98417676D01*
X134071428Y-98417676D02*
X134166666Y-98512914D01*
X134166666Y-98512914D02*
X134261904Y-98560533D01*
X132738095Y-99274819D02*
X133309523Y-99274819D01*
X133023809Y-99274819D02*
X133023809Y-98274819D01*
X133023809Y-98274819D02*
X133119047Y-98417676D01*
X133119047Y-98417676D02*
X133214285Y-98512914D01*
X133214285Y-98512914D02*
X133309523Y-98560533D01*
X155954819Y-101557142D02*
X155478628Y-101223809D01*
X155954819Y-100985714D02*
X154954819Y-100985714D01*
X154954819Y-100985714D02*
X154954819Y-101366666D01*
X154954819Y-101366666D02*
X155002438Y-101461904D01*
X155002438Y-101461904D02*
X155050057Y-101509523D01*
X155050057Y-101509523D02*
X155145295Y-101557142D01*
X155145295Y-101557142D02*
X155288152Y-101557142D01*
X155288152Y-101557142D02*
X155383390Y-101509523D01*
X155383390Y-101509523D02*
X155431009Y-101461904D01*
X155431009Y-101461904D02*
X155478628Y-101366666D01*
X155478628Y-101366666D02*
X155478628Y-100985714D01*
X155954819Y-102509523D02*
X155954819Y-101938095D01*
X155954819Y-102223809D02*
X154954819Y-102223809D01*
X154954819Y-102223809D02*
X155097676Y-102128571D01*
X155097676Y-102128571D02*
X155192914Y-102033333D01*
X155192914Y-102033333D02*
X155240533Y-101938095D01*
X154954819Y-103414285D02*
X154954819Y-102938095D01*
X154954819Y-102938095D02*
X155431009Y-102890476D01*
X155431009Y-102890476D02*
X155383390Y-102938095D01*
X155383390Y-102938095D02*
X155335771Y-103033333D01*
X155335771Y-103033333D02*
X155335771Y-103271428D01*
X155335771Y-103271428D02*
X155383390Y-103366666D01*
X155383390Y-103366666D02*
X155431009Y-103414285D01*
X155431009Y-103414285D02*
X155526247Y-103461904D01*
X155526247Y-103461904D02*
X155764342Y-103461904D01*
X155764342Y-103461904D02*
X155859580Y-103414285D01*
X155859580Y-103414285D02*
X155907200Y-103366666D01*
X155907200Y-103366666D02*
X155954819Y-103271428D01*
X155954819Y-103271428D02*
X155954819Y-103033333D01*
X155954819Y-103033333D02*
X155907200Y-102938095D01*
X155907200Y-102938095D02*
X155859580Y-102890476D01*
X117595238Y-91650057D02*
X117690476Y-91602438D01*
X117690476Y-91602438D02*
X117785714Y-91507200D01*
X117785714Y-91507200D02*
X117928571Y-91364342D01*
X117928571Y-91364342D02*
X118023809Y-91316723D01*
X118023809Y-91316723D02*
X118119047Y-91316723D01*
X118071428Y-91554819D02*
X118166666Y-91507200D01*
X118166666Y-91507200D02*
X118261904Y-91411961D01*
X118261904Y-91411961D02*
X118309523Y-91221485D01*
X118309523Y-91221485D02*
X118309523Y-90888152D01*
X118309523Y-90888152D02*
X118261904Y-90697676D01*
X118261904Y-90697676D02*
X118166666Y-90602438D01*
X118166666Y-90602438D02*
X118071428Y-90554819D01*
X118071428Y-90554819D02*
X117880952Y-90554819D01*
X117880952Y-90554819D02*
X117785714Y-90602438D01*
X117785714Y-90602438D02*
X117690476Y-90697676D01*
X117690476Y-90697676D02*
X117642857Y-90888152D01*
X117642857Y-90888152D02*
X117642857Y-91221485D01*
X117642857Y-91221485D02*
X117690476Y-91411961D01*
X117690476Y-91411961D02*
X117785714Y-91507200D01*
X117785714Y-91507200D02*
X117880952Y-91554819D01*
X117880952Y-91554819D02*
X118071428Y-91554819D01*
X117309523Y-90554819D02*
X116642857Y-90554819D01*
X116642857Y-90554819D02*
X117071428Y-91554819D01*
X128995238Y-104350057D02*
X129090476Y-104302438D01*
X129090476Y-104302438D02*
X129185714Y-104207200D01*
X129185714Y-104207200D02*
X129328571Y-104064342D01*
X129328571Y-104064342D02*
X129423809Y-104016723D01*
X129423809Y-104016723D02*
X129519047Y-104016723D01*
X129471428Y-104254819D02*
X129566666Y-104207200D01*
X129566666Y-104207200D02*
X129661904Y-104111961D01*
X129661904Y-104111961D02*
X129709523Y-103921485D01*
X129709523Y-103921485D02*
X129709523Y-103588152D01*
X129709523Y-103588152D02*
X129661904Y-103397676D01*
X129661904Y-103397676D02*
X129566666Y-103302438D01*
X129566666Y-103302438D02*
X129471428Y-103254819D01*
X129471428Y-103254819D02*
X129280952Y-103254819D01*
X129280952Y-103254819D02*
X129185714Y-103302438D01*
X129185714Y-103302438D02*
X129090476Y-103397676D01*
X129090476Y-103397676D02*
X129042857Y-103588152D01*
X129042857Y-103588152D02*
X129042857Y-103921485D01*
X129042857Y-103921485D02*
X129090476Y-104111961D01*
X129090476Y-104111961D02*
X129185714Y-104207200D01*
X129185714Y-104207200D02*
X129280952Y-104254819D01*
X129280952Y-104254819D02*
X129471428Y-104254819D01*
X128090476Y-104254819D02*
X128661904Y-104254819D01*
X128376190Y-104254819D02*
X128376190Y-103254819D01*
X128376190Y-103254819D02*
X128471428Y-103397676D01*
X128471428Y-103397676D02*
X128566666Y-103492914D01*
X128566666Y-103492914D02*
X128661904Y-103540533D01*
X139166666Y-110454819D02*
X139499999Y-109978628D01*
X139738094Y-110454819D02*
X139738094Y-109454819D01*
X139738094Y-109454819D02*
X139357142Y-109454819D01*
X139357142Y-109454819D02*
X139261904Y-109502438D01*
X139261904Y-109502438D02*
X139214285Y-109550057D01*
X139214285Y-109550057D02*
X139166666Y-109645295D01*
X139166666Y-109645295D02*
X139166666Y-109788152D01*
X139166666Y-109788152D02*
X139214285Y-109883390D01*
X139214285Y-109883390D02*
X139261904Y-109931009D01*
X139261904Y-109931009D02*
X139357142Y-109978628D01*
X139357142Y-109978628D02*
X139738094Y-109978628D01*
X138833332Y-109454819D02*
X138166666Y-109454819D01*
X138166666Y-109454819D02*
X138595237Y-110454819D01*
X123483333Y-69154819D02*
X123483333Y-69869104D01*
X123483333Y-69869104D02*
X123530952Y-70011961D01*
X123530952Y-70011961D02*
X123626190Y-70107200D01*
X123626190Y-70107200D02*
X123769047Y-70154819D01*
X123769047Y-70154819D02*
X123864285Y-70154819D01*
X123007142Y-70154819D02*
X123007142Y-69154819D01*
X123007142Y-69154819D02*
X122626190Y-69154819D01*
X122626190Y-69154819D02*
X122530952Y-69202438D01*
X122530952Y-69202438D02*
X122483333Y-69250057D01*
X122483333Y-69250057D02*
X122435714Y-69345295D01*
X122435714Y-69345295D02*
X122435714Y-69488152D01*
X122435714Y-69488152D02*
X122483333Y-69583390D01*
X122483333Y-69583390D02*
X122530952Y-69631009D01*
X122530952Y-69631009D02*
X122626190Y-69678628D01*
X122626190Y-69678628D02*
X123007142Y-69678628D01*
X121578571Y-69154819D02*
X121769047Y-69154819D01*
X121769047Y-69154819D02*
X121864285Y-69202438D01*
X121864285Y-69202438D02*
X121911904Y-69250057D01*
X121911904Y-69250057D02*
X122007142Y-69392914D01*
X122007142Y-69392914D02*
X122054761Y-69583390D01*
X122054761Y-69583390D02*
X122054761Y-69964342D01*
X122054761Y-69964342D02*
X122007142Y-70059580D01*
X122007142Y-70059580D02*
X121959523Y-70107200D01*
X121959523Y-70107200D02*
X121864285Y-70154819D01*
X121864285Y-70154819D02*
X121673809Y-70154819D01*
X121673809Y-70154819D02*
X121578571Y-70107200D01*
X121578571Y-70107200D02*
X121530952Y-70059580D01*
X121530952Y-70059580D02*
X121483333Y-69964342D01*
X121483333Y-69964342D02*
X121483333Y-69726247D01*
X121483333Y-69726247D02*
X121530952Y-69631009D01*
X121530952Y-69631009D02*
X121578571Y-69583390D01*
X121578571Y-69583390D02*
X121673809Y-69535771D01*
X121673809Y-69535771D02*
X121864285Y-69535771D01*
X121864285Y-69535771D02*
X121959523Y-69583390D01*
X121959523Y-69583390D02*
X122007142Y-69631009D01*
X122007142Y-69631009D02*
X122054761Y-69726247D01*
X128995238Y-112350057D02*
X129090476Y-112302438D01*
X129090476Y-112302438D02*
X129185714Y-112207200D01*
X129185714Y-112207200D02*
X129328571Y-112064342D01*
X129328571Y-112064342D02*
X129423809Y-112016723D01*
X129423809Y-112016723D02*
X129519047Y-112016723D01*
X129471428Y-112254819D02*
X129566666Y-112207200D01*
X129566666Y-112207200D02*
X129661904Y-112111961D01*
X129661904Y-112111961D02*
X129709523Y-111921485D01*
X129709523Y-111921485D02*
X129709523Y-111588152D01*
X129709523Y-111588152D02*
X129661904Y-111397676D01*
X129661904Y-111397676D02*
X129566666Y-111302438D01*
X129566666Y-111302438D02*
X129471428Y-111254819D01*
X129471428Y-111254819D02*
X129280952Y-111254819D01*
X129280952Y-111254819D02*
X129185714Y-111302438D01*
X129185714Y-111302438D02*
X129090476Y-111397676D01*
X129090476Y-111397676D02*
X129042857Y-111588152D01*
X129042857Y-111588152D02*
X129042857Y-111921485D01*
X129042857Y-111921485D02*
X129090476Y-112111961D01*
X129090476Y-112111961D02*
X129185714Y-112207200D01*
X129185714Y-112207200D02*
X129280952Y-112254819D01*
X129280952Y-112254819D02*
X129471428Y-112254819D01*
X128709523Y-111254819D02*
X128090476Y-111254819D01*
X128090476Y-111254819D02*
X128423809Y-111635771D01*
X128423809Y-111635771D02*
X128280952Y-111635771D01*
X128280952Y-111635771D02*
X128185714Y-111683390D01*
X128185714Y-111683390D02*
X128138095Y-111731009D01*
X128138095Y-111731009D02*
X128090476Y-111826247D01*
X128090476Y-111826247D02*
X128090476Y-112064342D01*
X128090476Y-112064342D02*
X128138095Y-112159580D01*
X128138095Y-112159580D02*
X128185714Y-112207200D01*
X128185714Y-112207200D02*
X128280952Y-112254819D01*
X128280952Y-112254819D02*
X128566666Y-112254819D01*
X128566666Y-112254819D02*
X128661904Y-112207200D01*
X128661904Y-112207200D02*
X128709523Y-112159580D01*
X122183333Y-80254819D02*
X122183333Y-80969104D01*
X122183333Y-80969104D02*
X122230952Y-81111961D01*
X122230952Y-81111961D02*
X122326190Y-81207200D01*
X122326190Y-81207200D02*
X122469047Y-81254819D01*
X122469047Y-81254819D02*
X122564285Y-81254819D01*
X121707142Y-81254819D02*
X121707142Y-80254819D01*
X121707142Y-80254819D02*
X121326190Y-80254819D01*
X121326190Y-80254819D02*
X121230952Y-80302438D01*
X121230952Y-80302438D02*
X121183333Y-80350057D01*
X121183333Y-80350057D02*
X121135714Y-80445295D01*
X121135714Y-80445295D02*
X121135714Y-80588152D01*
X121135714Y-80588152D02*
X121183333Y-80683390D01*
X121183333Y-80683390D02*
X121230952Y-80731009D01*
X121230952Y-80731009D02*
X121326190Y-80778628D01*
X121326190Y-80778628D02*
X121707142Y-80778628D01*
X120230952Y-80254819D02*
X120707142Y-80254819D01*
X120707142Y-80254819D02*
X120754761Y-80731009D01*
X120754761Y-80731009D02*
X120707142Y-80683390D01*
X120707142Y-80683390D02*
X120611904Y-80635771D01*
X120611904Y-80635771D02*
X120373809Y-80635771D01*
X120373809Y-80635771D02*
X120278571Y-80683390D01*
X120278571Y-80683390D02*
X120230952Y-80731009D01*
X120230952Y-80731009D02*
X120183333Y-80826247D01*
X120183333Y-80826247D02*
X120183333Y-81064342D01*
X120183333Y-81064342D02*
X120230952Y-81159580D01*
X120230952Y-81159580D02*
X120278571Y-81207200D01*
X120278571Y-81207200D02*
X120373809Y-81254819D01*
X120373809Y-81254819D02*
X120611904Y-81254819D01*
X120611904Y-81254819D02*
X120707142Y-81207200D01*
X120707142Y-81207200D02*
X120754761Y-81159580D01*
X140042857Y-107754819D02*
X140376190Y-107278628D01*
X140614285Y-107754819D02*
X140614285Y-106754819D01*
X140614285Y-106754819D02*
X140233333Y-106754819D01*
X140233333Y-106754819D02*
X140138095Y-106802438D01*
X140138095Y-106802438D02*
X140090476Y-106850057D01*
X140090476Y-106850057D02*
X140042857Y-106945295D01*
X140042857Y-106945295D02*
X140042857Y-107088152D01*
X140042857Y-107088152D02*
X140090476Y-107183390D01*
X140090476Y-107183390D02*
X140138095Y-107231009D01*
X140138095Y-107231009D02*
X140233333Y-107278628D01*
X140233333Y-107278628D02*
X140614285Y-107278628D01*
X139090476Y-107754819D02*
X139661904Y-107754819D01*
X139376190Y-107754819D02*
X139376190Y-106754819D01*
X139376190Y-106754819D02*
X139471428Y-106897676D01*
X139471428Y-106897676D02*
X139566666Y-106992914D01*
X139566666Y-106992914D02*
X139661904Y-107040533D01*
X138709523Y-106850057D02*
X138661904Y-106802438D01*
X138661904Y-106802438D02*
X138566666Y-106754819D01*
X138566666Y-106754819D02*
X138328571Y-106754819D01*
X138328571Y-106754819D02*
X138233333Y-106802438D01*
X138233333Y-106802438D02*
X138185714Y-106850057D01*
X138185714Y-106850057D02*
X138138095Y-106945295D01*
X138138095Y-106945295D02*
X138138095Y-107040533D01*
X138138095Y-107040533D02*
X138185714Y-107183390D01*
X138185714Y-107183390D02*
X138757142Y-107754819D01*
X138757142Y-107754819D02*
X138138095Y-107754819D01*
X150942857Y-103554819D02*
X151276190Y-103078628D01*
X151514285Y-103554819D02*
X151514285Y-102554819D01*
X151514285Y-102554819D02*
X151133333Y-102554819D01*
X151133333Y-102554819D02*
X151038095Y-102602438D01*
X151038095Y-102602438D02*
X150990476Y-102650057D01*
X150990476Y-102650057D02*
X150942857Y-102745295D01*
X150942857Y-102745295D02*
X150942857Y-102888152D01*
X150942857Y-102888152D02*
X150990476Y-102983390D01*
X150990476Y-102983390D02*
X151038095Y-103031009D01*
X151038095Y-103031009D02*
X151133333Y-103078628D01*
X151133333Y-103078628D02*
X151514285Y-103078628D01*
X149990476Y-103554819D02*
X150561904Y-103554819D01*
X150276190Y-103554819D02*
X150276190Y-102554819D01*
X150276190Y-102554819D02*
X150371428Y-102697676D01*
X150371428Y-102697676D02*
X150466666Y-102792914D01*
X150466666Y-102792914D02*
X150561904Y-102840533D01*
X149133333Y-102554819D02*
X149323809Y-102554819D01*
X149323809Y-102554819D02*
X149419047Y-102602438D01*
X149419047Y-102602438D02*
X149466666Y-102650057D01*
X149466666Y-102650057D02*
X149561904Y-102792914D01*
X149561904Y-102792914D02*
X149609523Y-102983390D01*
X149609523Y-102983390D02*
X149609523Y-103364342D01*
X149609523Y-103364342D02*
X149561904Y-103459580D01*
X149561904Y-103459580D02*
X149514285Y-103507200D01*
X149514285Y-103507200D02*
X149419047Y-103554819D01*
X149419047Y-103554819D02*
X149228571Y-103554819D01*
X149228571Y-103554819D02*
X149133333Y-103507200D01*
X149133333Y-103507200D02*
X149085714Y-103459580D01*
X149085714Y-103459580D02*
X149038095Y-103364342D01*
X149038095Y-103364342D02*
X149038095Y-103126247D01*
X149038095Y-103126247D02*
X149085714Y-103031009D01*
X149085714Y-103031009D02*
X149133333Y-102983390D01*
X149133333Y-102983390D02*
X149228571Y-102935771D01*
X149228571Y-102935771D02*
X149419047Y-102935771D01*
X149419047Y-102935771D02*
X149514285Y-102983390D01*
X149514285Y-102983390D02*
X149561904Y-103031009D01*
X149561904Y-103031009D02*
X149609523Y-103126247D01*
X128995238Y-108450057D02*
X129090476Y-108402438D01*
X129090476Y-108402438D02*
X129185714Y-108307200D01*
X129185714Y-108307200D02*
X129328571Y-108164342D01*
X129328571Y-108164342D02*
X129423809Y-108116723D01*
X129423809Y-108116723D02*
X129519047Y-108116723D01*
X129471428Y-108354819D02*
X129566666Y-108307200D01*
X129566666Y-108307200D02*
X129661904Y-108211961D01*
X129661904Y-108211961D02*
X129709523Y-108021485D01*
X129709523Y-108021485D02*
X129709523Y-107688152D01*
X129709523Y-107688152D02*
X129661904Y-107497676D01*
X129661904Y-107497676D02*
X129566666Y-107402438D01*
X129566666Y-107402438D02*
X129471428Y-107354819D01*
X129471428Y-107354819D02*
X129280952Y-107354819D01*
X129280952Y-107354819D02*
X129185714Y-107402438D01*
X129185714Y-107402438D02*
X129090476Y-107497676D01*
X129090476Y-107497676D02*
X129042857Y-107688152D01*
X129042857Y-107688152D02*
X129042857Y-108021485D01*
X129042857Y-108021485D02*
X129090476Y-108211961D01*
X129090476Y-108211961D02*
X129185714Y-108307200D01*
X129185714Y-108307200D02*
X129280952Y-108354819D01*
X129280952Y-108354819D02*
X129471428Y-108354819D01*
X128661904Y-107450057D02*
X128614285Y-107402438D01*
X128614285Y-107402438D02*
X128519047Y-107354819D01*
X128519047Y-107354819D02*
X128280952Y-107354819D01*
X128280952Y-107354819D02*
X128185714Y-107402438D01*
X128185714Y-107402438D02*
X128138095Y-107450057D01*
X128138095Y-107450057D02*
X128090476Y-107545295D01*
X128090476Y-107545295D02*
X128090476Y-107640533D01*
X128090476Y-107640533D02*
X128138095Y-107783390D01*
X128138095Y-107783390D02*
X128709523Y-108354819D01*
X128709523Y-108354819D02*
X128090476Y-108354819D01*
X139066666Y-105054819D02*
X139399999Y-104578628D01*
X139638094Y-105054819D02*
X139638094Y-104054819D01*
X139638094Y-104054819D02*
X139257142Y-104054819D01*
X139257142Y-104054819D02*
X139161904Y-104102438D01*
X139161904Y-104102438D02*
X139114285Y-104150057D01*
X139114285Y-104150057D02*
X139066666Y-104245295D01*
X139066666Y-104245295D02*
X139066666Y-104388152D01*
X139066666Y-104388152D02*
X139114285Y-104483390D01*
X139114285Y-104483390D02*
X139161904Y-104531009D01*
X139161904Y-104531009D02*
X139257142Y-104578628D01*
X139257142Y-104578628D02*
X139638094Y-104578628D01*
X138209523Y-104054819D02*
X138399999Y-104054819D01*
X138399999Y-104054819D02*
X138495237Y-104102438D01*
X138495237Y-104102438D02*
X138542856Y-104150057D01*
X138542856Y-104150057D02*
X138638094Y-104292914D01*
X138638094Y-104292914D02*
X138685713Y-104483390D01*
X138685713Y-104483390D02*
X138685713Y-104864342D01*
X138685713Y-104864342D02*
X138638094Y-104959580D01*
X138638094Y-104959580D02*
X138590475Y-105007200D01*
X138590475Y-105007200D02*
X138495237Y-105054819D01*
X138495237Y-105054819D02*
X138304761Y-105054819D01*
X138304761Y-105054819D02*
X138209523Y-105007200D01*
X138209523Y-105007200D02*
X138161904Y-104959580D01*
X138161904Y-104959580D02*
X138114285Y-104864342D01*
X138114285Y-104864342D02*
X138114285Y-104626247D01*
X138114285Y-104626247D02*
X138161904Y-104531009D01*
X138161904Y-104531009D02*
X138209523Y-104483390D01*
X138209523Y-104483390D02*
X138304761Y-104435771D01*
X138304761Y-104435771D02*
X138495237Y-104435771D01*
X138495237Y-104435771D02*
X138590475Y-104483390D01*
X138590475Y-104483390D02*
X138638094Y-104531009D01*
X138638094Y-104531009D02*
X138685713Y-104626247D01*
X147842857Y-103554819D02*
X148176190Y-103078628D01*
X148414285Y-103554819D02*
X148414285Y-102554819D01*
X148414285Y-102554819D02*
X148033333Y-102554819D01*
X148033333Y-102554819D02*
X147938095Y-102602438D01*
X147938095Y-102602438D02*
X147890476Y-102650057D01*
X147890476Y-102650057D02*
X147842857Y-102745295D01*
X147842857Y-102745295D02*
X147842857Y-102888152D01*
X147842857Y-102888152D02*
X147890476Y-102983390D01*
X147890476Y-102983390D02*
X147938095Y-103031009D01*
X147938095Y-103031009D02*
X148033333Y-103078628D01*
X148033333Y-103078628D02*
X148414285Y-103078628D01*
X146890476Y-103554819D02*
X147461904Y-103554819D01*
X147176190Y-103554819D02*
X147176190Y-102554819D01*
X147176190Y-102554819D02*
X147271428Y-102697676D01*
X147271428Y-102697676D02*
X147366666Y-102792914D01*
X147366666Y-102792914D02*
X147461904Y-102840533D01*
X146271428Y-102554819D02*
X146176190Y-102554819D01*
X146176190Y-102554819D02*
X146080952Y-102602438D01*
X146080952Y-102602438D02*
X146033333Y-102650057D01*
X146033333Y-102650057D02*
X145985714Y-102745295D01*
X145985714Y-102745295D02*
X145938095Y-102935771D01*
X145938095Y-102935771D02*
X145938095Y-103173866D01*
X145938095Y-103173866D02*
X145985714Y-103364342D01*
X145985714Y-103364342D02*
X146033333Y-103459580D01*
X146033333Y-103459580D02*
X146080952Y-103507200D01*
X146080952Y-103507200D02*
X146176190Y-103554819D01*
X146176190Y-103554819D02*
X146271428Y-103554819D01*
X146271428Y-103554819D02*
X146366666Y-103507200D01*
X146366666Y-103507200D02*
X146414285Y-103459580D01*
X146414285Y-103459580D02*
X146461904Y-103364342D01*
X146461904Y-103364342D02*
X146509523Y-103173866D01*
X146509523Y-103173866D02*
X146509523Y-102935771D01*
X146509523Y-102935771D02*
X146461904Y-102745295D01*
X146461904Y-102745295D02*
X146414285Y-102650057D01*
X146414285Y-102650057D02*
X146366666Y-102602438D01*
X146366666Y-102602438D02*
X146271428Y-102554819D01*
X124683333Y-76754819D02*
X124683333Y-77469104D01*
X124683333Y-77469104D02*
X124730952Y-77611961D01*
X124730952Y-77611961D02*
X124826190Y-77707200D01*
X124826190Y-77707200D02*
X124969047Y-77754819D01*
X124969047Y-77754819D02*
X125064285Y-77754819D01*
X124207142Y-77754819D02*
X124207142Y-76754819D01*
X124207142Y-76754819D02*
X123826190Y-76754819D01*
X123826190Y-76754819D02*
X123730952Y-76802438D01*
X123730952Y-76802438D02*
X123683333Y-76850057D01*
X123683333Y-76850057D02*
X123635714Y-76945295D01*
X123635714Y-76945295D02*
X123635714Y-77088152D01*
X123635714Y-77088152D02*
X123683333Y-77183390D01*
X123683333Y-77183390D02*
X123730952Y-77231009D01*
X123730952Y-77231009D02*
X123826190Y-77278628D01*
X123826190Y-77278628D02*
X124207142Y-77278628D01*
X123302380Y-76754819D02*
X122635714Y-76754819D01*
X122635714Y-76754819D02*
X123064285Y-77754819D01*
X153254819Y-102533333D02*
X152778628Y-102200000D01*
X153254819Y-101961905D02*
X152254819Y-101961905D01*
X152254819Y-101961905D02*
X152254819Y-102342857D01*
X152254819Y-102342857D02*
X152302438Y-102438095D01*
X152302438Y-102438095D02*
X152350057Y-102485714D01*
X152350057Y-102485714D02*
X152445295Y-102533333D01*
X152445295Y-102533333D02*
X152588152Y-102533333D01*
X152588152Y-102533333D02*
X152683390Y-102485714D01*
X152683390Y-102485714D02*
X152731009Y-102438095D01*
X152731009Y-102438095D02*
X152778628Y-102342857D01*
X152778628Y-102342857D02*
X152778628Y-101961905D01*
X153254819Y-103009524D02*
X153254819Y-103200000D01*
X153254819Y-103200000D02*
X153207200Y-103295238D01*
X153207200Y-103295238D02*
X153159580Y-103342857D01*
X153159580Y-103342857D02*
X153016723Y-103438095D01*
X153016723Y-103438095D02*
X152826247Y-103485714D01*
X152826247Y-103485714D02*
X152445295Y-103485714D01*
X152445295Y-103485714D02*
X152350057Y-103438095D01*
X152350057Y-103438095D02*
X152302438Y-103390476D01*
X152302438Y-103390476D02*
X152254819Y-103295238D01*
X152254819Y-103295238D02*
X152254819Y-103104762D01*
X152254819Y-103104762D02*
X152302438Y-103009524D01*
X152302438Y-103009524D02*
X152350057Y-102961905D01*
X152350057Y-102961905D02*
X152445295Y-102914286D01*
X152445295Y-102914286D02*
X152683390Y-102914286D01*
X152683390Y-102914286D02*
X152778628Y-102961905D01*
X152778628Y-102961905D02*
X152826247Y-103009524D01*
X152826247Y-103009524D02*
X152873866Y-103104762D01*
X152873866Y-103104762D02*
X152873866Y-103295238D01*
X152873866Y-103295238D02*
X152826247Y-103390476D01*
X152826247Y-103390476D02*
X152778628Y-103438095D01*
X152778628Y-103438095D02*
X152683390Y-103485714D01*
X147850057Y-113404761D02*
X147802438Y-113309523D01*
X147802438Y-113309523D02*
X147707200Y-113214285D01*
X147707200Y-113214285D02*
X147564342Y-113071428D01*
X147564342Y-113071428D02*
X147516723Y-112976190D01*
X147516723Y-112976190D02*
X147516723Y-112880952D01*
X147754819Y-112928571D02*
X147707200Y-112833333D01*
X147707200Y-112833333D02*
X147611961Y-112738095D01*
X147611961Y-112738095D02*
X147421485Y-112690476D01*
X147421485Y-112690476D02*
X147088152Y-112690476D01*
X147088152Y-112690476D02*
X146897676Y-112738095D01*
X146897676Y-112738095D02*
X146802438Y-112833333D01*
X146802438Y-112833333D02*
X146754819Y-112928571D01*
X146754819Y-112928571D02*
X146754819Y-113119047D01*
X146754819Y-113119047D02*
X146802438Y-113214285D01*
X146802438Y-113214285D02*
X146897676Y-113309523D01*
X146897676Y-113309523D02*
X147088152Y-113357142D01*
X147088152Y-113357142D02*
X147421485Y-113357142D01*
X147421485Y-113357142D02*
X147611961Y-113309523D01*
X147611961Y-113309523D02*
X147707200Y-113214285D01*
X147707200Y-113214285D02*
X147754819Y-113119047D01*
X147754819Y-113119047D02*
X147754819Y-112928571D01*
X146754819Y-114214285D02*
X146754819Y-114023809D01*
X146754819Y-114023809D02*
X146802438Y-113928571D01*
X146802438Y-113928571D02*
X146850057Y-113880952D01*
X146850057Y-113880952D02*
X146992914Y-113785714D01*
X146992914Y-113785714D02*
X147183390Y-113738095D01*
X147183390Y-113738095D02*
X147564342Y-113738095D01*
X147564342Y-113738095D02*
X147659580Y-113785714D01*
X147659580Y-113785714D02*
X147707200Y-113833333D01*
X147707200Y-113833333D02*
X147754819Y-113928571D01*
X147754819Y-113928571D02*
X147754819Y-114119047D01*
X147754819Y-114119047D02*
X147707200Y-114214285D01*
X147707200Y-114214285D02*
X147659580Y-114261904D01*
X147659580Y-114261904D02*
X147564342Y-114309523D01*
X147564342Y-114309523D02*
X147326247Y-114309523D01*
X147326247Y-114309523D02*
X147231009Y-114261904D01*
X147231009Y-114261904D02*
X147183390Y-114214285D01*
X147183390Y-114214285D02*
X147135771Y-114119047D01*
X147135771Y-114119047D02*
X147135771Y-113928571D01*
X147135771Y-113928571D02*
X147183390Y-113833333D01*
X147183390Y-113833333D02*
X147231009Y-113785714D01*
X147231009Y-113785714D02*
X147326247Y-113738095D01*
X128134819Y-97833333D02*
X127658628Y-97500000D01*
X128134819Y-97261905D02*
X127134819Y-97261905D01*
X127134819Y-97261905D02*
X127134819Y-97642857D01*
X127134819Y-97642857D02*
X127182438Y-97738095D01*
X127182438Y-97738095D02*
X127230057Y-97785714D01*
X127230057Y-97785714D02*
X127325295Y-97833333D01*
X127325295Y-97833333D02*
X127468152Y-97833333D01*
X127468152Y-97833333D02*
X127563390Y-97785714D01*
X127563390Y-97785714D02*
X127611009Y-97738095D01*
X127611009Y-97738095D02*
X127658628Y-97642857D01*
X127658628Y-97642857D02*
X127658628Y-97261905D01*
X127134819Y-98738095D02*
X127134819Y-98261905D01*
X127134819Y-98261905D02*
X127611009Y-98214286D01*
X127611009Y-98214286D02*
X127563390Y-98261905D01*
X127563390Y-98261905D02*
X127515771Y-98357143D01*
X127515771Y-98357143D02*
X127515771Y-98595238D01*
X127515771Y-98595238D02*
X127563390Y-98690476D01*
X127563390Y-98690476D02*
X127611009Y-98738095D01*
X127611009Y-98738095D02*
X127706247Y-98785714D01*
X127706247Y-98785714D02*
X127944342Y-98785714D01*
X127944342Y-98785714D02*
X128039580Y-98738095D01*
X128039580Y-98738095D02*
X128087200Y-98690476D01*
X128087200Y-98690476D02*
X128134819Y-98595238D01*
X128134819Y-98595238D02*
X128134819Y-98357143D01*
X128134819Y-98357143D02*
X128087200Y-98261905D01*
X128087200Y-98261905D02*
X128039580Y-98214286D01*
D12*
X148090000Y-93227064D02*
X148090000Y-91772936D01*
X149910000Y-93227064D02*
X149910000Y-91772936D01*
X149910000Y-86272936D02*
X149910000Y-87727064D01*
X148090000Y-86272936D02*
X148090000Y-87727064D01*
X146390000Y-96787500D02*
X146390000Y-97437500D01*
X146390000Y-98087500D02*
X146390000Y-97437500D01*
X149510000Y-96787500D02*
X149510000Y-97437500D01*
X149510000Y-98087500D02*
X149510000Y-97437500D01*
X146440000Y-96275000D02*
X146110000Y-96515000D01*
X146110000Y-96035000D01*
X146440000Y-96275000D01*
G36*
X146440000Y-96275000D02*
G01*
X146110000Y-96515000D01*
X146110000Y-96035000D01*
X146440000Y-96275000D01*
G37*
X145610000Y-107127064D02*
X145610000Y-105672936D01*
X143790000Y-107127064D02*
X143790000Y-105672936D01*
X134772936Y-111840000D02*
X136227064Y-111840000D01*
X134772936Y-113660000D02*
X136227064Y-113660000D01*
X152240000Y-110000000D02*
X151910000Y-110240000D01*
X151910000Y-109760000D01*
X152240000Y-110000000D01*
G36*
X152240000Y-110000000D02*
G01*
X151910000Y-110240000D01*
X151910000Y-109760000D01*
X152240000Y-110000000D01*
G37*
X155310000Y-111812500D02*
X155310000Y-111162500D01*
X155310000Y-110512500D02*
X155310000Y-111162500D01*
X152190000Y-111812500D02*
X152190000Y-111162500D01*
X152190000Y-110512500D02*
X152190000Y-111162500D01*
X141340000Y-110512500D02*
X141340000Y-111162500D01*
X141340000Y-111812500D02*
X141340000Y-111162500D01*
X144460000Y-110512500D02*
X144460000Y-111162500D01*
X144460000Y-111812500D02*
X144460000Y-111162500D01*
X141390000Y-110000000D02*
X141060000Y-110240000D01*
X141060000Y-109760000D01*
X141390000Y-110000000D01*
G36*
X141390000Y-110000000D02*
G01*
X141060000Y-110240000D01*
X141060000Y-109760000D01*
X141390000Y-110000000D01*
G37*
X141040000Y-107127064D02*
X141040000Y-105672936D01*
X142860000Y-107127064D02*
X142860000Y-105672936D01*
X134727064Y-97910000D02*
X133272936Y-97910000D01*
X134727064Y-96090000D02*
X133272936Y-96090000D01*
X156410000Y-107127064D02*
X156410000Y-105672936D01*
X154590000Y-107127064D02*
X154590000Y-105672936D01*
X122620000Y-108440000D02*
X122620000Y-92550000D01*
X112380000Y-92550000D02*
X122620000Y-92550000D01*
X112380000Y-108440000D02*
X122620000Y-108440000D01*
X120040000Y-110980000D02*
X120040000Y-108440000D01*
X117500000Y-110980000D02*
X117500000Y-108440000D01*
X114960000Y-110980000D02*
X114960000Y-108440000D01*
X112380000Y-108440000D02*
X112380000Y-92550000D01*
X131725000Y-100940000D02*
X131485000Y-100610000D01*
X131965000Y-100610000D01*
X131725000Y-100940000D01*
G36*
X131725000Y-100940000D02*
G01*
X131485000Y-100610000D01*
X131965000Y-100610000D01*
X131725000Y-100940000D01*
G37*
X129912500Y-104010000D02*
X130562500Y-104010000D01*
X131212500Y-104010000D02*
X130562500Y-104010000D01*
X129912500Y-100890000D02*
X130562500Y-100890000D01*
X131212500Y-100890000D02*
X130562500Y-100890000D01*
X134772936Y-109140000D02*
X136227064Y-109140000D01*
X134772936Y-110960000D02*
X136227064Y-110960000D01*
X124050000Y-71200000D02*
X124050000Y-71800000D01*
X121950000Y-70500000D02*
X123350000Y-70500000D01*
X123350000Y-72500000D02*
X121950000Y-72500000D01*
X121250000Y-71800000D02*
X121250000Y-71200000D01*
X123350000Y-70500000D02*
G75*
G02*
X124050000Y-71200000I1J-699999D01*
G01*
X124050000Y-71800000D02*
G75*
G02*
X123350000Y-72500000I-699999J-1D01*
G01*
X121250000Y-71200000D02*
G75*
G02*
X121950000Y-70500000I700000J0D01*
G01*
X121950000Y-72500000D02*
G75*
G02*
X121250000Y-71800000I0J700000D01*
G01*
X131212500Y-108890000D02*
X130562500Y-108890000D01*
X129912500Y-108890000D02*
X130562500Y-108890000D01*
X131212500Y-112010000D02*
X130562500Y-112010000D01*
X129912500Y-112010000D02*
X130562500Y-112010000D01*
X131725000Y-108940000D02*
X131485000Y-108610000D01*
X131965000Y-108610000D01*
X131725000Y-108940000D01*
G36*
X131725000Y-108940000D02*
G01*
X131485000Y-108610000D01*
X131965000Y-108610000D01*
X131725000Y-108940000D01*
G37*
X122050000Y-78000000D02*
G75*
G02*
X122750000Y-78700000I0J-700000D01*
G01*
X122750000Y-79300000D02*
G75*
G02*
X122050000Y-80000000I-700000J0D01*
G01*
X119950000Y-78700000D02*
G75*
G02*
X120650000Y-78000000I699999J1D01*
G01*
X120650000Y-80000000D02*
G75*
G02*
X119950000Y-79300000I-1J699999D01*
G01*
X122750000Y-78700000D02*
X122750000Y-79300000D01*
X120650000Y-78000000D02*
X122050000Y-78000000D01*
X122050000Y-80000000D02*
X120650000Y-80000000D01*
X119950000Y-79300000D02*
X119950000Y-78700000D01*
X134772936Y-108260000D02*
X136227064Y-108260000D01*
X134772936Y-106440000D02*
X136227064Y-106440000D01*
X149190000Y-107127064D02*
X149190000Y-105672936D01*
X151010000Y-107127064D02*
X151010000Y-105672936D01*
X131212500Y-104990000D02*
X130562500Y-104990000D01*
X129912500Y-104990000D02*
X130562500Y-104990000D01*
X131212500Y-108110000D02*
X130562500Y-108110000D01*
X129912500Y-108110000D02*
X130562500Y-108110000D01*
X131725000Y-105040000D02*
X131485000Y-104710000D01*
X131965000Y-104710000D01*
X131725000Y-105040000D01*
G36*
X131725000Y-105040000D02*
G01*
X131485000Y-104710000D01*
X131965000Y-104710000D01*
X131725000Y-105040000D01*
G37*
X134772936Y-105560000D02*
X136227064Y-105560000D01*
X134772936Y-103740000D02*
X136227064Y-103740000D01*
X146490000Y-107127064D02*
X146490000Y-105672936D01*
X148310000Y-107127064D02*
X148310000Y-105672936D01*
X122450000Y-75800000D02*
X122450000Y-75200000D01*
X124550000Y-76500000D02*
X123150000Y-76500000D01*
X123150000Y-74500000D02*
X124550000Y-74500000D01*
X125250000Y-75200000D02*
X125250000Y-75800000D01*
X123150000Y-76500000D02*
G75*
G02*
X122450000Y-75800000I-1J699999D01*
G01*
X122450000Y-75200000D02*
G75*
G02*
X123150000Y-74500000I699999J1D01*
G01*
X125250000Y-75800000D02*
G75*
G02*
X124550000Y-76500000I-700000J0D01*
G01*
X124550000Y-74500000D02*
G75*
G02*
X125250000Y-75200000I0J-700000D01*
G01*
X151890000Y-107127064D02*
X151890000Y-105672936D01*
X153710000Y-107127064D02*
X153710000Y-105672936D01*
X146790000Y-110462500D02*
X146790000Y-111112500D01*
X146790000Y-111762500D02*
X146790000Y-111112500D01*
X149910000Y-110462500D02*
X149910000Y-111112500D01*
X149910000Y-111762500D02*
X149910000Y-111112500D01*
X146840000Y-109950000D02*
X146510000Y-110190000D01*
X146510000Y-109710000D01*
X146840000Y-109950000D01*
G36*
X146840000Y-109950000D02*
G01*
X146510000Y-110190000D01*
X146510000Y-109710000D01*
X146840000Y-109950000D01*
G37*
X128590000Y-98727064D02*
X128590000Y-97272936D01*
X130410000Y-98727064D02*
X130410000Y-97272936D01*
%LPC*%
D13*
X161960000Y-103500000D03*
D14*
X159420000Y-103500000D03*
X164500000Y-103500000D03*
D15*
X149000000Y-90950000D03*
X149000000Y-94050000D03*
D16*
X149000000Y-88550000D03*
X149000000Y-85450000D03*
D17*
X147000000Y-96500000D03*
X148900000Y-96500000D03*
X147950000Y-98375000D03*
D18*
X150000000Y-101000000D03*
D19*
X147500000Y-101000000D03*
D20*
X135000000Y-101000000D03*
X137500000Y-101000000D03*
D21*
X140000000Y-101000000D03*
D22*
X109625000Y-67000000D03*
X108856155Y-68856155D03*
X108856155Y-65143845D03*
X107000000Y-69625000D03*
D23*
X107000000Y-67000000D03*
D22*
X107000000Y-64375000D03*
X105143845Y-68856155D03*
X105143845Y-65143845D03*
X104375000Y-67000000D03*
X158875000Y-67000000D03*
X159643845Y-65143845D03*
X159643845Y-68856155D03*
X161500000Y-64375000D03*
D23*
X161500000Y-67000000D03*
D22*
X161500000Y-69625000D03*
X163356155Y-65143845D03*
X163356155Y-68856155D03*
X164125000Y-67000000D03*
X104375000Y-114500000D03*
X105143845Y-112643845D03*
X105143845Y-116356155D03*
X107000000Y-111875000D03*
D23*
X107000000Y-114500000D03*
D22*
X107000000Y-117125000D03*
X108856155Y-112643845D03*
X108856155Y-116356155D03*
X109625000Y-114500000D03*
X164125000Y-114500000D03*
X163356155Y-116356155D03*
X163356155Y-112643845D03*
X161500000Y-117125000D03*
D23*
X161500000Y-114500000D03*
D22*
X161500000Y-111875000D03*
X159643845Y-116356155D03*
X159643845Y-112643845D03*
X158875000Y-114500000D03*
D15*
X144700000Y-107950000D03*
X144700000Y-104850000D03*
D24*
X151250000Y-116000000D03*
D19*
X153750000Y-116000000D03*
D25*
X137050000Y-112750000D03*
X133950000Y-112750000D03*
D20*
X135000000Y-92000000D03*
X137500000Y-92000000D03*
X140000000Y-92000000D03*
X142500000Y-92000000D03*
D21*
X145000000Y-92000000D03*
D17*
X153750000Y-112100000D03*
X154700000Y-110225000D03*
X152800000Y-110225000D03*
D14*
X130000000Y-74500000D03*
X129329063Y-72900000D03*
D26*
X126829063Y-72900000D03*
X126158126Y-71300000D03*
D17*
X141950000Y-110225000D03*
X143850000Y-110225000D03*
X142900000Y-112100000D03*
D15*
X141950000Y-104850000D03*
X141950000Y-107950000D03*
D24*
X142250000Y-116000000D03*
D19*
X144750000Y-116000000D03*
D27*
X132450000Y-97000000D03*
X135550000Y-97000000D03*
D15*
X155500000Y-107950000D03*
X155500000Y-104850000D03*
D28*
X117500000Y-95470000D03*
D29*
X120040000Y-112130000D03*
D30*
X117500000Y-112130000D03*
X114960000Y-112130000D03*
D31*
X129625000Y-102450000D03*
X131500000Y-103400000D03*
X131500000Y-101500000D03*
D25*
X137050000Y-110050000D03*
X133950000Y-110050000D03*
D32*
X123300000Y-71500000D03*
D33*
X122000000Y-71500000D03*
D31*
X131500000Y-109500000D03*
X131500000Y-111400000D03*
X129625000Y-110450000D03*
D34*
X122000000Y-79000000D03*
D35*
X120700000Y-79000000D03*
D24*
X133250000Y-116000000D03*
D19*
X135750000Y-116000000D03*
D25*
X133950000Y-107350000D03*
X137050000Y-107350000D03*
D15*
X150100000Y-104850000D03*
X150100000Y-107950000D03*
D31*
X131500000Y-105600000D03*
X131500000Y-107500000D03*
X129625000Y-106550000D03*
D36*
X126341874Y-63500000D03*
D20*
X128841874Y-63500000D03*
X131341874Y-63500000D03*
D25*
X133950000Y-104650000D03*
X137050000Y-104650000D03*
D24*
X106250000Y-87975000D03*
D19*
X108750000Y-87975000D03*
D37*
X155120000Y-66140000D03*
X139880000Y-81380000D03*
X139880000Y-78840000D03*
X139880000Y-76300000D03*
X139880000Y-73760000D03*
X139880000Y-71220000D03*
X139880000Y-68680000D03*
X139880000Y-66140000D03*
X155120000Y-63600000D03*
X139880000Y-63600000D03*
X155120000Y-71220000D03*
X155120000Y-68680000D03*
X155120000Y-73760000D03*
X155120000Y-76300000D03*
X155120000Y-78840000D03*
X155120000Y-81380000D03*
D38*
X163025000Y-74500000D03*
D39*
X163025000Y-77000000D03*
X163025000Y-79500000D03*
X163025000Y-82000000D03*
X163025000Y-84500000D03*
D24*
X153000000Y-92000000D03*
D19*
X155500000Y-92000000D03*
D40*
X117341874Y-74500000D03*
D41*
X117341874Y-68500000D03*
D42*
X112641874Y-71500000D03*
D15*
X147400000Y-104850000D03*
X147400000Y-107950000D03*
D43*
X127000000Y-109000000D03*
D39*
X127000000Y-106500000D03*
X127000000Y-104000000D03*
X127000000Y-101500000D03*
D35*
X123200000Y-75500000D03*
D34*
X124500000Y-75500000D03*
D15*
X152800000Y-104850000D03*
X152800000Y-107950000D03*
D38*
X163000000Y-91000000D03*
D39*
X163000000Y-93500000D03*
X163000000Y-96000000D03*
D36*
X126341874Y-81500000D03*
D20*
X128841874Y-81500000D03*
X131341874Y-81500000D03*
D14*
X127670937Y-94100000D03*
X127000000Y-92500000D03*
D26*
X124500000Y-92500000D03*
X123829063Y-90900000D03*
D17*
X147400000Y-110175000D03*
X149300000Y-110175000D03*
X148350000Y-112050000D03*
D19*
X108750000Y-97000000D03*
D24*
X106250000Y-97000000D03*
D26*
X105658126Y-76800000D03*
X106329063Y-78400000D03*
D14*
X108829063Y-78400000D03*
X109500000Y-80000000D03*
D15*
X129500000Y-96450000D03*
X129500000Y-99550000D03*
%LPD*%
M02*
