G04 #@! TF.GenerationSoftware,KiCad,Pcbnew,8.0.5-8.0.5-0~ubuntu24.04.1*
G04 #@! TF.CreationDate,2024-09-30T22:34:35+02:00*
G04 #@! TF.ProjectId,ESP32-C3_LED_driver_PCB,45535033-322d-4433-935f-4c45445f6472,v1.0*
G04 #@! TF.SameCoordinates,Original*
G04 #@! TF.FileFunction,Soldermask,Top*
G04 #@! TF.FilePolarity,Negative*
%FSLAX46Y46*%
G04 Gerber Fmt 4.6, Leading zero omitted, Abs format (unit mm)*
G04 Created by KiCad (PCBNEW 8.0.5-8.0.5-0~ubuntu24.04.1) date 2024-09-30 22:34:35*
%MOMM*%
%LPD*%
G01*
G04 APERTURE LIST*
G04 Aperture macros list*
%AMRoundRect*
0 Rectangle with rounded corners*
0 $1 Rounding radius*
0 $2 $3 $4 $5 $6 $7 $8 $9 X,Y pos of 4 corners*
0 Add a 4 corners polygon primitive as box body*
4,1,4,$2,$3,$4,$5,$6,$7,$8,$9,$2,$3,0*
0 Add four circle primitives for the rounded corners*
1,1,$1+$1,$2,$3*
1,1,$1+$1,$4,$5*
1,1,$1+$1,$6,$7*
1,1,$1+$1,$8,$9*
0 Add four rect primitives between the rounded corners*
20,1,$1+$1,$2,$3,$4,$5,0*
20,1,$1+$1,$4,$5,$6,$7,0*
20,1,$1+$1,$6,$7,$8,$9,0*
20,1,$1+$1,$8,$9,$2,$3,0*%
%AMFreePoly0*
4,1,19,0.000000,0.744911,0.071157,0.744911,0.207708,0.704816,0.327430,0.627875,0.420627,0.520320,0.479746,0.390866,0.500000,0.250000,0.500000,-0.250000,0.479746,-0.390866,0.420627,-0.520320,0.327430,-0.627875,0.207708,-0.704816,0.071157,-0.744911,0.000000,-0.744911,0.000000,-0.750000,-0.500000,-0.750000,-0.500000,0.750000,0.000000,0.750000,0.000000,0.744911,0.000000,0.744911,
$1*%
%AMFreePoly1*
4,1,19,0.500000,-0.750000,0.000000,-0.750000,0.000000,-0.744911,-0.071157,-0.744911,-0.207708,-0.704816,-0.327430,-0.627875,-0.420627,-0.520320,-0.479746,-0.390866,-0.500000,-0.250000,-0.500000,0.250000,-0.479746,0.390866,-0.420627,0.520320,-0.327430,0.627875,-0.207708,0.704816,-0.071157,0.744911,0.000000,0.744911,0.000000,0.750000,0.500000,0.750000,0.500000,-0.750000,0.500000,-0.750000,
$1*%
%AMFreePoly2*
4,1,19,0.550000,-0.750000,0.000000,-0.750000,0.000000,-0.744911,-0.071157,-0.744911,-0.207708,-0.704816,-0.327430,-0.627875,-0.420627,-0.520320,-0.479746,-0.390866,-0.500000,-0.250000,-0.500000,0.250000,-0.479746,0.390866,-0.420627,0.520320,-0.327430,0.627875,-0.207708,0.704816,-0.071157,0.744911,0.000000,0.744911,0.000000,0.750000,0.550000,0.750000,0.550000,-0.750000,0.550000,-0.750000,
$1*%
%AMFreePoly3*
4,1,19,0.000000,0.744911,0.071157,0.744911,0.207708,0.704816,0.327430,0.627875,0.420627,0.520320,0.479746,0.390866,0.500000,0.250000,0.500000,-0.250000,0.479746,-0.390866,0.420627,-0.520320,0.327430,-0.627875,0.207708,-0.704816,0.071157,-0.744911,0.000000,-0.744911,0.000000,-0.750000,-0.550000,-0.750000,-0.550000,0.750000,0.000000,0.750000,0.000000,0.744911,0.000000,0.744911,
$1*%
G04 Aperture macros list end*
%ADD10FreePoly0,0.000000*%
%ADD11FreePoly1,0.000000*%
%ADD12R,1.500000X1.500000*%
%ADD13C,1.600000*%
%ADD14RoundRect,0.250000X0.600000X0.750000X-0.600000X0.750000X-0.600000X-0.750000X0.600000X-0.750000X0*%
%ADD15O,1.700000X2.000000*%
%ADD16O,1.700000X1.950000*%
%ADD17RoundRect,0.250000X0.600000X0.725000X-0.600000X0.725000X-0.600000X-0.725000X0.600000X-0.725000X0*%
%ADD18C,0.800000*%
%ADD19C,7.000000*%
%ADD20RoundRect,0.250000X-0.600000X-0.750000X0.600000X-0.750000X0.600000X0.750000X-0.600000X0.750000X0*%
%ADD21R,1.500000X2.500000*%
%ADD22RoundRect,0.250000X0.412500X0.650000X-0.412500X0.650000X-0.412500X-0.650000X0.412500X-0.650000X0*%
%ADD23R,1.600000X1.600000*%
%ADD24O,3.500000X3.500000*%
%ADD25R,1.905000X2.000000*%
%ADD26O,1.905000X2.000000*%
%ADD27FreePoly1,270.000000*%
%ADD28FreePoly0,270.000000*%
%ADD29RoundRect,0.100000X-0.637500X-0.100000X0.637500X-0.100000X0.637500X0.100000X-0.637500X0.100000X0*%
%ADD30RoundRect,0.250000X-0.412500X-0.650000X0.412500X-0.650000X0.412500X0.650000X-0.412500X0.650000X0*%
%ADD31RoundRect,0.250000X0.625000X-0.400000X0.625000X0.400000X-0.625000X0.400000X-0.625000X-0.400000X0*%
%ADD32RoundRect,0.250000X-0.600000X-0.725000X0.600000X-0.725000X0.600000X0.725000X-0.600000X0.725000X0*%
%ADD33C,2.109000*%
%ADD34RoundRect,0.250000X-0.725000X0.600000X-0.725000X-0.600000X0.725000X-0.600000X0.725000X0.600000X0*%
%ADD35O,1.950000X1.700000*%
%ADD36R,3.500000X3.500000*%
%ADD37RoundRect,0.750000X-1.000000X0.750000X-1.000000X-0.750000X1.000000X-0.750000X1.000000X0.750000X0*%
%ADD38RoundRect,0.875000X-0.875000X0.875000X-0.875000X-0.875000X0.875000X-0.875000X0.875000X0.875000X0*%
%ADD39FreePoly2,90.000000*%
%ADD40R,1.500000X1.000000*%
%ADD41FreePoly3,90.000000*%
%ADD42RoundRect,0.250000X0.725000X-0.600000X0.725000X0.600000X-0.725000X0.600000X-0.725000X-0.600000X0*%
%ADD43RoundRect,0.098000X-0.609000X-0.294000X0.609000X-0.294000X0.609000X0.294000X-0.609000X0.294000X0*%
%ADD44RoundRect,0.250000X-0.625000X0.400000X-0.625000X-0.400000X0.625000X-0.400000X0.625000X0.400000X0*%
%ADD45FreePoly2,180.000000*%
%ADD46R,1.000000X1.500000*%
%ADD47FreePoly3,180.000000*%
%ADD48FreePoly3,270.000000*%
%ADD49FreePoly2,270.000000*%
G04 APERTURE END LIST*
D10*
X162900000Y-107000000D03*
D11*
X161600000Y-107000000D03*
D12*
X161960000Y-103500000D03*
D13*
X159420000Y-103500000D03*
X164500000Y-103500000D03*
D14*
X150000000Y-101000000D03*
D15*
X147500000Y-101000000D03*
D16*
X135000000Y-101000000D03*
X137500000Y-101000000D03*
D17*
X140000000Y-101000000D03*
D18*
X109625000Y-67000000D03*
X108856155Y-68856155D03*
X108856155Y-65143845D03*
X107000000Y-69625000D03*
D19*
X107000000Y-67000000D03*
D18*
X107000000Y-64375000D03*
X105143845Y-68856155D03*
X105143845Y-65143845D03*
X104375000Y-67000000D03*
X158875000Y-67000000D03*
X159643845Y-65143845D03*
X159643845Y-68856155D03*
X161500000Y-64375000D03*
D19*
X161500000Y-67000000D03*
D18*
X161500000Y-69625000D03*
X163356155Y-65143845D03*
X163356155Y-68856155D03*
X164125000Y-67000000D03*
X104375000Y-114500000D03*
X105143845Y-112643845D03*
X105143845Y-116356155D03*
X107000000Y-111875000D03*
D19*
X107000000Y-114500000D03*
D18*
X107000000Y-117125000D03*
X108856155Y-112643845D03*
X108856155Y-116356155D03*
X109625000Y-114500000D03*
X164125000Y-114500000D03*
X163356155Y-116356155D03*
X163356155Y-112643845D03*
X161500000Y-117125000D03*
D19*
X161500000Y-114500000D03*
D18*
X161500000Y-111875000D03*
X159643845Y-116356155D03*
X159643845Y-112643845D03*
X158875000Y-114500000D03*
D20*
X151250000Y-116000000D03*
D15*
X153750000Y-116000000D03*
D21*
X122350000Y-102850000D03*
X118650000Y-102850000D03*
D22*
X149562500Y-69000000D03*
X146437500Y-69000000D03*
X122062500Y-98850000D03*
X118937500Y-98850000D03*
D16*
X135000000Y-92000000D03*
X137500000Y-92000000D03*
X140000000Y-92000000D03*
X142500000Y-92000000D03*
D17*
X145000000Y-92000000D03*
D13*
X130000000Y-74500000D03*
X129329063Y-72900000D03*
D23*
X126829063Y-72900000D03*
X126158126Y-71300000D03*
D20*
X142250000Y-116000000D03*
D15*
X144750000Y-116000000D03*
D24*
X117500000Y-95470000D03*
D25*
X120040000Y-112130000D03*
D26*
X117500000Y-112130000D03*
X114960000Y-112130000D03*
D27*
X136000000Y-62450000D03*
D28*
X136000000Y-63750000D03*
D11*
X146200000Y-65500000D03*
D10*
X147500000Y-65500000D03*
D29*
X145137500Y-72050000D03*
X145137500Y-72700000D03*
X145137500Y-73350000D03*
X145137500Y-74000000D03*
X145137500Y-74650000D03*
X145137500Y-75300000D03*
X145137500Y-75950000D03*
X150862500Y-75950000D03*
X150862500Y-75300000D03*
X150862500Y-74650000D03*
X150862500Y-74000000D03*
X150862500Y-73350000D03*
X150862500Y-72700000D03*
X150862500Y-72050000D03*
D30*
X115562500Y-105350000D03*
X112437500Y-105350000D03*
D20*
X133250000Y-116000000D03*
D15*
X135750000Y-116000000D03*
D31*
X136000000Y-74050000D03*
X136000000Y-70950000D03*
D32*
X126341874Y-63500000D03*
D16*
X128841874Y-63500000D03*
X131341874Y-63500000D03*
D20*
X106250000Y-87975000D03*
D15*
X108750000Y-87975000D03*
D33*
X155120000Y-66140000D03*
X139880000Y-81380000D03*
X139880000Y-78840000D03*
X139880000Y-76300000D03*
X139880000Y-73760000D03*
X139880000Y-71220000D03*
X139880000Y-68680000D03*
X139880000Y-66140000D03*
X155120000Y-63600000D03*
X139880000Y-63600000D03*
X155120000Y-71220000D03*
X155120000Y-68680000D03*
X155120000Y-73760000D03*
X155120000Y-76300000D03*
X155120000Y-78840000D03*
X155120000Y-81380000D03*
D34*
X163025000Y-74500000D03*
D35*
X163025000Y-77000000D03*
X163025000Y-79500000D03*
X163025000Y-82000000D03*
X163025000Y-84500000D03*
D20*
X153000000Y-92000000D03*
D15*
X155500000Y-92000000D03*
D36*
X117341874Y-74500000D03*
D37*
X117341874Y-68500000D03*
D38*
X112641874Y-71500000D03*
D39*
X143500000Y-68600000D03*
D40*
X143500000Y-67300000D03*
D41*
X143500000Y-66000000D03*
D42*
X127000000Y-109000000D03*
D35*
X127000000Y-106500000D03*
X127000000Y-104000000D03*
X127000000Y-101500000D03*
D30*
X112937500Y-99300000D03*
X116062500Y-99300000D03*
D43*
X112990000Y-101350000D03*
X112990000Y-102300000D03*
X112990000Y-103250000D03*
X115500000Y-103250000D03*
X115500000Y-102300000D03*
X115500000Y-101350000D03*
D31*
X107500000Y-107400000D03*
X107500000Y-104300000D03*
D34*
X163000000Y-91000000D03*
D35*
X163000000Y-93500000D03*
X163000000Y-96000000D03*
D32*
X126341874Y-81500000D03*
D16*
X128841874Y-81500000D03*
X131341874Y-81500000D03*
D44*
X136000000Y-65900000D03*
X136000000Y-69000000D03*
D13*
X127670937Y-94100000D03*
X127000000Y-92500000D03*
D23*
X124500000Y-92500000D03*
X123829063Y-90900000D03*
D44*
X110000000Y-104300000D03*
X110000000Y-107400000D03*
D45*
X119500000Y-89000000D03*
D46*
X118200000Y-89000000D03*
D47*
X116900000Y-89000000D03*
D15*
X108750000Y-97000000D03*
D20*
X106250000Y-97000000D03*
D23*
X105658126Y-76800000D03*
X106329063Y-78400000D03*
D13*
X108829063Y-78400000D03*
X109500000Y-80000000D03*
D48*
X154950000Y-101300000D03*
D40*
X154950000Y-100000000D03*
D49*
X154950000Y-98700000D03*
M02*
